<?xml version="1.0" encoding="UTF-8" standalone="no"?>
<!-- Creator: CorelDRAW X7 -->

<svg
   xmlns:dc="http://purl.org/dc/elements/1.1/"
   xmlns:cc="http://creativecommons.org/ns#"
   xmlns:rdf="http://www.w3.org/1999/02/22-rdf-syntax-ns#"
   xmlns:svg="http://www.w3.org/2000/svg"
   xmlns="http://www.w3.org/2000/svg"
   xmlns:sodipodi="http://sodipodi.sourceforge.net/DTD/sodipodi-0.dtd"
   xmlns:inkscape="http://www.inkscape.org/namespaces/inkscape"
   xml:space="preserve"
   width="600"
   height="600"
   version="1.1"
   style="clip-rule:evenodd;fill-rule:evenodd;image-rendering:optimizeQuality;shape-rendering:geometricPrecision;text-rendering:geometricPrecision"
   viewBox="0 0 15875 15875"
   id="svg2"
   inkscape:version="0.92.3 (2405546, 2018-03-11)"
   sodipodi:docname="logohosana_icon2.svg"><metadata
     id="metadata254"><rdf:RDF><cc:Work
         rdf:about=""><dc:format>image/svg+xml</dc:format><dc:type
           rdf:resource="http://purl.org/dc/dcmitype/StillImage" /><dc:title></dc:title></cc:Work></rdf:RDF></metadata><sodipodi:namedview
     pagecolor="#ffffff"
     bordercolor="#666666"
     borderopacity="1"
     objecttolerance="10"
     gridtolerance="10"
     guidetolerance="10"
     inkscape:pageopacity="0"
     inkscape:pageshadow="2"
     inkscape:window-width="1600"
     inkscape:window-height="837"
     id="namedview252"
     showgrid="false"
     inkscape:zoom="0.45331146"
     inkscape:cx="396.31271"
     inkscape:cy="364.31559"
     inkscape:window-x="892"
     inkscape:window-y="394"
     inkscape:window-maximized="1"
     inkscape:current-layer="svg2"
     units="px" /><defs
     id="defs4"><style
       type="text/css"
       id="style6"><![CDATA[
    .str0 {stroke:#373435;stroke-width:7.62}
    .fil15 {fill:#FEFEFE}
    .fil1 {fill:#BDBFC1}
    .fil7 {fill:#373435}
    .fil2 {fill:#FFF212}
    .fil8 {fill:#84716B}
    .fil9 {fill:#A98F71}
    .fil14 {fill:#F6997E}
    .fil10 {fill:#A45E4D}
    .fil11 {fill:#CB7246}
    .fil13 {fill:#ED3237}
    .fil12 {fill:#00A859}
    .fil0 {fill:#0098DA}
    .fil4 {fill:#1F1A17}
    .fil5 {fill:#B7683E}
    .fil16 {fill:#373435;fill-rule:nonzero}
    .fil6 {fill:#CB7246;fill-rule:nonzero}
    .fil3 {fill:#0098DA;fill-rule:nonzero}
   ]]></style></defs><path
     style="fill:none;fill-opacity:1;stroke-width:0.99999994"
     d="M -1.1035156 -0.029296875 L -1.1035156 604.41211 L 601.13281 604.41211 L 601.13281 -0.029296875 L -1.1035156 -0.029296875 z M 298.91211 31.986328 A 268.01316 268.01316 0 0 1 566.92383 300 A 268.01316 268.01316 0 0 1 298.91211 568.01367 A 268.01316 268.01316 0 0 1 30.898438 300 A 268.01316 268.01316 0 0 1 298.91211 31.986328 z "
     transform="scale(26.458333)"
     id="rect4892" /><path
     style="fill:#0098da;stroke-width:0.03631302"
     d="M 298.91211 31.986328 A 268.01316 268.01316 0 0 0 205.71289 48.898438 L 205.71289 145.69531 L 103.56445 145.76758 L 299.91016 341.16797 L 496.43555 145.69531 L 394.28711 145.69531 L 394.28711 49.861328 A 268.01316 268.01316 0 0 0 298.91211 31.986328 z "
     transform="scale(26.458333)"
     id="path10" /><path
     style="fill:#0098da;fill-rule:nonzero;stroke-width:0.96078193"
     inkscape:connector-curvature="0"
     id="path16"
     d="m 7937.0198,0.4802077 h 0.9607 v 0.96078 c 2191.5435,0 4175.5585,887.7624823 5611.9275,2324.1320123 1435.408,1436.3689 2324.131,3420.3836 2324.131,5611.9273 h 0.961 v 0 0 h -0.961 c 0,2192.5047 -888.723,4176.5187 -2324.131,5612.8877 -1436.369,1435.409 -3420.384,2324.132 -5611.9275,2324.132 v 0 h -0.9607 v 0 0 c -2191.5437,0 -4175.5584,-888.723 -5611.9274,-2325.092 C 888.72356,12114.019 0.9610496,10130.005 0.9610496,7938.461 h -0.96078 v -0.9607 0 h 0.96078 C 0.9610496,5745.9566 889.68434,3761.9419 2325.0924,2325.573 3761.4614,889.20347 5745.4761,1.4409877 7937.0198,1.4409877 Z m 0.9607,274.7836323 v 0.96078 h -0.9607 v 0 -0.96078 c -2114.6811,0 -4030.4803,857.97836 -5416.8887,2245.34786 C 1132.7621,3907.02 274.7839,5822.8192 274.7839,7937.5003 h 0.96078 v 0 0.9607 h -0.96078 c 0.96078,2114.681 857.9782,4029.52 2245.3472,5416.889 1386.4084,1386.408 3302.2076,2244.386 5416.8887,2244.386 v 0 0 h 0.9607 v 0 c 2114.6815,0 4029.5195,-857.978 5416.8885,-2244.386 1386.408,-1387.369 2244.387,-3302.208 2244.387,-5417.8497 v 0 0 0 0 c 0,-2114.6811 -857.979,-4030.4803 -2244.387,-5416.8886 C 11967.5,1133.2422 10052.662,275.26384 7937.9805,275.26384 Z"
     class="fil3" /><path
     style="fill:#0098da;stroke-width:0.96078199"
     d="m 4848.9648,11964.997 661.0598,-678.979 -3500.3778,-3422.6276 3700.1877,-1.9129 2225.2503,2246.8015 2314.3692,-2246.8015 h 1366.404 v 4110.8145 z"
     id="path232"
     inkscape:connector-curvature="0"
     sodipodi:nodetypes="ccccccccc" /><polygon
     style="fill:#0098da"
     id="polygon234"
     points="18558,10003 15887,12674 15887,7331 "
     class="fil0"
     transform="matrix(1.3475257,0,0,1.3475257,-10341.575,-3495.0907)" /><path
     style="clip-rule:evenodd;fill:#0098da;fill-rule:evenodd;stroke-width:0.04886573;image-rendering:optimizeQuality;shape-rendering:geometricPrecision;text-rendering:geometricPrecision"
     d="M 39.251953 297.5293 L 39.251953 365.39453 A 268.01316 268.01316 0 0 0 108.97656 488.89453 L 169.77148 428.09961 L 39.251953 297.5293 z "
     transform="scale(26.458333)"
     id="polygon234-4" /><path
     style="clip-rule:evenodd;fill:#ffffff;fill-opacity:1;fill-rule:evenodd;stroke-width:1.56953228;image-rendering:optimizeQuality;shape-rendering:geometricPrecision;text-rendering:geometricPrecision"
     inkscape:connector-curvature="0"
     id="path230"
     d="m 7744.815,2226.8667 c 40.808,208.7477 -113.0059,568.171 -241.7077,638.7993 -39.2386,-298.2102 -178.927,-500.6799 -356.2841,-750.2366 l -97.3112,337.451 c -51.7944,-166.3706 -111.4365,-328.0331 -213.4562,-472.4305 l -76.9072,243.2769 c -18.8345,-229.1509 -62.7813,-428.4816 -230.7213,-585.4342 l -91.0328,390.8125 c -106.728,-236.9998 -80.0461,-365.7012 -328.0322,-497.5409 9.4171,299.781 50.2249,597.9912 106.7283,893.0642 29.8211,163.2314 31.3905,169.5095 94.1719,307.6281 89.4633,199.3306 47.0859,91.0323 141.2579,241.7078 l 113.0065,200.9015 160.0921,136.5494 123.9931,128.7007 164.8007,100.4502 147.5364,207.1773 c 109.867,123.9937 83.1851,15.6961 113.0064,200.901 l 17.2648,113.0074 -70.6291,425.3434 c -7.8476,178.9265 48.6556,293.5019 189.9134,395.5223 64.3507,-134.9795 125.5624,-273.0992 191.4831,-408.0799 6.2779,-10.9858 14.126,-25.1119 26.682,-29.8198 72.1985,-23.5442 164.8011,-54.935 236.9995,-80.046 l 194.6219,-102.0203 c 116.1456,-39.2394 197.7606,-54.9344 415.9264,-123.9937 219.7343,-70.6281 461.4428,-309.1981 629.383,-467.7203 323.3239,-306.058 269.9593,-313.9053 502.2495,-608.9791 144.3971,-174.2185 255.8342,-342.1572 313.9066,-568.1708 l 76.9086,-459.8727 c -53.3653,72.1983 -210.3198,337.4493 -364.1334,406.5076 l -210.3162,189.9145 c 45.5161,-271.5289 51.7942,-219.7338 51.7942,-491.2646 -80.0459,106.7284 -131.8407,233.8617 -211.8872,340.5891 -163.2316,211.8877 -353.1439,400.2305 -558.7534,593.284 l -266.8209,232.2898 c 0,-282.5149 25.1126,-375.1182 70.6296,-651.3552 36.0993,-139.6884 117.7148,-370.4102 134.9789,-590.1441 l 42.3775,-467.7206 -324.8933,384.5345 -189.913,295.072 c -14.126,-119.2836 -45.5163,-222.8737 -94.1719,-306.0581 1.5693,87.8924 -10.9871,171.0786 -42.3776,247.985 -72.1986,-53.3625 -48.6553,-40.8063 -78.4767,-120.8535 -26.6817,-108.2974 -59.6423,-211.8877 -86.3243,-320.1833 -47.0859,-136.5513 -134.9798,-263.6828 -207.1783,-386.1062 -21.9733,128.7014 -73.7679,254.2648 -75.3373,387.6743 3.1378,34.531 177.3569,343.729 156.953,448.8866 z"
     class="fil15" /><rect
     style="fill:#ffffff;fill-opacity:1;stroke-width:26.45833206"
     id="rect6272"
     width="15710.637"
     height="3848.2227"
     x="58.366787"
     y="11148.871" /><path
     style="clip-rule:evenodd;fill:#000000;fill-rule:nonzero;stroke-width:1.51632893;image-rendering:optimizeQuality;shape-rendering:geometricPrecision;text-rendering:geometricPrecision"
     inkscape:connector-curvature="0"
     id="path240"
     d="m 316.0965,14679.592 v -3170.645 h 523.13382 v 1247.94 H 1868.8177 v -1247.94 h 526.1656 v 3170.645 H 1868.8177 V 13293.667 H 839.23032 v 1385.925 z m 2515.5892,-1566.368 c 0,-377.566 54.5876,-688.413 166.7961,-932.542 112.2086,-244.129 257.776,-426.089 438.2191,-545.879 180.4431,-119.789 398.795,-178.927 655.0544,-178.927 373.0179,0 674.7664,141.019 909.797,426.089 233.5156,283.553 351.7893,688.413 351.7893,1213.062 0,529.199 -124.3388,944.674 -373.0164,1243.391 -216.8369,263.841 -512.5202,394.245 -885.5366,394.245 -377.5663,0 -673.2513,-130.404 -891.6017,-391.213 -247.1624,-297.2 -371.5012,-706.609 -371.5012,-1228.226 z m 539.814,-21.228 c 0,365.434 69.7512,638.374 207.7369,820.333 137.9857,181.96 309.3303,274.455 515.552,274.455 204.7035,0 376.0497,-90.98 511.002,-271.423 136.4706,-181.958 203.1884,-459.448 203.1884,-833.981 0,-366.951 -65.2011,-638.374 -197.1233,-815.783 -131.9205,-175.895 -304.7818,-263.842 -517.0671,-263.842 -213.8035,0 -388.1799,89.464 -521.6171,266.873 -134.9539,177.412 -201.6718,451.866 -201.6718,823.368 z m 2257.8132,556.492 512.5187,-62.169 c 57.6209,406.375 247.1625,609.564 567.1079,609.564 157.6976,0 282.0364,-42.458 373.0163,-125.856 90.9798,-81.881 136.4706,-184.991 136.4706,-307.815 0,-71.266 -15.1636,-133.436 -47.0058,-183.475 -31.8439,-50.039 -80.3664,-92.496 -145.5691,-124.339 -65.2011,-33.36 -221.3837,-86.431 -470.0613,-163.764 -224.4171,-66.718 -388.1799,-141.018 -491.29,-219.867 -104.6268,-78.85 -186.5082,-183.477 -248.6791,-312.364 -60.6527,-128.889 -90.9799,-268.391 -90.9799,-416.99 0,-172.861 39.4256,-327.527 116.7586,-467.03 78.848,-137.985 188.0248,-242.612 326.0105,-313.88 137.9857,-69.751 309.3303,-104.627 512.5187,-104.627 306.2985,0 544.3625,81.882 715.7071,248.678 171.3461,165.281 262.326,403.343 272.9396,711.158 l -526.1656,27.294 c -22.7454,-169.828 -72.7845,-288.101 -148.6008,-356.337 -75.8163,-66.718 -186.5082,-101.594 -326.0105,-101.594 -141.0191,0 -251.7109,30.327 -327.5272,89.463 -75.8163,59.138 -115.2404,131.921 -115.2404,219.869 0,86.43 34.8756,159.214 104.6268,218.35 69.7512,59.138 228.9655,124.339 477.6431,194.09 263.8411,77.333 454.8993,157.7 571.6563,241.098 118.2737,84.913 207.7369,194.09 269.9063,327.525 62.1693,133.438 92.4965,294.169 92.4965,485.227 0,274.454 -84.9148,506.453 -253.2276,692.962 -169.8295,188.024 -435.1857,282.036 -794.5567,282.036 -638.3742,0 -993.1951,-362.401 -1064.463,-1087.207 z m 4897.7431,1031.104 h -570.14 l -227.4489,-720.257 H 8690.7813 l -213.802,720.257 h -558.0094 l 1011.392,-3170.645 h 556.4928 z m -965.9017,-1254.004 -357.8528,-1176.672 -351.7892,1176.672 z m 1249.4547,1254.004 v -3170.645 h 511.003 l 1062.947,2116.796 v -2116.796 h 488.258 v 3170.645 h -527.682 l -1046.266,-2068.273 v 2068.273 z m 4958.394,0 h -570.138 l -227.449,-720.257 H 13932.73 l -213.802,720.257 h -558.01 l 1011.392,-3170.645 h 556.493 z m -965.9,-1254.004 -357.853,-1176.672 -351.789,1176.672 z"
     class="fil16" /></svg>