<?xml version="1.0" encoding="UTF-8" standalone="no"?>
<!-- Creator: CorelDRAW X7 -->

<svg
   xmlns:dc="http://purl.org/dc/elements/1.1/"
   xmlns:cc="http://creativecommons.org/ns#"
   xmlns:rdf="http://www.w3.org/1999/02/22-rdf-syntax-ns#"
   xmlns:svg="http://www.w3.org/2000/svg"
   xmlns="http://www.w3.org/2000/svg"
   xmlns:sodipodi="http://sodipodi.sourceforge.net/DTD/sodipodi-0.dtd"
   xmlns:inkscape="http://www.inkscape.org/namespaces/inkscape"
   xml:space="preserve"
   width="600"
   height="600"
   version="1.1"
   style="clip-rule:evenodd;fill-rule:evenodd;image-rendering:optimizeQuality;shape-rendering:geometricPrecision;text-rendering:geometricPrecision"
   viewBox="0 0 15875 15875"
   id="svg2"
   inkscape:version="0.92.3 (2405546, 2018-03-11)"
   sodipodi:docname="logohosana_icon.svg"><metadata
     id="metadata254"><rdf:RDF><cc:Work
         rdf:about=""><dc:format>image/svg+xml</dc:format><dc:type
           rdf:resource="http://purl.org/dc/dcmitype/StillImage" /><dc:title /></cc:Work></rdf:RDF></metadata><sodipodi:namedview
     pagecolor="#ffffff"
     bordercolor="#666666"
     borderopacity="1"
     objecttolerance="10"
     gridtolerance="10"
     guidetolerance="10"
     inkscape:pageopacity="0"
     inkscape:pageshadow="2"
     inkscape:window-width="1600"
     inkscape:window-height="837"
     id="namedview252"
     showgrid="false"
     inkscape:zoom="0.64107921"
     inkscape:cx="168.60531"
     inkscape:cy="374.85712"
     inkscape:window-x="892"
     inkscape:window-y="394"
     inkscape:window-maximized="1"
     inkscape:current-layer="svg2"
     units="px" /><defs
     id="defs4"><style
       type="text/css"
       id="style6"><![CDATA[
    .str0 {stroke:#373435;stroke-width:7.62}
    .fil15 {fill:#FEFEFE}
    .fil1 {fill:#BDBFC1}
    .fil7 {fill:#373435}
    .fil2 {fill:#FFF212}
    .fil8 {fill:#84716B}
    .fil9 {fill:#A98F71}
    .fil14 {fill:#F6997E}
    .fil10 {fill:#A45E4D}
    .fil11 {fill:#CB7246}
    .fil13 {fill:#ED3237}
    .fil12 {fill:#00A859}
    .fil0 {fill:#0098DA}
    .fil4 {fill:#1F1A17}
    .fil5 {fill:#B7683E}
    .fil16 {fill:#373435;fill-rule:nonzero}
    .fil6 {fill:#CB7246;fill-rule:nonzero}
    .fil3 {fill:#0098DA;fill-rule:nonzero}
   ]]></style></defs><path
     style="fill:#0098da;stroke-width:0.96078199"
     d="m 7908.7161,634.63824 a 7091.1814,7091.1814 0 0 0 -2465.896,447.46606 v 2561.0839 l -2702.6774,1.9121 5194.9802,5169.9686 5199.7341,-5171.8807 H 10432.18 V 1107.5808 A 7091.1814,7091.1814 0 0 0 7908.7161,634.63824 Z"
     id="path10"
     inkscape:connector-curvature="0" /><path
     style="fill:#0098da;fill-rule:nonzero;stroke-width:0.96078193"
     inkscape:connector-curvature="0"
     id="path16"
     d="m 7937.0198,0.4802077 h 0.9607 v 0.96078 c 2191.5435,0 4175.5585,887.7624823 5611.9275,2324.1320123 1435.408,1436.3689 2324.131,3420.3836 2324.131,5611.9273 h 0.961 v 0 0 h -0.961 c 0,2192.5047 -888.723,4176.5187 -2324.131,5612.8877 -1436.369,1435.409 -3420.384,2324.132 -5611.9275,2324.132 v 0 h -0.9607 v 0 0 c -2191.5437,0 -4175.5584,-888.723 -5611.9274,-2325.092 C 888.72356,12114.019 0.9610496,10130.005 0.9610496,7938.461 h -0.96078 v -0.9607 0 h 0.96078 C 0.9610496,5745.9566 889.68434,3761.9419 2325.0924,2325.573 3761.4614,889.20347 5745.4761,1.4409877 7937.0198,1.4409877 Z m 0.9607,274.7836323 v 0.96078 h -0.9607 v 0 -0.96078 c -2114.6811,0 -4030.4803,857.97836 -5416.8887,2245.34786 C 1132.7621,3907.02 274.7839,5822.8192 274.7839,7937.5003 h 0.96078 v 0 0.9607 h -0.96078 c 0.96078,2114.681 857.9782,4029.52 2245.3472,5416.889 1386.4084,1386.408 3302.2076,2244.386 5416.8887,2244.386 v 0 0 h 0.9607 v 0 c 2114.6815,0 4029.5195,-857.978 5416.8885,-2244.386 1386.408,-1387.369 2244.387,-3302.208 2244.387,-5417.8497 v 0 0 0 0 c 0,-2114.6811 -857.979,-4030.4803 -2244.387,-5416.8886 C 11967.5,1133.2422 10052.662,275.26384 7937.9805,275.26384 Z"
     class="fil3" /><path
     style="fill:#0098da;stroke-width:0.96078199"
     d="m 4161.0481,11972.293 599.0451,-596.879 -3491.2797,-3512.0236 3911.8543,-1.9129 2648.5836,2670.1345 2631.8686,-2670.1345 h 1048.904 v 4110.8145 z"
     id="path232"
     inkscape:connector-curvature="0"
     sodipodi:nodetypes="ccccccccc" /><polygon
     style="fill:#0098da"
     id="polygon234"
     points="15887,12674 15887,7331 18558,10003 "
     class="fil0"
     transform="matrix(1.2929058,0,0,1.2929058,-9116.2727,-3014.5053)" /><path
     style="clip-rule:evenodd;fill:#0098da;fill-rule:evenodd;stroke-width:1.29290581;image-rendering:optimizeQuality;shape-rendering:geometricPrecision;text-rendering:geometricPrecision"
     d="M 826.87457,7925.046 V 9720.6469 A 7091.1814,7091.1814 0 0 0 2671.6713,12988.251 l 1608.5323,-1608.532 z"
     id="polygon234-4"
     inkscape:connector-curvature="0" /><circle
     style="clip-rule:evenodd;fill:#fff212;fill-rule:evenodd;stroke-width:1.45175862;image-rendering:optimizeQuality;shape-rendering:geometricPrecision;text-rendering:geometricPrecision"
     id="circle14"
     r="3047.2412"
     cy="9662.4941"
     cx="7685.7505"
     class="fil2" /><path
     style="clip-rule:evenodd;fill:#000000;fill-rule:evenodd;stroke-width:0.05228027;image-rendering:optimizeQuality;shape-rendering:geometricPrecision;text-rendering:geometricPrecision"
     d="m 300.61523,441.25391 c -1.79581,-0.002 -3.51062,0.044 -5.12695,0.14257 -36.73219,2.19746 -75.40837,5.11201 -94.06055,25.17579 -10.92809,11.75161 -7.38147,34.53726 -1.48828,46.81445 8.78965,18.31358 7.19726,32.89735 2.00977,44.47266 30.97056,11.75213 63.80455,17.83027 96.92969,17.94335 28.60667,-0.11218 57.02184,-4.67321 84.22656,-13.51953 -0.35898,-10.79263 -0.40281,-21.62792 0.0371,-32.46289 0.28603,-6.21021 4.51981,-12.22977 4.6914,-12.99414 1.77374,-8.55103 -1.83052,-7.35591 -3.14648,-11.70312 -3.03239,-10.12744 5.43526,-13.85358 6.23633,-20.82813 0.62933,-5.54139 -3.0322,-2.96176 -4.69141,-5.20703 -1.20151,-1.62421 -2.28885,-3.34399 -3.08984,-5.20703 -1.60207,-3.7739 3.37565,-6.63911 0,-10.36524 -10.2451,-11.24107 -55.59017,-22.23095 -82.52735,-22.26171 z"
     transform="scale(26.458333)"
     id="path22-9"
     inkscape:connector-curvature="0"
     sodipodi:nodetypes="scccccccccccccs" /><path
     style="clip-rule:evenodd;fill:#b7683e;fill-rule:evenodd;stroke-width:1.4754653;image-rendering:optimizeQuality;shape-rendering:geometricPrecision;text-rendering:geometricPrecision"
     d="M 293.79492 446.73828 C 273.03918 446.81894 251.39196 449.50573 233.41211 456.49219 C 221.28246 461.17374 217.21802 471.11127 230.32031 478.61133 C 238.73096 483.38839 245.54174 484.82075 254.41016 488.54688 C 266.88305 493.75393 292.11392 490.07617 305.27344 490.07617 C 311.33826 489.55074 319.17491 487.44914 324.89648 485.68164 C 333.02099 482.95868 363.86148 470.77384 359.57031 460.02539 C 357.33895 454.38845 337.31152 449.18261 314.08203 447.46289 C 307.53092 446.97325 300.71346 446.71141 293.79492 446.73828 z M 296.53906 451.25195 C 297.89584 451.25361 299.24461 451.26613 300.58203 451.28711 C 315.40075 451.57371 363.51926 454.63023 352.07617 465.80859 C 344.00883 473.69084 328.44561 481.09602 315.97266 483.05469 C 310.93776 483.81898 259.67383 491.07892 259.67383 483.43555 C 252.86521 480.56934 221.22255 473.35626 228.43164 464.56641 C 229.46151 462.84668 233.69528 461.26933 235.64062 460.55273 C 252.66218 453.94843 273.23348 451.55161 292.44531 451.2793 C 293.81757 451.25979 295.18229 451.2503 296.53906 451.25195 z M 292.61719 455.00391 C 291.88709 455.00787 291.16671 455.02778 290.45508 455.06055 C 274.60643 455.77707 255.495 458.40419 244.91016 461.22266 C 242.79318 461.79586 240.96361 462.415 239.5332 462.98828 C 238.50333 463.46601 236.3288 464.46844 235.87109 465.42383 C 232.4954 468.24234 236.44368 471.92317 239.13281 473.30859 C 247.5434 477.75128 257.95459 477.17868 266.36523 480.66602 C 277.1217 485.15647 303.44312 481.04831 315.91602 478.99414 C 317.97576 478.61199 320.32229 478.13168 322.26758 477.46289 C 332.39471 474.11892 348.18269 468.81611 345.55078 462.27148 C 343.66267 458.78415 330.56378 458.78481 327.13086 458.59375 C 316.45669 457.96669 303.56803 454.94597 292.61719 455.00391 z M 295.01758 459.43359 C 304.89567 459.55643 314.97079 461.48982 324.7832 462.0332 C 331.82067 462.41539 340.46094 462.12856 340.46094 463.70508 C 341.89135 467.19233 323.23832 471.96938 319.91992 473.49805 C 316.02923 474.78785 311.2797 475.17157 307.16016 475.60156 C 303.15507 476.07922 268.71289 480.23518 268.71289 476.65234 C 260.47387 473.26063 250.062 473.83448 241.9375 469.53516 C 237.76073 467.33766 244.5678 466.00011 246.57031 465.47461 C 260.58801 461.70068 276.20896 460.3141 290.79883 459.50195 C 292.20065 459.43626 293.6064 459.41602 295.01758 459.43359 z M 368.85742 460.76172 C 368.57378 460.76977 368.29812 460.79506 368.03711 460.83984 C 364.60419 461.46082 369.47032 469.96288 344.81055 481.52344 C 339.60397 484.00749 326.67285 489.55126 321.52344 492.13086 C 315.05814 495.2837 301.49601 495.47461 294.11523 495.47461 C 285.36128 495.47461 270.08643 496.85996 261.67578 495.47461 C 252.97905 493.99364 244.96829 488.11777 237.24414 486.73242 C 228.20416 485.10821 227.9174 480.99816 221.16602 478.17969 C 219.2779 477.36762 218.47679 471.97003 216.70312 470.9668 C 215.15832 470.10692 212.92688 475.17269 211.83984 473.88281 C 210.29498 472.11535 213.38377 466.28621 211.15234 465.1875 C 210.29416 464.75754 201.59832 469.91665 204.05859 472.5918 C 206.86213 475.69691 206.9197 477.03372 208.69336 479.08789 C 212.01182 482.9096 218.76308 484.1986 222.71094 485.58398 C 229.46232 487.92472 236.78551 490.07521 241.41992 494.70898 C 243.42249 496.71535 235.06896 494.13648 232.09375 493.41992 C 229.86238 492.84664 228.03351 491.41398 225.85938 490.79297 C 223.34187 490.12418 220.48118 490.40961 218.07812 489.50195 C 215.67507 488.64211 213.89958 486.87379 211.83984 485.58398 C 204.11576 480.75912 208.35011 481.61928 200.91211 476.50781 C 199.13845 475.26575 198.56611 479.85372 197.82227 481.7168 C 196.62077 484.63085 199.7679 487.83 202.45703 489.50195 C 205.48947 491.365 208.40693 493.41915 211.83984 494.70898 C 214.24284 495.61664 217.10365 495.28149 219.62109 495.99805 C 221.79529 496.61906 223.7424 497.81379 225.85938 498.57812 C 228.37682 499.53355 231.1784 500.10832 233.63867 501.20703 C 236.89991 502.68793 240.16125 504.35794 242.96484 506.41211 C 243.88026 507.03312 245.71126 508.99414 244.50977 508.99414 C 242.22117 508.99414 240.5634 506.88984 238.33203 506.41211 C 236.27229 505.98215 234.0391 506.98535 232.09375 506.41211 C 228.14589 505.21782 224.99942 502.59242 221.16602 501.20703 C 217.67586 499.965 213.78507 499.72461 210.29492 498.57812 C 206.06099 497.24047 195.87798 488.88178 200.05469 495.80859 C 204.17417 502.73533 202.62853 498.9113 208.69336 502.49414 C 217.50448 507.70116 214.98685 501.44639 222.71094 508.99414 C 225.85778 512.09925 195.30605 504.26322 203.14453 508.6582 C 210.69693 512.86206 220.08087 514.00938 228.94922 515.49023 C 233.06876 516.2068 237.47212 515.63383 241.41992 516.82812 C 244.9673 517.8791 247.94452 519.97993 250.74805 521.98633 C 251.66352 522.65512 252.86318 523.7534 252.29102 524.61328 C 250.91789 526.90625 250.74781 528.7698 247.6582 527.19336 C 236.90174 521.84306 244.33826 522.13116 230.49219 519.4082 C 229.06178 519.1216 228.72025 522.60734 227.4043 521.98633 C 214.64532 516.30162 223.4568 517.59242 216.47656 516.82812 C 213.15804 516.44598 205.54842 512.09806 207.15039 518.11719 C 207.43647 519.2159 218.24798 526.57235 219.62109 527.19336 C 222.65354 528.57875 225.68799 530.15391 228.94922 531.10938 C 233.01153 532.30363 237.18604 533.16395 241.41992 533.68945 C 243.99465 534.02387 246.62839 533.40281 249.20312 533.68945 C 250.34745 533.83274 251.77608 534.11969 252.29102 535.02734 C 253.03486 536.17386 253.26372 537.89328 252.29102 538.89648 C 251.31837 539.99519 249.26024 540.04328 247.6582 540.23438 C 244.56859 540.52101 241.30718 540.85535 238.33203 540.23438 C 222.25453 536.65153 218.9917 530.87328 211.83984 529.82227 C 210.86714 529.67895 212.35702 535.31637 216.47656 537.60938 C 222.31247 540.85784 228.88991 542.95817 235.18359 545.39453 C 236.67117 546.01555 238.33215 546.20692 239.87695 546.73242 C 240.96405 547.0668 241.87775 547.64129 242.96484 548.02344 C 248.45751 549.79101 253.66372 549.26277 253.89258 549.31055 C 257.3255 550.36148 258.64376 550.64887 258.5293 553.22852 C 258.47213 555.04382 256.06677 557.24101 253.89258 557.09766 C 246.34018 556.76332 239.18844 554.03945 232.09375 551.9375 C 224.59858 549.69227 215.84481 539.42396 210.29492 544.10547 C 205.08835 548.45264 220.42388 552.98939 225.85938 557.09766 C 228.37682 559.05628 247.02893 564.31106 249.20312 567.51172 C 250.74793 569.80472 240.33434 566.07871 237.1875 565.83984 C 220.63087 564.60479 202.00446 550.59151 210.17969 560.86328 A 275.867 275.867 0 0 0 298.87891 575.80273 A 275.867 275.867 0 0 0 317.87695 575.12891 C 317.54571 569.00353 317.92342 562.60336 323.29492 559.34375 C 325.98109 557.73003 326.71874 566.036 327.51172 574.00391 A 275.867 275.867 0 0 0 374.70117 565.07617 C 373.93443 563.79823 372.54011 561.81146 370.67188 561.01562 C 364.3782 558.29266 343.95016 556.57195 336.85547 555.23438 C 325.46967 553.13247 314.88558 550.88976 303.72852 548.02344 C 299.20856 546.87696 338.8583 551.41207 347.32617 551.9375 C 351.96059 552.17637 356.76846 552.60629 361.3457 551.9375 C 370.72899 550.50442 380.62533 523.32348 353.5625 524.61328 C 347.84098 524.89988 348.35794 526.47758 338.00195 525.9043 C 331.53665 525.52215 327.93028 533.49865 323.98242 524.61328 C 320.26348 516.20557 347.72682 519.5025 358.19727 518.11719 C 367.12279 516.92289 370.72692 518.06874 375.36133 514.19922 C 378.90872 511.23747 379.19655 513.5794 381.59961 510.2832 C 384.00267 506.93923 377.13499 503.83293 375.36133 503.78516 C 371.18462 503.68953 367.06343 503.68953 362.88672 503.78516 C 361.22745 503.83285 351.73001 505.50446 350.41406 506.41211 C 348.18264 507.98855 346.81159 510.47465 344.17969 511.62109 C 338.85865 514.00968 332.85101 515.20387 327.07227 516.82812 C 325.06975 517.35363 322.89568 517.63946 320.83594 518.11719 C 313.85564 519.74136 317.68698 521.08023 309.96289 519.4082 C 307.96038 518.97828 308.81862 515.63238 309.96289 514.19922 C 311.22162 512.57512 313.91252 512.1466 316.20117 511.62109 C 317.68874 511.23895 319.29113 511.33445 320.83594 511.62109 C 321.98027 511.81219 322.83815 513.0993 323.98242 512.9082 C 329.53231 512.00055 333.65214 512.95924 336.39844 508.99414 C 338.00047 506.79669 335.36827 506.26875 331.76367 506.41211 C 325.24114 506.65098 327.70178 509.37515 320.83594 507.70312 C 318.83337 507.22539 319.29113 503.64058 320.83594 502.49414 C 325.06988 499.29345 333.76813 496.52473 339.54688 497.28906 C 340.6912 497.48016 341.60282 499.0561 341.08789 499.91602 C 339.65754 502.20902 334.45464 503.25965 338.00195 503.78516 C 345.89766 505.02715 353.56445 500.39339 361.3457 498.57812 C 368.7837 496.85836 365.80624 500.44194 373.81641 497.28906 C 377.53535 495.80817 374.15966 490.36226 373.81641 486.875 C 373.64472 485.53743 373.1283 484.15238 372.21289 483.00586 C 371.01134 481.47719 367.58008 480.95101 367.58008 479.08789 C 367.58008 478.27582 380.7985 480.7602 380.05469 470.01172 C 379.62556 464.50313 373.11149 460.63367 368.85742 460.76172 z M 292.3125 462.40625 C 291.63785 462.39544 290.96067 462.40047 290.28125 462.41797 C 259.72828 462.8957 252.92012 467.28769 257.95508 467.04883 C 250.91761 472.68584 270.54363 473.45059 273.00391 473.68945 C 282.2728 474.45375 298.40581 475.36156 308.36133 473.16406 C 311.27925 472.59086 326.27081 470.68182 322.83789 465.57031 C 320.89255 462.56075 310.47892 463.32496 306.35938 463.18164 C 301.65344 463.18164 297.03487 462.48396 292.3125 462.40625 z M 294.40234 465.85547 L 300.52539 467.71875 C 302.69959 467.67098 319.74874 466.62004 308.5918 468.86523 C 301.49711 470.29839 288.85217 472.06546 281.98633 470.3457 L 288.39453 468.86523 C 274.94893 467.95758 268.19828 467.43309 271.40234 467.14648 C 274.60641 466.90766 291.8849 465.95102 294.40234 465.85547 z M 363.80664 613.26758 C 367.28958 613.87326 371.0826 614.2915 373.3457 613.26758 L 363.80664 613.26758 z "
     transform="scale(26.458333)"
     id="path24-4" /><g
     style="clip-rule:evenodd;fill-rule:evenodd;image-rendering:optimizeQuality;shape-rendering:geometricPrecision;text-rendering:geometricPrecision"
     id="_775282522288"
     transform="matrix(1.4517585,0,0,1.4517585,-7919.2024,-865.6605)"><path
       style="fill:#373435;stroke:#373435;stroke-width:7.61999989"
       inkscape:connector-curvature="0"
       id="path33"
       d="m 9854,8268 c 183,-128 345,-211 594,-441 290,-267 732,-678 1132,-987 l 384,-296 c 0,0 97,-29 140,37 43,66 -11,215 -11,215 0,0 -431,342 -613,474 -183,132 -688,616 -914,841 -160,160 -428,320 -571,399 z"
       class="fil7 str0" /><path
       style="fill:#84716b;stroke:#373435;stroke-width:7.61999989"
       inkscape:connector-curvature="0"
       id="path35"
       d="m 9864,8284 c 190,-135 339,-196 598,-430 282,-254 718,-679 1102,-979 l 375,-293 c 0,0 104,-47 146,16 42,63 -21,210 -21,210 0,0 -429,335 -607,461 -178,125 -660,592 -880,806 -175,171 -480,340 -600,404 z"
       class="fil8 str0" /><path
       style="fill:#000000;stroke:#373435;stroke-width:7.61999989"
       inkscape:connector-curvature="0"
       id="path37"
       d="m 9438,8527 c -15,-25 -17,-102 28,-133 l 220,-164 c 55,-41 140,-10 160,23 l 173,298 c 31,54 23,95 -3,124 l 396,131 c 36,2 69,18 101,39 -82,141 -147,227 -274,331 -9,7 -39,18 -50,21 -43,8 -238,46 -337,49 l -124,-358 c -27,10 -85,9 -106,-29 z"
       class="fil7 str0" /><path
       style="fill:#a98f71"
       inkscape:connector-curvature="0"
       id="path39"
       d="m 9920,8381 c 118,-81 753,-520 815,-606 68,-94 1101,-976 1143,-1002 41,-26 94,-79 110,-37 15,42 -131,126 -131,126 0,0 -221,184 -331,268 -110,84 -948,839 -1095,949 -132,100 -432,302 -488,340 z"
       class="fil9" /><path
       style="fill:#bdbfc1"
       inkscape:connector-curvature="0"
       id="path41"
       d="m 9469,8524 c -13,-24 -15,-86 27,-115 l 207,-144 c 53,-38 107,-5 125,26 l 168.9996,276 c 30.0004,49 16.0004,104 -9,131 L 10381,8821 c 33,2 65,12 95,31 -73,126 -163,228 -264,321 -11,10 -18,25 -32,29 -135,33 -224.0004,38 -288.9998,45 L 9747,8873 c -25,10 -80,-1 -99,-36 z"
       class="fil1" /></g><g
     style="clip-rule:evenodd;fill-rule:evenodd;image-rendering:optimizeQuality;shape-rendering:geometricPrecision;text-rendering:geometricPrecision"
     id="_775282492272"
     transform="matrix(1.4517585,0,0,1.4517585,-7919.2024,-865.6605)"><g
       id="g44"><path
         style="fill:#a45e4d"
         inkscape:connector-curvature="0"
         id="path46"
         d="m 10614,9334 c 0,0 204,-499 285,-600 82,-102 265,-331 265,-331 -10,-16 -16,-35 -31,-46 -32,-25 -90,-24 -106,-61 -25,-56 22,-127 0,-184 -37,-92 -110,-165 -168,-244 -44,-58 -84,-120 -138,-168 -35,-31 -126,-18 -126,-65 0,-43 84,-18 126,-27 0,0 50,-245 50,-290 0,-46 76,-124 76,-124 -5,-20 -23,-41 -15,-60 10,-19 47,-11 57,-30 38,-71 42,-158 81,-229 48,-89 145,-149 179,-244 25,-73 -16,-154 -11,-230 1,-23 25,-83 30,-61 24,89 28,183 27,275 -1,42 -11,86 -31,123 -32,57 -91,95 -122,152 -39,72 -59,153 -87,229 -21,56 -42,112 -61,168 -28,81 -58,162 -81,245 -9,30 -31,65 -16,92 36,62 90,117 153,152 21,12 46,-44 66,-31 26,18 18,62 26,92 16,61 32,122 46,184 8,40 14,81 19,122 5,30 -10,69 11,92 45,45 124,45 168,91 21,22 19,65 5,92 -38,70 -108,117 -153,183 -67,98 -129,200 -183,305 -54,104 -103,211 -142,321 -23,64 2,151 -46,199 -26,26 -46,-58 -77,-76 -22,-14 -50,-10 -76,-16 z"
         class="fil10" /><path
         style="fill:#cb7246"
         inkscape:connector-curvature="0"
         id="path48"
         d="m 10724,9295 c 43,-138 99,-273 167,-400 81,-150 185,-286 278,-428 19,-30 69,-54 58,-87 -19,-54 -101,-65 -127,-116 -36,-68 -22,-155 -52,-226 -33,-74 -87,-137 -133,-202 -52,-74 -150,-126 -162,-215 -16,-114 52,-225 86,-336 12,-38 37,-72 52,-110 43,-101 70,-209 122,-306 32,-60 91,-100 127,-157 19,-29 33,-63 35,-98 4,-81 -20,-162 -18,-243 1,-13 22,16 24,29 10,67 16,135 11,202 -3,42 -14,104 -35,140 -32,58 -96,109 -126,168 -50,97 -68,192 -108,293 -16,41 -27,90 -43,131 -25,65 -45,136 -64,202 -10,34 -29,49 -19,82 15,48 83,99 118,134 18,19 37,26 55,15 20,-11 38,-40 56,-16 10,15 -6,36 0,68 13,62 45,134 58,165 15,37 8,98 17,137 10,42 -9,84 16,120 33,47 122,52 159,97 11,13 -18,76 -26,91 -62,109 -132,181 -200,287 -47,74 -102,158 -138,238 -64,139 -102,280 -171,416 -12,23 -25,-51 -17,-75 z"
         class="fil11" /></g><g
       id="g50"><path
         style="fill:#000000;stroke:#373435;stroke-width:7.61999989"
         inkscape:connector-curvature="0"
         id="path52"
         d="m 10971,8246 c -58,-42 -94,-73 -137,-131 -15,-21 -9,-51 -15,-76 -4,-16 -10,-31 -15,-46 -10,-31 -10,-67 -31,-92 -28,-34 -76,-45 -107,-76 -16,-16 -9,-52 -30,-61 -24,-10 -55,30 -77,15 -53,-37 -64,-124 -122,-153 -37,-18 -81,39 -122,31 -47,-9 -76,-63 -122,-77 -30,-8 -61,18 -92,16 -52,-4 -103,-47 -153,-31 -30,10 -3,75 -30,92 -27,16 -62,-24 -92,-15 -15,4 0,39 -15,45 -53,22 -153,-24 -168,31 -16,59 88,86 122,137 8,13 -10,35 0,46 24,28 78,27 92,61 12,30 -45,63 -31,92 23,46 80,63 122,92 19,12 49,11 61,30 12,17 -17,50 0,61 39,26 96,9 138,31 38,20 50,79 92,92 35,11 69,-34 106,-31 36,3 62,39 97,46 38,8 80,-12 117,0 31,10 44,61 77,61 29,0 40,-41 61,-61 25,-26 43,-64 76,-76 38,-15 82,-3 122,0 44,2 88,22 131,13 16,-3 28,-32 18,-44 -13,-14 -58,-10 -73,-22 z"
         class="fil7 str0" /><path
         style="fill:#00a859"
         inkscape:connector-curvature="0"
         id="path54"
         d="m 9687,7730 c 104,57 291,93 401,134 55,21 107,37 162,61 32,14 67,49 101,39 17,-6 2,-20 -6,-35 -18,-34 -64,-83 -87,-116 -27,-41 -69,-84 -87,-130 -6,-17 -2,-36 3,-52 3,-9 12,-18 3,-24 -26,-18 -58,33 -89,31 -44,-3 -83,-60 -125,-46 -31,11 5,78 -23,95 -29,18 -66,-25 -100,-20 -15,3 -7,35 -21,40 -41,17 -172,2 -132,23 z"
         class="fil12" /><path
         style="fill:#00a859"
         inkscape:connector-curvature="0"
         id="path56"
         d="m 10404,7988 c -32,-25 -42,-73 -64,-107 -44,-70 -104,-112 -142,-185 -11,-21 -17,-86 6,-87 38,-3 56,56 93,63 39,8 90,-48 117,-19 10,10 -8,24 -8,38 -2,32 0,71 7,103 11,57 33,113 63,162 27,43 151,89 105,110 -22,10 -45,-3 -69,-13 -38,-16 -77,-40 -108,-65 z"
         class="fil12" /><path
         style="fill:#00a859"
         inkscape:connector-curvature="0"
         id="path58"
         d="m 10442,7650 c -16,0 -14,30 -16,46 -3,33 -1,70 14,101 22,48 30,103 59,147 20,32 68,47 92,77 15,18 11,51 31,63 41,26 94,30 134,58 34,23 74,54 134,63 38,6 -68,-44 -87,-78 -13,-25 5,-58 -1,-86 -9,-40 -22,-79 -42,-115 -8,-15 -25,-25 -41,-34 -17,-9 -41,-4 -55,-18 -20,-19 -17,-59 -41,-73 -24,-15 -61,15 -83,-2 -47,-37 -39,-148 -98,-149 z"
         class="fil12" /><path
         style="fill:#00a859"
         inkscape:connector-curvature="0"
         id="path60"
         d="m 9749,7791 c 37,1 73,16 107,28 57,19 112,40 169,62 91,35 171,40 253,91 39,25 -75,6 -118,23 -42,16 -71,55 -102,87 -15,15 -16,45 -35,52 -25,9 -54,0 -76,-13 -34,-19 -72,-43 -85,-80 -10,-28 33,-58 25,-87 -8,-26 -48,-29 -65,-50 -8,-11 -1,-29 -8,-40 -18,-28 -97,-75 -65,-73 z"
         class="fil12" /><path
         style="fill:#00a859"
         inkscape:connector-curvature="0"
         id="path62"
         d="m 10033,8212 c -23,-27 15,-74 38,-103 26,-35 63,-65 104,-80 57,-21 121,-36 181,-26 47,8 75,37 120,59 25,13 74,26 99,37 69,31 104,31 184,75 47,26 -92,17 -144,31 -41,11 -57,16 -90,43 -26,23 -54,87 -87,98 -35,12 -59,-30 -95,-36 -28,-5 -57,14 -85,8 -22,-4 -41,-21 -57,-37 -14,-15 -11,-47 -31,-55 -42,-18 -107,21 -137,-14 z"
         class="fil12" /><path
         style="fill:#00a859"
         inkscape:connector-curvature="0"
         id="path64"
         d="m 10827,8212 c 47,6 85,41 129,58 19,7 52,-5 59,14 5,16 -35,7 -52,6 -67,-2 -138,-35 -201,-13 -57,20 -69,110 -125,129 -31,10 -42,-54 -72,-64 -29,-9 -63,32 -78,6 -15,-26 24,-66 47,-84 33,-25 72,-31 111,-40 62,-15 120,-20 182,-12 z"
         class="fil12" /></g><g
       id="g66"><path
         style="fill:#000000;stroke:#373435;stroke-width:7.61999989"
         inkscape:connector-curvature="0"
         id="path68"
         d="m 10613,7562 c -2,-57 1,-95 24,-153 9,-21 40,-35 59,-53 11,-11 20,-23 31,-35 20,-24 53,-45 61,-71 12,-35 -11,-69 -4,-104 3,-19 40,-36 34,-53 -7,-19 -65,-14 -67,-34 -3,-52 68,-108 54,-158 -9,-32 -90,-23 -112,-51 -24,-32 5,-80 -15,-113 -13,-22 -58,-25 -77,-43 -33,-31 -29,-86 -78,-104 -30,-11 -70,42 -104,36 -33,-5 -21,-49 -49,-60 -15,-7 -36,22 -52,18 -56,-17 -84,-101 -143,-77 -65,25 -18,100 -40,148 -6,13 -38,15 -42,27 -8,30 30,60 8,87 -18,24 -87,11 -103,36 -26,39 -3,82 1,122 2,18 23,34 15,53 -8,16 -57,19 -56,35 4,37 59,59 68,95 8,34 -37,75 -20,105 15,27 78,20 101,43 22,21 8,57 26,81 18,26 65,38 80,66 13,23 -25,60 -2,79 20,16 65,-1 97,-2 41,0 87,-12 122,-1 39,13 58,45 84,69 28,26 41,62 78,82 14,6 48,-3 52,-16 4,-15 -31,-39 -31,-54 z"
         class="fil7 str0" /><path
         style="fill:#00a859"
         inkscape:connector-curvature="0"
         id="path70"
         d="m 10194,6538 c 20,93 117,219 156,305 19,43 40,81 56,126 10,27 3,66 35,79 17,7 19,-9 27,-23 18,-30 30,-84 45,-116 18,-39 28,-88 57,-124 11,-14 31,-23 49,-29 11,-4 25,-4 24,-13 -1,-25 -69,-13 -89,-32 -28,-27 -3,-81 -45,-97 -31,-11 -67,48 -102,42 -36,-6 -23,-52 -51,-67 -12,-7 -35,15 -50,11 -44,-14 -120,-96 -112,-62 z"
         class="fil12" /><path
         style="fill:#00a859"
         inkscape:connector-curvature="0"
         id="path72"
         d="m 10455,7093 c 1,-33 38,-67 53,-99 33,-65 30,-123 69,-188 11,-18 66,-58 83,-46 28,19 -12,64 7,89 19,26 106,22 98,55 -2,11 -27,9 -40,17 -31,18 -64,42 -88,64 -44,39 -79,84 -103,130 -20,40 24,137 -27,123 -24,-7 -28,-28 -36,-46 -12,-32 -17,-67 -16,-99 z"
         class="fil12" /><path
         style="fill:#00a859"
         inkscape:connector-curvature="0"
         id="path74"
         d="m 10787,6918 c -11,-9 -37,9 -52,17 -33,18 -65,40 -83,67 -28,40 -71,77 -92,119 -14,30 5,66 -5,96 -6,19 -39,36 -36,54 5,39 38,70 41,110 2,32 1,73 35,112 21,24 -8,-64 10,-94 14,-23 55,-32 77,-51 30,-28 56,-58 75,-90 8,-14 5,-30 2,-43 -3,-15 -24,-26 -22,-42 4,-23 42,-44 39,-66 -3,-21 -57,-25 -56,-48 1,-47 107,-107 67,-141 z"
         class="fil12" /><path
         style="fill:#00a859"
         inkscape:connector-curvature="0"
         id="path76"
         d="m 10182,6609 c 25,22 35,50 49,76 22,43 41,87 60,132 31,71 82,120 92,195 5,37 -57,-39 -102,-53 -43,-14 -98,-8 -149,-7 -23,1 -51,18 -71,10 -24,-8 -37,-30 -41,-50 -6,-30 -10,-66 14,-94 18,-23 75,-15 96,-37 19,-19 -7,-43 1,-65 3,-11 25,-17 30,-28 13,-26 0,-98 21,-79 z"
         class="fil12" /><path
         style="fill:#00a859"
         inkscape:connector-curvature="0"
         id="path78"
         d="m 9998,7014 c 8,-29 77,-35 118,-39 50,-5 103,-2 145,12 58,20 116,48 148,88 25,30 19,63 29,101 6,22 28,57 35,77 20,58 44,77 59,148 9,41 -78,-42 -127,-63 -38,-17 -54,-23 -101,-26 -39,-2 -115,20 -148,8 -34,-13 -14,-51 -33,-75 -15,-18 -52,-24 -66,-43 -11,-15 -10,-35 -6,-53 4,-18 35,-34 29,-50 -14,-34 -93,-48 -82,-85 z"
         class="fil12" /><path
         style="fill:#00a859"
         inkscape:connector-curvature="0"
         id="path80"
         d="m 10546,7461 c 26,30 21,72 36,107 6,15 40,26 28,41 -11,12 -30,-16 -42,-26 -45,-39 -63,-98 -127,-121 -57,-20 -146,26 -202,4 -30,-11 19,-54 7,-77 -11,-22 -71,-17 -58,-41 12,-23 76,-25 109,-22 44,4 76,23 112,40 56,26 101,55 137,95 z"
         class="fil12" /></g><g
       id="g82"><path
         style="fill:#000000;stroke:#373435;stroke-width:7.61999989"
         inkscape:connector-curvature="0"
         id="path84"
         d="m 11050,7753 c 36,-35 62,-56 113,-75 18,-7 46,5 68,6 14,1 28,-1 41,-1 28,-1 60,8 82,-2 30,-14 38,-49 64,-65 14,-9 47,4 54,-10 9,-16 -29,-50 -17,-63 31,-33 109,-20 133,-59 15,-25 -39,-72 -33,-102 5,-34 53,-44 63,-77 7,-21 -18,-51 -18,-75 1,-39 38,-69 21,-111 -11,-26 -68,-20 -85,-45 -16,-25 19,-43 10,-68 -5,-13 -36,-10 -43,-23 -22,-46 15,-113 -35,-137 -55,-27 -75,48 -120,62 -11,4 -31,-15 -41,-10 -24,12 -21,54 -51,56 -27,3 -59,-49 -85,-45 -40,7 -54,47 -77,74 -11,11 -9,34 -25,40 -15,5 -46,-25 -56,-15 -22,25 -3,73 -21,100 -17,25 -69,21 -79,50 -8,25 34,62 33,90 -1,27 -32,39 -38,64 -5,28 15,65 6,91 -7,22 -53,20 -52,45 2,23 39,41 59,62 24,26 59,48 72,77 15,33 6,64 6,95 0,34 -16,63 -6,99 4,12 30,29 41,23 12,-6 7,-42 16,-51 z"
         class="fil7 str0" /><path
         style="fill:#00a859"
         inkscape:connector-curvature="0"
         id="path86"
         d="m 11458,6877 c -46,68 -70,205 -102,280 -17,38 -29,75 -48,111 -11,23 -41,41 -30,70 5,15 17,6 31,4 30,-6 72,-31 101,-41 36,-11 73,-33 114,-36 15,-2 32,6 47,14 9,5 17,13 22,8 16,-16 -32,-53 -32,-77 1,-33 50,-50 36,-86 -11,-26 -71,-14 -88,-40 -17,-27 20,-46 14,-73 -3,-12 -32,-13 -37,-25 -18,-37 -10,-135 -28,-109 z"
         class="fil12" /><path
         style="fill:#00a859"
         inkscape:connector-curvature="0"
         id="path88"
         d="m 11258,7373 c 21,-18 65,-15 94,-24 62,-18 97,-54 162,-67 18,-4 77,7 79,26 4,29 -48,30 -53,57 -6,28 48,81 23,95 -9,6 -22,-12 -35,-16 -30,-8 -65,-16 -93,-18 -51,-5 -101,-1 -145,11 -37,11 -74,97 -94,56 -10,-20 0,-35 8,-51 13,-26 32,-50 54,-69 z"
         class="fil12" /><path
         style="fill:#00a859"
         inkscape:connector-curvature="0"
         id="path90"
         d="m 11567,7482 c -1,-12 -28,-18 -43,-23 -30,-10 -63,-17 -91,-13 -43,6 -92,0 -131,11 -28,9 -39,43 -65,54 -16,7 -46,-4 -56,9 -22,26 -23,66 -46,91 -19,21 -46,44 -51,89 -3,28 36,-43 66,-49 23,-5 53,17 78,19 36,3 71,2 103,-5 14,-3 22,-14 29,-24 7,-11 2,-31 14,-39 16,-11 52,1 64,-14 12,-15 -16,-52 -2,-65 31,-27 133,5 131,-41 z"
         class="fil12" /><path
         style="fill:#00a859"
         inkscape:connector-curvature="0"
         id="path92"
         d="m 11407,6912 c 0,28 -12,52 -21,76 -14,40 -31,77 -48,117 -28,62 -29,123 -71,174 -21,25 -9,-59 -27,-97 -17,-36 -53,-67 -83,-99 -15,-15 -42,-23 -49,-40 -9,-21 -3,-42 8,-56 16,-22 36,-46 68,-47 26,-1 55,40 81,40 23,0 24,-30 42,-38 10,-5 26,6 36,3 24,-8 63,-58 64,-33 z"
         class="fil12" /><path
         style="fill:#00a859"
         inkscape:connector-curvature="0"
         id="path94"
         d="m 11037,7033 c 24,-12 68,29 96,53 32,29 61,64 77,100 22,49 38,102 32,147 -5,34 -30,49 -48,79 -10,16 -20,52 -29,68 -25,47 -23,74 -59,125 -22,31 -20,-75 -35,-119 -12,-34 -17,-48 -44,-79 -22,-27 -81,-63 -93,-91 -11,-30 25,-39 29,-65 3,-21 -16,-48 -12,-68 3,-17 17,-28 32,-36 13,-8 42,3 48,-11 14,-29 -24,-88 6,-103 z"
         class="fil12" /><path
         style="fill:#00a859"
         inkscape:connector-curvature="0"
         id="path96"
         d="m 11075,7650 c -4,35 -34,56 -47,86 -6,13 7,42 -10,42 -14,1 -8,-28 -8,-41 -2,-52 26,-99 2,-154 -20,-48 -103,-79 -122,-127 -11,-26 46,-20 54,-41 7,-20 -32,-56 -9,-62 23,-5 62,34 79,57 24,31 31,63 41,95 16,52 24,98 20,145 z"
         class="fil12" /></g><g
       id="g98"><path
         style="fill:#000000;stroke:#373435;stroke-width:7.61999989"
         inkscape:connector-curvature="0"
         id="path100"
         d="m 11321,8277 c 66,-32 107,-56 161,-106 19,-18 18,-50 29,-74 7,-14 16,-28 24,-42 16,-29 23,-65 48,-86 34,-29 84,-31 121,-57 19,-13 19,-50 42,-55 26,-6 49,40 73,30 61,-27 87,-112 151,-130 41,-12 74,53 116,53 49,0 88,-48 137,-53 31,-3 57,29 88,33 53,6 113,-28 159,-2 28,16 -11,75 13,97 23,21 66,-12 94,2 15,7 -7,40 7,48 48,32 158,5 162,62 5,63 -104,70 -148,115 -10,11 4,36 -8,46 -29,23 -83,12 -103,44 -18,27 33,71 13,97 -31,41 -92,48 -139,68 -21,10 -51,3 -67,20 -14,14 8,52 -11,61 -44,18 -98,-10 -143,4 -42,13 -66,70 -109,75 -38,4 -64,-47 -101,-51 -36,-4 -69,27 -105,28 -40,1 -78,-27 -117,-22 -33,4 -56,53 -88,47 -29,-6 -33,-49 -50,-73 -20,-30 -31,-71 -62,-91 -35,-21 -81,-17 -122,-22 -44,-6 -92,5 -133,-12 -15,-6 -22,-37 -9,-46 15,-12 60,0 77,-8 z"
         class="fil7 str0" /><path
         style="fill:#00a859"
         inkscape:connector-curvature="0"
         id="path102"
         d="m 12700,8002 c -115,37 -309,37 -426,58 -59,11 -114,17 -173,30 -35,8 -76,36 -108,20 -16,-9 1,-19 12,-33 24,-31 80,-71 109,-100 35,-35 84,-71 111,-113 10,-16 8,-36 6,-53 -1,-10 -8,-20 2,-24 29,-14 52,43 84,47 44,5 93,-44 133,-22 28,16 -20,77 5,99 26,23 71,-13 103,-1 15,5 1,35 14,44 38,24 172,34 128,48 z"
         class="fil12" /><path
         style="fill:#00a859"
         inkscape:connector-curvature="0"
         id="path104"
         d="m 11936,8125 c 36,-19 55,-66 83,-96 58,-61 125,-92 177,-158 15,-18 32,-82 10,-88 -37,-9 -67,46 -105,46 -40,1 -80,-65 -113,-41 -12,8 3,25 1,40 -4,32 -14,71 -26,101 -22,55 -54,107 -94,150 -35,38 -168,61 -125,90 20,14 46,5 71,0 42,-8 84,-25 121,-44 z"
         class="fil12" /><path
         style="fill:#00a859"
         inkscape:connector-curvature="0"
         id="path106"
         d="m 11961,7780 c 16,3 8,32 7,49 -3,33 -12,70 -33,98 -31,44 -50,97 -86,136 -27,28 -78,34 -107,59 -18,15 -20,49 -42,58 -47,18 -100,12 -146,32 -38,17 -83,41 -145,38 -39,-1 76,-31 101,-61 19,-23 7,-59 18,-86 16,-38 36,-75 63,-107 11,-14 30,-21 47,-26 19,-6 43,3 59,-8 24,-15 28,-56 54,-66 27,-10 59,27 84,14 54,-28 66,-140 126,-130 z"
         class="fil12" /><path
         style="fill:#00a859"
         inkscape:connector-curvature="0"
         id="path108"
         d="m 12626,8050 c -37,-5 -75,3 -111,8 -61,8 -120,19 -181,30 -98,18 -179,8 -270,44 -44,17 74,20 114,45 38,24 60,69 85,106 12,18 7,48 26,59 22,13 53,10 78,1 37,-13 80,-30 100,-64 15,-26 -23,-64 -9,-92 12,-25 53,-20 74,-38 11,-9 6,-28 16,-38 23,-24 111,-56 78,-61 z"
         class="fil12" /><path
         style="fill:#00a859"
         inkscape:connector-curvature="0"
         id="path110"
         d="m 12263,8418 c 29,-23 -1,-77 -18,-110 -20,-40 -50,-77 -88,-100 -54,-32 -115,-58 -177,-59 -48,-1 -82,22 -130,36 -28,8 -80,12 -106,18 -75,18 -110,12 -198,41 -52,17 88,34 138,58 39,18 54,26 81,60 23,28 38,97 69,114 33,18 65,-19 102,-18 28,0 54,24 83,24 23,-1 45,-13 64,-27 17,-12 20,-45 41,-49 46,-10 103,41 139,12 z"
         class="fil12" /><path
         style="fill:#00a859"
         inkscape:connector-curvature="0"
         id="path112"
         d="m 11470,8269 c -48,-3 -92,25 -139,34 -20,3 -51,-15 -61,2 -9,16 33,14 50,17 68,10 145,-10 204,24 52,31 47,123 101,152 28,16 51,-45 83,-50 31,-4 57,43 77,20 20,-22 -12,-70 -32,-93 -27,-30 -65,-43 -103,-60 -59,-26 -115,-43 -180,-46 z"
         class="fil12" /></g><g
       id="g114"><path
         style="fill:#000000;stroke:#373435;stroke-width:7.61999989"
         inkscape:connector-curvature="0"
         id="path116"
         d="m 11069,8797 c 29,7 47,14 73,33 9,7 12,24 18,36 4,7 9,13 14,20 8,13 15,32 26,40 16,10 36,3 53,11 8,4 12,25 21,24 11,-1 16,-30 26,-28 26,5 44,48 71,47 17,0 23,-41 40,-48 19,-8 39,13 58,7 13,-3 20,-25 32,-32 19,-12 46,-3 61,-25 10,-13 -11,-40 -4,-56 7,-15 27,-4 37,-16 5,-7 -7,-21 -2,-28 16,-26 61,-28 57,-61 -4,-35 -47,-22 -68,-40 -5,-4 -2,-20 -8,-24 -13,-8 -33,7 -44,-7 -9,-13 6,-45 -4,-56 -16,-18 -40,-12 -61,-16 -9,-1 -20,7 -27,0 -7,-6 -2,-30 -11,-32 -18,-3 -37,21 -56,21 -17,-1 -32,-28 -49,-24 -15,4 -20,36 -35,45 -13,8 -29,-4 -43,1 -16,6 -28,28 -44,31 -13,4 -26,-20 -38,-11 -11,7 -8,32 -12,48 -6,20 -6,45 -16,60 -12,18 -30,23 -45,33 -17,10 -37,12 -51,28 -5,5 -5,24 1,27 7,4 23,-10 30,-8 z"
         class="fil7 str0" /><path
         style="fill:#00a859"
         inkscape:connector-curvature="0"
         id="path118"
         d="m 11632,8726 c -49,-2 -124,29 -172,37 -23,4 -45,9 -70,11 -14,1 -33,-8 -43,7 -6,7 2,10 7,16 13,13 38,26 52,38 17,14 40,26 54,45 5,7 7,18 7,28 1,6 -1,12 3,13 13,3 16,-32 28,-39 17,-11 41,9 54,-10 10,-13 -15,-39 -7,-56 8,-17 29,-4 40,-16 5,-5 -3,-20 1,-26 13,-20 64,-47 46,-48 z"
         class="fil12" /><path
         style="fill:#00a859"
         inkscape:connector-curvature="0"
         id="path120"
         d="m 11323,8782 c 16,4 28,27 41,39 28,25 57,31 84,59 8,8 20,41 12,48 -13,11 -30,-15 -45,-9 -16,6 -25,49 -40,41 -6,-2 -1,-14 -3,-22 -5,-17 -12,-37 -20,-52 -14,-27 -31,-50 -51,-68 -17,-16 -71,-7 -57,-30 7,-11 17,-10 28,-11 17,-2 35,0 51,5 z"
         class="fil12" /><path
         style="fill:#00a859"
         inkscape:connector-curvature="0"
         id="path122"
         d="m 11365,8969 c 6,-4 0,-19 -2,-28 -4,-18 -11,-37 -22,-50 -16,-19 -28,-45 -46,-61 -13,-11 -33,-6 -47,-15 -9,-6 -13,-25 -22,-26 -20,-2 -40,10 -60,6 -16,-3 -36,-9 -60,2 -15,8 33,5 45,18 10,10 8,32 15,45 10,18 22,36 35,49 6,6 14,7 21,7 8,0 16,-9 23,-5 11,4 16,26 28,27 11,2 20,-24 31,-21 23,7 39,67 61,52 z"
         class="fil12" /><path
         style="fill:#00a859"
         inkscape:connector-curvature="0"
         id="path124"
         d="m 11598,8711 c -14,9 -29,11 -44,14 -24,5 -48,9 -73,12 -40,6 -70,25 -109,20 -18,-3 27,-23 40,-44 13,-19 17,-47 23,-72 3,-12 -1,-28 5,-37 7,-11 20,-14 30,-14 16,2 34,4 45,20 8,12 -3,39 5,52 7,12 23,3 33,10 4,3 5,14 9,18 11,10 49,13 36,21 z"
         class="fil12" /><path
         style="fill:#00a859"
         inkscape:connector-curvature="0"
         id="path126"
         d="m 11423,8566 c 13,8 7,43 3,64 -4,25 -12,51 -25,70 -18,26 -39,51 -63,61 -19,9 -34,1 -54,1 -12,0 -32,6 -43,7 -31,2 -44,12 -81,10 -22,-1 31,-34 48,-55 14,-16 19,-23 26,-46 6,-19 6,-60 16,-75 11,-15 27,0 41,-6 12,-5 19,-23 31,-27 9,-3 18,0 27,4 8,5 12,22 21,21 18,-2 36,-40 53,-29 z"
         class="fil12" /><path
         style="fill:#00a859"
         inkscape:connector-curvature="0"
         id="path128"
         d="m 11128,8777 c -18,10 -38,1 -57,4 -8,1 -19,17 -24,8 -5,-7 11,-12 18,-17 25,-17 57,-18 77,-46 17,-26 7,-76 25,-101 9,-14 24,17 37,14 12,-3 18,-33 28,-24 10,10 2,41 -4,57 -8,22 -21,35 -34,50 -20,25 -41,43 -66,55 z"
         class="fil12" /></g><g
       id="g130"><path
         style="fill:#000000;stroke:#373435;stroke-width:7.61999989"
         inkscape:connector-curvature="0"
         id="path132"
         d="m 11117,6328 c -21,-36 -37,-59 -70,-88 -12,-11 -32,-10 -47,-15 -10,-4 -19,-9 -28,-13 -18,-8 -41,-11 -55,-25 -19,-19 -22,-47 -39,-67 -9,-11 -32,-10 -36,-23 -4,-14 24,-28 17,-42 -19,-33 -72,-47 -86,-82 -8,-23 32,-43 31,-67 -1,-28 -33,-49 -37,-76 -2,-18 17,-33 18,-51 3,-30 -20,-63 -5,-89 10,-17 48,4 61,-10 13,-14 -9,-37 -1,-54 4,-8 25,4 31,-4 18,-28 -1,-90 35,-93 39,-5 46,57 76,81 7,5 22,-3 29,3 15,16 10,47 30,58 18,9 44,-21 61,-10 27,17 33,51 47,77 6,12 3,29 13,37 10,8 34,-5 39,6 13,24 -3,55 7,80 9,24 45,36 49,60 4,21 -27,37 -29,58 -2,21 19,39 20,59 2,23 -15,45 -11,67 4,18 35,30 32,49 -3,16 -30,19 -45,29 -18,13 -44,19 -55,37 -13,21 -9,46 -12,70 -2,25 6,52 -3,75 -4,9 -23,14 -30,7 -7,-9 -1,-34 -7,-44 z"
         class="fil7 str0" /><path
         style="fill:#00a859"
         inkscape:connector-curvature="0"
         id="path134"
         d="m 10909,5555 c 27,64 32,173 48,239 8,33 14,64 24,97 5,20 24,43 15,61 -5,9 -13,0 -22,-6 -20,-13 -46,-44 -65,-59 -24,-19 -47,-47 -75,-61 -10,-5 -22,-4 -33,-2 -6,1 -12,5 -15,-1 -10,-16 26,-30 27,-48 2,-25 -30,-52 -17,-75 10,-16 49,10 63,-5 13,-15 -10,-40 -4,-58 3,-9 23,-1 27,-9 15,-22 18,-98 27,-73 z"
         class="fil12" /><path
         style="fill:#00a859"
         inkscape:connector-curvature="0"
         id="path136"
         d="m 11006,5984 c -13,-20 -43,-30 -62,-45 -40,-31 -61,-68 -104,-97 -12,-8 -53,-16 -56,-3 -5,21 30,36 32,58 1,23 -39,47 -24,65 6,7 16,-3 26,-2 20,2 45,7 64,13 35,11 69,28 97,50 25,18 43,93 60,69 8,-12 2,-27 -2,-41 -6,-23 -18,-47 -31,-67 z"
         class="fil12" /><path
         style="fill:#00a859"
         inkscape:connector-curvature="0"
         id="path138"
         d="m 10788,5977 c 1,-9 20,-5 31,-5 21,1 44,6 63,16 28,17 62,27 88,47 18,14 23,42 39,58 11,10 32,11 38,23 12,26 10,56 24,82 11,21 28,46 27,81 0,22 -21,-43 -41,-56 -15,-10 -37,-2 -54,-8 -25,-8 -49,-19 -69,-33 -9,-6 -14,-17 -18,-27 -4,-10 1,-23 -6,-33 -11,-13 -36,-14 -43,-29 -7,-14 15,-33 6,-47 -19,-30 -90,-35 -85,-69 z"
         class="fil12" /><path
         style="fill:#00a859"
         inkscape:connector-curvature="0"
         id="path140"
         d="m 10942,5595 c -3,22 4,43 8,63 6,34 15,67 23,102 14,55 10,101 35,151 12,24 10,-42 25,-65 15,-22 42,-36 65,-51 11,-7 30,-5 36,-15 8,-14 6,-31 -1,-45 -9,-21 -20,-44 -43,-55 -17,-8 -40,14 -57,7 -16,-6 -14,-29 -26,-41 -6,-5 -18,-3 -25,-8 -15,-12 -38,-61 -40,-43 z"
         class="fil12" /><path
         style="fill:#00a859"
         inkscape:connector-curvature="0"
         id="path142"
         d="m 11183,5792 c -15,-16 -48,2 -69,13 -24,12 -47,30 -61,52 -18,31 -34,66 -33,101 1,28 16,46 26,73 6,16 10,45 15,60 13,42 9,61 30,111 12,29 20,-51 33,-80 11,-22 16,-31 36,-47 17,-13 60,-23 70,-42 11,-18 -13,-36 -14,-56 0,-17 14,-32 13,-48 0,-13 -9,-25 -18,-36 -8,-9 -29,-10 -32,-22 -7,-25 23,-59 4,-79 z"
         class="fil12" /><path
         style="fill:#00a859"
         inkscape:connector-curvature="0"
         id="path144"
         d="m 11109,6244 c -1,27 18,52 25,78 2,11 -9,29 3,34 10,5 7,-19 9,-28 5,-39 -10,-82 10,-116 18,-30 76,-30 94,-61 9,-16 -30,-28 -34,-46 -3,-17 26,-33 11,-44 -15,-10 -45,9 -58,20 -19,17 -26,39 -36,60 -15,34 -24,66 -24,103 z"
         class="fil12" /></g><g
       id="g146"><path
         style="fill:#000000;stroke:#373435;stroke-width:7.61999989"
         inkscape:connector-curvature="0"
         id="path148"
         d="m 11139,6762 c 36,-41 57,-70 78,-122 8,-18 -2,-42 -1,-63 0,-13 2,-25 4,-38 2,-26 -4,-55 7,-77 15,-31 48,-46 66,-74 9,-15 -2,-43 12,-53 16,-11 45,17 58,3 33,-36 26,-107 64,-137 24,-20 65,21 93,9 33,-12 45,-59 77,-76 20,-10 47,7 69,2 37,-9 67,-51 106,-43 23,4 14,59 36,69 22,10 41,-26 64,-23 12,1 7,32 19,35 41,11 107,-38 127,4 21,45 -51,80 -67,125 -4,11 13,26 7,36 -13,26 -52,31 -56,60 -4,26 42,45 36,70 -9,39 -47,61 -73,88 -12,13 -34,15 -40,32 -5,15 20,38 10,49 -24,26 -68,19 -95,41 -24,21 -24,70 -52,85 -24,13 -56,-18 -82,-12 -26,7 -39,39 -63,49 -26,11 -60,0 -85,14 -21,12 -22,54 -45,58 -21,4 -37,-28 -55,-41 -22,-18 -41,-46 -67,-52 -30,-7 -60,8 -89,15 -31,7 -60,28 -92,26 -12,0 -26,-22 -20,-33 7,-12 40,-15 49,-26 z"
         class="fil7 str0" /><path
         style="fill:#00a859"
         inkscape:connector-curvature="0"
         id="path150"
         d="m 11988,6193 c -67,58 -197,109 -270,156 -36,23 -72,43 -107,68 -22,15 -41,47 -67,43 -14,-2 -5,-15 -2,-28 8,-29 33,-74 45,-103 13,-36 36,-76 42,-115 2,-14 -5,-29 -11,-41 -4,-7 -11,-13 -6,-19 16,-18 47,19 70,13 31,-7 50,-57 83,-51 24,5 9,63 32,73 24,11 44,-28 69,-28 11,0 11,27 22,30 33,8 125,-20 100,2 z"
         class="fil12" /><path
         style="fill:#00a859"
         inkscape:connector-curvature="0"
         id="path152"
         d="m 11509,6487 c 19,-24 18,-65 29,-94 21,-62 57,-102 74,-166 4,-18 -2,-70 -19,-69 -28,3 -32,52 -57,63 -27,11 -73,-28 -88,-2 -6,10 9,18 12,30 7,25 11,57 11,83 1,47 -5,94 -20,138 -12,37 -95,89 -58,100 17,5 32,-8 48,-18 25,-18 49,-41 68,-65 z"
         class="fil12" /><path
         style="fill:#00a859"
         inkscape:connector-curvature="0"
         id="path154"
         d="m 11427,6220 c 12,-2 15,22 19,35 8,26 12,56 6,83 -8,41 -5,86 -19,125 -10,28 -42,46 -55,72 -8,17 1,43 -12,55 -26,26 -63,35 -88,62 -21,23 -45,53 -87,67 -27,9 43,-43 51,-73 5,-22 -13,-46 -13,-69 0,-33 3,-66 11,-97 4,-13 15,-23 25,-32 11,-9 29,-9 37,-21 12,-18 3,-50 18,-64 15,-15 47,5 60,-12 28,-35 4,-123 47,-131 z"
         class="fil12" /><path
         style="fill:#00a859"
         inkscape:connector-curvature="0"
         id="path156"
         d="m 11952,6249 c -27,6 -50,22 -73,35 -38,22 -75,46 -113,71 -60,39 -117,52 -168,103 -25,25 55,-4 89,4 33,8 60,36 88,57 13,11 18,35 34,38 19,4 39,-6 53,-19 21,-20 45,-44 49,-75 2,-24 -34,-42 -33,-67 1,-22 30,-29 39,-48 5,-9 -4,-23 0,-33 8,-24 58,-71 35,-66 z"
         class="fil12" /><path
         style="fill:#00a859"
         inkscape:connector-curvature="0"
         id="path158"
         d="m 11813,6621 c 13,-25 -22,-58 -43,-78 -25,-25 -56,-45 -88,-52 -45,-10 -94,-14 -136,2 -33,12 -49,38 -77,61 -17,14 -50,30 -66,42 -46,33 -71,37 -122,82 -30,27 69,3 110,8 31,3 44,5 71,24 24,15 54,63 80,67 26,5 37,-31 62,-40 20,-7 44,4 63,-4 16,-6 27,-22 36,-37 8,-14 0,-39 13,-48 28,-19 81,5 97,-27 z"
         class="fil12" /><path
         style="fill:#00a859"
         inkscape:connector-curvature="0"
         id="path160"
         d="m 11238,6717 c -33,10 -55,43 -85,62 -12,8 -38,2 -40,18 -1,14 26,2 39,-1 48,-9 94,-45 144,-35 44,9 67,80 111,88 24,4 22,-48 42,-59 19,-11 50,17 57,-6 7,-22 -28,-50 -48,-61 -27,-16 -56,-16 -86,-19 -47,-4 -90,-1 -134,13 z"
         class="fil12" /></g><ellipse
       style="fill:#373435"
       id="ellipse162"
       ry="129"
       rx="123"
       cy="6410"
       cx="11153"
       class="fil7" /><ellipse
       style="fill:#ed3237"
       id="ellipse164"
       ry="112"
       rx="107"
       cy="6410"
       cx="11153"
       class="fil13" /><ellipse
       style="fill:#f6997e"
       id="ellipse166"
       ry="48"
       rx="46"
       cy="6370"
       cx="11168"
       class="fil14" /><ellipse
       style="fill:#373435"
       id="ellipse168"
       ry="129"
       rx="123"
       cy="6783"
       cx="10939"
       class="fil7" /><ellipse
       style="fill:#ed3237"
       id="ellipse170"
       ry="112"
       rx="107"
       cy="6783"
       cx="10939"
       class="fil13" /><ellipse
       style="fill:#f6997e"
       id="ellipse172"
       ry="48"
       rx="46"
       cy="6744"
       cx="10955"
       class="fil14" /><ellipse
       style="fill:#373435"
       id="ellipse174"
       ry="129"
       rx="123"
       cy="6752"
       cx="11138"
       class="fil7" /><ellipse
       style="fill:#ed3237"
       id="ellipse176"
       ry="112"
       rx="107"
       cy="6752"
       cx="11138"
       class="fil13" /><ellipse
       style="fill:#f6997e"
       id="ellipse178"
       ry="48"
       rx="46"
       cy="6713"
       cx="11153"
       class="fil14" /><ellipse
       style="fill:#373435"
       id="ellipse180"
       ry="129"
       rx="123"
       cy="7663"
       cx="10918"
       class="fil7" /><ellipse
       style="fill:#ed3237"
       id="ellipse182"
       ry="112"
       rx="107"
       cy="7663"
       cx="10918"
       class="fil13" /><ellipse
       style="fill:#f6997e"
       id="ellipse184"
       ry="48"
       rx="46"
       cy="7624"
       cx="10933"
       class="fil14" /><ellipse
       style="fill:#373435"
       id="ellipse186"
       ry="129"
       rx="123"
       cy="7562"
       cx="11072"
       class="fil7" /><ellipse
       style="fill:#ed3237"
       id="ellipse188"
       ry="112"
       rx="107"
       cy="7562"
       cx="11072"
       class="fil13" /><ellipse
       style="fill:#f6997e"
       id="ellipse190"
       ry="48"
       rx="46"
       cy="7523"
       cx="11088"
       class="fil14" /><g
       id="g192"><ellipse
         style="fill:#373435"
         id="ellipse194"
         ry="129"
         rx="123"
         cy="7750"
         cx="11079"
         class="fil7" /><ellipse
         style="fill:#ed3237"
         id="ellipse196"
         ry="112"
         rx="107"
         cy="7750"
         cx="11079"
         class="fil13" /><ellipse
         style="fill:#f6997e"
         id="ellipse198"
         ry="48"
         rx="46"
         cy="7710"
         cx="11094"
         class="fil14" /></g><ellipse
       style="fill:#373435"
       id="ellipse200"
       ry="129"
       rx="123"
       cy="8403"
       cx="11256"
       class="fil7" /><ellipse
       style="fill:#ed3237"
       id="ellipse202"
       ry="112"
       rx="107"
       cy="8403"
       cx="11256"
       class="fil13" /><ellipse
       style="fill:#f6997e"
       id="ellipse204"
       ry="48"
       rx="46"
       cy="8363"
       cx="11271"
       class="fil14" /><ellipse
       style="fill:#373435"
       id="ellipse206"
       ry="129"
       rx="123"
       cy="8266"
       cx="11102"
       class="fil7" /><ellipse
       style="fill:#ed3237"
       id="ellipse208"
       ry="112"
       rx="107"
       cy="8266"
       cx="11102"
       class="fil13" /><ellipse
       style="fill:#f6997e"
       id="ellipse210"
       ry="48"
       rx="46"
       cy="8227"
       cx="11118"
       class="fil14" /><ellipse
       style="fill:#373435"
       id="ellipse212"
       ry="129"
       rx="123"
       cy="8784"
       cx="10813"
       class="fil7" /><ellipse
       style="fill:#ed3237"
       id="ellipse214"
       ry="112"
       rx="107"
       cy="8784"
       cx="10813"
       class="fil13" /><ellipse
       style="fill:#f6997e"
       id="ellipse216"
       ry="48"
       rx="46"
       cy="8745"
       cx="10828"
       class="fil14" /><ellipse
       style="fill:#373435"
       id="ellipse218"
       ry="129"
       rx="123"
       cy="8952"
       cx="11016"
       class="fil7" /><ellipse
       style="fill:#ed3237"
       id="ellipse220"
       ry="112"
       rx="107"
       cy="8952"
       cx="11016"
       class="fil13" /><ellipse
       style="fill:#f6997e"
       id="ellipse222"
       ry="48"
       rx="46"
       cy="8913"
       cx="11031"
       class="fil14" /><ellipse
       style="fill:#373435"
       id="ellipse224"
       ry="129"
       rx="123"
       cy="8754"
       cx="11011"
       class="fil7" /><ellipse
       style="fill:#ed3237"
       id="ellipse226"
       ry="112"
       rx="107"
       cy="8754"
       cx="11011"
       class="fil13" /><ellipse
       style="fill:#f6997e"
       id="ellipse228"
       ry="48"
       rx="46"
       cy="8715"
       cx="11027"
       class="fil14" /></g><path
     style="clip-rule:evenodd;fill:#fefefe;fill-rule:evenodd;stroke-width:1.8805325;image-rendering:optimizeQuality;shape-rendering:geometricPrecision;text-rendering:geometricPrecision"
     inkscape:connector-curvature="0"
     id="path230"
     d="m 7526.3821,2975.959 c 48.268,253.3542 -133.6646,689.5806 -285.8943,775.3015 -46.4119,-361.9335 -211.6366,-607.6683 -421.4162,-910.5518 L 6703.971,3250.268 c -61.2631,-201.9215 -131.8083,-398.1291 -252.4781,-573.3817 l -90.9666,295.2619 c -22.2775,-278.1176 -74.2584,-520.0419 -272.8993,-710.5333 l -107.6746,474.3233 c -126.2388,-287.6426 -94.6794,-443.8457 -387.9997,-603.8575 11.1388,363.8388 59.4067,725.7723 126.2393,1083.8989 35.2727,198.1112 37.129,205.7305 111.3875,373.3637 105.818,241.9242 55.6935,110.4846 167.0812,293.3567 l 133.6651,243.8315 189.3585,165.728 146.6602,156.2029 194.928,121.9148 174.5074,251.4489 c 129.9518,150.4891 98.3921,19.0495 133.6651,243.8295 l 20.4209,137.1554 -83.5407,516.2333 c -9.2823,217.1604 57.5504,356.2194 224.6313,480.0395 76.1147,-163.8226 148.5165,-331.4558 226.4881,-495.2803 7.4256,-13.3335 16.7083,-30.4777 31.5597,-36.1918 85.3971,-28.5743 194.9283,-66.6733 280.3254,-97.151 l 230.2006,-123.8201 c 137.378,-47.6239 233.9131,-66.6734 491.9618,-150.4892 259.9036,-85.721 545.7982,-375.2688 744.4394,-567.6658 382.4309,-371.4581 319.3099,-380.9828 594.0661,-739.1097 170.7937,-211.4465 302.6024,-415.2715 371.2904,-689.5805 l 90.969,-558.141 c -63.12,87.6264 -248.7674,409.5571 -430.6996,493.373 l -248.7643,230.4958 c 53.8369,-329.5504 61.2627,-266.6878 61.2627,-596.24 -94.6793,129.534 -155.9431,283.8338 -250.6223,413.368 -193.0716,257.1649 -417.7024,485.7536 -660.8989,720.0602 l -315.5979,281.9266 c 0,-342.884 29.7033,-455.2758 83.5416,-790.5403 42.6982,-169.5386 139.2333,-449.5619 159.6537,-716.2496 l 50.1249,-567.6659 -384.2871,466.7041 -224.6309,358.1247 c -16.7083,-144.7731 -53.8372,-270.4985 -111.3872,-371.4583 1.8559,106.6739 -12.9958,207.6357 -50.1249,300.9762 -85.397,-64.7661 -57.5499,-49.5271 -92.8229,-146.6783 -31.5595,-131.4395 -70.5455,-257.165 -102.1053,-388.6024 -55.6936,-165.7299 -159.6553,-320.0279 -245.0525,-468.6114 -25.9903,156.203 -87.2534,308.5974 -89.1096,470.5147 3.7113,41.9098 209.7795,417.1786 185.6456,544.8075 z"
     class="fil15" /></svg>