<?xml version="1.0" encoding="UTF-8" standalone="no"?>
<svg
   xmlns:dc="http://purl.org/dc/elements/1.1/"
   xmlns:cc="http://creativecommons.org/ns#"
   xmlns:rdf="http://www.w3.org/1999/02/22-rdf-syntax-ns#"
   xmlns:svg="http://www.w3.org/2000/svg"
   xmlns="http://www.w3.org/2000/svg"
   xmlns:sodipodi="http://sodipodi.sourceforge.net/DTD/sodipodi-0.dtd"
   xmlns:inkscape="http://www.inkscape.org/namespaces/inkscape"
   inkscape:export-ydpi="96"
   inkscape:export-xdpi="96"
   inkscape:export-filename="C:\xampp\htdocs\sistemas\sh\img\logohosana_email.png"
   sodipodi:docname="logohosana_logo-email.svg"
   inkscape:version="1.0 (4035a4fb49, 2020-05-01)"
   id="svg2"
   viewBox="0 0 13229.166 2645.8334"
   style="clip-rule:evenodd;fill-rule:evenodd;image-rendering:optimizeQuality;shape-rendering:geometricPrecision;text-rendering:geometricPrecision"
   version="1.1"
   height="100"
   width="500"
   xml:space="preserve"><metadata
     id="metadata254"><rdf:RDF><cc:Work
         rdf:about=""><dc:format>image/svg+xml</dc:format><dc:type
           rdf:resource="http://purl.org/dc/dcmitype/StillImage" /><dc:title></dc:title></cc:Work></rdf:RDF></metadata><sodipodi:namedview
     inkscape:document-rotation="0"
     units="px"
     inkscape:current-layer="svg2"
     inkscape:window-maximized="1"
     inkscape:window-y="428"
     inkscape:window-x="-8"
     inkscape:cy="46.386152"
     inkscape:cx="200.2099"
     inkscape:zoom="1.8132458"
     showgrid="false"
     id="namedview252"
     inkscape:window-height="1017"
     inkscape:window-width="1920"
     inkscape:pageshadow="2"
     inkscape:pageopacity="0"
     guidetolerance="10"
     gridtolerance="10"
     objecttolerance="10"
     borderopacity="1"
     bordercolor="#666666"
     pagecolor="#ffffff" /><defs
     id="defs4"><style
       id="style6"
       type="text/css"><![CDATA[
    .str0 {stroke:#373435;stroke-width:7.62}
    .fil15 {fill:#FEFEFE}
    .fil1 {fill:#BDBFC1}
    .fil7 {fill:#373435}
    .fil2 {fill:#FFF212}
    .fil8 {fill:#84716B}
    .fil9 {fill:#A98F71}
    .fil14 {fill:#F6997E}
    .fil10 {fill:#A45E4D}
    .fil11 {fill:#CB7246}
    .fil13 {fill:#ED3237}
    .fil12 {fill:#00A859}
    .fil0 {fill:#0098DA}
    .fil4 {fill:#1F1A17}
    .fil5 {fill:#B7683E}
    .fil16 {fill:#373435;fill-rule:nonzero}
    .fil6 {fill:#CB7246;fill-rule:nonzero}
    .fil3 {fill:#0098DA;fill-rule:nonzero}
   ]]></style></defs><g
     transform="translate(0,67.113332)"
     id="g229"><path
       style="fill:#0098da;stroke-width:0.150883"
       d="M 1261.7958,98.506802 A 1131.362,1096.1374 0 0 0 868.37457,167.67501 v 395.8861 L 437.17609,563.85667 1266.0088,1363.0177 2095.6,563.56111 H 1664.4016 V 171.61312 A 1131.362,1096.1374 0 0 0 1261.7958,98.506802 Z"
       id="path10"
       inkscape:connector-curvature="0" /><path
       style="fill:#0098da;fill-rule:nonzero;stroke-width:0.150883"
       inkscape:connector-curvature="0"
       id="path16"
       d="m 1266.3115,0.4802077 h 0.1532 v 0.14851503 c 349.6496,0 666.1892,137.22814727 895.3546,359.25865727 229.0121,222.03038 370.8034,528.71453 370.8034,867.47802 h 0.1532 v 0 0 h -0.1532 c 0,338.912 -141.7913,645.5961 -370.8034,867.6264 -229.1654,221.882 -545.705,359.2587 -895.3546,359.2587 v 0 h -0.1532 v 0 0 c -349.64971,0 -666.18919,-137.3767 -895.35458,-359.407 C 141.79156,1872.9615 0.15355718,1566.2774 0.15355718,1227.5138 H 2.696e-4 v -0.1484 0 H 0.15355718 C 0.15355718,888.60191 141.94485,581.91776 370.95692,359.88738 600.12231,137.85687 916.66179,0.62872273 1266.3115,0.62872273 Z m 0.1532,42.4753833 v 0.148514 h -0.1532 v 0 -0.148514 c -337.38667,0 -643.04271,132.624199 -864.23715,347.080379 C 180.72668,604.34358 43.840603,900.48314 43.840603,1227.3654 h 0.153289 v 0 0.1484 h -0.153289 c 0.153289,326.8823 136.886077,622.8735 358.233747,837.3295 221.19444,214.3075 526.85048,346.9317 864.23715,346.9317 v 0 0 h 0.1532 v 0 c 337.3867,0 642.8895,-132.6242 864.2371,-346.9317 221.1944,-214.456 358.0805,-510.4472 358.0805,-837.4779 v 0 0 0 0 c 0,-326.88226 -136.8861,-623.02182 -358.0805,-837.32943 C 1909.3542,175.57979 1603.8514,42.955591 1266.4647,42.955591 Z"
       class="fil3" /><path
       style="fill:#0098da;stroke-width:0.150883"
       d="m 663.87434,1851.0538 95.57461,-92.2641 -557.01597,-542.88 624.11651,-0.2958 422.56811,412.7429 419.9013,-412.7429 h 167.3473 v 635.4397 z"
       id="path232"
       inkscape:connector-curvature="0"
       sodipodi:nodetypes="ccccccccc" /><polygon
       style="fill:#0098da"
       id="polygon234"
       points="15887,12674 15887,7331 18558,10003 "
       class="fil0"
       transform="matrix(0.20627657,0,0,0.19985423,-1454.4548,-465.56888)" /><path
       style="clip-rule:evenodd;fill:#0098da;fill-rule:evenodd;stroke-width:0.203041;image-rendering:optimizeQuality;shape-rendering:geometricPrecision;text-rendering:geometricPrecision"
       d="m 131.92388,1225.4402 v 277.5596 a 1131.362,1096.1374 0 0 0 294.32795,505.0982 l 256.63316,-248.6429 z"
       id="polygon234-4"
       inkscape:connector-curvature="0" /><ellipse
       style="clip-rule:evenodd;fill:#fff212;fill-rule:evenodd;stroke-width:0.227987;image-rendering:optimizeQuality;shape-rendering:geometricPrecision;text-rendering:geometricPrecision"
       id="circle14"
       cy="1494.0107"
       cx="1226.2227"
       class="fil2"
       rx="486.17188"
       ry="471.0351" /><path
       style="clip-rule:evenodd;fill:#000000;fill-rule:evenodd;stroke-width:0.217228;image-rendering:optimizeQuality;shape-rendering:geometricPrecision;text-rendering:geometricPrecision"
       d="m 1268.9851,1805.0746 c -7.5807,-0.01 -14.8193,0.1801 -21.6423,0.5832 -155.0574,8.9873 -318.32084,20.9073 -397.05715,102.9655 -46.13066,48.0626 -31.15934,141.2527 -6.28246,191.4647 37.10367,74.9002 30.38173,134.5458 8.48383,181.8873 130.73579,48.0645 269.33768,72.9232 409.16858,73.3858 120.7571,-0.4588 240.706,-19.1128 355.5449,-55.2931 -1.5152,-44.1403 -1.7003,-88.4552 0.1567,-132.7688 1.2074,-25.3989 19.0795,-50.0181 19.8038,-53.1442 7.4875,-34.9726 -7.7272,-30.0848 -13.2822,-47.8642 -12.8007,-41.4199 22.9438,-56.6593 26.3254,-85.1842 2.6565,-22.6636 -12.7999,-12.1132 -19.8039,-21.296 -5.0719,-6.6429 -9.6619,-13.6766 -13.0431,-21.2962 -6.7628,-15.4348 14.2496,-27.153 0,-42.3924 -43.2475,-45.9744 -234.6624,-90.9215 -348.3721,-91.0474 z"
       id="path22-9"
       inkscape:connector-curvature="0"
       sodipodi:nodetypes="scccccccccccccs" /><path
       style="clip-rule:evenodd;fill:#b7683e;fill-rule:evenodd;stroke-width:6.13066;image-rendering:optimizeQuality;shape-rendering:geometricPrecision;text-rendering:geometricPrecision"
       d="m 1240.1945,1827.505 c -87.616,0.3301 -178.9952,11.3185 -254.89341,39.8922 -51.20281,19.1469 -68.36,59.7901 -13.0514,90.4643 35.50381,19.5374 64.25411,25.3956 101.69041,40.6351 52.6516,21.296 159.1586,6.2544 214.7087,6.2544 25.6014,-2.1488 58.6822,-10.7441 82.8347,-17.9729 34.2958,-11.1366 164.4826,-60.9709 146.3683,-104.9307 -9.4192,-23.0543 -93.9609,-44.3455 -192.0193,-51.3788 -27.6543,-2.0026 -56.4327,-3.0735 -85.638,-2.9636 z m 11.584,18.4603 c 5.7273,0.01 11.4208,0.058 17.0666,0.144 62.554,1.1721 265.6764,13.6728 217.3716,59.3908 -34.0545,32.2374 -99.7514,62.5236 -152.4034,70.5342 -21.2538,3.1259 -237.6538,32.818 -237.6538,1.5577 -28.7411,-11.7224 -162.31412,-41.2229 -131.88244,-77.1723 4.34739,-7.0334 22.21937,-13.4845 30.43122,-16.4153 71.85302,-27.0107 158.69042,-36.8134 239.78922,-37.9271 5.7926,-0.08 11.5536,-0.1185 17.281,-0.1116 z m -16.5555,15.3449 c -3.0819,0.017 -6.1228,0.098 -9.1268,0.2316 -66.9018,2.9305 -147.5768,13.675 -192.2585,25.2021 -8.9364,2.3444 -16.6595,4.8765 -22.6977,7.2212 -4.3474,1.9539 -13.52671,6.0536 -15.45884,9.9611 -14.24977,11.5274 2.41707,26.5814 13.76874,32.2475 35.5035,18.17 79.4522,15.8282 114.956,30.091 45.4062,18.3653 156.5166,1.5636 209.1684,-6.8378 8.6947,-1.563 18.6002,-3.5273 26.8117,-6.2626 42.7496,-13.6764 109.3953,-35.3641 98.2853,-62.1308 -7.9703,-14.2627 -63.2645,-14.26 -77.7559,-15.0414 -45.0589,-2.5646 -99.4656,-14.919 -145.6924,-14.682 z m 10.1328,18.1169 c 41.6983,0.5024 84.2284,8.4097 125.6494,10.632 29.7071,1.5631 66.1803,0.3902 66.1803,6.8378 6.0382,14.2623 -72.7017,33.7998 -86.7096,40.052 -16.4238,5.275 -36.473,6.8444 -53.8628,8.603 -16.9066,1.9535 -162.2971,18.9509 -162.2971,4.2975 -34.7793,-13.8716 -78.7308,-11.5247 -113.0268,-29.1082 -17.6313,-8.9875 11.1033,-14.458 19.5564,-16.6072 59.1729,-15.4348 125.1135,-21.1058 186.7017,-24.4273 5.9174,-0.2687 11.8515,-0.3513 17.8085,-0.2798 z m 311.6996,5.4318 c -1.1974,0.033 -2.361,0.1363 -3.4628,0.3194 -14.4914,2.5398 6.0501,37.3121 -98.0461,84.5932 -21.9785,10.1595 -76.5646,32.8327 -98.3018,43.3829 -27.2918,12.8947 -84.5415,13.6755 -115.698,13.6755 -36.9529,0 -101.4326,5.6659 -136.9364,0 -36.7114,-6.057 -70.5272,-30.0884 -103.1331,-35.7544 -38.1604,-6.6428 -39.3709,-23.4523 -67.87045,-34.9795 -7.9703,-3.3213 -11.35203,-25.3967 -18.8392,-29.4997 -6.52105,-3.5168 -15.94062,17.2015 -20.52934,11.9261 -6.52131,-7.2287 6.51739,-31.0691 -2.90213,-35.5627 -3.62263,-1.7585 -40.33032,19.3417 -29.94479,30.2825 11.83455,12.6996 12.07757,18.167 19.56471,26.5683 14.00819,15.6303 42.50724,20.9021 59.17232,26.5681 28.49954,9.5732 59.41287,18.3685 78.97608,37.32 8.4534,8.2057 -26.80927,-2.3415 -39.3685,-5.2721 -9.41926,-2.3447 -17.13946,-8.2041 -26.3171,-10.7438 -10.62715,-2.7353 -22.70296,-1.568 -32.84697,-5.2801 -10.14398,-3.5167 -17.63885,-10.7489 -26.33362,-16.024 -32.6056,-19.7331 -14.73116,-16.2151 -46.12914,-37.1203 -7.48713,-5.0799 -9.90316,13.6842 -13.04312,21.304 -5.07188,11.9181 8.21308,25.0022 19.56467,31.8403 12.80082,7.6195 25.11628,16.0207 39.60759,21.296 10.14378,3.7121 22.22008,2.3415 32.84694,5.2721 9.17794,2.5398 17.39726,7.4261 26.33365,10.5521 10.62685,3.9076 22.45314,6.2583 32.83866,10.7519 13.76664,6.0567 27.53374,12.8868 39.36844,21.2881 3.8643,2.5398 11.5935,10.5602 6.5216,10.5602 -9.6607,0 -16.6588,-8.6064 -26.078,-10.5602 -8.69476,-1.7585 -18.12171,2.3445 -26.3336,0 -16.66507,-4.8845 -29.94724,-15.622 -46.12915,-21.2881 -14.73298,-5.0798 -31.15714,-6.0628 -45.89009,-10.7519 -17.87267,-5.4708 -60.85813,-39.6566 -43.22701,-11.327 17.38954,28.3295 10.86493,12.6897 36.46635,27.343 37.19432,21.2961 26.56667,-4.2851 59.17232,26.5842 13.28372,12.6994 -115.68407,-19.3489 -82.59555,-1.3741 31.88089,17.1933 71.49325,21.8856 108.92915,27.9421 17.38978,2.9307 35.97758,0.5874 52.64248,5.4718 14.9745,4.2984 27.5422,12.8905 39.3767,21.0964 3.8646,2.7353 8.9287,7.2272 6.5134,10.744 -5.7964,9.3779 -6.5144,16.9996 -19.5565,10.5521 -45.4062,-21.8821 -14.0145,-20.7037 -72.46275,-31.8403 -6.03818,-1.172 -7.47988,13.0841 -13.03489,10.5442 -53.85939,-23.2496 -16.66355,-17.9705 -46.12919,-21.0964 -14.00844,-1.5628 -46.13089,-19.3453 -39.36849,5.2721 1.20762,4.4936 46.84617,34.5805 52.64247,37.1204 12.80086,5.6661 25.61016,12.1083 39.37677,16.0159 17.1482,4.8844 34.76998,8.4029 52.64248,10.5522 10.8687,1.3677 21.9864,-1.1723 32.8551,0 4.8306,0.586 10.8613,1.7596 13.035,5.4718 3.14,4.6891 4.106,11.7213 0,15.8242 -4.1058,4.4936 -12.7937,4.6903 -19.5565,5.4719 -13.0421,1.1723 -26.8095,2.5397 -39.3685,0 -67.86783,-14.6534 -81.64119,-38.2856 -111.83129,-42.5842 -4.10604,-0.5861 2.18318,22.4702 19.57296,31.8483 24.63509,13.2858 52.40038,21.8759 78.96785,31.8402 6.27951,2.5399 13.29098,3.3226 19.81198,5.4718 4.589,1.3675 8.4461,3.7171 13.0349,5.2802 23.1862,7.229 45.1631,5.0686 46.1293,5.2639 14.4914,4.2983 20.0561,5.4736 19.5729,16.024 -0.2415,7.4244 -10.3951,16.4107 -19.5729,15.8243 -31.8809,-1.3674 -62.0706,-12.5076 -92.0193,-21.1043 -31.63931,-9.1827 -68.59153,-51.1788 -92.01924,-32.032 -21.97846,17.7794 42.75731,36.3341 65.70214,53.1363 10.62685,8.0105 89.3629,29.5018 98.5407,42.5921 6.5211,9.3781 -37.4376,-5.8608 -50.7214,-6.8378 -69.89037,-5.0511 -148.51791,-62.3635 -114.00787,-20.3533 a 1164.5155,1128.2587 0 0 0 374.42537,61.1002 1164.5155,1128.2587 0 0 0 80.1963,-2.7559 c -1.3982,-25.0519 0.1963,-51.2277 22.8709,-64.559 11.339,-6.6001 14.4529,27.3703 17.8004,59.958 a 1164.5155,1128.2587 0 0 0 199.2004,-36.5132 c -3.2367,-5.2267 -9.1225,-13.3522 -17.0089,-16.6071 -26.5674,-11.1365 -112.8002,-18.174 -142.749,-23.6445 -48.0627,-8.5965 -92.7413,-17.7689 -139.8384,-29.4917 -19.08,-4.6891 148.293,13.8589 184.0384,16.0079 19.5632,0.9769 39.8586,2.7353 59.1805,0 39.6097,-5.8611 81.385,-117.0275 -32.8551,-111.7523 -24.1523,1.172 -21.97,7.6246 -65.6857,5.2799 -27.292,-1.5628 -42.5155,31.0599 -59.1806,-5.2799 -15.6986,-34.3865 100.2322,-20.9025 144.431,-26.5683 37.6773,-4.8844 52.8913,-0.1983 72.4546,-16.0238 14.9745,-12.1133 16.1894,-2.5351 26.3335,-16.0161 10.144,-13.6764 -18.8465,-26.3808 -26.3335,-26.5761 -17.6312,-0.3909 -35.0279,-0.3909 -52.6591,0 -7.0042,0.195 -47.0958,7.0317 -52.6507,10.7439 -9.4195,6.4474 -15.2072,16.6152 -26.3172,21.304 -22.4616,9.769 -47.8216,14.6531 -72.2154,21.296 -8.4531,2.1493 -17.6306,3.3183 -26.3253,5.2721 -29.466,6.6427 -13.2926,12.1185 -45.8983,5.2801 -8.4533,-1.7583 -4.8304,-15.4426 0,-21.3039 5.3133,-6.6425 16.6725,-8.395 26.3335,-10.5443 6.2795,-1.5629 13.0437,-1.1722 19.5648,0 4.8305,0.7816 8.4519,6.0457 13.2821,5.2641 23.4278,-3.7121 40.8189,0.2086 52.4117,-16.0079 6.7627,-8.9873 -4.3486,-11.1466 -19.5647,-10.5602 -27.5334,0.977 -17.1465,12.1183 -46.1291,5.28 -8.4535,-1.9539 -6.5211,-16.6152 0,-21.304 17.8727,-13.0904 54.5905,-24.414 78.9843,-21.288 4.8305,0.7815 8.6788,7.2269 6.5051,10.7438 -6.038,9.3781 -28.001,13.675 -13.0267,15.8243 33.33,5.0796 65.694,-13.8718 98.5408,-21.2961 31.3979,-7.0336 18.8293,7.6227 52.6426,-5.272 15.6987,-6.0566 1.449,-28.3298 0,-42.5921 -0.7247,-5.4705 -2.9047,-11.1352 -6.769,-15.8243 -5.0721,-6.2521 -19.5564,-8.4041 -19.5564,-16.0239 0,-3.3213 55.7988,6.8394 52.6589,-37.1204 -1.8115,-22.5294 -29.3092,-38.355 -47.2669,-37.8313 z m -323.1185,6.726 c -2.8479,-0.045 -5.7065,-0.024 -8.5745,0.048 -128.973,1.9539 -157.7123,19.9165 -136.4583,18.9395 -29.7071,23.0547 53.14,26.1825 63.5255,27.1594 39.1268,3.1258 107.229,6.8386 149.2541,-2.1489 12.3174,-2.3442 75.6011,-10.152 61.1098,-31.0574 -8.2119,-12.3087 -52.1708,-9.1831 -69.5606,-9.7693 -19.8652,0 -39.3616,-2.8535 -59.296,-3.1712 z m 8.8219,14.1068 25.8471,7.6206 c 9.1779,-0.1955 81.1474,-4.4936 34.0507,4.6889 -29.9488,5.8615 -83.3268,13.0886 -112.3095,6.055 l 27.0509,-6.055 c -56.7578,-3.7121 -85.2543,-5.8572 -71.729,-7.0295 13.5253,-0.9767 86.4628,-4.8892 97.0898,-5.28 z m 292.9757,602.8955 c 14.7026,2.4772 30.714,4.1877 40.2673,0 z"
       id="path24-4" /><g
       style="clip-rule:evenodd;fill-rule:evenodd;image-rendering:optimizeQuality;shape-rendering:geometricPrecision;text-rendering:geometricPrecision"
       id="_775282522288"
       transform="matrix(0.2316207,0,0,0.22440928,-1263.4683,-133.40571)"><path
         style="fill:#373435;stroke:#373435;stroke-width:7.62"
         inkscape:connector-curvature="0"
         id="path33"
         d="m 9854,8268 c 183,-128 345,-211 594,-441 290,-267 732,-678 1132,-987 l 384,-296 c 0,0 97,-29 140,37 43,66 -11,215 -11,215 0,0 -431,342 -613,474 -183,132 -688,616 -914,841 -160,160 -428,320 -571,399 z"
         class="fil7 str0" /><path
         style="fill:#84716b;stroke:#373435;stroke-width:7.62"
         inkscape:connector-curvature="0"
         id="path35"
         d="m 9864,8284 c 190,-135 339,-196 598,-430 282,-254 718,-679 1102,-979 l 375,-293 c 0,0 104,-47 146,16 42,63 -21,210 -21,210 0,0 -429,335 -607,461 -178,125 -660,592 -880,806 -175,171 -480,340 -600,404 z"
         class="fil8 str0" /><path
         style="fill:#000000;stroke:#373435;stroke-width:7.62"
         inkscape:connector-curvature="0"
         id="path37"
         d="m 9438,8527 c -15,-25 -17,-102 28,-133 l 220,-164 c 55,-41 140,-10 160,23 l 173,298 c 31,54 23,95 -3,124 l 396,131 c 36,2 69,18 101,39 -82,141 -147,227 -274,331 -9,7 -39,18 -50,21 -43,8 -238,46 -337,49 l -124,-358 c -27,10 -85,9 -106,-29 z"
         class="fil7 str0" /><path
         style="fill:#a98f71"
         inkscape:connector-curvature="0"
         id="path39"
         d="m 9920,8381 c 118,-81 753,-520 815,-606 68,-94 1101,-976 1143,-1002 41,-26 94,-79 110,-37 15,42 -131,126 -131,126 0,0 -221,184 -331,268 -110,84 -948,839 -1095,949 -132,100 -432,302 -488,340 z"
         class="fil9" /><path
         style="fill:#bdbfc1"
         inkscape:connector-curvature="0"
         id="path41"
         d="m 9469,8524 c -13,-24 -15,-86 27,-115 l 207,-144 c 53,-38 107,-5 125,26 l 168.9996,276 c 30.0004,49 16.0004,104 -9,131 L 10381,8821 c 33,2 65,12 95,31 -73,126 -163,228 -264,321 -11,10 -18,25 -32,29 -135,33 -224.0004,38 -288.9998,45 L 9747,8873 c -25,10 -80,-1 -99,-36 z"
         class="fil1" /></g><g
       style="clip-rule:evenodd;fill-rule:evenodd;image-rendering:optimizeQuality;shape-rendering:geometricPrecision;text-rendering:geometricPrecision"
       id="_775282492272"
       transform="matrix(0.2316207,0,0,0.22440928,-1263.4683,-133.40571)"><g
         id="g44"><path
           style="fill:#a45e4d"
           inkscape:connector-curvature="0"
           id="path46"
           d="m 10614,9334 c 0,0 204,-499 285,-600 82,-102 265,-331 265,-331 -10,-16 -16,-35 -31,-46 -32,-25 -90,-24 -106,-61 -25,-56 22,-127 0,-184 -37,-92 -110,-165 -168,-244 -44,-58 -84,-120 -138,-168 -35,-31 -126,-18 -126,-65 0,-43 84,-18 126,-27 0,0 50,-245 50,-290 0,-46 76,-124 76,-124 -5,-20 -23,-41 -15,-60 10,-19 47,-11 57,-30 38,-71 42,-158 81,-229 48,-89 145,-149 179,-244 25,-73 -16,-154 -11,-230 1,-23 25,-83 30,-61 24,89 28,183 27,275 -1,42 -11,86 -31,123 -32,57 -91,95 -122,152 -39,72 -59,153 -87,229 -21,56 -42,112 -61,168 -28,81 -58,162 -81,245 -9,30 -31,65 -16,92 36,62 90,117 153,152 21,12 46,-44 66,-31 26,18 18,62 26,92 16,61 32,122 46,184 8,40 14,81 19,122 5,30 -10,69 11,92 45,45 124,45 168,91 21,22 19,65 5,92 -38,70 -108,117 -153,183 -67,98 -129,200 -183,305 -54,104 -103,211 -142,321 -23,64 2,151 -46,199 -26,26 -46,-58 -77,-76 -22,-14 -50,-10 -76,-16 z"
           class="fil10" /><path
           style="fill:#cb7246"
           inkscape:connector-curvature="0"
           id="path48"
           d="m 10724,9295 c 43,-138 99,-273 167,-400 81,-150 185,-286 278,-428 19,-30 69,-54 58,-87 -19,-54 -101,-65 -127,-116 -36,-68 -22,-155 -52,-226 -33,-74 -87,-137 -133,-202 -52,-74 -150,-126 -162,-215 -16,-114 52,-225 86,-336 12,-38 37,-72 52,-110 43,-101 70,-209 122,-306 32,-60 91,-100 127,-157 19,-29 33,-63 35,-98 4,-81 -20,-162 -18,-243 1,-13 22,16 24,29 10,67 16,135 11,202 -3,42 -14,104 -35,140 -32,58 -96,109 -126,168 -50,97 -68,192 -108,293 -16,41 -27,90 -43,131 -25,65 -45,136 -64,202 -10,34 -29,49 -19,82 15,48 83,99 118,134 18,19 37,26 55,15 20,-11 38,-40 56,-16 10,15 -6,36 0,68 13,62 45,134 58,165 15,37 8,98 17,137 10,42 -9,84 16,120 33,47 122,52 159,97 11,13 -18,76 -26,91 -62,109 -132,181 -200,287 -47,74 -102,158 -138,238 -64,139 -102,280 -171,416 -12,23 -25,-51 -17,-75 z"
           class="fil11" /></g><g
         id="g50"><path
           style="fill:#000000;stroke:#373435;stroke-width:7.62"
           inkscape:connector-curvature="0"
           id="path52"
           d="m 10971,8246 c -58,-42 -94,-73 -137,-131 -15,-21 -9,-51 -15,-76 -4,-16 -10,-31 -15,-46 -10,-31 -10,-67 -31,-92 -28,-34 -76,-45 -107,-76 -16,-16 -9,-52 -30,-61 -24,-10 -55,30 -77,15 -53,-37 -64,-124 -122,-153 -37,-18 -81,39 -122,31 -47,-9 -76,-63 -122,-77 -30,-8 -61,18 -92,16 -52,-4 -103,-47 -153,-31 -30,10 -3,75 -30,92 -27,16 -62,-24 -92,-15 -15,4 0,39 -15,45 -53,22 -153,-24 -168,31 -16,59 88,86 122,137 8,13 -10,35 0,46 24,28 78,27 92,61 12,30 -45,63 -31,92 23,46 80,63 122,92 19,12 49,11 61,30 12,17 -17,50 0,61 39,26 96,9 138,31 38,20 50,79 92,92 35,11 69,-34 106,-31 36,3 62,39 97,46 38,8 80,-12 117,0 31,10 44,61 77,61 29,0 40,-41 61,-61 25,-26 43,-64 76,-76 38,-15 82,-3 122,0 44,2 88,22 131,13 16,-3 28,-32 18,-44 -13,-14 -58,-10 -73,-22 z"
           class="fil7 str0" /><path
           style="fill:#00a859"
           inkscape:connector-curvature="0"
           id="path54"
           d="m 9687,7730 c 104,57 291,93 401,134 55,21 107,37 162,61 32,14 67,49 101,39 17,-6 2,-20 -6,-35 -18,-34 -64,-83 -87,-116 -27,-41 -69,-84 -87,-130 -6,-17 -2,-36 3,-52 3,-9 12,-18 3,-24 -26,-18 -58,33 -89,31 -44,-3 -83,-60 -125,-46 -31,11 5,78 -23,95 -29,18 -66,-25 -100,-20 -15,3 -7,35 -21,40 -41,17 -172,2 -132,23 z"
           class="fil12" /><path
           style="fill:#00a859"
           inkscape:connector-curvature="0"
           id="path56"
           d="m 10404,7988 c -32,-25 -42,-73 -64,-107 -44,-70 -104,-112 -142,-185 -11,-21 -17,-86 6,-87 38,-3 56,56 93,63 39,8 90,-48 117,-19 10,10 -8,24 -8,38 -2,32 0,71 7,103 11,57 33,113 63,162 27,43 151,89 105,110 -22,10 -45,-3 -69,-13 -38,-16 -77,-40 -108,-65 z"
           class="fil12" /><path
           style="fill:#00a859"
           inkscape:connector-curvature="0"
           id="path58"
           d="m 10442,7650 c -16,0 -14,30 -16,46 -3,33 -1,70 14,101 22,48 30,103 59,147 20,32 68,47 92,77 15,18 11,51 31,63 41,26 94,30 134,58 34,23 74,54 134,63 38,6 -68,-44 -87,-78 -13,-25 5,-58 -1,-86 -9,-40 -22,-79 -42,-115 -8,-15 -25,-25 -41,-34 -17,-9 -41,-4 -55,-18 -20,-19 -17,-59 -41,-73 -24,-15 -61,15 -83,-2 -47,-37 -39,-148 -98,-149 z"
           class="fil12" /><path
           style="fill:#00a859"
           inkscape:connector-curvature="0"
           id="path60"
           d="m 9749,7791 c 37,1 73,16 107,28 57,19 112,40 169,62 91,35 171,40 253,91 39,25 -75,6 -118,23 -42,16 -71,55 -102,87 -15,15 -16,45 -35,52 -25,9 -54,0 -76,-13 -34,-19 -72,-43 -85,-80 -10,-28 33,-58 25,-87 -8,-26 -48,-29 -65,-50 -8,-11 -1,-29 -8,-40 -18,-28 -97,-75 -65,-73 z"
           class="fil12" /><path
           style="fill:#00a859"
           inkscape:connector-curvature="0"
           id="path62"
           d="m 10033,8212 c -23,-27 15,-74 38,-103 26,-35 63,-65 104,-80 57,-21 121,-36 181,-26 47,8 75,37 120,59 25,13 74,26 99,37 69,31 104,31 184,75 47,26 -92,17 -144,31 -41,11 -57,16 -90,43 -26,23 -54,87 -87,98 -35,12 -59,-30 -95,-36 -28,-5 -57,14 -85,8 -22,-4 -41,-21 -57,-37 -14,-15 -11,-47 -31,-55 -42,-18 -107,21 -137,-14 z"
           class="fil12" /><path
           style="fill:#00a859"
           inkscape:connector-curvature="0"
           id="path64"
           d="m 10827,8212 c 47,6 85,41 129,58 19,7 52,-5 59,14 5,16 -35,7 -52,6 -67,-2 -138,-35 -201,-13 -57,20 -69,110 -125,129 -31,10 -42,-54 -72,-64 -29,-9 -63,32 -78,6 -15,-26 24,-66 47,-84 33,-25 72,-31 111,-40 62,-15 120,-20 182,-12 z"
           class="fil12" /></g><g
         id="g66"><path
           style="fill:#000000;stroke:#373435;stroke-width:7.62"
           inkscape:connector-curvature="0"
           id="path68"
           d="m 10613,7562 c -2,-57 1,-95 24,-153 9,-21 40,-35 59,-53 11,-11 20,-23 31,-35 20,-24 53,-45 61,-71 12,-35 -11,-69 -4,-104 3,-19 40,-36 34,-53 -7,-19 -65,-14 -67,-34 -3,-52 68,-108 54,-158 -9,-32 -90,-23 -112,-51 -24,-32 5,-80 -15,-113 -13,-22 -58,-25 -77,-43 -33,-31 -29,-86 -78,-104 -30,-11 -70,42 -104,36 -33,-5 -21,-49 -49,-60 -15,-7 -36,22 -52,18 -56,-17 -84,-101 -143,-77 -65,25 -18,100 -40,148 -6,13 -38,15 -42,27 -8,30 30,60 8,87 -18,24 -87,11 -103,36 -26,39 -3,82 1,122 2,18 23,34 15,53 -8,16 -57,19 -56,35 4,37 59,59 68,95 8,34 -37,75 -20,105 15,27 78,20 101,43 22,21 8,57 26,81 18,26 65,38 80,66 13,23 -25,60 -2,79 20,16 65,-1 97,-2 41,0 87,-12 122,-1 39,13 58,45 84,69 28,26 41,62 78,82 14,6 48,-3 52,-16 4,-15 -31,-39 -31,-54 z"
           class="fil7 str0" /><path
           style="fill:#00a859"
           inkscape:connector-curvature="0"
           id="path70"
           d="m 10194,6538 c 20,93 117,219 156,305 19,43 40,81 56,126 10,27 3,66 35,79 17,7 19,-9 27,-23 18,-30 30,-84 45,-116 18,-39 28,-88 57,-124 11,-14 31,-23 49,-29 11,-4 25,-4 24,-13 -1,-25 -69,-13 -89,-32 -28,-27 -3,-81 -45,-97 -31,-11 -67,48 -102,42 -36,-6 -23,-52 -51,-67 -12,-7 -35,15 -50,11 -44,-14 -120,-96 -112,-62 z"
           class="fil12" /><path
           style="fill:#00a859"
           inkscape:connector-curvature="0"
           id="path72"
           d="m 10455,7093 c 1,-33 38,-67 53,-99 33,-65 30,-123 69,-188 11,-18 66,-58 83,-46 28,19 -12,64 7,89 19,26 106,22 98,55 -2,11 -27,9 -40,17 -31,18 -64,42 -88,64 -44,39 -79,84 -103,130 -20,40 24,137 -27,123 -24,-7 -28,-28 -36,-46 -12,-32 -17,-67 -16,-99 z"
           class="fil12" /><path
           style="fill:#00a859"
           inkscape:connector-curvature="0"
           id="path74"
           d="m 10787,6918 c -11,-9 -37,9 -52,17 -33,18 -65,40 -83,67 -28,40 -71,77 -92,119 -14,30 5,66 -5,96 -6,19 -39,36 -36,54 5,39 38,70 41,110 2,32 1,73 35,112 21,24 -8,-64 10,-94 14,-23 55,-32 77,-51 30,-28 56,-58 75,-90 8,-14 5,-30 2,-43 -3,-15 -24,-26 -22,-42 4,-23 42,-44 39,-66 -3,-21 -57,-25 -56,-48 1,-47 107,-107 67,-141 z"
           class="fil12" /><path
           style="fill:#00a859"
           inkscape:connector-curvature="0"
           id="path76"
           d="m 10182,6609 c 25,22 35,50 49,76 22,43 41,87 60,132 31,71 82,120 92,195 5,37 -57,-39 -102,-53 -43,-14 -98,-8 -149,-7 -23,1 -51,18 -71,10 -24,-8 -37,-30 -41,-50 -6,-30 -10,-66 14,-94 18,-23 75,-15 96,-37 19,-19 -7,-43 1,-65 3,-11 25,-17 30,-28 13,-26 0,-98 21,-79 z"
           class="fil12" /><path
           style="fill:#00a859"
           inkscape:connector-curvature="0"
           id="path78"
           d="m 9998,7014 c 8,-29 77,-35 118,-39 50,-5 103,-2 145,12 58,20 116,48 148,88 25,30 19,63 29,101 6,22 28,57 35,77 20,58 44,77 59,148 9,41 -78,-42 -127,-63 -38,-17 -54,-23 -101,-26 -39,-2 -115,20 -148,8 -34,-13 -14,-51 -33,-75 -15,-18 -52,-24 -66,-43 -11,-15 -10,-35 -6,-53 4,-18 35,-34 29,-50 -14,-34 -93,-48 -82,-85 z"
           class="fil12" /><path
           style="fill:#00a859"
           inkscape:connector-curvature="0"
           id="path80"
           d="m 10546,7461 c 26,30 21,72 36,107 6,15 40,26 28,41 -11,12 -30,-16 -42,-26 -45,-39 -63,-98 -127,-121 -57,-20 -146,26 -202,4 -30,-11 19,-54 7,-77 -11,-22 -71,-17 -58,-41 12,-23 76,-25 109,-22 44,4 76,23 112,40 56,26 101,55 137,95 z"
           class="fil12" /></g><g
         id="g82"><path
           style="fill:#000000;stroke:#373435;stroke-width:7.62"
           inkscape:connector-curvature="0"
           id="path84"
           d="m 11050,7753 c 36,-35 62,-56 113,-75 18,-7 46,5 68,6 14,1 28,-1 41,-1 28,-1 60,8 82,-2 30,-14 38,-49 64,-65 14,-9 47,4 54,-10 9,-16 -29,-50 -17,-63 31,-33 109,-20 133,-59 15,-25 -39,-72 -33,-102 5,-34 53,-44 63,-77 7,-21 -18,-51 -18,-75 1,-39 38,-69 21,-111 -11,-26 -68,-20 -85,-45 -16,-25 19,-43 10,-68 -5,-13 -36,-10 -43,-23 -22,-46 15,-113 -35,-137 -55,-27 -75,48 -120,62 -11,4 -31,-15 -41,-10 -24,12 -21,54 -51,56 -27,3 -59,-49 -85,-45 -40,7 -54,47 -77,74 -11,11 -9,34 -25,40 -15,5 -46,-25 -56,-15 -22,25 -3,73 -21,100 -17,25 -69,21 -79,50 -8,25 34,62 33,90 -1,27 -32,39 -38,64 -5,28 15,65 6,91 -7,22 -53,20 -52,45 2,23 39,41 59,62 24,26 59,48 72,77 15,33 6,64 6,95 0,34 -16,63 -6,99 4,12 30,29 41,23 12,-6 7,-42 16,-51 z"
           class="fil7 str0" /><path
           style="fill:#00a859"
           inkscape:connector-curvature="0"
           id="path86"
           d="m 11458,6877 c -46,68 -70,205 -102,280 -17,38 -29,75 -48,111 -11,23 -41,41 -30,70 5,15 17,6 31,4 30,-6 72,-31 101,-41 36,-11 73,-33 114,-36 15,-2 32,6 47,14 9,5 17,13 22,8 16,-16 -32,-53 -32,-77 1,-33 50,-50 36,-86 -11,-26 -71,-14 -88,-40 -17,-27 20,-46 14,-73 -3,-12 -32,-13 -37,-25 -18,-37 -10,-135 -28,-109 z"
           class="fil12" /><path
           style="fill:#00a859"
           inkscape:connector-curvature="0"
           id="path88"
           d="m 11258,7373 c 21,-18 65,-15 94,-24 62,-18 97,-54 162,-67 18,-4 77,7 79,26 4,29 -48,30 -53,57 -6,28 48,81 23,95 -9,6 -22,-12 -35,-16 -30,-8 -65,-16 -93,-18 -51,-5 -101,-1 -145,11 -37,11 -74,97 -94,56 -10,-20 0,-35 8,-51 13,-26 32,-50 54,-69 z"
           class="fil12" /><path
           style="fill:#00a859"
           inkscape:connector-curvature="0"
           id="path90"
           d="m 11567,7482 c -1,-12 -28,-18 -43,-23 -30,-10 -63,-17 -91,-13 -43,6 -92,0 -131,11 -28,9 -39,43 -65,54 -16,7 -46,-4 -56,9 -22,26 -23,66 -46,91 -19,21 -46,44 -51,89 -3,28 36,-43 66,-49 23,-5 53,17 78,19 36,3 71,2 103,-5 14,-3 22,-14 29,-24 7,-11 2,-31 14,-39 16,-11 52,1 64,-14 12,-15 -16,-52 -2,-65 31,-27 133,5 131,-41 z"
           class="fil12" /><path
           style="fill:#00a859"
           inkscape:connector-curvature="0"
           id="path92"
           d="m 11407,6912 c 0,28 -12,52 -21,76 -14,40 -31,77 -48,117 -28,62 -29,123 -71,174 -21,25 -9,-59 -27,-97 -17,-36 -53,-67 -83,-99 -15,-15 -42,-23 -49,-40 -9,-21 -3,-42 8,-56 16,-22 36,-46 68,-47 26,-1 55,40 81,40 23,0 24,-30 42,-38 10,-5 26,6 36,3 24,-8 63,-58 64,-33 z"
           class="fil12" /><path
           style="fill:#00a859"
           inkscape:connector-curvature="0"
           id="path94"
           d="m 11037,7033 c 24,-12 68,29 96,53 32,29 61,64 77,100 22,49 38,102 32,147 -5,34 -30,49 -48,79 -10,16 -20,52 -29,68 -25,47 -23,74 -59,125 -22,31 -20,-75 -35,-119 -12,-34 -17,-48 -44,-79 -22,-27 -81,-63 -93,-91 -11,-30 25,-39 29,-65 3,-21 -16,-48 -12,-68 3,-17 17,-28 32,-36 13,-8 42,3 48,-11 14,-29 -24,-88 6,-103 z"
           class="fil12" /><path
           style="fill:#00a859"
           inkscape:connector-curvature="0"
           id="path96"
           d="m 11075,7650 c -4,35 -34,56 -47,86 -6,13 7,42 -10,42 -14,1 -8,-28 -8,-41 -2,-52 26,-99 2,-154 -20,-48 -103,-79 -122,-127 -11,-26 46,-20 54,-41 7,-20 -32,-56 -9,-62 23,-5 62,34 79,57 24,31 31,63 41,95 16,52 24,98 20,145 z"
           class="fil12" /></g><g
         id="g98"><path
           style="fill:#000000;stroke:#373435;stroke-width:7.62"
           inkscape:connector-curvature="0"
           id="path100"
           d="m 11321,8277 c 66,-32 107,-56 161,-106 19,-18 18,-50 29,-74 7,-14 16,-28 24,-42 16,-29 23,-65 48,-86 34,-29 84,-31 121,-57 19,-13 19,-50 42,-55 26,-6 49,40 73,30 61,-27 87,-112 151,-130 41,-12 74,53 116,53 49,0 88,-48 137,-53 31,-3 57,29 88,33 53,6 113,-28 159,-2 28,16 -11,75 13,97 23,21 66,-12 94,2 15,7 -7,40 7,48 48,32 158,5 162,62 5,63 -104,70 -148,115 -10,11 4,36 -8,46 -29,23 -83,12 -103,44 -18,27 33,71 13,97 -31,41 -92,48 -139,68 -21,10 -51,3 -67,20 -14,14 8,52 -11,61 -44,18 -98,-10 -143,4 -42,13 -66,70 -109,75 -38,4 -64,-47 -101,-51 -36,-4 -69,27 -105,28 -40,1 -78,-27 -117,-22 -33,4 -56,53 -88,47 -29,-6 -33,-49 -50,-73 -20,-30 -31,-71 -62,-91 -35,-21 -81,-17 -122,-22 -44,-6 -92,5 -133,-12 -15,-6 -22,-37 -9,-46 15,-12 60,0 77,-8 z"
           class="fil7 str0" /><path
           style="fill:#00a859"
           inkscape:connector-curvature="0"
           id="path102"
           d="m 12700,8002 c -115,37 -309,37 -426,58 -59,11 -114,17 -173,30 -35,8 -76,36 -108,20 -16,-9 1,-19 12,-33 24,-31 80,-71 109,-100 35,-35 84,-71 111,-113 10,-16 8,-36 6,-53 -1,-10 -8,-20 2,-24 29,-14 52,43 84,47 44,5 93,-44 133,-22 28,16 -20,77 5,99 26,23 71,-13 103,-1 15,5 1,35 14,44 38,24 172,34 128,48 z"
           class="fil12" /><path
           style="fill:#00a859"
           inkscape:connector-curvature="0"
           id="path104"
           d="m 11936,8125 c 36,-19 55,-66 83,-96 58,-61 125,-92 177,-158 15,-18 32,-82 10,-88 -37,-9 -67,46 -105,46 -40,1 -80,-65 -113,-41 -12,8 3,25 1,40 -4,32 -14,71 -26,101 -22,55 -54,107 -94,150 -35,38 -168,61 -125,90 20,14 46,5 71,0 42,-8 84,-25 121,-44 z"
           class="fil12" /><path
           style="fill:#00a859"
           inkscape:connector-curvature="0"
           id="path106"
           d="m 11961,7780 c 16,3 8,32 7,49 -3,33 -12,70 -33,98 -31,44 -50,97 -86,136 -27,28 -78,34 -107,59 -18,15 -20,49 -42,58 -47,18 -100,12 -146,32 -38,17 -83,41 -145,38 -39,-1 76,-31 101,-61 19,-23 7,-59 18,-86 16,-38 36,-75 63,-107 11,-14 30,-21 47,-26 19,-6 43,3 59,-8 24,-15 28,-56 54,-66 27,-10 59,27 84,14 54,-28 66,-140 126,-130 z"
           class="fil12" /><path
           style="fill:#00a859"
           inkscape:connector-curvature="0"
           id="path108"
           d="m 12626,8050 c -37,-5 -75,3 -111,8 -61,8 -120,19 -181,30 -98,18 -179,8 -270,44 -44,17 74,20 114,45 38,24 60,69 85,106 12,18 7,48 26,59 22,13 53,10 78,1 37,-13 80,-30 100,-64 15,-26 -23,-64 -9,-92 12,-25 53,-20 74,-38 11,-9 6,-28 16,-38 23,-24 111,-56 78,-61 z"
           class="fil12" /><path
           style="fill:#00a859"
           inkscape:connector-curvature="0"
           id="path110"
           d="m 12263,8418 c 29,-23 -1,-77 -18,-110 -20,-40 -50,-77 -88,-100 -54,-32 -115,-58 -177,-59 -48,-1 -82,22 -130,36 -28,8 -80,12 -106,18 -75,18 -110,12 -198,41 -52,17 88,34 138,58 39,18 54,26 81,60 23,28 38,97 69,114 33,18 65,-19 102,-18 28,0 54,24 83,24 23,-1 45,-13 64,-27 17,-12 20,-45 41,-49 46,-10 103,41 139,12 z"
           class="fil12" /><path
           style="fill:#00a859"
           inkscape:connector-curvature="0"
           id="path112"
           d="m 11470,8269 c -48,-3 -92,25 -139,34 -20,3 -51,-15 -61,2 -9,16 33,14 50,17 68,10 145,-10 204,24 52,31 47,123 101,152 28,16 51,-45 83,-50 31,-4 57,43 77,20 20,-22 -12,-70 -32,-93 -27,-30 -65,-43 -103,-60 -59,-26 -115,-43 -180,-46 z"
           class="fil12" /></g><g
         id="g114"><path
           style="fill:#000000;stroke:#373435;stroke-width:7.62"
           inkscape:connector-curvature="0"
           id="path116"
           d="m 11069,8797 c 29,7 47,14 73,33 9,7 12,24 18,36 4,7 9,13 14,20 8,13 15,32 26,40 16,10 36,3 53,11 8,4 12,25 21,24 11,-1 16,-30 26,-28 26,5 44,48 71,47 17,0 23,-41 40,-48 19,-8 39,13 58,7 13,-3 20,-25 32,-32 19,-12 46,-3 61,-25 10,-13 -11,-40 -4,-56 7,-15 27,-4 37,-16 5,-7 -7,-21 -2,-28 16,-26 61,-28 57,-61 -4,-35 -47,-22 -68,-40 -5,-4 -2,-20 -8,-24 -13,-8 -33,7 -44,-7 -9,-13 6,-45 -4,-56 -16,-18 -40,-12 -61,-16 -9,-1 -20,7 -27,0 -7,-6 -2,-30 -11,-32 -18,-3 -37,21 -56,21 -17,-1 -32,-28 -49,-24 -15,4 -20,36 -35,45 -13,8 -29,-4 -43,1 -16,6 -28,28 -44,31 -13,4 -26,-20 -38,-11 -11,7 -8,32 -12,48 -6,20 -6,45 -16,60 -12,18 -30,23 -45,33 -17,10 -37,12 -51,28 -5,5 -5,24 1,27 7,4 23,-10 30,-8 z"
           class="fil7 str0" /><path
           style="fill:#00a859"
           inkscape:connector-curvature="0"
           id="path118"
           d="m 11632,8726 c -49,-2 -124,29 -172,37 -23,4 -45,9 -70,11 -14,1 -33,-8 -43,7 -6,7 2,10 7,16 13,13 38,26 52,38 17,14 40,26 54,45 5,7 7,18 7,28 1,6 -1,12 3,13 13,3 16,-32 28,-39 17,-11 41,9 54,-10 10,-13 -15,-39 -7,-56 8,-17 29,-4 40,-16 5,-5 -3,-20 1,-26 13,-20 64,-47 46,-48 z"
           class="fil12" /><path
           style="fill:#00a859"
           inkscape:connector-curvature="0"
           id="path120"
           d="m 11323,8782 c 16,4 28,27 41,39 28,25 57,31 84,59 8,8 20,41 12,48 -13,11 -30,-15 -45,-9 -16,6 -25,49 -40,41 -6,-2 -1,-14 -3,-22 -5,-17 -12,-37 -20,-52 -14,-27 -31,-50 -51,-68 -17,-16 -71,-7 -57,-30 7,-11 17,-10 28,-11 17,-2 35,0 51,5 z"
           class="fil12" /><path
           style="fill:#00a859"
           inkscape:connector-curvature="0"
           id="path122"
           d="m 11365,8969 c 6,-4 0,-19 -2,-28 -4,-18 -11,-37 -22,-50 -16,-19 -28,-45 -46,-61 -13,-11 -33,-6 -47,-15 -9,-6 -13,-25 -22,-26 -20,-2 -40,10 -60,6 -16,-3 -36,-9 -60,2 -15,8 33,5 45,18 10,10 8,32 15,45 10,18 22,36 35,49 6,6 14,7 21,7 8,0 16,-9 23,-5 11,4 16,26 28,27 11,2 20,-24 31,-21 23,7 39,67 61,52 z"
           class="fil12" /><path
           style="fill:#00a859"
           inkscape:connector-curvature="0"
           id="path124"
           d="m 11598,8711 c -14,9 -29,11 -44,14 -24,5 -48,9 -73,12 -40,6 -70,25 -109,20 -18,-3 27,-23 40,-44 13,-19 17,-47 23,-72 3,-12 -1,-28 5,-37 7,-11 20,-14 30,-14 16,2 34,4 45,20 8,12 -3,39 5,52 7,12 23,3 33,10 4,3 5,14 9,18 11,10 49,13 36,21 z"
           class="fil12" /><path
           style="fill:#00a859"
           inkscape:connector-curvature="0"
           id="path126"
           d="m 11423,8566 c 13,8 7,43 3,64 -4,25 -12,51 -25,70 -18,26 -39,51 -63,61 -19,9 -34,1 -54,1 -12,0 -32,6 -43,7 -31,2 -44,12 -81,10 -22,-1 31,-34 48,-55 14,-16 19,-23 26,-46 6,-19 6,-60 16,-75 11,-15 27,0 41,-6 12,-5 19,-23 31,-27 9,-3 18,0 27,4 8,5 12,22 21,21 18,-2 36,-40 53,-29 z"
           class="fil12" /><path
           style="fill:#00a859"
           inkscape:connector-curvature="0"
           id="path128"
           d="m 11128,8777 c -18,10 -38,1 -57,4 -8,1 -19,17 -24,8 -5,-7 11,-12 18,-17 25,-17 57,-18 77,-46 17,-26 7,-76 25,-101 9,-14 24,17 37,14 12,-3 18,-33 28,-24 10,10 2,41 -4,57 -8,22 -21,35 -34,50 -20,25 -41,43 -66,55 z"
           class="fil12" /></g><g
         id="g130"><path
           style="fill:#000000;stroke:#373435;stroke-width:7.62"
           inkscape:connector-curvature="0"
           id="path132"
           d="m 11117,6328 c -21,-36 -37,-59 -70,-88 -12,-11 -32,-10 -47,-15 -10,-4 -19,-9 -28,-13 -18,-8 -41,-11 -55,-25 -19,-19 -22,-47 -39,-67 -9,-11 -32,-10 -36,-23 -4,-14 24,-28 17,-42 -19,-33 -72,-47 -86,-82 -8,-23 32,-43 31,-67 -1,-28 -33,-49 -37,-76 -2,-18 17,-33 18,-51 3,-30 -20,-63 -5,-89 10,-17 48,4 61,-10 13,-14 -9,-37 -1,-54 4,-8 25,4 31,-4 18,-28 -1,-90 35,-93 39,-5 46,57 76,81 7,5 22,-3 29,3 15,16 10,47 30,58 18,9 44,-21 61,-10 27,17 33,51 47,77 6,12 3,29 13,37 10,8 34,-5 39,6 13,24 -3,55 7,80 9,24 45,36 49,60 4,21 -27,37 -29,58 -2,21 19,39 20,59 2,23 -15,45 -11,67 4,18 35,30 32,49 -3,16 -30,19 -45,29 -18,13 -44,19 -55,37 -13,21 -9,46 -12,70 -2,25 6,52 -3,75 -4,9 -23,14 -30,7 -7,-9 -1,-34 -7,-44 z"
           class="fil7 str0" /><path
           style="fill:#00a859"
           inkscape:connector-curvature="0"
           id="path134"
           d="m 10909,5555 c 27,64 32,173 48,239 8,33 14,64 24,97 5,20 24,43 15,61 -5,9 -13,0 -22,-6 -20,-13 -46,-44 -65,-59 -24,-19 -47,-47 -75,-61 -10,-5 -22,-4 -33,-2 -6,1 -12,5 -15,-1 -10,-16 26,-30 27,-48 2,-25 -30,-52 -17,-75 10,-16 49,10 63,-5 13,-15 -10,-40 -4,-58 3,-9 23,-1 27,-9 15,-22 18,-98 27,-73 z"
           class="fil12" /><path
           style="fill:#00a859"
           inkscape:connector-curvature="0"
           id="path136"
           d="m 11006,5984 c -13,-20 -43,-30 -62,-45 -40,-31 -61,-68 -104,-97 -12,-8 -53,-16 -56,-3 -5,21 30,36 32,58 1,23 -39,47 -24,65 6,7 16,-3 26,-2 20,2 45,7 64,13 35,11 69,28 97,50 25,18 43,93 60,69 8,-12 2,-27 -2,-41 -6,-23 -18,-47 -31,-67 z"
           class="fil12" /><path
           style="fill:#00a859"
           inkscape:connector-curvature="0"
           id="path138"
           d="m 10788,5977 c 1,-9 20,-5 31,-5 21,1 44,6 63,16 28,17 62,27 88,47 18,14 23,42 39,58 11,10 32,11 38,23 12,26 10,56 24,82 11,21 28,46 27,81 0,22 -21,-43 -41,-56 -15,-10 -37,-2 -54,-8 -25,-8 -49,-19 -69,-33 -9,-6 -14,-17 -18,-27 -4,-10 1,-23 -6,-33 -11,-13 -36,-14 -43,-29 -7,-14 15,-33 6,-47 -19,-30 -90,-35 -85,-69 z"
           class="fil12" /><path
           style="fill:#00a859"
           inkscape:connector-curvature="0"
           id="path140"
           d="m 10942,5595 c -3,22 4,43 8,63 6,34 15,67 23,102 14,55 10,101 35,151 12,24 10,-42 25,-65 15,-22 42,-36 65,-51 11,-7 30,-5 36,-15 8,-14 6,-31 -1,-45 -9,-21 -20,-44 -43,-55 -17,-8 -40,14 -57,7 -16,-6 -14,-29 -26,-41 -6,-5 -18,-3 -25,-8 -15,-12 -38,-61 -40,-43 z"
           class="fil12" /><path
           style="fill:#00a859"
           inkscape:connector-curvature="0"
           id="path142"
           d="m 11183,5792 c -15,-16 -48,2 -69,13 -24,12 -47,30 -61,52 -18,31 -34,66 -33,101 1,28 16,46 26,73 6,16 10,45 15,60 13,42 9,61 30,111 12,29 20,-51 33,-80 11,-22 16,-31 36,-47 17,-13 60,-23 70,-42 11,-18 -13,-36 -14,-56 0,-17 14,-32 13,-48 0,-13 -9,-25 -18,-36 -8,-9 -29,-10 -32,-22 -7,-25 23,-59 4,-79 z"
           class="fil12" /><path
           style="fill:#00a859"
           inkscape:connector-curvature="0"
           id="path144"
           d="m 11109,6244 c -1,27 18,52 25,78 2,11 -9,29 3,34 10,5 7,-19 9,-28 5,-39 -10,-82 10,-116 18,-30 76,-30 94,-61 9,-16 -30,-28 -34,-46 -3,-17 26,-33 11,-44 -15,-10 -45,9 -58,20 -19,17 -26,39 -36,60 -15,34 -24,66 -24,103 z"
           class="fil12" /></g><g
         id="g146"><path
           style="fill:#000000;stroke:#373435;stroke-width:7.62"
           inkscape:connector-curvature="0"
           id="path148"
           d="m 11139,6762 c 36,-41 57,-70 78,-122 8,-18 -2,-42 -1,-63 0,-13 2,-25 4,-38 2,-26 -4,-55 7,-77 15,-31 48,-46 66,-74 9,-15 -2,-43 12,-53 16,-11 45,17 58,3 33,-36 26,-107 64,-137 24,-20 65,21 93,9 33,-12 45,-59 77,-76 20,-10 47,7 69,2 37,-9 67,-51 106,-43 23,4 14,59 36,69 22,10 41,-26 64,-23 12,1 7,32 19,35 41,11 107,-38 127,4 21,45 -51,80 -67,125 -4,11 13,26 7,36 -13,26 -52,31 -56,60 -4,26 42,45 36,70 -9,39 -47,61 -73,88 -12,13 -34,15 -40,32 -5,15 20,38 10,49 -24,26 -68,19 -95,41 -24,21 -24,70 -52,85 -24,13 -56,-18 -82,-12 -26,7 -39,39 -63,49 -26,11 -60,0 -85,14 -21,12 -22,54 -45,58 -21,4 -37,-28 -55,-41 -22,-18 -41,-46 -67,-52 -30,-7 -60,8 -89,15 -31,7 -60,28 -92,26 -12,0 -26,-22 -20,-33 7,-12 40,-15 49,-26 z"
           class="fil7 str0" /><path
           style="fill:#00a859"
           inkscape:connector-curvature="0"
           id="path150"
           d="m 11988,6193 c -67,58 -197,109 -270,156 -36,23 -72,43 -107,68 -22,15 -41,47 -67,43 -14,-2 -5,-15 -2,-28 8,-29 33,-74 45,-103 13,-36 36,-76 42,-115 2,-14 -5,-29 -11,-41 -4,-7 -11,-13 -6,-19 16,-18 47,19 70,13 31,-7 50,-57 83,-51 24,5 9,63 32,73 24,11 44,-28 69,-28 11,0 11,27 22,30 33,8 125,-20 100,2 z"
           class="fil12" /><path
           style="fill:#00a859"
           inkscape:connector-curvature="0"
           id="path152"
           d="m 11509,6487 c 19,-24 18,-65 29,-94 21,-62 57,-102 74,-166 4,-18 -2,-70 -19,-69 -28,3 -32,52 -57,63 -27,11 -73,-28 -88,-2 -6,10 9,18 12,30 7,25 11,57 11,83 1,47 -5,94 -20,138 -12,37 -95,89 -58,100 17,5 32,-8 48,-18 25,-18 49,-41 68,-65 z"
           class="fil12" /><path
           style="fill:#00a859"
           inkscape:connector-curvature="0"
           id="path154"
           d="m 11427,6220 c 12,-2 15,22 19,35 8,26 12,56 6,83 -8,41 -5,86 -19,125 -10,28 -42,46 -55,72 -8,17 1,43 -12,55 -26,26 -63,35 -88,62 -21,23 -45,53 -87,67 -27,9 43,-43 51,-73 5,-22 -13,-46 -13,-69 0,-33 3,-66 11,-97 4,-13 15,-23 25,-32 11,-9 29,-9 37,-21 12,-18 3,-50 18,-64 15,-15 47,5 60,-12 28,-35 4,-123 47,-131 z"
           class="fil12" /><path
           style="fill:#00a859"
           inkscape:connector-curvature="0"
           id="path156"
           d="m 11952,6249 c -27,6 -50,22 -73,35 -38,22 -75,46 -113,71 -60,39 -117,52 -168,103 -25,25 55,-4 89,4 33,8 60,36 88,57 13,11 18,35 34,38 19,4 39,-6 53,-19 21,-20 45,-44 49,-75 2,-24 -34,-42 -33,-67 1,-22 30,-29 39,-48 5,-9 -4,-23 0,-33 8,-24 58,-71 35,-66 z"
           class="fil12" /><path
           style="fill:#00a859"
           inkscape:connector-curvature="0"
           id="path158"
           d="m 11813,6621 c 13,-25 -22,-58 -43,-78 -25,-25 -56,-45 -88,-52 -45,-10 -94,-14 -136,2 -33,12 -49,38 -77,61 -17,14 -50,30 -66,42 -46,33 -71,37 -122,82 -30,27 69,3 110,8 31,3 44,5 71,24 24,15 54,63 80,67 26,5 37,-31 62,-40 20,-7 44,4 63,-4 16,-6 27,-22 36,-37 8,-14 0,-39 13,-48 28,-19 81,5 97,-27 z"
           class="fil12" /><path
           style="fill:#00a859"
           inkscape:connector-curvature="0"
           id="path160"
           d="m 11238,6717 c -33,10 -55,43 -85,62 -12,8 -38,2 -40,18 -1,14 26,2 39,-1 48,-9 94,-45 144,-35 44,9 67,80 111,88 24,4 22,-48 42,-59 19,-11 50,17 57,-6 7,-22 -28,-50 -48,-61 -27,-16 -56,-16 -86,-19 -47,-4 -90,-1 -134,13 z"
           class="fil12" /></g><ellipse
         style="fill:#373435"
         id="ellipse162"
         ry="129"
         rx="123"
         cy="6410"
         cx="11153"
         class="fil7" /><ellipse
         style="fill:#ed3237"
         id="ellipse164"
         ry="112"
         rx="107"
         cy="6410"
         cx="11153"
         class="fil13" /><ellipse
         style="fill:#f6997e"
         id="ellipse166"
         ry="48"
         rx="46"
         cy="6370"
         cx="11168"
         class="fil14" /><ellipse
         style="fill:#373435"
         id="ellipse168"
         ry="129"
         rx="123"
         cy="6783"
         cx="10939"
         class="fil7" /><ellipse
         style="fill:#ed3237"
         id="ellipse170"
         ry="112"
         rx="107"
         cy="6783"
         cx="10939"
         class="fil13" /><ellipse
         style="fill:#f6997e"
         id="ellipse172"
         ry="48"
         rx="46"
         cy="6744"
         cx="10955"
         class="fil14" /><ellipse
         style="fill:#373435"
         id="ellipse174"
         ry="129"
         rx="123"
         cy="6752"
         cx="11138"
         class="fil7" /><ellipse
         style="fill:#ed3237"
         id="ellipse176"
         ry="112"
         rx="107"
         cy="6752"
         cx="11138"
         class="fil13" /><ellipse
         style="fill:#f6997e"
         id="ellipse178"
         ry="48"
         rx="46"
         cy="6713"
         cx="11153"
         class="fil14" /><ellipse
         style="fill:#373435"
         id="ellipse180"
         ry="129"
         rx="123"
         cy="7663"
         cx="10918"
         class="fil7" /><ellipse
         style="fill:#ed3237"
         id="ellipse182"
         ry="112"
         rx="107"
         cy="7663"
         cx="10918"
         class="fil13" /><ellipse
         style="fill:#f6997e"
         id="ellipse184"
         ry="48"
         rx="46"
         cy="7624"
         cx="10933"
         class="fil14" /><ellipse
         style="fill:#373435"
         id="ellipse186"
         ry="129"
         rx="123"
         cy="7562"
         cx="11072"
         class="fil7" /><ellipse
         style="fill:#ed3237"
         id="ellipse188"
         ry="112"
         rx="107"
         cy="7562"
         cx="11072"
         class="fil13" /><ellipse
         style="fill:#f6997e"
         id="ellipse190"
         ry="48"
         rx="46"
         cy="7523"
         cx="11088"
         class="fil14" /><g
         id="g192"><ellipse
           style="fill:#373435"
           id="ellipse194"
           ry="129"
           rx="123"
           cy="7750"
           cx="11079"
           class="fil7" /><ellipse
           style="fill:#ed3237"
           id="ellipse196"
           ry="112"
           rx="107"
           cy="7750"
           cx="11079"
           class="fil13" /><ellipse
           style="fill:#f6997e"
           id="ellipse198"
           ry="48"
           rx="46"
           cy="7710"
           cx="11094"
           class="fil14" /></g><ellipse
         style="fill:#373435"
         id="ellipse200"
         ry="129"
         rx="123"
         cy="8403"
         cx="11256"
         class="fil7" /><ellipse
         style="fill:#ed3237"
         id="ellipse202"
         ry="112"
         rx="107"
         cy="8403"
         cx="11256"
         class="fil13" /><ellipse
         style="fill:#f6997e"
         id="ellipse204"
         ry="48"
         rx="46"
         cy="8363"
         cx="11271"
         class="fil14" /><ellipse
         style="fill:#373435"
         id="ellipse206"
         ry="129"
         rx="123"
         cy="8266"
         cx="11102"
         class="fil7" /><ellipse
         style="fill:#ed3237"
         id="ellipse208"
         ry="112"
         rx="107"
         cy="8266"
         cx="11102"
         class="fil13" /><ellipse
         style="fill:#f6997e"
         id="ellipse210"
         ry="48"
         rx="46"
         cy="8227"
         cx="11118"
         class="fil14" /><ellipse
         style="fill:#373435"
         id="ellipse212"
         ry="129"
         rx="123"
         cy="8784"
         cx="10813"
         class="fil7" /><ellipse
         style="fill:#ed3237"
         id="ellipse214"
         ry="112"
         rx="107"
         cy="8784"
         cx="10813"
         class="fil13" /><ellipse
         style="fill:#f6997e"
         id="ellipse216"
         ry="48"
         rx="46"
         cy="8745"
         cx="10828"
         class="fil14" /><ellipse
         style="fill:#373435"
         id="ellipse218"
         ry="129"
         rx="123"
         cy="8952"
         cx="11016"
         class="fil7" /><ellipse
         style="fill:#ed3237"
         id="ellipse220"
         ry="112"
         rx="107"
         cy="8952"
         cx="11016"
         class="fil13" /><ellipse
         style="fill:#f6997e"
         id="ellipse222"
         ry="48"
         rx="46"
         cy="8913"
         cx="11031"
         class="fil14" /><ellipse
         style="fill:#373435"
         id="ellipse224"
         ry="129"
         rx="123"
         cy="8754"
         cx="11011"
         class="fil7" /><ellipse
         style="fill:#ed3237"
         id="ellipse226"
         ry="112"
         rx="107"
         cy="8754"
         cx="11011"
         class="fil13" /><ellipse
         style="fill:#f6997e"
         id="ellipse228"
         ry="48"
         rx="46"
         cy="8715"
         cx="11027"
         class="fil14" /></g><path
       style="clip-rule:evenodd;fill:#fefefe;fill-rule:evenodd;stroke-width:0.295322;image-rendering:optimizeQuality;shape-rendering:geometricPrecision;text-rendering:geometricPrecision"
       inkscape:connector-curvature="0"
       id="path230"
       d="m 1200.7963,460.42244 c 7.7009,39.16288 -21.3255,106.59369 -45.6129,119.84421 -7.4049,-55.94678 -33.7656,-93.93187 -67.2349,-140.75087 l -18.3637,63.30869 c -9.7742,-31.21254 -21.0294,-61.54183 -40.2816,-88.63195 l -14.5132,45.64086 c -3.5544,-42.99073 -11.8476,-80.3868 -43.53977,-109.8325 l -17.17893,73.31974 c -20.14077,-44.46309 -15.10563,-68.60858 -61.90339,-93.34282 1.77714,56.24132 9.47803,112.18811 20.14084,167.54644 5.62758,30.62355 5.92374,31.80132 17.7713,57.71366 16.88273,37.39605 8.88562,17.07843 26.65697,45.34636 l 21.32559,37.69088 30.21119,25.61782 23.3989,24.14546 31.0997,18.8453 27.8418,38.86836 c 20.7332,23.26223 15.698,2.94462 21.3256,37.69056 l 3.258,21.20114 -13.3284,79.79809 c -1.4809,33.56812 9.1818,55.06352 35.8388,74.20333 12.1437,-25.3233 23.6949,-51.23562 36.135,-76.55922 1.1848,-2.06106 2.6657,-4.71116 5.0351,-5.59444 13.6247,-4.41694 31.0999,-10.30619 44.7245,-15.01736 l 36.7275,-19.13981 c 21.9178,-7.36159 37.3196,-10.30622 78.4899,-23.26226 41.4663,-13.25053 87.0793,-58.00812 118.7715,-87.74838 61.015,-57.41909 50.9443,-58.8914 94.7803,-114.24977 27.2493,-32.68489 48.2787,-64.19167 59.2375,-106.59368 l 14.5136,-86.27607 c -10.0704,13.54508 -39.6895,63.30833 -68.7159,76.2644 l -39.6891,35.62948 c 8.5894,-50.9411 9.7741,-41.22395 9.7741,-92.16533 -15.1056,20.02305 -24.8799,43.87434 -39.9854,63.89742 -30.8036,39.75191 -66.6423,75.0866 -105.4432,111.30514 l -50.3519,43.57953 c 0,-53.00217 4.7389,-70.37542 13.3286,-122.19979 6.8122,-26.20687 22.214,-69.49218 25.4719,-110.71611 l 7.9971,-87.7484 -61.311,72.14197 -35.8386,55.35804 c -2.6659,-22.37867 -8.5896,-41.813 -17.7714,-57.41912 0.2962,16.4894 -2.0733,32.09583 -7.9972,46.52418 -13.6246,-10.0114 -9.1817,-7.65579 -14.8093,-22.67319 -5.0352,-20.31759 -11.2553,-39.75193 -16.2904,-60.0692 -8.8857,-25.61813 -25.4722,-49.46913 -39.097,-72.4368 -4.1466,24.14547 -13.9209,47.70222 -14.2169,72.731 0.5921,6.47831 33.4693,64.48645 29.6188,84.21501 z"
       class="fil15" /></g><text
     transform="scale(1.0159405,0.98430961)"
     id="text118"
     y="1775.6707"
     x="3040.0159"
     style="font-style:normal;font-weight:normal;font-size:969.887px;line-height:1.25;font-family:sans-serif;fill:#000000;fill-opacity:1;stroke:none;stroke-width:5.0515"
     xml:space="preserve"><tspan
       style="font-style:normal;font-variant:normal;font-weight:bold;font-stretch:normal;font-size:969.887px;font-family:Arial;-inkscape-font-specification:'Arial Bold';stroke-width:5.0515"
       y="1775.6707"
       x="3040.0159"
       id="tspan116"
       sodipodi:role="line">SEMINRIO HOSANA</tspan></text></svg>
