<?xml version="1.0" encoding="UTF-8" standalone="no"?>
<svg
   xmlns:dc="http://purl.org/dc/elements/1.1/"
   xmlns:cc="http://creativecommons.org/ns#"
   xmlns:rdf="http://www.w3.org/1999/02/22-rdf-syntax-ns#"
   xmlns:svg="http://www.w3.org/2000/svg"
   xmlns="http://www.w3.org/2000/svg"
   xmlns:sodipodi="http://sodipodi.sourceforge.net/DTD/sodipodi-0.dtd"
   xmlns:inkscape="http://www.inkscape.org/namespaces/inkscape"
   inkscape:export-ydpi="96"
   inkscape:export-xdpi="96"
   inkscape:export-filename="C:\xampp\htdocs\sistemas\sh\img\favicon.ico.png"
   sodipodi:docname="logohosana_favicon_ideia.svg"
   inkscape:version="1.0 (4035a4fb49, 2020-05-01)"
   id="svg2"
   viewBox="0 0 15875 15875"
   style="clip-rule:evenodd;fill-rule:evenodd;image-rendering:optimizeQuality;shape-rendering:geometricPrecision;text-rendering:geometricPrecision"
   version="1.1"
   height="600"
   width="600"
   xml:space="preserve"><metadata
     id="metadata254"><rdf:RDF><cc:Work
         rdf:about=""><dc:format>image/svg+xml</dc:format><dc:type
           rdf:resource="http://purl.org/dc/dcmitype/StillImage" /><dc:title></dc:title></cc:Work></rdf:RDF></metadata><sodipodi:namedview
     inkscape:document-rotation="0"
     units="px"
     inkscape:current-layer="svg2"
     inkscape:window-maximized="1"
     inkscape:window-y="428"
     inkscape:window-x="-8"
     inkscape:cy="177.28738"
     inkscape:cx="640.6735"
     inkscape:zoom="0.32053961"
     showgrid="false"
     id="namedview252"
     inkscape:window-height="1017"
     inkscape:window-width="1920"
     inkscape:pageshadow="2"
     inkscape:pageopacity="0"
     guidetolerance="10"
     gridtolerance="10"
     objecttolerance="10"
     borderopacity="1"
     bordercolor="#666666"
     pagecolor="#ffffff" /><defs
     id="defs4"><style
       id="style6"
       type="text/css"><![CDATA[
    .str0 {stroke:#373435;stroke-width:7.62}
    .fil15 {fill:#FEFEFE}
    .fil1 {fill:#BDBFC1}
    .fil7 {fill:#373435}
    .fil2 {fill:#FFF212}
    .fil8 {fill:#84716B}
    .fil9 {fill:#A98F71}
    .fil14 {fill:#F6997E}
    .fil10 {fill:#A45E4D}
    .fil11 {fill:#CB7246}
    .fil13 {fill:#ED3237}
    .fil12 {fill:#00A859}
    .fil0 {fill:#0098DA}
    .fil4 {fill:#1F1A17}
    .fil5 {fill:#B7683E}
    .fil16 {fill:#373435;fill-rule:nonzero}
    .fil6 {fill:#CB7246;fill-rule:nonzero}
    .fil3 {fill:#0098DA;fill-rule:nonzero}
   ]]></style><clipPath
       id="clipPath2462"
       clipPathUnits="userSpaceOnUse"><circle
         style="clip-rule:evenodd;fill:#ffd5d5;fill-rule:evenodd;stroke-width:3.37428;image-rendering:optimizeQuality;shape-rendering:geometricPrecision;text-rendering:geometricPrecision"
         id="circle2464"
         cy="7891.7734"
         cx="7943.5557"
         class="fil2"
         r="7082.5312" /></clipPath></defs><circle
     style="clip-rule:evenodd;fill:#e6e6e6;fill-rule:evenodd;stroke-width:3.72186;image-rendering:optimizeQuality;shape-rendering:geometricPrecision;text-rendering:geometricPrecision"
     id="circle2466"
     cy="7961.0415"
     cx="7941.623"
     class="fil2"
     r="7812.1162" /><circle
     r="5331.5273"
     class="fil2"
     cx="9932.6729"
     cy="8899.7695"
     id="circle14"
     style="clip-rule:evenodd;fill:#ffaf00;fill-opacity:1;fill-rule:evenodd;stroke-width:2.54006;image-rendering:optimizeQuality;shape-rendering:geometricPrecision;text-rendering:geometricPrecision" /><path
     transform="scale(26.458333)"
     d="M 299.98242 0.017578125 L 299.98242 0.0546875 C 217.15242 0.0546875 142.16492 33.608502 87.876953 87.896484 C 33.62531 142.18444 0.037109375 217.17 0.037109375 300 L 0 300 L 0 300.03711 L 0.037109375 300.03711 C 0.037109375 382.86712 33.588997 457.85184 87.876953 512.10352 C 142.16492 566.39148 217.15242 599.98242 299.98242 599.98242 L 300.01758 599.98242 C 382.84757 599.98242 457.83508 566.3923 512.12305 512.14062 C 566.37469 457.85266 599.96289 382.86632 599.96289 300 C 599.96289 217.17 566.37469 142.18444 512.12305 87.896484 C 457.83508 33.608502 382.84757 0.0546875 300.01758 0.0546875 L 300.01758 0.017578125 L 299.98242 0.017578125 z M 299.36719 19.355469 A 280.34987 280.34987 0 0 1 299.58008 19.355469 A 280.34987 280.34987 0 0 1 579.92969 299.70508 A 280.34987 280.34987 0 0 1 299.58008 580.05664 A 280.34987 280.34987 0 0 1 19.228516 299.70508 A 280.34987 280.34987 0 0 1 299.36719 19.355469 z "
     style="fill:#0098da;fill-opacity:1;stroke:none;stroke-width:1.06452"
     id="path974" /><path
     style="clip-rule:evenodd;fill:#0098da;fill-opacity:1;fill-rule:evenodd;stroke-width:0.902883;image-rendering:optimizeQuality;shape-rendering:geometricPrecision;text-rendering:geometricPrecision"
     d="m 6421.4317,8840.5232 a 6885.6517,6449.1894 3.8947252 0 0 460.5201,2242.5298 l 2486.001,-4.781 30.5429,2458.781 4963.2663,-4735.8289 -5075.4477,-4720.8405 28.6847,2458.782 -2461.2728,4.7344 a 6885.6517,6449.1894 3.8947252 0 0 -432.2945,2296.6232 z"
     id="path10-2"
     inkscape:connector-curvature="0" /><rect
     y="6265.4575"
     x="5106.1294"
     height="4886.4868"
     width="4903.5742"
     id="rect1001"
     style="fill:#0098da;fill-opacity:1;stroke:none;stroke-width:36.9618" /><path
     sodipodi:nodetypes="ccccccc"
     d="M 4271.4551,1108.2739 6852.0027,301.35645 8223.4405,410.71586 7682.2272,8765.7201 H 2496.2318 L 1921.2094,3316.748 Z"
     style="fill:#0098da;fill-opacity:1;stroke:none;stroke-width:64.9744"
     id="rect1003" /><circle
     r="2592.9978"
     cy="8553.373"
     cx="5089.23"
     id="path1005"
     style="fill:#0098da;fill-opacity:1;stroke:none;stroke-width:38.5036" /><path
     class="fil15"
     d="m 31881.182,-6496.9655 c 63.178,353.2621 -174.954,961.5105 -374.207,1081.0346 -60.749,-504.6587 -277.012,-847.2969 -551.591,-1269.6196 l -150.656,571.0653 c -80.187,-281.5475 -172.523,-555.1278 -330.469,-799.4896 l -119.065,411.6958 c -29.16,-387.7908 -97.198,-725.1158 -357.199,-990.7258 l -140.934,661.3684 c -165.235,-401.0719 -123.927,-618.8722 -507.854,-841.9833 14.58,507.3154 77.758,1011.9742 165.235,1511.3247 46.168,276.2346 48.598,286.8586 145.794,520.5963 138.506,337.325 72.898,154.0532 218.693,409.0394 l 174.954,339.9842 247.853,231.0814 191.963,217.8002 255.141,169.9908 228.412,350.6054 c 170.094,209.8332 128.786,26.5614 174.954,339.9814 l 26.73,191.2415 -109.346,719.8052 c -12.15,302.7958 75.326,496.6914 294.019,669.3388 99.627,-228.4245 194.393,-462.1624 296.451,-690.5896 9.718,-18.5915 21.869,-42.4962 41.308,-50.4637 111.776,-39.8423 255.142,-92.9652 366.918,-135.4616 l 301.31,-172.6476 c 179.814,-66.4039 306.169,-92.9653 643.929,-209.8331 340.187,-119.5244 714.394,-523.2527 974.395,-791.5196 500.565,-517.9393 417.946,-531.2201 777.574,-1030.5711 223.551,-294.8285 396.076,-579.0302 485.981,-961.5104 l 119.07,-778.2389 c -82.618,122.181 -325.612,571.0622 -563.742,687.9303 l -325.608,321.3896 c 70.467,-459.5056 80.187,-371.8537 80.187,-831.3619 -123.927,180.6146 -204.114,395.7611 -328.039,576.3761 -252.713,358.5755 -546.732,677.3061 -865.051,1004.0094 l -413.087,393.1017 c 0,-478.0971 38.879,-634.8096 109.348,-1102.2826 55.888,-236.3947 182.243,-626.8427 208.972,-998.6963 l 65.608,-791.5198 -502.994,650.7447 -294.019,499.348 c -21.87,-201.8631 -70.468,-377.1672 -145.795,-517.9396 2.429,148.7397 -17.011,289.5148 -65.609,419.6634 -111.775,-90.306 -75.327,-69.0576 -121.495,-204.5195 -41.308,-183.2715 -92.338,-358.5758 -133.646,-541.8443 -72.897,-231.0841 -208.973,-446.228 -320.749,-653.4041 -34.018,217.8002 -114.206,430.29 -116.636,656.0579 4.859,58.4365 274.581,581.6893 242.992,759.6475 z"
     id="path230"
     inkscape:connector-curvature="0"
     style="clip-rule:evenodd;fill:#fefefe;fill-rule:evenodd;stroke-width:2.5405;image-rendering:optimizeQuality;shape-rendering:geometricPrecision;text-rendering:geometricPrecision" /><path
     id="path984"
     style="fill:#0098da;fill-opacity:1;stroke:none;stroke-width:26.612"
     d="m 7937.0333,438.21742 v 0.9277 c -2070.6732,0 -3945.2912,838.81428 -5302.44,2195.96348 C 1278.3525,3992.2572 438.6786,5866.8267 438.6786,7937.4999 h -0.9277 v 0.9277 h 0.9277 c 0,2070.6734 838.7661,3945.2224 2195.9147,5301.4634 1357.1488,1357.149 3231.7668,2196.891 5302.44,2196.891 h 0.879 c 2070.6727,0 3945.2917,-839.722 5302.4397,-2195.963 1356.241,-1357.149 2195.915,-3231.738 2195.915,-5303.3191 0,-2070.6732 -839.674,-3945.2427 -2195.915,-5302.3913 C 11883.204,1277.9594 10008.585,439.14512 7937.9123,439.14512 v -0.9277 z m -15.3801,483.42934 a 7008.4869,7008.4869 0 0 1 5.322,0 A 7008.4869,7008.4869 0 0 1 14935.456,7930.1272 7008.4869,7008.4869 0 0 1 7926.9752,14938.656 7008.4869,7008.4869 0 0 1 918.44598,7930.1272 7008.4869,7008.4869 0 0 1 7921.6532,921.64676 Z" /><g
     transform="translate(-261.15598,129.33274)"
     clip-path="url(#clipPath2462)"
     id="g2252"><path
       style="clip-rule:evenodd;fill:#784421;fill-rule:evenodd;stroke-width:2.60041;image-rendering:optimizeQuality;shape-rendering:geometricPrecision;text-rendering:geometricPrecision"
       d="m 4502.525,9059.1052 c -89.3232,-0.082 -174.6177,2.1871 -255.0137,7.0889 -1827.052,109.3024 -3750.79774,254.2743 -4678.55363,1252.2429 -543.5612,584.52 -367.1529,1717.875 -74.0267,2328.54 437.195341,910.913 357.9902,1636.306 99.9654,2212.062 1540.46973,584.548 3173.62623,886.873 4821.26433,892.499 1422.8902,-5.58 2836.2556,-232.446 4189.413,-672.461 -17.8556,-536.823 -20.0357,-1075.767 1.8452,-1614.697 14.2272,-308.893 224.8147,-608.308 233.3494,-646.327 88.2255,-425.326 -91.0497,-365.879 -156.5052,-582.111 -150.8307,-503.736 270.3488,-689.073 310.1938,-1035.985 31.3028,-275.627 -150.8208,-147.319 -233.3498,-258.999 -59.7629,-80.787 -113.8469,-166.328 -153.6882,-258.996 -79.6864,-187.712 167.9044,-330.226 0,-515.564 C 8097.8297,9607.2686 5842.3747,9060.6345 4502.5245,9059.1052 Z"
       id="path22-9"
       inkscape:connector-curvature="0"
       sodipodi:nodetypes="scccccccccccccs" /><path
       style="clip-rule:evenodd;fill:#a05a2c;fill-rule:evenodd;stroke-width:73.3894;image-rendering:optimizeQuality;shape-rendering:geometricPrecision;text-rendering:geometricPrecision"
       d="m 4163.284,9331.8946 c -1032.3864,4.0139 -2109.1151,137.6541 -3003.4296,485.1591 -603.32633,232.8593 -805.4908,727.1503 -153.7853,1100.2023 418.3439,237.608 757.1108,308.855 1198.2246,494.191 620.399,258.998 1875.3777,76.067 2529.9296,76.067 301.6631,-26.135 691.4567,-130.668 976.0464,-218.582 404.1115,-135.441 1938.1116,-741.513 1724.6698,-1276.1387 -110.9876,-280.38 -1107.1481,-539.3177 -2262.5786,-624.8551 -325.8509,-24.3557 -664.9499,-37.3783 -1009.0769,-36.0436 z m 136.4931,224.5112 c 67.4857,0.069 134.5735,0.7057 201.0966,1.7486 737.0802,14.256 3130.4855,166.2853 2561.3087,722.2956 -401.2681,392.06 -1175.3797,760.393 -1795.7819,857.816 -250.4348,38.017 -2800.2928,399.125 -2800.2928,18.945 -338.6597,-142.565 -1912.5595,-501.342 -1553.98077,-938.547 51.22556,-85.539 261.81237,-163.997 358.57327,-199.64 846.6492,-328.4969 1869.8617,-447.714 2825.4545,-461.2588 68.2559,-0.9702 136.137,-1.4416 203.6224,-1.3594 z m -195.0731,186.6217 c -36.3152,0.196 -72.1466,1.1881 -107.543,2.8175 -788.3088,35.6393 -1738.9078,166.3127 -2265.3955,306.502 -105.2983,28.512 -196.3009,59.307 -267.4489,87.821 -51.2257,23.763 -159.3864,73.623 -182.1528,121.145 -167.9064,140.19 28.4803,323.275 162.2372,392.185 418.3412,220.979 936.1919,192.498 1354.5355,365.958 535.0247,223.353 1844.247,19.015 2464.6468,-83.16 102.4513,-19.007 219.167,-42.897 315.9256,-76.164 503.7212,-166.328 1289.0125,-430.09 1158.1017,-755.616 -93.9142,-173.4608 -745.4503,-173.4279 -916.2034,-182.9315 -530.931,-31.1897 -1172.0106,-181.4403 -1716.7032,-178.557 z m 119.395,220.3302 c 491.3342,6.1105 992.4688,102.2783 1480.5363,129.3053 350.0423,19.012 779.8076,4.743 779.8076,83.16 71.1484,173.455 -856.6498,411.062 -1021.7063,487.098 -193.5223,64.154 -429.7629,83.242 -634.668,104.631 -199.2124,23.757 -1912.3602,230.474 -1912.3602,52.265 -409.8071,-168.703 -927.6915,-140.159 -1331.8027,-354.009 -207.7515,-109.302 130.8307,-175.834 230.4353,-201.97 697.2377,-187.714 1474.2207,-256.683 2199.9181,-297.0791 69.7261,-3.2669 139.648,-4.2742 209.8399,-3.4012 z m 3672.7794,66.0603 c -14.1083,0.401 -27.8193,1.658 -40.8022,3.886 -170.7526,30.889 71.2878,453.78 -1155.2844,1028.799 -258.9744,123.557 -902.1658,399.302 -1158.2966,527.611 -321.5826,156.822 -996.1603,166.318 -1363.279,166.318 -435.4197,0 -1195.188,68.906 -1613.5321,0 -432.5736,-73.663 -831.0274,-365.929 -1215.225,-434.834 -449.64694,-80.79 -463.91034,-285.223 -799.72278,-425.412 -93.91477,-40.393 -133.76169,-308.867 -221.98379,-358.768 -76.83799,-42.769 -187.8294,209.2 -241.898619,145.04 -76.841,-87.913 76.794959,-377.851 -34.19619,-432.502 -42.6855099,-21.386 -475.214951,235.229 -352.841751,368.291 139.4475,154.446 142.3111,220.938 230.532691,323.111 165.05954,190.093 500.865939,254.207 697.231819,323.116 335.8123,116.427 700.06642,223.392 930.58092,453.876 99.6076,99.795 -315.8955,-28.476 -463.8818,-64.118 -110.98789,-28.515 -201.95567,-99.774 -310.0963,-130.664 -125.22056,-33.266 -267.51065,-19.069 -387.03854,-64.214 -119.5272,-42.77 -207.83974,-130.727 -310.290849,-194.88 -384.194041,-239.988 -173.57833,-197.203 -543.543141,-451.445 -88.2216,-61.782 -116.6895,166.422 -153.688,259.093 -59.7624,144.944 96.775,304.068 230.5319,387.232 150.833,92.667 295.947031,194.838 466.699241,258.996 119.524869,45.146 261.820989,28.475 387.037989,64.118 108.14419,30.889 204.99307,90.313 310.2914,128.331 125.21686,47.523 264.5669,76.113 386.9401,130.762 162.2136,73.661 324.4321,156.726 463.8823,258.9 45.5325,30.888 136.6061,128.43 76.8443,128.43 -113.8345,0 -196.2915,-104.668 -307.2794,-128.43 -102.4513,-21.385 -213.5297,28.515 -310.291,0 -196.36592,-59.403 -352.87062,-189.99 -543.54328,-258.9 -173.59984,-61.779 -367.12685,-73.737 -540.726429,-130.762 -210.594921,-66.534 -717.095821,-482.294 -509.347021,-137.757 204.9022,344.537 128.0223,154.33 429.685791,332.541 438.263399,258.996 313.037079,-52.117 697.231819,323.308 156.52334,154.449 -1363.11411,-235.314 -973.22961,-16.712 375.654841,209.099 842.41038,266.168 1283.52047,339.826 204.90496,35.642 423.92736,7.142 620.29006,66.546 176.446,52.276 324.5325,156.77 463.9794,256.567 45.5354,33.268 105.2063,87.895 76.7472,130.667 -68.2993,114.051 -76.7589,206.743 -230.4356,128.333 -535.0243,-266.124 -165.1332,-251.796 -853.8342,-387.235 -71.1482,-14.256 -88.13591,159.125 -153.59102,128.235 -634.62914,-282.756 -196.34793,-218.55 -543.54365,-256.567 -165.06255,-19.007 -543.56356,-235.271 -463.88196,64.119 14.2297,54.648 551.99196,420.558 620.29033,451.448 150.8334,68.908 301.76644,147.256 463.97944,194.781 202.05846,59.401 409.69786,102.193 620.29006,128.331 128.0666,16.635 259.0683,-14.259 387.1349,0 56.9189,7.127 127.9787,21.401 153.5917,66.547 36.9984,57.029 48.3818,142.55 0,192.45 -48.3795,54.65 -150.7505,57.042 -230.4356,66.545 -153.6766,14.259 -315.8985,30.888 -463.8818,0 -799.69188,-178.21 -961.9845,-465.617 -1317.716689,-517.894 -48.38203,-7.129 25.724529,273.275 230.629619,387.329 290.27709,161.578 617.43766,266.047 930.48407,387.232 73.9919,30.89 156.609,40.408 233.4468,66.547 54.0723,16.632 99.5196,45.206 153.5913,64.214 273.2041,87.919 532.1603,61.645 543.5436,64.021 170.7527,52.273 236.3228,66.566 230.6294,194.88 -2.8435,90.293 -122.4857,199.581 -230.6294,192.451 -375.655,-16.632 -731.3812,-152.115 -1084.2697,-256.668 -372.80833,-111.677 -808.21916,-622.42 -1084.269709,-389.562 -258.973621,216.226 503.812519,441.884 774.173409,646.23 125.21686,97.422 1052.9694,358.79 1161.113,517.992 76.8384,114.052 -441.1315,-71.278 -597.6545,-83.16 -823.52376,-61.431 -1749.99773,-758.447 -1343.3633589,-247.532 a 13721.571,13721.571 0 0 0 4411.8822589,743.086 13721.571,13721.571 0 0 0 944.9588,-33.517 c -16.4758,-304.675 2.3115,-623.02 269.489,-785.15 133.6093,-80.267 170.3,332.87 209.7428,729.194 a 13721.571,13721.571 0 0 0 2347.1942,-444.066 c -38.1374,-63.562 -107.4908,-162.385 -200.4163,-201.971 -313.0462,-135.44 -1329.1329,-221.025 -1682.0217,-287.557 -566.3275,-104.549 -1092.7782,-216.1 -1647.7282,-358.671 -224.8218,-57.025 1747.3486,168.549 2168.5389,194.684 230.5151,11.884 469.6576,33.267 697.3287,0 466.7231,-71.279 958.965,-1423.255 -387.1348,-1359.099 -284.5875,14.253 -258.8739,92.728 -773.9788,64.213 -321.5826,-19.009 -500.9629,377.741 -697.3286,-64.213 -184.9796,-418.199 1181.0418,-254.211 1701.8401,-323.115 443.9535,-59.406 623.2223,-2.409 853.7369,-194.881 176.4464,-147.314 190.7631,-30.829 310.2909,-194.781 119.5276,-166.328 -222.0694,-320.835 -310.2909,-323.211 -207.7488,-4.755 -412.7359,-4.755 -620.4848,0 -82.5317,2.372 -554.9325,85.518 -620.3875,130.664 -110.9906,78.411 -179.1865,202.071 -310.0964,259.092 -264.6677,118.812 -563.4866,178.209 -850.9199,258.998 -99.6051,26.139 -207.743,40.357 -310.1941,64.119 -347.1987,80.785 -156.6286,147.382 -540.8231,64.213 -99.6045,-21.383 -56.9158,-187.807 0,-259.094 62.6088,-80.781 196.4537,-102.096 310.2908,-128.236 73.9913,-19.005 153.6939,-14.257 230.5323,0 56.9191,9.508 99.5898,73.526 156.5057,64.022 276.0503,-45.147 480.9697,2.54 617.5703,-194.684 79.6848,-109.301 -51.2403,-135.562 -230.5326,-128.43 -324.4293,11.882 -202.0377,147.381 -543.5434,64.214 -99.6073,-23.761 -76.8384,-202.07 0,-259.092 210.5956,-159.202 643.2447,-296.919 930.6787,-258.9 56.9182,9.504 102.2623,87.892 76.6498,130.663 -71.1456,114.055 -329.9368,166.312 -153.4942,192.451 392.7312,61.776 774.0758,-168.707 1161.1136,-258.998 369.9647,-85.539 221.8664,92.707 620.2908,-64.116 184.9795,-73.661 17.0731,-344.539 0,-517.996 -8.5399,-66.529 -34.2266,-135.422 -79.7589,-192.448 -59.7648,-76.036 -230.4349,-102.21 -230.4349,-194.881 0,-40.392 657.4816,83.183 620.4848,-451.445 -21.3449,-273.997 -345.3535,-466.463 -556.9503,-460.095 z m -3807.3296,81.802 c -33.5569,-0.539 -67.2398,-0.289 -101.0339,0.582 -1519.6992,23.761 -1858.3356,242.219 -1607.8978,230.337 -350.0424,280.384 626.1522,318.422 748.5262,330.304 461.0326,38.016 1263.4856,83.17 1758.6713,-26.132 145.1366,-28.512 890.8139,-123.467 720.0613,-377.712 -96.7609,-149.696 -614.7328,-111.684 -819.6382,-118.814 -234.0722,0 -463.7992,-34.702 -698.6889,-38.565 z m 103.9482,171.561 304.5593,92.681 c 108.1443,-2.376 956.1657,-54.649 401.2218,57.025 -352.8887,71.286 -981.8456,159.177 -1323.3511,73.636 l 318.7426,-73.636 c -668.7816,-45.146 -1004.5576,-71.234 -845.1884,-85.492 159.3701,-11.877 1018.7988,-59.46 1144.0158,-64.214 z m 3452.1566,7332.251 c 173.2407,30.126 361.9049,50.928 474.4713,0 z"
       id="path24-4" /><g
       style="clip-rule:evenodd;fill-rule:evenodd;image-rendering:optimizeQuality;shape-rendering:geometricPrecision;text-rendering:geometricPrecision"
       id="_775282522288"
       transform="matrix(2.7292042,0,0,2.7292042,-25337.564,-14516.162)"><path
         style="fill:#6c5353;stroke:none;stroke-width:7.62"
         inkscape:connector-curvature="0"
         id="path33"
         d="m 9854,8268 c 183,-128 345,-211 594,-441 290,-267 732,-678 1132,-987 l 384,-296 c 0,0 97,-29 140,37 43,66 -11,215 -11,215 0,0 -431,342 -613,474 -183,132 -688,616 -914,841 -160,160 -428,320 -571,399 z"
         class="fil7 str0" /><path
         style="fill:#84716b;stroke:none;stroke-width:7.62"
         inkscape:connector-curvature="0"
         id="path35"
         d="m 9864,8284 c 190,-135 339,-196 598,-430 282,-254 718,-679 1102,-979 l 375,-293 c 0,0 104,-47 146,16 42,63 -21,210 -21,210 0,0 -429,335 -607,461 -178,125 -660,592 -880,806 -175,171 -480,340 -600,404 z"
         class="fil8 str0" /><path
         style="fill:#999999;stroke:none;stroke-width:7.62"
         inkscape:connector-curvature="0"
         id="path37"
         d="m 9438,8527 c -15,-25 -17,-102 28,-133 l 220,-164 c 55,-41 140,-10 160,23 l 173,298 c 31,54 23,95 -3,124 l 396,131 c 36,2 69,18 101,39 -82,141 -147,227 -274,331 -9,7 -39,18 -50,21 -43,8 -238,46 -337,49 l -124,-358 c -27,10 -85,9 -106,-29 z"
         class="fil7 str0" /><path
         style="fill:#a98f71"
         inkscape:connector-curvature="0"
         id="path39"
         d="m 9920,8381 c 118,-81 753,-520 815,-606 68,-94 1101,-976 1143,-1002 41,-26 94,-79 110,-37 15,42 -131,126 -131,126 0,0 -221,184 -331,268 -110,84 -948,839 -1095,949 -132,100 -432,302 -488,340 z"
         class="fil9" /><path
         style="fill:#bdbfc1"
         inkscape:connector-curvature="0"
         id="path41"
         d="m 9469,8524 c -13,-24 -15,-86 27,-115 l 207,-144 c 53,-38 107,-5 125,26 l 168.9996,276 c 30.0004,49 16.0004,104 -9,131 L 10381,8821 c 33,2 65,12 95,31 -73,126 -163,228 -264,321 -11,10 -18,25 -32,29 -135,33 -224.0004,38 -288.9998,45 L 9747,8873 c -25,10 -80,-1 -99,-36 z"
         class="fil1" /></g><g
       style="clip-rule:evenodd;fill-rule:evenodd;image-rendering:optimizeQuality;shape-rendering:geometricPrecision;text-rendering:geometricPrecision"
       id="_775282492272"
       transform="matrix(2.7292042,0,0,2.7292042,-25373.314,-14935.466)"><g
         id="g44"><path
           style="fill:#803300"
           inkscape:connector-curvature="0"
           id="path46"
           d="m 10614,9334 c 0,0 204,-499 285,-600 82,-102 265,-331 265,-331 -10,-16 -16,-35 -31,-46 -32,-25 -90,-24 -106,-61 -25,-56 22,-127 0,-184 -37,-92 -110,-165 -168,-244 -44,-58 -84,-120 -138,-168 -35,-31 -126,-18 -126,-65 0,-43 84,-18 126,-27 0,0 50,-245 50,-290 0,-46 76,-124 76,-124 -5,-20 -23,-41 -15,-60 10,-19 47,-11 57,-30 38,-71 42,-158 81,-229 48,-89 145,-149 179,-244 25,-73 -16,-154 -11,-230 1,-23 25,-83 30,-61 24,89 28,183 27,275 -1,42 -11,86 -31,123 -32,57 -91,95 -122,152 -39,72 -59,153 -87,229 -21,56 -42,112 -61,168 -28,81 -58,162 -81,245 -9,30 -31,65 -16,92 36,62 90,117 153,152 21,12 46,-44 66,-31 26,18 18,62 26,92 16,61 32,122 46,184 8,40 14,81 19,122 5,30 -10,69 11,92 45,45 124,45 168,91 21,22 19,65 5,92 -38,70 -108,117 -153,183 -67,98 -129,200 -183,305 -54,104 -103,211 -142,321 -23,64 2,151 -46,199 -26,26 -46,-58 -77,-76 -22,-14 -50,-10 -76,-16 z"
           class="fil10" /><path
           style="fill:#aa4400"
           inkscape:connector-curvature="0"
           id="path48"
           d="m 10724,9295 c 43,-138 99,-273 167,-400 81,-150 185,-286 278,-428 19,-30 69,-54 58,-87 -19,-54 -101,-65 -127,-116 -36,-68 -22,-155 -52,-226 -33,-74 -87,-137 -133,-202 -52,-74 -150,-126 -162,-215 -16,-114 52,-225 86,-336 12,-38 37,-72 52,-110 43,-101 70,-209 122,-306 32,-60 91,-100 127,-157 19,-29 33,-63 35,-98 4,-81 -20,-162 -18,-243 1,-13 22,16 24,29 10,67 16,135 11,202 -3,42 -14,104 -35,140 -32,58 -96,109 -126,168 -50,97 -68,192 -108,293 -16,41 -27,90 -43,131 -25,65 -45,136 -64,202 -10,34 -29,49 -19,82 15,48 83,99 118,134 18,19 37,26 55,15 20,-11 38,-40 56,-16 10,15 -6,36 0,68 13,62 45,134 58,165 15,37 8,98 17,137 10,42 -9,84 16,120 33,47 122,52 159,97 11,13 -18,76 -26,91 -62,109 -132,181 -200,287 -47,74 -102,158 -138,238 -64,139 -102,280 -171,416 -12,23 -25,-51 -17,-75 z"
           class="fil11" /></g><g
         id="g50"><path
           style="fill:#217844;stroke:none;stroke-width:7.62"
           inkscape:connector-curvature="0"
           id="path52"
           d="m 10971,8246 c -58,-42 -94,-73 -137,-131 -15,-21 -9,-51 -15,-76 -4,-16 -10,-31 -15,-46 -10,-31 -10,-67 -31,-92 -28,-34 -76,-45 -107,-76 -16,-16 -9,-52 -30,-61 -24,-10 -55,30 -77,15 -53,-37 -64,-124 -122,-153 -37,-18 -81,39 -122,31 -47,-9 -76,-63 -122,-77 -30,-8 -61,18 -92,16 -52,-4 -103,-47 -153,-31 -30,10 -3,75 -30,92 -27,16 -62,-24 -92,-15 -15,4 0,39 -15,45 -53,22 -153,-24 -168,31 -16,59 88,86 122,137 8,13 -10,35 0,46 24,28 78,27 92,61 12,30 -45,63 -31,92 23,46 80,63 122,92 19,12 49,11 61,30 12,17 -17,50 0,61 39,26 96,9 138,31 38,20 50,79 92,92 35,11 69,-34 106,-31 36,3 62,39 97,46 38,8 80,-12 117,0 31,10 44,61 77,61 29,0 40,-41 61,-61 25,-26 43,-64 76,-76 38,-15 82,-3 122,0 44,2 88,22 131,13 16,-3 28,-32 18,-44 -13,-14 -58,-10 -73,-22 z"
           class="fil7 str0" /><path
           style="fill:#00a859"
           inkscape:connector-curvature="0"
           id="path54"
           d="m 9687,7730 c 104,57 291,93 401,134 55,21 107,37 162,61 32,14 67,49 101,39 17,-6 2,-20 -6,-35 -18,-34 -64,-83 -87,-116 -27,-41 -69,-84 -87,-130 -6,-17 -2,-36 3,-52 3,-9 12,-18 3,-24 -26,-18 -58,33 -89,31 -44,-3 -83,-60 -125,-46 -31,11 5,78 -23,95 -29,18 -66,-25 -100,-20 -15,3 -7,35 -21,40 -41,17 -172,2 -132,23 z"
           class="fil12" /><path
           style="fill:#00a859"
           inkscape:connector-curvature="0"
           id="path56"
           d="m 10404,7988 c -32,-25 -42,-73 -64,-107 -44,-70 -104,-112 -142,-185 -11,-21 -17,-86 6,-87 38,-3 56,56 93,63 39,8 90,-48 117,-19 10,10 -8,24 -8,38 -2,32 0,71 7,103 11,57 33,113 63,162 27,43 151,89 105,110 -22,10 -45,-3 -69,-13 -38,-16 -77,-40 -108,-65 z"
           class="fil12" /><path
           style="fill:#00a859"
           inkscape:connector-curvature="0"
           id="path58"
           d="m 10442,7650 c -16,0 -14,30 -16,46 -3,33 -1,70 14,101 22,48 30,103 59,147 20,32 68,47 92,77 15,18 11,51 31,63 41,26 94,30 134,58 34,23 74,54 134,63 38,6 -68,-44 -87,-78 -13,-25 5,-58 -1,-86 -9,-40 -22,-79 -42,-115 -8,-15 -25,-25 -41,-34 -17,-9 -41,-4 -55,-18 -20,-19 -17,-59 -41,-73 -24,-15 -61,15 -83,-2 -47,-37 -39,-148 -98,-149 z"
           class="fil12" /><path
           style="fill:#00a859"
           inkscape:connector-curvature="0"
           id="path60"
           d="m 9749,7791 c 37,1 73,16 107,28 57,19 112,40 169,62 91,35 171,40 253,91 39,25 -75,6 -118,23 -42,16 -71,55 -102,87 -15,15 -16,45 -35,52 -25,9 -54,0 -76,-13 -34,-19 -72,-43 -85,-80 -10,-28 33,-58 25,-87 -8,-26 -48,-29 -65,-50 -8,-11 -1,-29 -8,-40 -18,-28 -97,-75 -65,-73 z"
           class="fil12" /><path
           style="fill:#00a859"
           inkscape:connector-curvature="0"
           id="path62"
           d="m 10033,8212 c -23,-27 15,-74 38,-103 26,-35 63,-65 104,-80 57,-21 121,-36 181,-26 47,8 75,37 120,59 25,13 74,26 99,37 69,31 104,31 184,75 47,26 -92,17 -144,31 -41,11 -57,16 -90,43 -26,23 -54,87 -87,98 -35,12 -59,-30 -95,-36 -28,-5 -57,14 -85,8 -22,-4 -41,-21 -57,-37 -14,-15 -11,-47 -31,-55 -42,-18 -107,21 -137,-14 z"
           class="fil12" /><path
           style="fill:#00a859"
           inkscape:connector-curvature="0"
           id="path64"
           d="m 10827,8212 c 47,6 85,41 129,58 19,7 52,-5 59,14 5,16 -35,7 -52,6 -67,-2 -138,-35 -201,-13 -57,20 -69,110 -125,129 -31,10 -42,-54 -72,-64 -29,-9 -63,32 -78,6 -15,-26 24,-66 47,-84 33,-25 72,-31 111,-40 62,-15 120,-20 182,-12 z"
           class="fil12" /></g><g
         id="g66"><path
           style="fill:#217844;stroke:none;stroke-width:7.62"
           inkscape:connector-curvature="0"
           id="path68"
           d="m 10613,7562 c -2,-57 1,-95 24,-153 9,-21 40,-35 59,-53 11,-11 20,-23 31,-35 20,-24 53,-45 61,-71 12,-35 -11,-69 -4,-104 3,-19 40,-36 34,-53 -7,-19 -65,-14 -67,-34 -3,-52 68,-108 54,-158 -9,-32 -90,-23 -112,-51 -24,-32 5,-80 -15,-113 -13,-22 -58,-25 -77,-43 -33,-31 -29,-86 -78,-104 -30,-11 -70,42 -104,36 -33,-5 -21,-49 -49,-60 -15,-7 -36,22 -52,18 -56,-17 -84,-101 -143,-77 -65,25 -18,100 -40,148 -6,13 -38,15 -42,27 -8,30 30,60 8,87 -18,24 -87,11 -103,36 -26,39 -3,82 1,122 2,18 23,34 15,53 -8,16 -57,19 -56,35 4,37 59,59 68,95 8,34 -37,75 -20,105 15,27 78,20 101,43 22,21 8,57 26,81 18,26 65,38 80,66 13,23 -25,60 -2,79 20,16 65,-1 97,-2 41,0 87,-12 122,-1 39,13 58,45 84,69 28,26 41,62 78,82 14,6 48,-3 52,-16 4,-15 -31,-39 -31,-54 z"
           class="fil7 str0" /><path
           style="fill:#00a859"
           inkscape:connector-curvature="0"
           id="path70"
           d="m 10194,6538 c 20,93 117,219 156,305 19,43 40,81 56,126 10,27 3,66 35,79 17,7 19,-9 27,-23 18,-30 30,-84 45,-116 18,-39 28,-88 57,-124 11,-14 31,-23 49,-29 11,-4 25,-4 24,-13 -1,-25 -69,-13 -89,-32 -28,-27 -3,-81 -45,-97 -31,-11 -67,48 -102,42 -36,-6 -23,-52 -51,-67 -12,-7 -35,15 -50,11 -44,-14 -120,-96 -112,-62 z"
           class="fil12" /><path
           style="fill:#00a859"
           inkscape:connector-curvature="0"
           id="path72"
           d="m 10455,7093 c 1,-33 38,-67 53,-99 33,-65 30,-123 69,-188 11,-18 66,-58 83,-46 28,19 -12,64 7,89 19,26 106,22 98,55 -2,11 -27,9 -40,17 -31,18 -64,42 -88,64 -44,39 -79,84 -103,130 -20,40 24,137 -27,123 -24,-7 -28,-28 -36,-46 -12,-32 -17,-67 -16,-99 z"
           class="fil12" /><path
           style="fill:#00a859"
           inkscape:connector-curvature="0"
           id="path74"
           d="m 10787,6918 c -11,-9 -37,9 -52,17 -33,18 -65,40 -83,67 -28,40 -71,77 -92,119 -14,30 5,66 -5,96 -6,19 -39,36 -36,54 5,39 38,70 41,110 2,32 1,73 35,112 21,24 -8,-64 10,-94 14,-23 55,-32 77,-51 30,-28 56,-58 75,-90 8,-14 5,-30 2,-43 -3,-15 -24,-26 -22,-42 4,-23 42,-44 39,-66 -3,-21 -57,-25 -56,-48 1,-47 107,-107 67,-141 z"
           class="fil12" /><path
           style="fill:#00a859"
           inkscape:connector-curvature="0"
           id="path76"
           d="m 10182,6609 c 25,22 35,50 49,76 22,43 41,87 60,132 31,71 82,120 92,195 5,37 -57,-39 -102,-53 -43,-14 -98,-8 -149,-7 -23,1 -51,18 -71,10 -24,-8 -37,-30 -41,-50 -6,-30 -10,-66 14,-94 18,-23 75,-15 96,-37 19,-19 -7,-43 1,-65 3,-11 25,-17 30,-28 13,-26 0,-98 21,-79 z"
           class="fil12" /><path
           style="fill:#00a859"
           inkscape:connector-curvature="0"
           id="path78"
           d="m 9998,7014 c 8,-29 77,-35 118,-39 50,-5 103,-2 145,12 58,20 116,48 148,88 25,30 19,63 29,101 6,22 28,57 35,77 20,58 44,77 59,148 9,41 -78,-42 -127,-63 -38,-17 -54,-23 -101,-26 -39,-2 -115,20 -148,8 -34,-13 -14,-51 -33,-75 -15,-18 -52,-24 -66,-43 -11,-15 -10,-35 -6,-53 4,-18 35,-34 29,-50 -14,-34 -93,-48 -82,-85 z"
           class="fil12" /><path
           style="fill:#00a859"
           inkscape:connector-curvature="0"
           id="path80"
           d="m 10546,7461 c 26,30 21,72 36,107 6,15 40,26 28,41 -11,12 -30,-16 -42,-26 -45,-39 -63,-98 -127,-121 -57,-20 -146,26 -202,4 -30,-11 19,-54 7,-77 -11,-22 -71,-17 -58,-41 12,-23 76,-25 109,-22 44,4 76,23 112,40 56,26 101,55 137,95 z"
           class="fil12" /></g><g
         id="g82"><path
           style="fill:#217844;stroke:none;stroke-width:7.62"
           inkscape:connector-curvature="0"
           id="path84"
           d="m 11050,7753 c 36,-35 62,-56 113,-75 18,-7 46,5 68,6 14,1 28,-1 41,-1 28,-1 60,8 82,-2 30,-14 38,-49 64,-65 14,-9 47,4 54,-10 9,-16 -29,-50 -17,-63 31,-33 109,-20 133,-59 15,-25 -39,-72 -33,-102 5,-34 53,-44 63,-77 7,-21 -18,-51 -18,-75 1,-39 38,-69 21,-111 -11,-26 -68,-20 -85,-45 -16,-25 19,-43 10,-68 -5,-13 -36,-10 -43,-23 -22,-46 15,-113 -35,-137 -55,-27 -75,48 -120,62 -11,4 -31,-15 -41,-10 -24,12 -21,54 -51,56 -27,3 -59,-49 -85,-45 -40,7 -54,47 -77,74 -11,11 -9,34 -25,40 -15,5 -46,-25 -56,-15 -22,25 -3,73 -21,100 -17,25 -69,21 -79,50 -8,25 34,62 33,90 -1,27 -32,39 -38,64 -5,28 15,65 6,91 -7,22 -53,20 -52,45 2,23 39,41 59,62 24,26 59,48 72,77 15,33 6,64 6,95 0,34 -16,63 -6,99 4,12 30,29 41,23 12,-6 7,-42 16,-51 z"
           class="fil7 str0" /><path
           style="fill:#00a859"
           inkscape:connector-curvature="0"
           id="path86"
           d="m 11458,6877 c -46,68 -70,205 -102,280 -17,38 -29,75 -48,111 -11,23 -41,41 -30,70 5,15 17,6 31,4 30,-6 72,-31 101,-41 36,-11 73,-33 114,-36 15,-2 32,6 47,14 9,5 17,13 22,8 16,-16 -32,-53 -32,-77 1,-33 50,-50 36,-86 -11,-26 -71,-14 -88,-40 -17,-27 20,-46 14,-73 -3,-12 -32,-13 -37,-25 -18,-37 -10,-135 -28,-109 z"
           class="fil12" /><path
           style="fill:#00a859"
           inkscape:connector-curvature="0"
           id="path88"
           d="m 11258,7373 c 21,-18 65,-15 94,-24 62,-18 97,-54 162,-67 18,-4 77,7 79,26 4,29 -48,30 -53,57 -6,28 48,81 23,95 -9,6 -22,-12 -35,-16 -30,-8 -65,-16 -93,-18 -51,-5 -101,-1 -145,11 -37,11 -74,97 -94,56 -10,-20 0,-35 8,-51 13,-26 32,-50 54,-69 z"
           class="fil12" /><path
           style="fill:#00a859"
           inkscape:connector-curvature="0"
           id="path90"
           d="m 11567,7482 c -1,-12 -28,-18 -43,-23 -30,-10 -63,-17 -91,-13 -43,6 -92,0 -131,11 -28,9 -39,43 -65,54 -16,7 -46,-4 -56,9 -22,26 -23,66 -46,91 -19,21 -46,44 -51,89 -3,28 36,-43 66,-49 23,-5 53,17 78,19 36,3 71,2 103,-5 14,-3 22,-14 29,-24 7,-11 2,-31 14,-39 16,-11 52,1 64,-14 12,-15 -16,-52 -2,-65 31,-27 133,5 131,-41 z"
           class="fil12" /><path
           style="fill:#00a859"
           inkscape:connector-curvature="0"
           id="path92"
           d="m 11407,6912 c 0,28 -12,52 -21,76 -14,40 -31,77 -48,117 -28,62 -29,123 -71,174 -21,25 -9,-59 -27,-97 -17,-36 -53,-67 -83,-99 -15,-15 -42,-23 -49,-40 -9,-21 -3,-42 8,-56 16,-22 36,-46 68,-47 26,-1 55,40 81,40 23,0 24,-30 42,-38 10,-5 26,6 36,3 24,-8 63,-58 64,-33 z"
           class="fil12" /><path
           style="fill:#00a859"
           inkscape:connector-curvature="0"
           id="path94"
           d="m 11037,7033 c 24,-12 68,29 96,53 32,29 61,64 77,100 22,49 38,102 32,147 -5,34 -30,49 -48,79 -10,16 -20,52 -29,68 -25,47 -23,74 -59,125 -22,31 -20,-75 -35,-119 -12,-34 -17,-48 -44,-79 -22,-27 -81,-63 -93,-91 -11,-30 25,-39 29,-65 3,-21 -16,-48 -12,-68 3,-17 17,-28 32,-36 13,-8 42,3 48,-11 14,-29 -24,-88 6,-103 z"
           class="fil12" /><path
           style="fill:#00a859"
           inkscape:connector-curvature="0"
           id="path96"
           d="m 11075,7650 c -4,35 -34,56 -47,86 -6,13 7,42 -10,42 -14,1 -8,-28 -8,-41 -2,-52 26,-99 2,-154 -20,-48 -103,-79 -122,-127 -11,-26 46,-20 54,-41 7,-20 -32,-56 -9,-62 23,-5 62,34 79,57 24,31 31,63 41,95 16,52 24,98 20,145 z"
           class="fil12" /></g><g
         id="g98"><path
           style="fill:#217844;stroke:none;stroke-width:7.62"
           inkscape:connector-curvature="0"
           id="path100"
           d="m 11321,8277 c 66,-32 107,-56 161,-106 19,-18 18,-50 29,-74 7,-14 16,-28 24,-42 16,-29 23,-65 48,-86 34,-29 84,-31 121,-57 19,-13 19,-50 42,-55 26,-6 49,40 73,30 61,-27 87,-112 151,-130 41,-12 74,53 116,53 49,0 88,-48 137,-53 31,-3 57,29 88,33 53,6 113,-28 159,-2 28,16 -11,75 13,97 23,21 66,-12 94,2 15,7 -7,40 7,48 48,32 158,5 162,62 5,63 -104,70 -148,115 -10,11 4,36 -8,46 -29,23 -83,12 -103,44 -18,27 33,71 13,97 -31,41 -92,48 -139,68 -21,10 -51,3 -67,20 -14,14 8,52 -11,61 -44,18 -98,-10 -143,4 -42,13 -66,70 -109,75 -38,4 -64,-47 -101,-51 -36,-4 -69,27 -105,28 -40,1 -78,-27 -117,-22 -33,4 -56,53 -88,47 -29,-6 -33,-49 -50,-73 -20,-30 -31,-71 -62,-91 -35,-21 -81,-17 -122,-22 -44,-6 -92,5 -133,-12 -15,-6 -22,-37 -9,-46 15,-12 60,0 77,-8 z"
           class="fil7 str0" /><path
           style="fill:#00a859"
           inkscape:connector-curvature="0"
           id="path102"
           d="m 12700,8002 c -115,37 -309,37 -426,58 -59,11 -114,17 -173,30 -35,8 -76,36 -108,20 -16,-9 1,-19 12,-33 24,-31 80,-71 109,-100 35,-35 84,-71 111,-113 10,-16 8,-36 6,-53 -1,-10 -8,-20 2,-24 29,-14 52,43 84,47 44,5 93,-44 133,-22 28,16 -20,77 5,99 26,23 71,-13 103,-1 15,5 1,35 14,44 38,24 172,34 128,48 z"
           class="fil12" /><path
           style="fill:#00a859"
           inkscape:connector-curvature="0"
           id="path104"
           d="m 11936,8125 c 36,-19 55,-66 83,-96 58,-61 125,-92 177,-158 15,-18 32,-82 10,-88 -37,-9 -67,46 -105,46 -40,1 -80,-65 -113,-41 -12,8 3,25 1,40 -4,32 -14,71 -26,101 -22,55 -54,107 -94,150 -35,38 -168,61 -125,90 20,14 46,5 71,0 42,-8 84,-25 121,-44 z"
           class="fil12" /><path
           style="fill:#00a859"
           inkscape:connector-curvature="0"
           id="path106"
           d="m 11961,7780 c 16,3 8,32 7,49 -3,33 -12,70 -33,98 -31,44 -50,97 -86,136 -27,28 -78,34 -107,59 -18,15 -20,49 -42,58 -47,18 -100,12 -146,32 -38,17 -83,41 -145,38 -39,-1 76,-31 101,-61 19,-23 7,-59 18,-86 16,-38 36,-75 63,-107 11,-14 30,-21 47,-26 19,-6 43,3 59,-8 24,-15 28,-56 54,-66 27,-10 59,27 84,14 54,-28 66,-140 126,-130 z"
           class="fil12" /><path
           style="fill:#00a859"
           inkscape:connector-curvature="0"
           id="path108"
           d="m 12626,8050 c -37,-5 -75,3 -111,8 -61,8 -120,19 -181,30 -98,18 -179,8 -270,44 -44,17 74,20 114,45 38,24 60,69 85,106 12,18 7,48 26,59 22,13 53,10 78,1 37,-13 80,-30 100,-64 15,-26 -23,-64 -9,-92 12,-25 53,-20 74,-38 11,-9 6,-28 16,-38 23,-24 111,-56 78,-61 z"
           class="fil12" /><path
           style="fill:#00a859"
           inkscape:connector-curvature="0"
           id="path110"
           d="m 12263,8418 c 29,-23 -1,-77 -18,-110 -20,-40 -50,-77 -88,-100 -54,-32 -115,-58 -177,-59 -48,-1 -82,22 -130,36 -28,8 -80,12 -106,18 -75,18 -110,12 -198,41 -52,17 88,34 138,58 39,18 54,26 81,60 23,28 38,97 69,114 33,18 65,-19 102,-18 28,0 54,24 83,24 23,-1 45,-13 64,-27 17,-12 20,-45 41,-49 46,-10 103,41 139,12 z"
           class="fil12" /><path
           style="fill:#00a859"
           inkscape:connector-curvature="0"
           id="path112"
           d="m 11470,8269 c -48,-3 -92,25 -139,34 -20,3 -51,-15 -61,2 -9,16 33,14 50,17 68,10 145,-10 204,24 52,31 47,123 101,152 28,16 51,-45 83,-50 31,-4 57,43 77,20 20,-22 -12,-70 -32,-93 -27,-30 -65,-43 -103,-60 -59,-26 -115,-43 -180,-46 z"
           class="fil12" /></g><g
         id="g114"><path
           style="fill:#217844;stroke:none;stroke-width:7.62"
           inkscape:connector-curvature="0"
           id="path116"
           d="m 11069,8797 c 29,7 47,14 73,33 9,7 12,24 18,36 4,7 9,13 14,20 8,13 15,32 26,40 16,10 36,3 53,11 8,4 12,25 21,24 11,-1 16,-30 26,-28 26,5 44,48 71,47 17,0 23,-41 40,-48 19,-8 39,13 58,7 13,-3 20,-25 32,-32 19,-12 46,-3 61,-25 10,-13 -11,-40 -4,-56 7,-15 27,-4 37,-16 5,-7 -7,-21 -2,-28 16,-26 61,-28 57,-61 -4,-35 -47,-22 -68,-40 -5,-4 -2,-20 -8,-24 -13,-8 -33,7 -44,-7 -9,-13 6,-45 -4,-56 -16,-18 -40,-12 -61,-16 -9,-1 -20,7 -27,0 -7,-6 -2,-30 -11,-32 -18,-3 -37,21 -56,21 -17,-1 -32,-28 -49,-24 -15,4 -20,36 -35,45 -13,8 -29,-4 -43,1 -16,6 -28,28 -44,31 -13,4 -26,-20 -38,-11 -11,7 -8,32 -12,48 -6,20 -6,45 -16,60 -12,18 -30,23 -45,33 -17,10 -37,12 -51,28 -5,5 -5,24 1,27 7,4 23,-10 30,-8 z"
           class="fil7 str0" /><path
           style="fill:#00a859"
           inkscape:connector-curvature="0"
           id="path118"
           d="m 11632,8726 c -49,-2 -124,29 -172,37 -23,4 -45,9 -70,11 -14,1 -33,-8 -43,7 -6,7 2,10 7,16 13,13 38,26 52,38 17,14 40,26 54,45 5,7 7,18 7,28 1,6 -1,12 3,13 13,3 16,-32 28,-39 17,-11 41,9 54,-10 10,-13 -15,-39 -7,-56 8,-17 29,-4 40,-16 5,-5 -3,-20 1,-26 13,-20 64,-47 46,-48 z"
           class="fil12" /><path
           style="fill:#00a859"
           inkscape:connector-curvature="0"
           id="path120"
           d="m 11323,8782 c 16,4 28,27 41,39 28,25 57,31 84,59 8,8 20,41 12,48 -13,11 -30,-15 -45,-9 -16,6 -25,49 -40,41 -6,-2 -1,-14 -3,-22 -5,-17 -12,-37 -20,-52 -14,-27 -31,-50 -51,-68 -17,-16 -71,-7 -57,-30 7,-11 17,-10 28,-11 17,-2 35,0 51,5 z"
           class="fil12" /><path
           style="fill:#00a859"
           inkscape:connector-curvature="0"
           id="path122"
           d="m 11365,8969 c 6,-4 0,-19 -2,-28 -4,-18 -11,-37 -22,-50 -16,-19 -28,-45 -46,-61 -13,-11 -33,-6 -47,-15 -9,-6 -13,-25 -22,-26 -20,-2 -40,10 -60,6 -16,-3 -36,-9 -60,2 -15,8 33,5 45,18 10,10 8,32 15,45 10,18 22,36 35,49 6,6 14,7 21,7 8,0 16,-9 23,-5 11,4 16,26 28,27 11,2 20,-24 31,-21 23,7 39,67 61,52 z"
           class="fil12" /><path
           style="fill:#00a859"
           inkscape:connector-curvature="0"
           id="path124"
           d="m 11598,8711 c -14,9 -29,11 -44,14 -24,5 -48,9 -73,12 -40,6 -70,25 -109,20 -18,-3 27,-23 40,-44 13,-19 17,-47 23,-72 3,-12 -1,-28 5,-37 7,-11 20,-14 30,-14 16,2 34,4 45,20 8,12 -3,39 5,52 7,12 23,3 33,10 4,3 5,14 9,18 11,10 49,13 36,21 z"
           class="fil12" /><path
           style="fill:#00a859"
           inkscape:connector-curvature="0"
           id="path126"
           d="m 11423,8566 c 13,8 7,43 3,64 -4,25 -12,51 -25,70 -18,26 -39,51 -63,61 -19,9 -34,1 -54,1 -12,0 -32,6 -43,7 -31,2 -44,12 -81,10 -22,-1 31,-34 48,-55 14,-16 19,-23 26,-46 6,-19 6,-60 16,-75 11,-15 27,0 41,-6 12,-5 19,-23 31,-27 9,-3 18,0 27,4 8,5 12,22 21,21 18,-2 36,-40 53,-29 z"
           class="fil12" /><path
           style="fill:#00a859"
           inkscape:connector-curvature="0"
           id="path128"
           d="m 11128,8777 c -18,10 -38,1 -57,4 -8,1 -19,17 -24,8 -5,-7 11,-12 18,-17 25,-17 57,-18 77,-46 17,-26 7,-76 25,-101 9,-14 24,17 37,14 12,-3 18,-33 28,-24 10,10 2,41 -4,57 -8,22 -21,35 -34,50 -20,25 -41,43 -66,55 z"
           class="fil12" /></g><g
         id="g130"><path
           style="fill:#217844;stroke:none;stroke-width:7.62"
           inkscape:connector-curvature="0"
           id="path132"
           d="m 11117,6328 c -21,-36 -37,-59 -70,-88 -12,-11 -32,-10 -47,-15 -10,-4 -19,-9 -28,-13 -18,-8 -41,-11 -55,-25 -19,-19 -22,-47 -39,-67 -9,-11 -32,-10 -36,-23 -4,-14 24,-28 17,-42 -19,-33 -72,-47 -86,-82 -8,-23 32,-43 31,-67 -1,-28 -33,-49 -37,-76 -2,-18 17,-33 18,-51 3,-30 -20,-63 -5,-89 10,-17 48,4 61,-10 13,-14 -9,-37 -1,-54 4,-8 25,4 31,-4 18,-28 -1,-90 35,-93 39,-5 46,57 76,81 7,5 22,-3 29,3 15,16 10,47 30,58 18,9 44,-21 61,-10 27,17 33,51 47,77 6,12 3,29 13,37 10,8 34,-5 39,6 13,24 -3,55 7,80 9,24 45,36 49,60 4,21 -27,37 -29,58 -2,21 19,39 20,59 2,23 -15,45 -11,67 4,18 35,30 32,49 -3,16 -30,19 -45,29 -18,13 -44,19 -55,37 -13,21 -9,46 -12,70 -2,25 6,52 -3,75 -4,9 -23,14 -30,7 -7,-9 -1,-34 -7,-44 z"
           class="fil7 str0" /><path
           style="fill:#00a859"
           inkscape:connector-curvature="0"
           id="path134"
           d="m 10909,5555 c 27,64 32,173 48,239 8,33 14,64 24,97 5,20 24,43 15,61 -5,9 -13,0 -22,-6 -20,-13 -46,-44 -65,-59 -24,-19 -47,-47 -75,-61 -10,-5 -22,-4 -33,-2 -6,1 -12,5 -15,-1 -10,-16 26,-30 27,-48 2,-25 -30,-52 -17,-75 10,-16 49,10 63,-5 13,-15 -10,-40 -4,-58 3,-9 23,-1 27,-9 15,-22 18,-98 27,-73 z"
           class="fil12" /><path
           style="fill:#00a859"
           inkscape:connector-curvature="0"
           id="path136"
           d="m 11006,5984 c -13,-20 -43,-30 -62,-45 -40,-31 -61,-68 -104,-97 -12,-8 -53,-16 -56,-3 -5,21 30,36 32,58 1,23 -39,47 -24,65 6,7 16,-3 26,-2 20,2 45,7 64,13 35,11 69,28 97,50 25,18 43,93 60,69 8,-12 2,-27 -2,-41 -6,-23 -18,-47 -31,-67 z"
           class="fil12" /><path
           style="fill:#00a859"
           inkscape:connector-curvature="0"
           id="path138"
           d="m 10788,5977 c 1,-9 20,-5 31,-5 21,1 44,6 63,16 28,17 62,27 88,47 18,14 23,42 39,58 11,10 32,11 38,23 12,26 10,56 24,82 11,21 28,46 27,81 0,22 -21,-43 -41,-56 -15,-10 -37,-2 -54,-8 -25,-8 -49,-19 -69,-33 -9,-6 -14,-17 -18,-27 -4,-10 1,-23 -6,-33 -11,-13 -36,-14 -43,-29 -7,-14 15,-33 6,-47 -19,-30 -90,-35 -85,-69 z"
           class="fil12" /><path
           style="fill:#00a859"
           inkscape:connector-curvature="0"
           id="path140"
           d="m 10942,5595 c -3,22 4,43 8,63 6,34 15,67 23,102 14,55 10,101 35,151 12,24 10,-42 25,-65 15,-22 42,-36 65,-51 11,-7 30,-5 36,-15 8,-14 6,-31 -1,-45 -9,-21 -20,-44 -43,-55 -17,-8 -40,14 -57,7 -16,-6 -14,-29 -26,-41 -6,-5 -18,-3 -25,-8 -15,-12 -38,-61 -40,-43 z"
           class="fil12" /><path
           style="fill:#00a859"
           inkscape:connector-curvature="0"
           id="path142"
           d="m 11183,5792 c -15,-16 -48,2 -69,13 -24,12 -47,30 -61,52 -18,31 -34,66 -33,101 1,28 16,46 26,73 6,16 10,45 15,60 13,42 9,61 30,111 12,29 20,-51 33,-80 11,-22 16,-31 36,-47 17,-13 60,-23 70,-42 11,-18 -13,-36 -14,-56 0,-17 14,-32 13,-48 0,-13 -9,-25 -18,-36 -8,-9 -29,-10 -32,-22 -7,-25 23,-59 4,-79 z"
           class="fil12" /><path
           style="fill:#00a859"
           inkscape:connector-curvature="0"
           id="path144"
           d="m 11109,6244 c -1,27 18,52 25,78 2,11 -9,29 3,34 10,5 7,-19 9,-28 5,-39 -10,-82 10,-116 18,-30 76,-30 94,-61 9,-16 -30,-28 -34,-46 -3,-17 26,-33 11,-44 -15,-10 -45,9 -58,20 -19,17 -26,39 -36,60 -15,34 -24,66 -24,103 z"
           class="fil12" /></g><g
         id="g146"><path
           style="fill:#217844;stroke:none;stroke-width:7.62"
           inkscape:connector-curvature="0"
           id="path148"
           d="m 11139,6762 c 36,-41 57,-70 78,-122 8,-18 -2,-42 -1,-63 0,-13 2,-25 4,-38 2,-26 -4,-55 7,-77 15,-31 48,-46 66,-74 9,-15 -2,-43 12,-53 16,-11 45,17 58,3 33,-36 26,-107 64,-137 24,-20 65,21 93,9 33,-12 45,-59 77,-76 20,-10 47,7 69,2 37,-9 67,-51 106,-43 23,4 14,59 36,69 22,10 41,-26 64,-23 12,1 7,32 19,35 41,11 107,-38 127,4 21,45 -51,80 -67,125 -4,11 13,26 7,36 -13,26 -52,31 -56,60 -4,26 42,45 36,70 -9,39 -47,61 -73,88 -12,13 -34,15 -40,32 -5,15 20,38 10,49 -24,26 -68,19 -95,41 -24,21 -24,70 -52,85 -24,13 -56,-18 -82,-12 -26,7 -39,39 -63,49 -26,11 -60,0 -85,14 -21,12 -22,54 -45,58 -21,4 -37,-28 -55,-41 -22,-18 -41,-46 -67,-52 -30,-7 -60,8 -89,15 -31,7 -60,28 -92,26 -12,0 -26,-22 -20,-33 7,-12 40,-15 49,-26 z"
           class="fil7 str0" /><path
           style="fill:#00a859"
           inkscape:connector-curvature="0"
           id="path150"
           d="m 11988,6193 c -67,58 -197,109 -270,156 -36,23 -72,43 -107,68 -22,15 -41,47 -67,43 -14,-2 -5,-15 -2,-28 8,-29 33,-74 45,-103 13,-36 36,-76 42,-115 2,-14 -5,-29 -11,-41 -4,-7 -11,-13 -6,-19 16,-18 47,19 70,13 31,-7 50,-57 83,-51 24,5 9,63 32,73 24,11 44,-28 69,-28 11,0 11,27 22,30 33,8 125,-20 100,2 z"
           class="fil12" /><path
           style="fill:#00a859"
           inkscape:connector-curvature="0"
           id="path152"
           d="m 11509,6487 c 19,-24 18,-65 29,-94 21,-62 57,-102 74,-166 4,-18 -2,-70 -19,-69 -28,3 -32,52 -57,63 -27,11 -73,-28 -88,-2 -6,10 9,18 12,30 7,25 11,57 11,83 1,47 -5,94 -20,138 -12,37 -95,89 -58,100 17,5 32,-8 48,-18 25,-18 49,-41 68,-65 z"
           class="fil12" /><path
           style="fill:#00a859"
           inkscape:connector-curvature="0"
           id="path154"
           d="m 11427,6220 c 12,-2 15,22 19,35 8,26 12,56 6,83 -8,41 -5,86 -19,125 -10,28 -42,46 -55,72 -8,17 1,43 -12,55 -26,26 -63,35 -88,62 -21,23 -45,53 -87,67 -27,9 43,-43 51,-73 5,-22 -13,-46 -13,-69 0,-33 3,-66 11,-97 4,-13 15,-23 25,-32 11,-9 29,-9 37,-21 12,-18 3,-50 18,-64 15,-15 47,5 60,-12 28,-35 4,-123 47,-131 z"
           class="fil12" /><path
           style="fill:#00a859"
           inkscape:connector-curvature="0"
           id="path156"
           d="m 11952,6249 c -27,6 -50,22 -73,35 -38,22 -75,46 -113,71 -60,39 -117,52 -168,103 -25,25 55,-4 89,4 33,8 60,36 88,57 13,11 18,35 34,38 19,4 39,-6 53,-19 21,-20 45,-44 49,-75 2,-24 -34,-42 -33,-67 1,-22 30,-29 39,-48 5,-9 -4,-23 0,-33 8,-24 58,-71 35,-66 z"
           class="fil12" /><path
           style="fill:#00a859"
           inkscape:connector-curvature="0"
           id="path158"
           d="m 11813,6621 c 13,-25 -22,-58 -43,-78 -25,-25 -56,-45 -88,-52 -45,-10 -94,-14 -136,2 -33,12 -49,38 -77,61 -17,14 -50,30 -66,42 -46,33 -71,37 -122,82 -30,27 69,3 110,8 31,3 44,5 71,24 24,15 54,63 80,67 26,5 37,-31 62,-40 20,-7 44,4 63,-4 16,-6 27,-22 36,-37 8,-14 0,-39 13,-48 28,-19 81,5 97,-27 z"
           class="fil12" /><path
           style="fill:#00a859"
           inkscape:connector-curvature="0"
           id="path160"
           d="m 11238,6717 c -33,10 -55,43 -85,62 -12,8 -38,2 -40,18 -1,14 26,2 39,-1 48,-9 94,-45 144,-35 44,9 67,80 111,88 24,4 22,-48 42,-59 19,-11 50,17 57,-6 7,-22 -28,-50 -48,-61 -27,-16 -56,-16 -86,-19 -47,-4 -90,-1 -134,13 z"
           class="fil12" /></g><ellipse
         style="fill:#aa0000"
         id="ellipse162"
         ry="129"
         rx="123"
         cy="6410"
         cx="11153"
         class="fil7" /><ellipse
         style="fill:#ed3237"
         id="ellipse164"
         ry="112"
         rx="107"
         cy="6410"
         cx="11153"
         class="fil13" /><ellipse
         style="fill:#f6997e"
         id="ellipse166"
         ry="48"
         rx="46"
         cy="6370"
         cx="11168"
         class="fil14" /><ellipse
         style="fill:#aa0000"
         id="ellipse168"
         ry="129"
         rx="123"
         cy="6783"
         cx="10939"
         class="fil7" /><ellipse
         style="fill:#ed3237"
         id="ellipse170"
         ry="112"
         rx="107"
         cy="6783"
         cx="10939"
         class="fil13" /><ellipse
         style="fill:#f6997e"
         id="ellipse172"
         ry="48"
         rx="46"
         cy="6744"
         cx="10955"
         class="fil14" /><ellipse
         style="fill:#aa0000"
         id="ellipse174"
         ry="129"
         rx="123"
         cy="6752"
         cx="11138"
         class="fil7" /><ellipse
         style="fill:#ed3237"
         id="ellipse176"
         ry="112"
         rx="107"
         cy="6752"
         cx="11138"
         class="fil13" /><ellipse
         style="fill:#f6997e"
         id="ellipse178"
         ry="48"
         rx="46"
         cy="6713"
         cx="11153"
         class="fil14" /><ellipse
         style="fill:#aa0000"
         id="ellipse180"
         ry="129"
         rx="123"
         cy="7663"
         cx="10918"
         class="fil7" /><ellipse
         style="fill:#ed3237"
         id="ellipse182"
         ry="112"
         rx="107"
         cy="7663"
         cx="10918"
         class="fil13" /><ellipse
         style="fill:#f6997e"
         id="ellipse184"
         ry="48"
         rx="46"
         cy="7624"
         cx="10933"
         class="fil14" /><ellipse
         style="fill:#aa0000"
         id="ellipse186"
         ry="129"
         rx="123"
         cy="7562"
         cx="11072"
         class="fil7" /><ellipse
         style="fill:#ed3237"
         id="ellipse188"
         ry="112"
         rx="107"
         cy="7562"
         cx="11072"
         class="fil13" /><ellipse
         style="fill:#f6997e"
         id="ellipse190"
         ry="48"
         rx="46"
         cy="7523"
         cx="11088"
         class="fil14" /><g
         id="g192"><ellipse
           style="fill:#aa0000"
           id="ellipse194"
           ry="129"
           rx="123"
           cy="7750"
           cx="11079"
           class="fil7" /><ellipse
           style="fill:#ed3237"
           id="ellipse196"
           ry="112"
           rx="107"
           cy="7750"
           cx="11079"
           class="fil13" /><ellipse
           style="fill:#f6997e"
           id="ellipse198"
           ry="48"
           rx="46"
           cy="7710"
           cx="11094"
           class="fil14" /></g><ellipse
         style="fill:#aa0000"
         id="ellipse200"
         ry="129"
         rx="123"
         cy="8403"
         cx="11256"
         class="fil7" /><ellipse
         style="fill:#ed3237"
         id="ellipse202"
         ry="112"
         rx="107"
         cy="8403"
         cx="11256"
         class="fil13" /><ellipse
         style="fill:#f6997e"
         id="ellipse204"
         ry="48"
         rx="46"
         cy="8363"
         cx="11271"
         class="fil14" /><ellipse
         style="fill:#aa0000"
         id="ellipse206"
         ry="129"
         rx="123"
         cy="8266"
         cx="11102"
         class="fil7" /><ellipse
         style="fill:#ed3237"
         id="ellipse208"
         ry="112"
         rx="107"
         cy="8266"
         cx="11102"
         class="fil13" /><ellipse
         style="fill:#f6997e"
         id="ellipse210"
         ry="48"
         rx="46"
         cy="8227"
         cx="11118"
         class="fil14" /><ellipse
         style="fill:#aa0000"
         id="ellipse212"
         ry="129"
         rx="123"
         cy="8784"
         cx="10813"
         class="fil7" /><ellipse
         style="fill:#ed3237"
         id="ellipse214"
         ry="112"
         rx="107"
         cy="8784"
         cx="10813"
         class="fil13" /><ellipse
         style="fill:#f6997e"
         id="ellipse216"
         ry="48"
         rx="46"
         cy="8745"
         cx="10828"
         class="fil14" /><ellipse
         style="fill:#aa0000"
         id="ellipse218"
         ry="129"
         rx="123"
         cy="8952"
         cx="11016"
         class="fil7" /><ellipse
         style="fill:#ed3237"
         id="ellipse220"
         ry="112"
         rx="107"
         cy="8952"
         cx="11016"
         class="fil13" /><ellipse
         style="fill:#f6997e"
         id="ellipse222"
         ry="48"
         rx="46"
         cy="8913"
         cx="11031"
         class="fil14" /><ellipse
         style="fill:#aa0000"
         id="ellipse224"
         ry="129"
         rx="123"
         cy="8754"
         cx="11011"
         class="fil7" /><ellipse
         style="fill:#ed3237"
         id="ellipse226"
         ry="112"
         rx="107"
         cy="8754"
         cx="11011"
         class="fil13" /><ellipse
         style="fill:#f6997e"
         id="ellipse228"
         ry="48"
         rx="46"
         cy="8715"
         cx="11027"
         class="fil14" /></g></g></svg>
