<?xml version="1.0" encoding="UTF-8" standalone="no"?>
<svg
   xmlns:dc="http://purl.org/dc/elements/1.1/"
   xmlns:cc="http://creativecommons.org/ns#"
   xmlns:rdf="http://www.w3.org/1999/02/22-rdf-syntax-ns#"
   xmlns:svg="http://www.w3.org/2000/svg"
   xmlns="http://www.w3.org/2000/svg"
   xmlns:sodipodi="http://sodipodi.sourceforge.net/DTD/sodipodi-0.dtd"
   xmlns:inkscape="http://www.inkscape.org/namespaces/inkscape"
   inkscape:export-ydpi="96"
   inkscape:export-xdpi="96"
   inkscape:export-filename="C:\xampp\htdocs\sistemas\sh\img\favicon.ico.png"
   sodipodi:docname="logohosana_favicon_ideia2.svg"
   inkscape:version="1.0 (4035a4fb49, 2020-05-01)"
   id="svg2"
   viewBox="0 0 15875 15875"
   style="clip-rule:evenodd;fill-rule:evenodd;image-rendering:optimizeQuality;shape-rendering:geometricPrecision;text-rendering:geometricPrecision"
   version="1.1"
   height="600"
   width="600"
   xml:space="preserve"><metadata
     id="metadata254"><rdf:RDF><cc:Work
         rdf:about=""><dc:format>image/svg+xml</dc:format><dc:type
           rdf:resource="http://purl.org/dc/dcmitype/StillImage" /><dc:title></dc:title></cc:Work></rdf:RDF></metadata><sodipodi:namedview
     inkscape:document-rotation="0"
     units="px"
     inkscape:current-layer="svg2"
     inkscape:window-maximized="1"
     inkscape:window-y="428"
     inkscape:window-x="-8"
     inkscape:cy="-133.68292"
     inkscape:cx="234.41403"
     inkscape:zoom="0.45331146"
     showgrid="false"
     id="namedview252"
     inkscape:window-height="1017"
     inkscape:window-width="1920"
     inkscape:pageshadow="2"
     inkscape:pageopacity="0"
     guidetolerance="10"
     gridtolerance="10"
     objecttolerance="10"
     borderopacity="1"
     bordercolor="#666666"
     pagecolor="#ffffff" /><defs
     id="defs4"><style
       id="style6"
       type="text/css"><![CDATA[
    .str0 {stroke:#373435;stroke-width:7.62}
    .fil15 {fill:#FEFEFE}
    .fil1 {fill:#BDBFC1}
    .fil7 {fill:#373435}
    .fil2 {fill:#FFF212}
    .fil8 {fill:#84716B}
    .fil9 {fill:#A98F71}
    .fil14 {fill:#F6997E}
    .fil10 {fill:#A45E4D}
    .fil11 {fill:#CB7246}
    .fil13 {fill:#ED3237}
    .fil12 {fill:#00A859}
    .fil0 {fill:#0098DA}
    .fil4 {fill:#1F1A17}
    .fil5 {fill:#B7683E}
    .fil16 {fill:#373435;fill-rule:nonzero}
    .fil6 {fill:#CB7246;fill-rule:nonzero}
    .fil3 {fill:#0098DA;fill-rule:nonzero}
   ]]></style><clipPath
       id="clipPath2462"
       clipPathUnits="userSpaceOnUse"><circle
         style="clip-rule:evenodd;fill:#ffd5d5;fill-rule:evenodd;stroke-width:3.37428;image-rendering:optimizeQuality;shape-rendering:geometricPrecision;text-rendering:geometricPrecision"
         id="circle2464"
         cy="7891.7734"
         cx="7943.5557"
         class="fil2"
         r="7082.5312" /></clipPath></defs><circle
     style="clip-rule:evenodd;fill:#e6e6e6;fill-rule:evenodd;stroke-width:3.72186;image-rendering:optimizeQuality;shape-rendering:geometricPrecision;text-rendering:geometricPrecision"
     id="circle2466"
     cy="7961.0415"
     cx="7941.623"
     class="fil2"
     r="7812.1162" /><circle
     r="7549.4653"
     class="fil2"
     cx="8075.8364"
     cy="7916.8486"
     id="circle14"
     style="clip-rule:evenodd;fill:#ffaf00;fill-opacity:1;fill-rule:evenodd;stroke-width:3.59674;image-rendering:optimizeQuality;shape-rendering:geometricPrecision;text-rendering:geometricPrecision" /><path
     transform="scale(26.458333)"
     d="M 299.98242 0.017578125 L 299.98242 0.0546875 C 217.15242 0.0546875 142.16492 33.608502 87.876953 87.896484 C 33.62531 142.18444 0.037109375 217.17 0.037109375 300 L 0 300 L 0 300.03711 L 0.037109375 300.03711 C 0.037109375 382.86712 33.588997 457.85184 87.876953 512.10352 C 142.16492 566.39148 217.15242 599.98242 299.98242 599.98242 L 300.01758 599.98242 C 382.84757 599.98242 457.83508 566.3923 512.12305 512.14062 C 566.37469 457.85266 599.96289 382.86632 599.96289 300 C 599.96289 217.17 566.37469 142.18444 512.12305 87.896484 C 457.83508 33.608502 382.84757 0.0546875 300.01758 0.0546875 L 300.01758 0.017578125 L 299.98242 0.017578125 z M 299.36719 19.355469 A 280.34987 280.34987 0 0 1 299.58008 19.355469 A 280.34987 280.34987 0 0 1 579.92969 299.70508 A 280.34987 280.34987 0 0 1 299.58008 580.05664 A 280.34987 280.34987 0 0 1 19.228516 299.70508 A 280.34987 280.34987 0 0 1 299.36719 19.355469 z "
     style="fill:#0098da;fill-opacity:1;stroke:none;stroke-width:1.06452"
     id="path974" /><path
     style="clip-rule:evenodd;fill:#0098da;fill-opacity:1;fill-rule:evenodd;stroke-width:0.902883;image-rendering:optimizeQuality;shape-rendering:geometricPrecision;text-rendering:geometricPrecision"
     d="m 6421.4317,8840.5232 a 6885.6517,6449.1894 3.8947252 0 0 460.5201,2242.5298 l 2486.001,-4.781 30.5429,2458.781 4963.2663,-4735.8289 -5075.4477,-4720.8405 28.6847,2458.782 -2461.2728,4.7344 a 6885.6517,6449.1894 3.8947252 0 0 -432.2945,2296.6232 z"
     id="path10-2"
     inkscape:connector-curvature="0" /><rect
     y="6265.4575"
     x="5106.1294"
     height="4886.4868"
     width="4903.5742"
     id="rect1001"
     style="fill:#0098da;fill-opacity:1;stroke:none;stroke-width:36.9618" /><path
     sodipodi:nodetypes="ccccccc"
     d="M 4271.4551,1108.2739 6852.0027,301.35645 8223.4405,410.71586 7682.2272,8765.7201 H 2496.2318 L 1921.2094,3316.748 Z"
     style="fill:#0098da;fill-opacity:1;stroke:none;stroke-width:64.9744"
     id="rect1003" /><circle
     r="2592.9978"
     cy="8553.373"
     cx="5089.23"
     id="path1005"
     style="fill:#0098da;fill-opacity:1;stroke:none;stroke-width:38.5036" /><path
     class="fil15"
     d="m 31881.182,-6496.9655 c 63.178,353.2621 -174.954,961.5105 -374.207,1081.0346 -60.749,-504.6587 -277.012,-847.2969 -551.591,-1269.6196 l -150.656,571.0653 c -80.187,-281.5475 -172.523,-555.1278 -330.469,-799.4896 l -119.065,411.6958 c -29.16,-387.7908 -97.198,-725.1158 -357.199,-990.7258 l -140.934,661.3684 c -165.235,-401.0719 -123.927,-618.8722 -507.854,-841.9833 14.58,507.3154 77.758,1011.9742 165.235,1511.3247 46.168,276.2346 48.598,286.8586 145.794,520.5963 138.506,337.325 72.898,154.0532 218.693,409.0394 l 174.954,339.9842 247.853,231.0814 191.963,217.8002 255.141,169.9908 228.412,350.6054 c 170.094,209.8332 128.786,26.5614 174.954,339.9814 l 26.73,191.2415 -109.346,719.8052 c -12.15,302.7958 75.326,496.6914 294.019,669.3388 99.627,-228.4245 194.393,-462.1624 296.451,-690.5896 9.718,-18.5915 21.869,-42.4962 41.308,-50.4637 111.776,-39.8423 255.142,-92.9652 366.918,-135.4616 l 301.31,-172.6476 c 179.814,-66.4039 306.169,-92.9653 643.929,-209.8331 340.187,-119.5244 714.394,-523.2527 974.395,-791.5196 500.565,-517.9393 417.946,-531.2201 777.574,-1030.5711 223.551,-294.8285 396.076,-579.0302 485.981,-961.5104 l 119.07,-778.2389 c -82.618,122.181 -325.612,571.0622 -563.742,687.9303 l -325.608,321.3896 c 70.467,-459.5056 80.187,-371.8537 80.187,-831.3619 -123.927,180.6146 -204.114,395.7611 -328.039,576.3761 -252.713,358.5755 -546.732,677.3061 -865.051,1004.0094 l -413.087,393.1017 c 0,-478.0971 38.879,-634.8096 109.348,-1102.2826 55.888,-236.3947 182.243,-626.8427 208.972,-998.6963 l 65.608,-791.5198 -502.994,650.7447 -294.019,499.348 c -21.87,-201.8631 -70.468,-377.1672 -145.795,-517.9396 2.429,148.7397 -17.011,289.5148 -65.609,419.6634 -111.775,-90.306 -75.327,-69.0576 -121.495,-204.5195 -41.308,-183.2715 -92.338,-358.5758 -133.646,-541.8443 -72.897,-231.0841 -208.973,-446.228 -320.749,-653.4041 -34.018,217.8002 -114.206,430.29 -116.636,656.0579 4.859,58.4365 274.581,581.6893 242.992,759.6475 z"
     id="path230"
     inkscape:connector-curvature="0"
     style="clip-rule:evenodd;fill:#fefefe;fill-rule:evenodd;stroke-width:2.5405;image-rendering:optimizeQuality;shape-rendering:geometricPrecision;text-rendering:geometricPrecision" /><path
     id="path984"
     style="fill:#0098da;fill-opacity:1;stroke:none;stroke-width:26.612"
     d="m 7937.0333,438.21742 v 0.9277 c -2070.6732,0 -3945.2912,838.81428 -5302.44,2195.96348 C 1278.3525,3992.2572 438.6786,5866.8267 438.6786,7937.4999 h -0.9277 v 0.9277 h 0.9277 c 0,2070.6734 838.7661,3945.2224 2195.9147,5301.4634 1357.1488,1357.149 3231.7668,2196.891 5302.44,2196.891 h 0.879 c 2070.6727,0 3945.2917,-839.722 5302.4397,-2195.963 1356.241,-1357.149 2195.915,-3231.738 2195.915,-5303.3191 0,-2070.6732 -839.674,-3945.2427 -2195.915,-5302.3913 C 11883.204,1277.9594 10008.585,439.14512 7937.9123,439.14512 v -0.9277 z m -15.3801,483.42934 a 7008.4869,7008.4869 0 0 1 5.322,0 A 7008.4869,7008.4869 0 0 1 14935.456,7930.1272 7008.4869,7008.4869 0 0 1 7926.9752,14938.656 7008.4869,7008.4869 0 0 1 918.44598,7930.1272 7008.4869,7008.4869 0 0 1 7921.6532,921.64676 Z" /><g
     transform="matrix(0.99175905,0,0,0.99175905,62.156522,109.39573)"
     clip-path="url(#clipPath2462)"
     id="g2252"><path
       style="clip-rule:evenodd;fill:#784421;fill-rule:evenodd;stroke-width:3.32481;image-rendering:optimizeQuality;shape-rendering:geometricPrecision;text-rendering:geometricPrecision"
       d="m 1976.3525,8730.1986 c -114.2063,-0.1049 -223.2616,2.7964 -326.0537,9.0637 -2336.01964,139.7511 -4795.6692,325.1083 -5981.873,1601.0847 -694.9827,747.351 -469.4318,2196.429 -94.6485,2977.208 558.9862,1164.669 457.7167,2092.137 127.813,2828.284 1969.6033,747.387 4057.71328,1133.932 6164.3391,1141.124 1819.2691,-7.134 3626.3602,-297.199 5356.4708,-859.79 -22.8296,-686.368 -25.6171,-1375.446 2.3593,-2064.508 18.1905,-394.942 287.442,-777.767 298.3543,-826.376 112.8027,-543.811 -116.4137,-467.804 -200.1033,-744.272 -192.8481,-644.063 345.6606,-881.03 396.6054,-1324.582 40.0229,-352.41 -192.8355,-188.359 -298.3548,-331.15 -76.4113,-103.292 -145.5616,-212.662 -196.5016,-331.145 -101.8849,-240.004 214.678,-422.219 0,-659.186 C 6573.2124,9431.0656 3689.4483,8732.1539 1976.3518,8730.1986 Z"
       id="path22-9"
       inkscape:connector-curvature="0"
       sodipodi:nodetypes="scccccccccccccs" /><path
       style="clip-rule:evenodd;fill:#a05a2c;fill-rule:evenodd;stroke-width:93.8336;image-rendering:optimizeQuality;shape-rendering:geometricPrecision;text-rendering:geometricPrecision"
       d="m 1542.608,9078.9798 c -1319.98152,5.132 -2696.6579,176.0008 -3840.1043,620.3113 -771.3969,297.728 -1029.879,929.7149 -196.6258,1406.6899 534.8832,303.799 968.0215,394.893 1532.01771,631.858 793.22557,331.149 2397.80759,97.258 3234.70009,97.258 385.6983,-33.415 884.078,-167.068 1247.9467,-279.473 516.6861,-173.171 2478.0174,-948.079 2205.1164,-1631.637 C 5583.753,9565.5008 4310.089,9234.43 2832.7866,9125.0642 2416.1624,9093.9236 1982.5995,9077.2733 1542.608,9078.9798 Z m 174.5164,287.054 c 86.2854,0.088 172.0621,0.9023 257.1168,2.2357 942.4108,18.2273 4002.5546,212.6079 3274.8204,923.5075 -513.0506,501.278 -1502.8089,972.218 -2296.0385,1096.781 -320.1992,48.607 -3580.37913,510.311 -3580.37913,24.222 -433.00117,-182.279 -2445.34717,-641.002 -1986.87807,-1200.001 65.4957,-109.368 334.7463,-209.681 458.4621,-255.2537 1082.5029,-420.0076 2390.75498,-572.4354 3612.5503,-589.7534 87.2702,-1.2405 174.0611,-1.8432 260.3461,-1.7381 z m -249.4152,238.6095 c -46.4317,0.2505 -92.2447,1.5191 -137.5016,3.6024 -1007.91042,45.5674 -2223.32082,212.6434 -2896.4738,391.8853 -134.6316,36.455 -250.9851,75.828 -341.953,112.286 -65.4958,30.382 -203.7872,94.132 -232.8957,154.892 -214.6805,179.243 36.4142,413.331 207.4321,501.438 534.8799,282.537 1196.98983,246.122 1731.87278,467.903 684.0682,285.574 2358.00462,24.312 3151.23122,-106.326 130.9914,-24.302 280.2209,-54.846 403.9339,-97.381 644.0444,-212.662 1648.0967,-549.901 1480.7177,-966.11 -120.0762,-221.7824 -953.1126,-221.74 -1171.433,-233.8911 -678.8341,-39.8787 -1498.5012,-231.9852 -2194.9306,-228.2986 z m 152.6552,281.7082 c 628.2067,7.8129 1268.944,130.7705 1892.974,165.3265 447.5546,24.308 997.041,6.064 997.041,106.326 90.9685,221.775 -1095.2893,525.573 -1306.3262,622.791 -247.4324,82.025 -549.4833,106.431 -811.4694,133.778 -254.7076,30.375 -2445.092424,294.678 -2445.092424,66.825 -523.968316,-215.699 -1186.121476,-179.204 -1702.807176,-452.626 -265.6254,-139.751 167.2766,-224.817 294.6284,-258.234 891.46939,-240.006 1884.89898,-328.1878 2812.7562,-379.8383 89.1499,-4.1764 178.5501,-5.4648 268.2956,-4.3482 z m 4695.9171,84.4626 c -18.0385,0.5131 -35.569,2.1205 -52.1686,4.9684 -218.3197,39.4945 91.1467,580.1915 -1477.1156,1315.3955 -331.1177,157.976 -1153.4849,510.536 -1480.9669,674.589 -411.1669,200.509 -1273.6638,212.65 -1743.0519,212.65 -556.716,0 -1528.135224,88.101 -2063.01883,0 -553.07697,-94.184 -1062.52927,-467.867 -1553.75407,-555.967 -574.9065,-103.297 -593.1433,-364.679 -1022.504,-543.92 -120.0769,-51.646 -171.0241,-394.91 -283.8225,-458.711 -98.243,-54.684 -240.1536,267.477 -309.2851,185.444 -98.2468,-112.403 98.1881,-483.11 -43.7222,-552.985 -54.5767,-27.344 -607.5972,300.756 -451.1341,470.886 178.2939,197.471 181.9552,282.485 294.753,413.121 211.0407,243.048 640.3937,325.023 891.4618,413.127 429.3606,148.861 895.0861,285.623 1189.8157,580.314 127.3556,127.595 -403.8955,-36.408 -593.1067,-81.979 -141.9062,-36.459 -258.2152,-127.569 -396.4809,-167.064 -160.1036,-42.532 -342.0319,-24.381 -494.857,-82.102 -152.8243,-54.685 -265.7384,-167.144 -396.7296,-249.169 -491.2202,-306.842 -221.9326,-252.138 -694.9596,-577.205 -112.7978,-78.992 -149.1961,212.783 -196.5013,331.27 -76.4107,185.321 123.7338,388.772 294.7518,495.104 192.8511,118.482 378.3899,249.114 596.7091,331.145 152.8213,57.723 334.7573,36.407 494.8564,81.979 138.2702,39.494 262.0986,115.472 396.7302,164.081 160.0989,60.762 338.2682,97.316 494.7313,167.189 207.4019,94.181 414.8101,200.386 593.1074,331.023 58.2166,39.492 174.6609,164.207 98.251,164.207 -145.5457,0 -250.973,-133.826 -392.8791,-164.207 -130.9915,-27.342 -273.0134,36.458 -396.7297,0 -251.0683,-75.952 -451.1709,-242.916 -694.9599,-331.023 -221.9601,-78.988 -469.3985,-94.278 -691.3583,-167.189 -269.261,-85.068 -916.8595,-616.648 -651.2374,-176.132 261.9824,440.516 163.6859,197.322 549.3848,425.178 560.3517,331.145 400.2408,-66.636 891.4618,413.373 200.1265,197.474 -1742.841,-300.866 -1244.3452,-21.368 480.3021,267.349 1077.0833,340.316 1641.0748,434.493 261.9859,45.571 542.0221,9.131 793.0861,85.084 225.5991,66.839 414.9386,200.442 593.2316,328.039 58.2204,42.536 134.514,112.38 98.127,167.068 -87.3257,145.822 -98.1419,264.336 -294.6288,164.083 -684.0677,-340.259 -211.1349,-321.94 -1091.6894,-495.109 -90.9682,-18.227 -112.6882,203.453 -196.3774,163.958 -811.4198,-361.524 -251.0453,-279.432 -694.9603,-328.039 -211.0446,-24.302 -694.9857,-300.812 -593.1071,81.98 18.1937,69.872 705.7621,537.715 793.0866,577.21 192.8515,88.103 385.8305,188.277 593.2317,249.041 258.3465,75.95 523.8286,130.662 793.0861,164.081 163.7425,21.269 331.2378,-18.23 494.9803,0 72.775,9.112 163.6301,27.363 196.3783,85.085 47.3051,72.916 61.8596,182.261 0,246.062 -61.8568,69.873 -192.7456,72.932 -294.6288,85.083 -196.4868,18.23 -403.8994,39.492 -593.1068,0 -1022.4646,-227.855 -1229.9675,-595.326 -1684.7972,-662.166 -61.86,-9.115 32.8907,349.402 294.8769,495.229 371.1405,206.589 789.4391,340.16 1189.6918,495.104 94.6042,39.495 200.2361,51.665 298.4789,85.086 69.1354,21.264 127.2431,57.799 196.3777,82.102 349.3114,112.41 680.4058,78.817 694.96026,81.856 218.31981,66.834 302.15601,85.108 294.87656,249.167 -3.6356,115.447 -156.60699,255.179 -294.87656,246.063 -480.30246,-21.265 -935.12436,-194.49 -1386.31806,-328.169 -476.6627,-142.787 -1033.3674,-795.81 -1386.3182,-498.084 -331.1166,276.462 644.1612,564.982 989.8373,826.253 160.0989,124.562 1346.2984,458.74 1484.5679,662.291 98.2435,145.823 -564.0189,-91.135 -764.145,-106.326 -1052.9353,-78.544 -2237.5,-969.73 -1717.5883,-316.488 a 17544.032,17544.032 0 0 0 5640.9142,950.089 17544.032,17544.032 0 0 0 1208.1989,-42.853 c -21.0655,-389.55 2.9554,-796.577 344.5614,-1003.872 170.8293,-102.627 217.741,425.598 268.1715,932.328 a 17544.032,17544.032 0 0 0 3001.0594,-567.771 c -48.7614,-81.269 -137.4348,-207.621 -256.2468,-258.235 -400.2525,-173.17 -1699.3937,-282.597 -2150.5879,-367.663 -724.091,-133.673 -1397.1968,-276.299 -2106.741,-458.586 -287.451,-72.911 2234.1131,215.502 2772.6356,248.917 294.7305,15.195 600.4916,42.534 891.5858,0 596.7396,-91.136 1226.1069,-1819.736 -494.9801,-1737.707 -363.866,18.224 -330.9893,118.56 -989.5886,82.101 -411.1669,-24.304 -640.5176,482.97 -891.5855,-82.101 -236.51,-534.698 1510.0483,-325.028 2175.9269,-413.127 567.6271,-75.954 796.8353,-3.08 1091.5652,-249.169 225.5996,-188.352 243.9045,-39.418 396.7295,-249.041 152.8249,-212.664 -283.9319,-410.212 -396.7295,-413.25 -265.6221,-6.079 -527.7131,-6.079 -793.3352,0 -105.5229,3.033 -709.5218,109.342 -793.2109,167.064 -141.9095,100.254 -229.103,258.362 -396.4809,331.267 -338.397,151.911 -720.4588,227.854 -1087.9633,331.149 -127.3524,33.421 -265.6146,51.599 -396.6058,81.98 -443.919,103.29 -200.2612,188.44 -691.4819,82.101 -127.3516,-27.339 -72.771,-240.124 0,-331.27 80.0499,-103.285 251.1804,-130.537 396.7295,-163.96 94.6032,-24.298 196.5089,-18.228 294.7524,0 72.7752,12.158 127.3328,94.009 200.104,81.857 352.9504,-57.723 614.9549,3.248 789.6087,-248.917 101.8829,-139.749 -65.5144,-173.326 -294.7528,-164.207 -414.8066,15.192 -258.32,188.437 -694.9599,82.102 -127.3552,-30.38 -98.2435,-258.361 0,-331.268 269.2618,-203.552 822.4354,-379.633 1189.9407,-331.022 72.7742,12.151 130.7499,112.375 98.0024,167.062 -90.9649,145.827 -421.8483,212.641 -196.2536,246.062 502.1357,78.986 989.7126,-215.704 1484.5687,-331.148 473.0269,-109.367 283.6725,118.533 793.0871,-81.976 236.5099,-94.182 21.8292,-440.519 0,-662.297 -10.9188,-85.061 -43.7612,-173.146 -101.9775,-246.059 -76.4137,-97.217 -294.6279,-130.683 -294.6279,-249.169 0,-51.644 840.6383,106.356 793.3352,-577.206 -27.2911,-350.324 -441.5597,-596.4069 -712.1017,-588.2649 z m -4867.9494,104.5909 c -42.9049,-0.69 -85.9709,-0.37 -129.1792,0.744 -1943.04657,30.38 -2376.0179,309.694 -2055.81486,294.502 -447.55494,358.492 800.581336,407.127 957.04544,422.318 589.464,48.607 1615.45872,106.339 2248.58992,-33.412 185.5678,-36.454 1138.9706,-157.862 920.6511,-482.932 -123.716,-191.397 -785.981,-142.797 -1047.9675,-151.912 -299.2785,0 -593.0012,-44.369 -893.3249,-49.308 z m 132.9055,219.353 389.4013,118.499 c 138.2704,-3.037 1222.5278,-69.873 512.9914,72.911 -451.194,91.144 -1255.3614,203.519 -1692.00112,94.149 l 407.53562,-94.149 c -855.08622,-57.722 -1284.400324,-91.078 -1080.63512,-109.308 203.7663,-15.185 1302.60872,-76.024 1462.70792,-82.102 z m 4413.8346,9374.819 c 221.501,38.518 462.7219,65.115 606.6463,0 z"
       id="path24-4" /><g
       style="clip-rule:evenodd;fill-rule:evenodd;image-rendering:optimizeQuality;shape-rendering:geometricPrecision;text-rendering:geometricPrecision"
       id="_775282522288"
       transform="matrix(2.7292042,0,0,2.7292042,-32743.11,-10738.523)"><path
         style="fill:#6c5353;stroke:none;stroke-width:7.62"
         inkscape:connector-curvature="0"
         id="path33"
         d="m 9854,8268 c 183,-128 345,-211 594,-441 290,-267 732,-678 1132,-987 l 384,-296 c 0,0 97,-29 140,37 43,66 -11,215 -11,215 0,0 -431,342 -613,474 -183,132 -688,616 -914,841 -160,160 -428,320 -571,399 z"
         class="fil7 str0" /><path
         style="fill:#84716b;stroke:none;stroke-width:7.62"
         inkscape:connector-curvature="0"
         id="path35"
         d="m 9864,8284 c 190,-135 339,-196 598,-430 282,-254 718,-679 1102,-979 l 375,-293 c 0,0 104,-47 146,16 42,63 -21,210 -21,210 0,0 -429,335 -607,461 -178,125 -660,592 -880,806 -175,171 -480,340 -600,404 z"
         class="fil8 str0" /><path
         style="fill:#999999;stroke:none;stroke-width:7.62"
         inkscape:connector-curvature="0"
         id="path37"
         d="m 9438,8527 c -15,-25 -17,-102 28,-133 l 220,-164 c 55,-41 140,-10 160,23 l 173,298 c 31,54 23,95 -3,124 l 396,131 c 36,2 69,18 101,39 -82,141 -147,227 -274,331 -9,7 -39,18 -50,21 -43,8 -238,46 -337,49 l -124,-358 c -27,10 -85,9 -106,-29 z"
         class="fil7 str0" /><path
         style="fill:#a98f71"
         inkscape:connector-curvature="0"
         id="path39"
         d="m 9920,8381 c 118,-81 753,-520 815,-606 68,-94 1101,-976 1143,-1002 41,-26 94,-79 110,-37 15,42 -131,126 -131,126 0,0 -221,184 -331,268 -110,84 -948,839 -1095,949 -132,100 -432,302 -488,340 z"
         class="fil9" /><path
         style="fill:#bdbfc1"
         inkscape:connector-curvature="0"
         id="path41"
         d="m 9469,8524 c -13,-24 -15,-86 27,-115 l 207,-144 c 53,-38 107,-5 125,26 l 168.9996,276 c 30.0004,49 16.0004,104 -9,131 L 10381,8821 c 33,2 65,12 95,31 -73,126 -163,228 -264,321 -11,10 -18,25 -32,29 -135,33 -224.0004,38 -288.9998,45 L 9747,8873 c -25,10 -80,-1 -99,-36 z"
         class="fil1" /></g><g
       style="clip-rule:evenodd;fill-rule:evenodd;image-rendering:optimizeQuality;shape-rendering:geometricPrecision;text-rendering:geometricPrecision"
       id="_775282492272"
       transform="matrix(7.723274,0,0,7.723274,-81107.266,-62421.798)"><g
         id="g44"><path
           style="fill:#803300"
           inkscape:connector-curvature="0"
           id="path46"
           d="m 10614,9334 c 0,0 204,-499 285,-600 82,-102 265,-331 265,-331 -10,-16 -16,-35 -31,-46 -32,-25 -90,-24 -106,-61 -25,-56 22,-127 0,-184 -37,-92 -110,-165 -168,-244 -44,-58 -84,-120 -138,-168 -35,-31 -126,-18 -126,-65 0,-43 84,-18 126,-27 0,0 50,-245 50,-290 0,-46 76,-124 76,-124 -5,-20 -23,-41 -15,-60 10,-19 47,-11 57,-30 38,-71 42,-158 81,-229 48,-89 145,-149 179,-244 25,-73 -16,-154 -11,-230 1,-23 25,-83 30,-61 24,89 28,183 27,275 -1,42 -11,86 -31,123 -32,57 -91,95 -122,152 -39,72 -59,153 -87,229 -21,56 -42,112 -61,168 -28,81 -58,162 -81,245 -9,30 -31,65 -16,92 36,62 90,117 153,152 21,12 46,-44 66,-31 26,18 18,62 26,92 16,61 32,122 46,184 8,40 14,81 19,122 5,30 -10,69 11,92 45,45 124,45 168,91 21,22 19,65 5,92 -38,70 -108,117 -153,183 -67,98 -129,200 -183,305 -54,104 -103,211 -142,321 -23,64 2,151 -46,199 -26,26 -46,-58 -77,-76 -22,-14 -50,-10 -76,-16 z"
           class="fil10" /><path
           style="fill:#aa4400"
           inkscape:connector-curvature="0"
           id="path48"
           d="m 10724,9295 c 43,-138 99,-273 167,-400 81,-150 185,-286 278,-428 19,-30 69,-54 58,-87 -19,-54 -101,-65 -127,-116 -36,-68 -22,-155 -52,-226 -33,-74 -87,-137 -133,-202 -52,-74 -150,-126 -162,-215 -16,-114 52,-225 86,-336 12,-38 37,-72 52,-110 43,-101 70,-209 122,-306 32,-60 91,-100 127,-157 19,-29 33,-63 35,-98 4,-81 -20,-162 -18,-243 1,-13 22,16 24,29 10,67 16,135 11,202 -3,42 -14,104 -35,140 -32,58 -96,109 -126,168 -50,97 -68,192 -108,293 -16,41 -27,90 -43,131 -25,65 -45,136 -64,202 -10,34 -29,49 -19,82 15,48 83,99 118,134 18,19 37,26 55,15 20,-11 38,-40 56,-16 10,15 -6,36 0,68 13,62 45,134 58,165 15,37 8,98 17,137 10,42 -9,84 16,120 33,47 122,52 159,97 11,13 -18,76 -26,91 -62,109 -132,181 -200,287 -47,74 -102,158 -138,238 -64,139 -102,280 -171,416 -12,23 -25,-51 -17,-75 z"
           class="fil11" /></g><g
         id="g50"><path
           style="fill:#217844;stroke:none;stroke-width:7.62"
           inkscape:connector-curvature="0"
           id="path52"
           d="m 10971,8246 c -58,-42 -94,-73 -137,-131 -15,-21 -9,-51 -15,-76 -4,-16 -10,-31 -15,-46 -10,-31 -10,-67 -31,-92 -28,-34 -76,-45 -107,-76 -16,-16 -9,-52 -30,-61 -24,-10 -55,30 -77,15 -53,-37 -64,-124 -122,-153 -37,-18 -81,39 -122,31 -47,-9 -76,-63 -122,-77 -30,-8 -61,18 -92,16 -52,-4 -103,-47 -153,-31 -30,10 -3,75 -30,92 -27,16 -62,-24 -92,-15 -15,4 0,39 -15,45 -53,22 -153,-24 -168,31 -16,59 88,86 122,137 8,13 -10,35 0,46 24,28 78,27 92,61 12,30 -45,63 -31,92 23,46 80,63 122,92 19,12 49,11 61,30 12,17 -17,50 0,61 39,26 96,9 138,31 38,20 50,79 92,92 35,11 69,-34 106,-31 36,3 62,39 97,46 38,8 80,-12 117,0 31,10 44,61 77,61 29,0 40,-41 61,-61 25,-26 43,-64 76,-76 38,-15 82,-3 122,0 44,2 88,22 131,13 16,-3 28,-32 18,-44 -13,-14 -58,-10 -73,-22 z"
           class="fil7 str0" /><path
           style="fill:#00a859"
           inkscape:connector-curvature="0"
           id="path54"
           d="m 9687,7730 c 104,57 291,93 401,134 55,21 107,37 162,61 32,14 67,49 101,39 17,-6 2,-20 -6,-35 -18,-34 -64,-83 -87,-116 -27,-41 -69,-84 -87,-130 -6,-17 -2,-36 3,-52 3,-9 12,-18 3,-24 -26,-18 -58,33 -89,31 -44,-3 -83,-60 -125,-46 -31,11 5,78 -23,95 -29,18 -66,-25 -100,-20 -15,3 -7,35 -21,40 -41,17 -172,2 -132,23 z"
           class="fil12" /><path
           style="fill:#00a859"
           inkscape:connector-curvature="0"
           id="path56"
           d="m 10404,7988 c -32,-25 -42,-73 -64,-107 -44,-70 -104,-112 -142,-185 -11,-21 -17,-86 6,-87 38,-3 56,56 93,63 39,8 90,-48 117,-19 10,10 -8,24 -8,38 -2,32 0,71 7,103 11,57 33,113 63,162 27,43 151,89 105,110 -22,10 -45,-3 -69,-13 -38,-16 -77,-40 -108,-65 z"
           class="fil12" /><path
           style="fill:#00a859"
           inkscape:connector-curvature="0"
           id="path58"
           d="m 10442,7650 c -16,0 -14,30 -16,46 -3,33 -1,70 14,101 22,48 30,103 59,147 20,32 68,47 92,77 15,18 11,51 31,63 41,26 94,30 134,58 34,23 74,54 134,63 38,6 -68,-44 -87,-78 -13,-25 5,-58 -1,-86 -9,-40 -22,-79 -42,-115 -8,-15 -25,-25 -41,-34 -17,-9 -41,-4 -55,-18 -20,-19 -17,-59 -41,-73 -24,-15 -61,15 -83,-2 -47,-37 -39,-148 -98,-149 z"
           class="fil12" /><path
           style="fill:#00a859"
           inkscape:connector-curvature="0"
           id="path60"
           d="m 9749,7791 c 37,1 73,16 107,28 57,19 112,40 169,62 91,35 171,40 253,91 39,25 -75,6 -118,23 -42,16 -71,55 -102,87 -15,15 -16,45 -35,52 -25,9 -54,0 -76,-13 -34,-19 -72,-43 -85,-80 -10,-28 33,-58 25,-87 -8,-26 -48,-29 -65,-50 -8,-11 -1,-29 -8,-40 -18,-28 -97,-75 -65,-73 z"
           class="fil12" /><path
           style="fill:#00a859"
           inkscape:connector-curvature="0"
           id="path62"
           d="m 10033,8212 c -23,-27 15,-74 38,-103 26,-35 63,-65 104,-80 57,-21 121,-36 181,-26 47,8 75,37 120,59 25,13 74,26 99,37 69,31 104,31 184,75 47,26 -92,17 -144,31 -41,11 -57,16 -90,43 -26,23 -54,87 -87,98 -35,12 -59,-30 -95,-36 -28,-5 -57,14 -85,8 -22,-4 -41,-21 -57,-37 -14,-15 -11,-47 -31,-55 -42,-18 -107,21 -137,-14 z"
           class="fil12" /><path
           style="fill:#00a859"
           inkscape:connector-curvature="0"
           id="path64"
           d="m 10827,8212 c 47,6 85,41 129,58 19,7 52,-5 59,14 5,16 -35,7 -52,6 -67,-2 -138,-35 -201,-13 -57,20 -69,110 -125,129 -31,10 -42,-54 -72,-64 -29,-9 -63,32 -78,6 -15,-26 24,-66 47,-84 33,-25 72,-31 111,-40 62,-15 120,-20 182,-12 z"
           class="fil12" /></g><g
         id="g66"><path
           style="fill:#217844;stroke:none;stroke-width:7.62"
           inkscape:connector-curvature="0"
           id="path68"
           d="m 10613,7562 c -2,-57 1,-95 24,-153 9,-21 40,-35 59,-53 11,-11 20,-23 31,-35 20,-24 53,-45 61,-71 12,-35 -11,-69 -4,-104 3,-19 40,-36 34,-53 -7,-19 -65,-14 -67,-34 -3,-52 68,-108 54,-158 -9,-32 -90,-23 -112,-51 -24,-32 5,-80 -15,-113 -13,-22 -58,-25 -77,-43 -33,-31 -29,-86 -78,-104 -30,-11 -70,42 -104,36 -33,-5 -21,-49 -49,-60 -15,-7 -36,22 -52,18 -56,-17 -84,-101 -143,-77 -65,25 -18,100 -40,148 -6,13 -38,15 -42,27 -8,30 30,60 8,87 -18,24 -87,11 -103,36 -26,39 -3,82 1,122 2,18 23,34 15,53 -8,16 -57,19 -56,35 4,37 59,59 68,95 8,34 -37,75 -20,105 15,27 78,20 101,43 22,21 8,57 26,81 18,26 65,38 80,66 13,23 -25,60 -2,79 20,16 65,-1 97,-2 41,0 87,-12 122,-1 39,13 58,45 84,69 28,26 41,62 78,82 14,6 48,-3 52,-16 4,-15 -31,-39 -31,-54 z"
           class="fil7 str0" /><path
           style="fill:#00a859"
           inkscape:connector-curvature="0"
           id="path70"
           d="m 10194,6538 c 20,93 117,219 156,305 19,43 40,81 56,126 10,27 3,66 35,79 17,7 19,-9 27,-23 18,-30 30,-84 45,-116 18,-39 28,-88 57,-124 11,-14 31,-23 49,-29 11,-4 25,-4 24,-13 -1,-25 -69,-13 -89,-32 -28,-27 -3,-81 -45,-97 -31,-11 -67,48 -102,42 -36,-6 -23,-52 -51,-67 -12,-7 -35,15 -50,11 -44,-14 -120,-96 -112,-62 z"
           class="fil12" /><path
           style="fill:#00a859"
           inkscape:connector-curvature="0"
           id="path72"
           d="m 10455,7093 c 1,-33 38,-67 53,-99 33,-65 30,-123 69,-188 11,-18 66,-58 83,-46 28,19 -12,64 7,89 19,26 106,22 98,55 -2,11 -27,9 -40,17 -31,18 -64,42 -88,64 -44,39 -79,84 -103,130 -20,40 24,137 -27,123 -24,-7 -28,-28 -36,-46 -12,-32 -17,-67 -16,-99 z"
           class="fil12" /><path
           style="fill:#00a859"
           inkscape:connector-curvature="0"
           id="path74"
           d="m 10787,6918 c -11,-9 -37,9 -52,17 -33,18 -65,40 -83,67 -28,40 -71,77 -92,119 -14,30 5,66 -5,96 -6,19 -39,36 -36,54 5,39 38,70 41,110 2,32 1,73 35,112 21,24 -8,-64 10,-94 14,-23 55,-32 77,-51 30,-28 56,-58 75,-90 8,-14 5,-30 2,-43 -3,-15 -24,-26 -22,-42 4,-23 42,-44 39,-66 -3,-21 -57,-25 -56,-48 1,-47 107,-107 67,-141 z"
           class="fil12" /><path
           style="fill:#00a859"
           inkscape:connector-curvature="0"
           id="path76"
           d="m 10182,6609 c 25,22 35,50 49,76 22,43 41,87 60,132 31,71 82,120 92,195 5,37 -57,-39 -102,-53 -43,-14 -98,-8 -149,-7 -23,1 -51,18 -71,10 -24,-8 -37,-30 -41,-50 -6,-30 -10,-66 14,-94 18,-23 75,-15 96,-37 19,-19 -7,-43 1,-65 3,-11 25,-17 30,-28 13,-26 0,-98 21,-79 z"
           class="fil12" /><path
           style="fill:#00a859"
           inkscape:connector-curvature="0"
           id="path78"
           d="m 9998,7014 c 8,-29 77,-35 118,-39 50,-5 103,-2 145,12 58,20 116,48 148,88 25,30 19,63 29,101 6,22 28,57 35,77 20,58 44,77 59,148 9,41 -78,-42 -127,-63 -38,-17 -54,-23 -101,-26 -39,-2 -115,20 -148,8 -34,-13 -14,-51 -33,-75 -15,-18 -52,-24 -66,-43 -11,-15 -10,-35 -6,-53 4,-18 35,-34 29,-50 -14,-34 -93,-48 -82,-85 z"
           class="fil12" /><path
           style="fill:#00a859"
           inkscape:connector-curvature="0"
           id="path80"
           d="m 10546,7461 c 26,30 21,72 36,107 6,15 40,26 28,41 -11,12 -30,-16 -42,-26 -45,-39 -63,-98 -127,-121 -57,-20 -146,26 -202,4 -30,-11 19,-54 7,-77 -11,-22 -71,-17 -58,-41 12,-23 76,-25 109,-22 44,4 76,23 112,40 56,26 101,55 137,95 z"
           class="fil12" /></g><g
         id="g82"><path
           style="fill:#217844;stroke:none;stroke-width:7.62"
           inkscape:connector-curvature="0"
           id="path84"
           d="m 11050,7753 c 36,-35 62,-56 113,-75 18,-7 46,5 68,6 14,1 28,-1 41,-1 28,-1 60,8 82,-2 30,-14 38,-49 64,-65 14,-9 47,4 54,-10 9,-16 -29,-50 -17,-63 31,-33 109,-20 133,-59 15,-25 -39,-72 -33,-102 5,-34 53,-44 63,-77 7,-21 -18,-51 -18,-75 1,-39 38,-69 21,-111 -11,-26 -68,-20 -85,-45 -16,-25 19,-43 10,-68 -5,-13 -36,-10 -43,-23 -22,-46 15,-113 -35,-137 -55,-27 -75,48 -120,62 -11,4 -31,-15 -41,-10 -24,12 -21,54 -51,56 -27,3 -59,-49 -85,-45 -40,7 -54,47 -77,74 -11,11 -9,34 -25,40 -15,5 -46,-25 -56,-15 -22,25 -3,73 -21,100 -17,25 -69,21 -79,50 -8,25 34,62 33,90 -1,27 -32,39 -38,64 -5,28 15,65 6,91 -7,22 -53,20 -52,45 2,23 39,41 59,62 24,26 59,48 72,77 15,33 6,64 6,95 0,34 -16,63 -6,99 4,12 30,29 41,23 12,-6 7,-42 16,-51 z"
           class="fil7 str0" /><path
           style="fill:#00a859"
           inkscape:connector-curvature="0"
           id="path86"
           d="m 11458,6877 c -46,68 -70,205 -102,280 -17,38 -29,75 -48,111 -11,23 -41,41 -30,70 5,15 17,6 31,4 30,-6 72,-31 101,-41 36,-11 73,-33 114,-36 15,-2 32,6 47,14 9,5 17,13 22,8 16,-16 -32,-53 -32,-77 1,-33 50,-50 36,-86 -11,-26 -71,-14 -88,-40 -17,-27 20,-46 14,-73 -3,-12 -32,-13 -37,-25 -18,-37 -10,-135 -28,-109 z"
           class="fil12" /><path
           style="fill:#00a859"
           inkscape:connector-curvature="0"
           id="path88"
           d="m 11258,7373 c 21,-18 65,-15 94,-24 62,-18 97,-54 162,-67 18,-4 77,7 79,26 4,29 -48,30 -53,57 -6,28 48,81 23,95 -9,6 -22,-12 -35,-16 -30,-8 -65,-16 -93,-18 -51,-5 -101,-1 -145,11 -37,11 -74,97 -94,56 -10,-20 0,-35 8,-51 13,-26 32,-50 54,-69 z"
           class="fil12" /><path
           style="fill:#00a859"
           inkscape:connector-curvature="0"
           id="path90"
           d="m 11567,7482 c -1,-12 -28,-18 -43,-23 -30,-10 -63,-17 -91,-13 -43,6 -92,0 -131,11 -28,9 -39,43 -65,54 -16,7 -46,-4 -56,9 -22,26 -23,66 -46,91 -19,21 -46,44 -51,89 -3,28 36,-43 66,-49 23,-5 53,17 78,19 36,3 71,2 103,-5 14,-3 22,-14 29,-24 7,-11 2,-31 14,-39 16,-11 52,1 64,-14 12,-15 -16,-52 -2,-65 31,-27 133,5 131,-41 z"
           class="fil12" /><path
           style="fill:#00a859"
           inkscape:connector-curvature="0"
           id="path92"
           d="m 11407,6912 c 0,28 -12,52 -21,76 -14,40 -31,77 -48,117 -28,62 -29,123 -71,174 -21,25 -9,-59 -27,-97 -17,-36 -53,-67 -83,-99 -15,-15 -42,-23 -49,-40 -9,-21 -3,-42 8,-56 16,-22 36,-46 68,-47 26,-1 55,40 81,40 23,0 24,-30 42,-38 10,-5 26,6 36,3 24,-8 63,-58 64,-33 z"
           class="fil12" /><path
           style="fill:#00a859"
           inkscape:connector-curvature="0"
           id="path94"
           d="m 11037,7033 c 24,-12 68,29 96,53 32,29 61,64 77,100 22,49 38,102 32,147 -5,34 -30,49 -48,79 -10,16 -20,52 -29,68 -25,47 -23,74 -59,125 -22,31 -20,-75 -35,-119 -12,-34 -17,-48 -44,-79 -22,-27 -81,-63 -93,-91 -11,-30 25,-39 29,-65 3,-21 -16,-48 -12,-68 3,-17 17,-28 32,-36 13,-8 42,3 48,-11 14,-29 -24,-88 6,-103 z"
           class="fil12" /><path
           style="fill:#00a859"
           inkscape:connector-curvature="0"
           id="path96"
           d="m 11075,7650 c -4,35 -34,56 -47,86 -6,13 7,42 -10,42 -14,1 -8,-28 -8,-41 -2,-52 26,-99 2,-154 -20,-48 -103,-79 -122,-127 -11,-26 46,-20 54,-41 7,-20 -32,-56 -9,-62 23,-5 62,34 79,57 24,31 31,63 41,95 16,52 24,98 20,145 z"
           class="fil12" /></g><g
         id="g98"><path
           style="fill:#217844;stroke:none;stroke-width:7.62"
           inkscape:connector-curvature="0"
           id="path100"
           d="m 11321,8277 c 66,-32 107,-56 161,-106 19,-18 18,-50 29,-74 7,-14 16,-28 24,-42 16,-29 23,-65 48,-86 34,-29 84,-31 121,-57 19,-13 19,-50 42,-55 26,-6 49,40 73,30 61,-27 87,-112 151,-130 41,-12 74,53 116,53 49,0 88,-48 137,-53 31,-3 57,29 88,33 53,6 113,-28 159,-2 28,16 -11,75 13,97 23,21 66,-12 94,2 15,7 -7,40 7,48 48,32 158,5 162,62 5,63 -104,70 -148,115 -10,11 4,36 -8,46 -29,23 -83,12 -103,44 -18,27 33,71 13,97 -31,41 -92,48 -139,68 -21,10 -51,3 -67,20 -14,14 8,52 -11,61 -44,18 -98,-10 -143,4 -42,13 -66,70 -109,75 -38,4 -64,-47 -101,-51 -36,-4 -69,27 -105,28 -40,1 -78,-27 -117,-22 -33,4 -56,53 -88,47 -29,-6 -33,-49 -50,-73 -20,-30 -31,-71 -62,-91 -35,-21 -81,-17 -122,-22 -44,-6 -92,5 -133,-12 -15,-6 -22,-37 -9,-46 15,-12 60,0 77,-8 z"
           class="fil7 str0" /><path
           style="fill:#00a859"
           inkscape:connector-curvature="0"
           id="path102"
           d="m 12700,8002 c -115,37 -309,37 -426,58 -59,11 -114,17 -173,30 -35,8 -76,36 -108,20 -16,-9 1,-19 12,-33 24,-31 80,-71 109,-100 35,-35 84,-71 111,-113 10,-16 8,-36 6,-53 -1,-10 -8,-20 2,-24 29,-14 52,43 84,47 44,5 93,-44 133,-22 28,16 -20,77 5,99 26,23 71,-13 103,-1 15,5 1,35 14,44 38,24 172,34 128,48 z"
           class="fil12" /><path
           style="fill:#00a859"
           inkscape:connector-curvature="0"
           id="path104"
           d="m 11936,8125 c 36,-19 55,-66 83,-96 58,-61 125,-92 177,-158 15,-18 32,-82 10,-88 -37,-9 -67,46 -105,46 -40,1 -80,-65 -113,-41 -12,8 3,25 1,40 -4,32 -14,71 -26,101 -22,55 -54,107 -94,150 -35,38 -168,61 -125,90 20,14 46,5 71,0 42,-8 84,-25 121,-44 z"
           class="fil12" /><path
           style="fill:#00a859"
           inkscape:connector-curvature="0"
           id="path106"
           d="m 11961,7780 c 16,3 8,32 7,49 -3,33 -12,70 -33,98 -31,44 -50,97 -86,136 -27,28 -78,34 -107,59 -18,15 -20,49 -42,58 -47,18 -100,12 -146,32 -38,17 -83,41 -145,38 -39,-1 76,-31 101,-61 19,-23 7,-59 18,-86 16,-38 36,-75 63,-107 11,-14 30,-21 47,-26 19,-6 43,3 59,-8 24,-15 28,-56 54,-66 27,-10 59,27 84,14 54,-28 66,-140 126,-130 z"
           class="fil12" /><path
           style="fill:#00a859"
           inkscape:connector-curvature="0"
           id="path108"
           d="m 12626,8050 c -37,-5 -75,3 -111,8 -61,8 -120,19 -181,30 -98,18 -179,8 -270,44 -44,17 74,20 114,45 38,24 60,69 85,106 12,18 7,48 26,59 22,13 53,10 78,1 37,-13 80,-30 100,-64 15,-26 -23,-64 -9,-92 12,-25 53,-20 74,-38 11,-9 6,-28 16,-38 23,-24 111,-56 78,-61 z"
           class="fil12" /><path
           style="fill:#00a859"
           inkscape:connector-curvature="0"
           id="path110"
           d="m 12263,8418 c 29,-23 -1,-77 -18,-110 -20,-40 -50,-77 -88,-100 -54,-32 -115,-58 -177,-59 -48,-1 -82,22 -130,36 -28,8 -80,12 -106,18 -75,18 -110,12 -198,41 -52,17 88,34 138,58 39,18 54,26 81,60 23,28 38,97 69,114 33,18 65,-19 102,-18 28,0 54,24 83,24 23,-1 45,-13 64,-27 17,-12 20,-45 41,-49 46,-10 103,41 139,12 z"
           class="fil12" /><path
           style="fill:#00a859"
           inkscape:connector-curvature="0"
           id="path112"
           d="m 11470,8269 c -48,-3 -92,25 -139,34 -20,3 -51,-15 -61,2 -9,16 33,14 50,17 68,10 145,-10 204,24 52,31 47,123 101,152 28,16 51,-45 83,-50 31,-4 57,43 77,20 20,-22 -12,-70 -32,-93 -27,-30 -65,-43 -103,-60 -59,-26 -115,-43 -180,-46 z"
           class="fil12" /></g><g
         id="g114"><path
           style="fill:#217844;stroke:none;stroke-width:7.62"
           inkscape:connector-curvature="0"
           id="path116"
           d="m 11069,8797 c 29,7 47,14 73,33 9,7 12,24 18,36 4,7 9,13 14,20 8,13 15,32 26,40 16,10 36,3 53,11 8,4 12,25 21,24 11,-1 16,-30 26,-28 26,5 44,48 71,47 17,0 23,-41 40,-48 19,-8 39,13 58,7 13,-3 20,-25 32,-32 19,-12 46,-3 61,-25 10,-13 -11,-40 -4,-56 7,-15 27,-4 37,-16 5,-7 -7,-21 -2,-28 16,-26 61,-28 57,-61 -4,-35 -47,-22 -68,-40 -5,-4 -2,-20 -8,-24 -13,-8 -33,7 -44,-7 -9,-13 6,-45 -4,-56 -16,-18 -40,-12 -61,-16 -9,-1 -20,7 -27,0 -7,-6 -2,-30 -11,-32 -18,-3 -37,21 -56,21 -17,-1 -32,-28 -49,-24 -15,4 -20,36 -35,45 -13,8 -29,-4 -43,1 -16,6 -28,28 -44,31 -13,4 -26,-20 -38,-11 -11,7 -8,32 -12,48 -6,20 -6,45 -16,60 -12,18 -30,23 -45,33 -17,10 -37,12 -51,28 -5,5 -5,24 1,27 7,4 23,-10 30,-8 z"
           class="fil7 str0" /><path
           style="fill:#00a859"
           inkscape:connector-curvature="0"
           id="path118"
           d="m 11632,8726 c -49,-2 -124,29 -172,37 -23,4 -45,9 -70,11 -14,1 -33,-8 -43,7 -6,7 2,10 7,16 13,13 38,26 52,38 17,14 40,26 54,45 5,7 7,18 7,28 1,6 -1,12 3,13 13,3 16,-32 28,-39 17,-11 41,9 54,-10 10,-13 -15,-39 -7,-56 8,-17 29,-4 40,-16 5,-5 -3,-20 1,-26 13,-20 64,-47 46,-48 z"
           class="fil12" /><path
           style="fill:#00a859"
           inkscape:connector-curvature="0"
           id="path120"
           d="m 11323,8782 c 16,4 28,27 41,39 28,25 57,31 84,59 8,8 20,41 12,48 -13,11 -30,-15 -45,-9 -16,6 -25,49 -40,41 -6,-2 -1,-14 -3,-22 -5,-17 -12,-37 -20,-52 -14,-27 -31,-50 -51,-68 -17,-16 -71,-7 -57,-30 7,-11 17,-10 28,-11 17,-2 35,0 51,5 z"
           class="fil12" /><path
           style="fill:#00a859"
           inkscape:connector-curvature="0"
           id="path122"
           d="m 11365,8969 c 6,-4 0,-19 -2,-28 -4,-18 -11,-37 -22,-50 -16,-19 -28,-45 -46,-61 -13,-11 -33,-6 -47,-15 -9,-6 -13,-25 -22,-26 -20,-2 -40,10 -60,6 -16,-3 -36,-9 -60,2 -15,8 33,5 45,18 10,10 8,32 15,45 10,18 22,36 35,49 6,6 14,7 21,7 8,0 16,-9 23,-5 11,4 16,26 28,27 11,2 20,-24 31,-21 23,7 39,67 61,52 z"
           class="fil12" /><path
           style="fill:#00a859"
           inkscape:connector-curvature="0"
           id="path124"
           d="m 11598,8711 c -14,9 -29,11 -44,14 -24,5 -48,9 -73,12 -40,6 -70,25 -109,20 -18,-3 27,-23 40,-44 13,-19 17,-47 23,-72 3,-12 -1,-28 5,-37 7,-11 20,-14 30,-14 16,2 34,4 45,20 8,12 -3,39 5,52 7,12 23,3 33,10 4,3 5,14 9,18 11,10 49,13 36,21 z"
           class="fil12" /><path
           style="fill:#00a859"
           inkscape:connector-curvature="0"
           id="path126"
           d="m 11423,8566 c 13,8 7,43 3,64 -4,25 -12,51 -25,70 -18,26 -39,51 -63,61 -19,9 -34,1 -54,1 -12,0 -32,6 -43,7 -31,2 -44,12 -81,10 -22,-1 31,-34 48,-55 14,-16 19,-23 26,-46 6,-19 6,-60 16,-75 11,-15 27,0 41,-6 12,-5 19,-23 31,-27 9,-3 18,0 27,4 8,5 12,22 21,21 18,-2 36,-40 53,-29 z"
           class="fil12" /><path
           style="fill:#00a859"
           inkscape:connector-curvature="0"
           id="path128"
           d="m 11128,8777 c -18,10 -38,1 -57,4 -8,1 -19,17 -24,8 -5,-7 11,-12 18,-17 25,-17 57,-18 77,-46 17,-26 7,-76 25,-101 9,-14 24,17 37,14 12,-3 18,-33 28,-24 10,10 2,41 -4,57 -8,22 -21,35 -34,50 -20,25 -41,43 -66,55 z"
           class="fil12" /></g><g
         id="g130"><path
           style="fill:#217844;stroke:none;stroke-width:7.62"
           inkscape:connector-curvature="0"
           id="path132"
           d="m 11117,6328 c -21,-36 -37,-59 -70,-88 -12,-11 -32,-10 -47,-15 -10,-4 -19,-9 -28,-13 -18,-8 -41,-11 -55,-25 -19,-19 -22,-47 -39,-67 -9,-11 -32,-10 -36,-23 -4,-14 24,-28 17,-42 -19,-33 -72,-47 -86,-82 -8,-23 32,-43 31,-67 -1,-28 -33,-49 -37,-76 -2,-18 17,-33 18,-51 3,-30 -20,-63 -5,-89 10,-17 48,4 61,-10 13,-14 -9,-37 -1,-54 4,-8 25,4 31,-4 18,-28 -1,-90 35,-93 39,-5 46,57 76,81 7,5 22,-3 29,3 15,16 10,47 30,58 18,9 44,-21 61,-10 27,17 33,51 47,77 6,12 3,29 13,37 10,8 34,-5 39,6 13,24 -3,55 7,80 9,24 45,36 49,60 4,21 -27,37 -29,58 -2,21 19,39 20,59 2,23 -15,45 -11,67 4,18 35,30 32,49 -3,16 -30,19 -45,29 -18,13 -44,19 -55,37 -13,21 -9,46 -12,70 -2,25 6,52 -3,75 -4,9 -23,14 -30,7 -7,-9 -1,-34 -7,-44 z"
           class="fil7 str0" /><path
           style="fill:#00a859"
           inkscape:connector-curvature="0"
           id="path134"
           d="m 10909,5555 c 27,64 32,173 48,239 8,33 14,64 24,97 5,20 24,43 15,61 -5,9 -13,0 -22,-6 -20,-13 -46,-44 -65,-59 -24,-19 -47,-47 -75,-61 -10,-5 -22,-4 -33,-2 -6,1 -12,5 -15,-1 -10,-16 26,-30 27,-48 2,-25 -30,-52 -17,-75 10,-16 49,10 63,-5 13,-15 -10,-40 -4,-58 3,-9 23,-1 27,-9 15,-22 18,-98 27,-73 z"
           class="fil12" /><path
           style="fill:#00a859"
           inkscape:connector-curvature="0"
           id="path136"
           d="m 11006,5984 c -13,-20 -43,-30 -62,-45 -40,-31 -61,-68 -104,-97 -12,-8 -53,-16 -56,-3 -5,21 30,36 32,58 1,23 -39,47 -24,65 6,7 16,-3 26,-2 20,2 45,7 64,13 35,11 69,28 97,50 25,18 43,93 60,69 8,-12 2,-27 -2,-41 -6,-23 -18,-47 -31,-67 z"
           class="fil12" /><path
           style="fill:#00a859"
           inkscape:connector-curvature="0"
           id="path138"
           d="m 10788,5977 c 1,-9 20,-5 31,-5 21,1 44,6 63,16 28,17 62,27 88,47 18,14 23,42 39,58 11,10 32,11 38,23 12,26 10,56 24,82 11,21 28,46 27,81 0,22 -21,-43 -41,-56 -15,-10 -37,-2 -54,-8 -25,-8 -49,-19 -69,-33 -9,-6 -14,-17 -18,-27 -4,-10 1,-23 -6,-33 -11,-13 -36,-14 -43,-29 -7,-14 15,-33 6,-47 -19,-30 -90,-35 -85,-69 z"
           class="fil12" /><path
           style="fill:#00a859"
           inkscape:connector-curvature="0"
           id="path140"
           d="m 10942,5595 c -3,22 4,43 8,63 6,34 15,67 23,102 14,55 10,101 35,151 12,24 10,-42 25,-65 15,-22 42,-36 65,-51 11,-7 30,-5 36,-15 8,-14 6,-31 -1,-45 -9,-21 -20,-44 -43,-55 -17,-8 -40,14 -57,7 -16,-6 -14,-29 -26,-41 -6,-5 -18,-3 -25,-8 -15,-12 -38,-61 -40,-43 z"
           class="fil12" /><path
           style="fill:#00a859"
           inkscape:connector-curvature="0"
           id="path142"
           d="m 11183,5792 c -15,-16 -48,2 -69,13 -24,12 -47,30 -61,52 -18,31 -34,66 -33,101 1,28 16,46 26,73 6,16 10,45 15,60 13,42 9,61 30,111 12,29 20,-51 33,-80 11,-22 16,-31 36,-47 17,-13 60,-23 70,-42 11,-18 -13,-36 -14,-56 0,-17 14,-32 13,-48 0,-13 -9,-25 -18,-36 -8,-9 -29,-10 -32,-22 -7,-25 23,-59 4,-79 z"
           class="fil12" /><path
           style="fill:#00a859"
           inkscape:connector-curvature="0"
           id="path144"
           d="m 11109,6244 c -1,27 18,52 25,78 2,11 -9,29 3,34 10,5 7,-19 9,-28 5,-39 -10,-82 10,-116 18,-30 76,-30 94,-61 9,-16 -30,-28 -34,-46 -3,-17 26,-33 11,-44 -15,-10 -45,9 -58,20 -19,17 -26,39 -36,60 -15,34 -24,66 -24,103 z"
           class="fil12" /></g><g
         id="g146"><path
           style="fill:#217844;stroke:none;stroke-width:7.62"
           inkscape:connector-curvature="0"
           id="path148"
           d="m 11139,6762 c 36,-41 57,-70 78,-122 8,-18 -2,-42 -1,-63 0,-13 2,-25 4,-38 2,-26 -4,-55 7,-77 15,-31 48,-46 66,-74 9,-15 -2,-43 12,-53 16,-11 45,17 58,3 33,-36 26,-107 64,-137 24,-20 65,21 93,9 33,-12 45,-59 77,-76 20,-10 47,7 69,2 37,-9 67,-51 106,-43 23,4 14,59 36,69 22,10 41,-26 64,-23 12,1 7,32 19,35 41,11 107,-38 127,4 21,45 -51,80 -67,125 -4,11 13,26 7,36 -13,26 -52,31 -56,60 -4,26 42,45 36,70 -9,39 -47,61 -73,88 -12,13 -34,15 -40,32 -5,15 20,38 10,49 -24,26 -68,19 -95,41 -24,21 -24,70 -52,85 -24,13 -56,-18 -82,-12 -26,7 -39,39 -63,49 -26,11 -60,0 -85,14 -21,12 -22,54 -45,58 -21,4 -37,-28 -55,-41 -22,-18 -41,-46 -67,-52 -30,-7 -60,8 -89,15 -31,7 -60,28 -92,26 -12,0 -26,-22 -20,-33 7,-12 40,-15 49,-26 z"
           class="fil7 str0" /><path
           style="fill:#00a859"
           inkscape:connector-curvature="0"
           id="path150"
           d="m 11988,6193 c -67,58 -197,109 -270,156 -36,23 -72,43 -107,68 -22,15 -41,47 -67,43 -14,-2 -5,-15 -2,-28 8,-29 33,-74 45,-103 13,-36 36,-76 42,-115 2,-14 -5,-29 -11,-41 -4,-7 -11,-13 -6,-19 16,-18 47,19 70,13 31,-7 50,-57 83,-51 24,5 9,63 32,73 24,11 44,-28 69,-28 11,0 11,27 22,30 33,8 125,-20 100,2 z"
           class="fil12" /><path
           style="fill:#00a859"
           inkscape:connector-curvature="0"
           id="path152"
           d="m 11509,6487 c 19,-24 18,-65 29,-94 21,-62 57,-102 74,-166 4,-18 -2,-70 -19,-69 -28,3 -32,52 -57,63 -27,11 -73,-28 -88,-2 -6,10 9,18 12,30 7,25 11,57 11,83 1,47 -5,94 -20,138 -12,37 -95,89 -58,100 17,5 32,-8 48,-18 25,-18 49,-41 68,-65 z"
           class="fil12" /><path
           style="fill:#00a859"
           inkscape:connector-curvature="0"
           id="path154"
           d="m 11427,6220 c 12,-2 15,22 19,35 8,26 12,56 6,83 -8,41 -5,86 -19,125 -10,28 -42,46 -55,72 -8,17 1,43 -12,55 -26,26 -63,35 -88,62 -21,23 -45,53 -87,67 -27,9 43,-43 51,-73 5,-22 -13,-46 -13,-69 0,-33 3,-66 11,-97 4,-13 15,-23 25,-32 11,-9 29,-9 37,-21 12,-18 3,-50 18,-64 15,-15 47,5 60,-12 28,-35 4,-123 47,-131 z"
           class="fil12" /><path
           style="fill:#00a859"
           inkscape:connector-curvature="0"
           id="path156"
           d="m 11952,6249 c -27,6 -50,22 -73,35 -38,22 -75,46 -113,71 -60,39 -117,52 -168,103 -25,25 55,-4 89,4 33,8 60,36 88,57 13,11 18,35 34,38 19,4 39,-6 53,-19 21,-20 45,-44 49,-75 2,-24 -34,-42 -33,-67 1,-22 30,-29 39,-48 5,-9 -4,-23 0,-33 8,-24 58,-71 35,-66 z"
           class="fil12" /><path
           style="fill:#00a859"
           inkscape:connector-curvature="0"
           id="path158"
           d="m 11813,6621 c 13,-25 -22,-58 -43,-78 -25,-25 -56,-45 -88,-52 -45,-10 -94,-14 -136,2 -33,12 -49,38 -77,61 -17,14 -50,30 -66,42 -46,33 -71,37 -122,82 -30,27 69,3 110,8 31,3 44,5 71,24 24,15 54,63 80,67 26,5 37,-31 62,-40 20,-7 44,4 63,-4 16,-6 27,-22 36,-37 8,-14 0,-39 13,-48 28,-19 81,5 97,-27 z"
           class="fil12" /><path
           style="fill:#00a859"
           inkscape:connector-curvature="0"
           id="path160"
           d="m 11238,6717 c -33,10 -55,43 -85,62 -12,8 -38,2 -40,18 -1,14 26,2 39,-1 48,-9 94,-45 144,-35 44,9 67,80 111,88 24,4 22,-48 42,-59 19,-11 50,17 57,-6 7,-22 -28,-50 -48,-61 -27,-16 -56,-16 -86,-19 -47,-4 -90,-1 -134,13 z"
           class="fil12" /></g><ellipse
         style="fill:#aa0000"
         id="ellipse162"
         ry="129"
         rx="123"
         cy="6410"
         cx="11153"
         class="fil7" /><ellipse
         style="fill:#ed3237"
         id="ellipse164"
         ry="112"
         rx="107"
         cy="6410"
         cx="11153"
         class="fil13" /><ellipse
         style="fill:#f6997e"
         id="ellipse166"
         ry="48"
         rx="46"
         cy="6370"
         cx="11168"
         class="fil14" /><ellipse
         style="fill:#aa0000"
         id="ellipse168"
         ry="129"
         rx="123"
         cy="6783"
         cx="10939"
         class="fil7" /><ellipse
         style="fill:#ed3237"
         id="ellipse170"
         ry="112"
         rx="107"
         cy="6783"
         cx="10939"
         class="fil13" /><ellipse
         style="fill:#f6997e"
         id="ellipse172"
         ry="48"
         rx="46"
         cy="6744"
         cx="10955"
         class="fil14" /><ellipse
         style="fill:#aa0000"
         id="ellipse174"
         ry="129"
         rx="123"
         cy="6752"
         cx="11138"
         class="fil7" /><ellipse
         style="fill:#ed3237"
         id="ellipse176"
         ry="112"
         rx="107"
         cy="6752"
         cx="11138"
         class="fil13" /><ellipse
         style="fill:#f6997e"
         id="ellipse178"
         ry="48"
         rx="46"
         cy="6713"
         cx="11153"
         class="fil14" /><ellipse
         style="fill:#aa0000"
         id="ellipse180"
         ry="129"
         rx="123"
         cy="7663"
         cx="10918"
         class="fil7" /><ellipse
         style="fill:#ed3237"
         id="ellipse182"
         ry="112"
         rx="107"
         cy="7663"
         cx="10918"
         class="fil13" /><ellipse
         style="fill:#f6997e"
         id="ellipse184"
         ry="48"
         rx="46"
         cy="7624"
         cx="10933"
         class="fil14" /><ellipse
         style="fill:#aa0000"
         id="ellipse186"
         ry="129"
         rx="123"
         cy="7562"
         cx="11072"
         class="fil7" /><ellipse
         style="fill:#ed3237"
         id="ellipse188"
         ry="112"
         rx="107"
         cy="7562"
         cx="11072"
         class="fil13" /><ellipse
         style="fill:#f6997e"
         id="ellipse190"
         ry="48"
         rx="46"
         cy="7523"
         cx="11088"
         class="fil14" /><g
         id="g192"><ellipse
           style="fill:#aa0000"
           id="ellipse194"
           ry="129"
           rx="123"
           cy="7750"
           cx="11079"
           class="fil7" /><ellipse
           style="fill:#ed3237"
           id="ellipse196"
           ry="112"
           rx="107"
           cy="7750"
           cx="11079"
           class="fil13" /><ellipse
           style="fill:#f6997e"
           id="ellipse198"
           ry="48"
           rx="46"
           cy="7710"
           cx="11094"
           class="fil14" /></g><ellipse
         style="fill:#aa0000"
         id="ellipse200"
         ry="129"
         rx="123"
         cy="8403"
         cx="11256"
         class="fil7" /><ellipse
         style="fill:#ed3237"
         id="ellipse202"
         ry="112"
         rx="107"
         cy="8403"
         cx="11256"
         class="fil13" /><ellipse
         style="fill:#f6997e"
         id="ellipse204"
         ry="48"
         rx="46"
         cy="8363"
         cx="11271"
         class="fil14" /><ellipse
         style="fill:#aa0000"
         id="ellipse206"
         ry="129"
         rx="123"
         cy="8266"
         cx="11102"
         class="fil7" /><ellipse
         style="fill:#ed3237"
         id="ellipse208"
         ry="112"
         rx="107"
         cy="8266"
         cx="11102"
         class="fil13" /><ellipse
         style="fill:#f6997e"
         id="ellipse210"
         ry="48"
         rx="46"
         cy="8227"
         cx="11118"
         class="fil14" /><ellipse
         style="fill:#aa0000"
         id="ellipse212"
         ry="129"
         rx="123"
         cy="8784"
         cx="10813"
         class="fil7" /><ellipse
         style="fill:#ed3237"
         id="ellipse214"
         ry="112"
         rx="107"
         cy="8784"
         cx="10813"
         class="fil13" /><ellipse
         style="fill:#f6997e"
         id="ellipse216"
         ry="48"
         rx="46"
         cy="8745"
         cx="10828"
         class="fil14" /><ellipse
         style="fill:#aa0000"
         id="ellipse218"
         ry="129"
         rx="123"
         cy="8952"
         cx="11016"
         class="fil7" /><ellipse
         style="fill:#ed3237"
         id="ellipse220"
         ry="112"
         rx="107"
         cy="8952"
         cx="11016"
         class="fil13" /><ellipse
         style="fill:#f6997e"
         id="ellipse222"
         ry="48"
         rx="46"
         cy="8913"
         cx="11031"
         class="fil14" /><ellipse
         style="fill:#aa0000"
         id="ellipse224"
         ry="129"
         rx="123"
         cy="8754"
         cx="11011"
         class="fil7" /><ellipse
         style="fill:#ed3237"
         id="ellipse226"
         ry="112"
         rx="107"
         cy="8754"
         cx="11011"
         class="fil13" /><ellipse
         style="fill:#f6997e"
         id="ellipse228"
         ry="48"
         rx="46"
         cy="8715"
         cx="11027"
         class="fil14" /></g></g></svg>
