<?xml version="1.0" encoding="UTF-8" standalone="no"?>
<svg
   xmlns:dc="http://purl.org/dc/elements/1.1/"
   xmlns:cc="http://creativecommons.org/ns#"
   xmlns:rdf="http://www.w3.org/1999/02/22-rdf-syntax-ns#"
   xmlns:svg="http://www.w3.org/2000/svg"
   xmlns="http://www.w3.org/2000/svg"
   xmlns:sodipodi="http://sodipodi.sourceforge.net/DTD/sodipodi-0.dtd"
   xmlns:inkscape="http://www.inkscape.org/namespaces/inkscape"
   sodipodi:docname="logohosana_logo_suave.svg"
   inkscape:version="1.0 (4035a4fb49, 2020-05-01)"
   id="svg2"
   viewBox="0 0 15875 15875"
   style="clip-rule:evenodd;fill-rule:evenodd;image-rendering:optimizeQuality;shape-rendering:geometricPrecision;text-rendering:geometricPrecision"
   version="1.1"
   height="600"
   width="600"
   xml:space="preserve"><metadata
     id="metadata254"><rdf:RDF><cc:Work
         rdf:about=""><dc:format>image/svg+xml</dc:format><dc:type
           rdf:resource="http://purl.org/dc/dcmitype/StillImage" /><dc:title /></cc:Work></rdf:RDF></metadata><sodipodi:namedview
     inkscape:document-rotation="0"
     units="px"
     inkscape:current-layer="svg2"
     inkscape:window-maximized="1"
     inkscape:window-y="428"
     inkscape:window-x="-8"
     inkscape:cy="316.05504"
     inkscape:cx="292.70432"
     inkscape:zoom="1.2821584"
     showgrid="false"
     id="namedview252"
     inkscape:window-height="1017"
     inkscape:window-width="1920"
     inkscape:pageshadow="2"
     inkscape:pageopacity="0"
     guidetolerance="10"
     gridtolerance="10"
     objecttolerance="10"
     borderopacity="1"
     bordercolor="#666666"
     pagecolor="#ffffff" /><defs
     id="defs4"><style
       id="style6"
       type="text/css"><![CDATA[
    .str0 {stroke:#373435;stroke-width:7.62}
    .fil15 {fill:#FEFEFE}
    .fil1 {fill:#BDBFC1}
    .fil7 {fill:#373435}
    .fil2 {fill:#FFF212}
    .fil8 {fill:#84716B}
    .fil9 {fill:#A98F71}
    .fil14 {fill:#F6997E}
    .fil10 {fill:#A45E4D}
    .fil11 {fill:#CB7246}
    .fil13 {fill:#ED3237}
    .fil12 {fill:#00A859}
    .fil0 {fill:#0098DA}
    .fil4 {fill:#1F1A17}
    .fil5 {fill:#B7683E}
    .fil16 {fill:#373435;fill-rule:nonzero}
    .fil6 {fill:#CB7246;fill-rule:nonzero}
    .fil3 {fill:#0098DA;fill-rule:nonzero}
   ]]></style></defs><path
     transform="scale(26.458333)"
     d="M -7.7988281 -4.6796875 L -7.7988281 613.80859 L 620.82812 613.80859 L 620.82812 -4.6796875 L -7.7988281 -4.6796875 z M 299.80078 36.640625 A 263.35896 263.35896 0 0 1 300 36.640625 A 263.35896 263.35896 0 0 1 563.35938 300 A 263.35896 263.35896 0 0 1 300 563.35938 A 263.35896 263.35896 0 0 1 36.640625 300 A 263.35896 263.35896 0 0 1 299.80078 36.640625 z "
     style="fill:#ff00ff;fill-opacity:1;stroke:none;stroke-width:0.999999"
     id="rect958" /><path
     class="fil3"
     d="m 7937.0198,0.4802077 h 0.9607 v 0.96078 c 2191.5435,0 4175.5585,887.7624823 5611.9275,2324.1320123 1435.408,1436.3689 2324.131,3420.3836 2324.131,5611.9273 h 0.961 v 0 0 h -0.961 c 0,2192.5047 -888.723,4176.5187 -2324.131,5612.8877 -1436.369,1435.409 -3420.384,2324.132 -5611.9275,2324.132 v 0 h -0.9607 v 0 0 c -2191.5437,0 -4175.5584,-888.723 -5611.9274,-2325.092 C 888.72356,12114.019 0.9610496,10130.005 0.9610496,7938.461 h -0.96078 v -0.9607 0 h 0.96078 C 0.9610496,5745.9566 889.68434,3761.9419 2325.0924,2325.573 3761.4614,889.20347 5745.4761,1.4409877 7937.0198,1.4409877 Z m 0.9607,274.7836323 v 0.96078 h -0.9607 v 0 -0.96078 c -2114.6811,0 -4030.4803,857.97836 -5416.8887,2245.34786 C 1132.7621,3907.02 274.7839,5822.8192 274.7839,7937.5003 h 0.96078 v 0 0.9607 h -0.96078 c 0.96078,2114.681 857.9782,4029.52 2245.3472,5416.889 1386.4084,1386.408 3302.2076,2244.386 5416.8887,2244.386 v 0 0 h 0.9607 v 0 c 2114.6815,0 4029.5195,-857.978 5416.8885,-2244.386 1386.408,-1387.369 2244.387,-3302.208 2244.387,-5417.8497 v 0 0 0 0 c 0,-2114.6811 -857.979,-4030.4803 -2244.387,-5416.8886 C 11967.5,1133.2422 10052.662,275.26384 7937.9805,275.26384 Z"
     id="path16"
     inkscape:connector-curvature="0"
     style="fill:#0098da;fill-rule:nonzero;stroke-width:0.96078193" /><circle
     class="fil2"
     cx="7937.5"
     cy="7937.5"
     r="5956.8857"
     id="circle14"
     style="clip-rule:evenodd;fill:#ffcc00;fill-rule:evenodd;stroke-width:2.83796;image-rendering:optimizeQuality;shape-rendering:geometricPrecision;text-rendering:geometricPrecision" /><path
     transform="scale(26.458333)"
     d="M 299.80078 36.640625 A 263.35896 263.35896 0 0 0 211.6543 51.902344 L 211.6543 130.5293 L 115.94336 130.59766 L 299.91602 313.68555 L 484.05664 130.5293 L 388.3457 130.5293 L 388.3457 51.902344 A 263.35896 263.35896 0 0 0 300 36.640625 A 263.35896 263.35896 0 0 0 299.80078 36.640625 z "
     style="fill:#0098da;stroke-width:0.0340248"
     id="path10" /><path
     sodipodi:nodetypes="scccccccccccccs"
     inkscape:connector-curvature="0"
     id="path22-9"
     d="m -4414.0429,8324.5099 c -65.1816,-0.06 -127.4233,1.596 -186.0905,5.173 -1333.2503,79.761 -2737.0606,185.551 -3414.0697,913.796 -396.6516,426.541 -267.9216,1253.5811 -54.0193,1699.2001 319.0335,664.719 261.2353,1194.058 72.9475,1614.203 1124.1233,426.561 2315.8826,647.176 3518.2096,651.281 1038.3223,-4.072 2069.694,-169.622 3057.1303,-490.713 -13.0297,-391.735 -14.6206,-785.017 1.3465,-1178.289 10.382,-225.408 164.0535,-443.899 170.2815,-471.643 64.3806,-310.372 -66.4415,-266.992 -114.2062,-424.782 -110.0653,-367.59 197.281,-502.836 226.357,-755.9871 22.8425,-201.133 -110.0581,-107.503 -170.2818,-188.999 -43.6106,-58.952 -83.0772,-121.374 -112.1505,-188.996 -58.1494,-136.979 122.5245,-240.976 0,-376.222 -371.8613,-408.012 -2017.7291,-806.906 -2995.4547,-808.022 z"
     style="clip-rule:evenodd;fill:#784421;fill-rule:evenodd;stroke-width:1.89759;image-rendering:optimizeQuality;shape-rendering:geometricPrecision;text-rendering:geometricPrecision" /><path
     id="path24-4"
     d="m -4661.5964,8523.5719 c -753.3608,2.929 -1539.0795,100.45 -2191.6854,354.034 -440.2639,169.924 -587.7889,530.622 -112.2214,802.848 305.2771,173.389 552.4846,225.38 874.3775,360.6251 452.7223,188.998 1368.5149,55.508 1846.1595,55.508 220.1319,-19.071 504.575,-95.352 712.248,-159.5051 294.8913,-98.835 1414.2935,-541.103 1258.5391,-931.234 -80.9907,-204.601 -807.9165,-393.555 -1651.066,-455.974 -237.7824,-17.773 -485.2323,-27.276 -736.3513,-26.302 z m 99.6028,163.832 c 49.2462,0.05 98.202,0.515 146.7457,1.276 537.8678,10.403 2284.4017,121.343 1869.0577,527.079 -292.8164,286.097 -857.707,554.88 -1310.4316,625.972 -182.7492,27.742 -2043.451,291.2531 -2043.451,13.825 -247.1293,-104.034 -1395.6474,-365.843 -1133.9826,-684.884 37.3807,-62.42 191.0517,-119.673 261.6608,-145.683 617.8233,-239.713 1364.4897,-326.709 2061.8121,-336.593 49.8082,-0.708 99.3429,-1.052 148.5889,-0.992 z m -142.3502,136.183 c -26.5002,0.143 -52.6474,0.867 -78.4771,2.056 -575.2507,26.007 -1268.929,121.363 -1653.1216,223.663 -76.8391,20.806 -143.2462,43.278 -195.1649,64.085 -37.3808,17.341 -116.3086,53.725 -132.9219,88.403 -122.5259,102.301 20.7829,235.903 118.389,286.189 305.2751,161.254 683.165,140.471 988.4419,267.049 390.4223,162.987 1345.7979,13.876 1798.5208,-60.684 74.7615,-13.87 159.9322,-31.303 230.5396,-55.579 367.5793,-121.374 940.628,-313.848 845.0988,-551.394 -68.5318,-126.579 -543.9757,-126.555 -668.5789,-133.49 -387.435,-22.76 -855.2485,-132.402 -1252.7257,-130.298 z m 87.1258,160.781 c 358.5401,4.459 724.2319,74.635 1080.3882,94.358 255.4355,13.873 569.0471,3.461 569.0471,60.684 51.919,126.575 -625.121,299.963 -745.5673,355.449 -141.2185,46.815 -313.6098,60.744 -463.1347,76.352 -145.3708,17.336 -1395.502,168.183 -1395.502,38.139 -299.0476,-123.107 -676.9621,-102.278 -971.8532,-258.33 -151.602,-79.761 95.4708,-128.311 168.155,-147.383 508.7936,-136.98 1075.7795,-187.309 1605.3409,-216.787 50.8811,-2.384 101.905,-3.119 153.126,-2.482 z m 2680.1285,48.206 c -10.2952,0.293 -20.3005,1.21 -29.7745,2.836 -124.6029,22.54 52.0207,331.136 -843.0429,750.743 -188.9808,90.163 -658.3353,291.3821 -845.241,385.0121 -234.6677,114.438 -726.9257,121.367 -994.8223,121.367 -317.7378,0 -872.1617,50.283 -1177.4389,0 -315.6609,-53.754 -606.4236,-267.028 -886.7832,-317.3101 -328.1198,-58.955 -338.5282,-208.135 -583.5798,-310.435 -68.5322,-29.476 -97.6096,-225.389 -161.9877,-261.803 -56.0708,-31.21 -137.0643,152.659 -176.5201,105.84 -56.073,-64.153 56.0394,-275.729 -24.9539,-315.609 -31.1488,-15.606 -346.7775,171.653 -257.4784,268.752 101.7587,112.704 103.8484,161.225 168.2261,235.783 120.4485,138.716 365.4957,185.502 508.7893,235.787 245.0515,84.9601 510.8578,163.0151 679.0706,331.2061 72.6864,72.823 -230.5177,-20.78 -338.5074,-46.789 -80.9909,-20.808 -147.3726,-72.808 -226.2858,-95.349 -91.3769,-24.275 -195.2099,-13.915 -282.4327,-46.859 -87.2223,-31.21 -151.6664,-95.3951 -226.4278,-142.2091 -280.357,-175.126 -126.6649,-143.905 -396.6384,-329.432 -64.3778,-45.084 -85.1516,121.443 -112.1504,189.067 -43.6103,105.77 70.6194,221.8871 168.2255,282.5741 110.067,67.622 215.9607,142.179 340.5633,188.997 87.2206,32.944 191.058,20.779 282.4323,46.788 78.9158,22.541 149.5891,65.904 226.4282,93.647 91.3742,34.679 193.0618,55.542 282.3609,95.421 118.3717,53.752 236.747,114.367 338.5077,188.926 33.2263,22.54 99.6852,93.719 56.0754,93.719 -83.0682,0 -143.2393,-76.379 -224.2303,-93.719 -74.7615,-15.605 -155.8185,20.808 -226.4279,0 -143.2936,-43.348 -257.4994,-138.641 -396.6385,-188.926 -126.6806,-45.082 -267.9026,-53.808 -394.583,-95.421 -153.6769,-48.552 -523.2846,-351.943 -371.6846,-100.525 149.5228,251.418 93.4214,112.619 313.5536,242.664 319.8129,188.997 228.4318,-38.031 508.7893,235.927 114.2194,112.706 -994.702,-171.715 -710.1925,-12.195 274.1257,152.585 614.7301,194.23 936.6203,247.98 149.5248,26.009 309.3515,5.212 452.6428,48.561 128.7575,38.147 236.8203,114.399 338.5785,187.224 33.2285,24.276 76.772,64.139 56.0046,95.351 -49.8399,83.226 -56.0131,150.866 -168.1552,93.648 -390.422,-194.198 -120.5023,-183.742 -623.0664,-282.576 -51.9188,-10.403 -64.3152,116.118 -112.0796,93.577 -463.1064,-206.335 -143.2805,-159.482 -396.6388,-187.224 -120.4507,-13.87 -396.6533,-171.684 -338.5075,46.789 10.3838,39.878 402.8038,306.893 452.643,329.434 110.0673,50.284 220.2073,107.457 338.5786,142.137 147.4476,43.347 298.9678,74.573 452.6428,93.647 93.4537,12.139 189.0493,-10.405 282.503,0 41.5353,5.201 93.3896,15.617 112.0801,48.561 26.9987,41.616 35.3055,104.023 0,140.436 -35.3039,39.88 -110.0068,41.625 -168.1552,48.56 -112.1421,10.405 -230.5199,22.54 -338.5074,0 -583.5572,-130.045 -701.9866,-339.774 -961.5742,-377.922 -35.3057,-5.202 18.7719,199.417 168.2968,282.645 211.8232,117.908 450.5613,194.142 678.9999,282.574 53.9939,22.541 114.2819,29.487 170.3526,48.561 39.458,12.137 72.6222,32.988 112.0798,46.859 199.3645,64.157 388.332,44.984 396.6387,46.718 124.603,38.145 172.4513,48.575 168.2967,142.209 -2.075,65.889 -89.3812,145.64 -168.2967,140.437 -274.1258,-12.137 -533.709,-111.003 -791.2215,-187.298 -272.0485,-81.494 -589.7798,-454.197 -791.2215,-284.274 -188.9802,157.786 367.6459,322.455 564.9357,471.572 91.3742,71.091 768.3808,261.819 847.2962,377.993 56.0711,83.227 -321.9058,-52.014 -436.125,-60.684 -600.948,-44.828 -1277.0216,-553.46 -980.2893,-180.631 a 10013.009,10013.009 0 0 0 3219.4722,542.25 10013.009,10013.009 0 0 0 689.5625,-24.458 c -12.0228,-222.33 1.6868,-454.635 196.6536,-572.946 97.4984,-58.573 124.2726,242.905 153.0551,532.113 a 10013.009,10013.009 0 0 0 1712.8124,-324.047 c -27.8299,-46.383 -78.439,-118.497 -146.2493,-147.384 -228.4385,-98.834 -969.905,-161.288 -1227.4177,-209.838 -413.2648,-76.292 -797.4304,-157.694 -1202.3927,-261.732 -164.0587,-41.613 1275.0885,122.995 1582.4427,142.066 168.2132,8.672 342.7221,24.276 508.86,0 340.5807,-52.014 699.7832,-1038.588 -282.503,-991.772 -207.6713,10.401 -188.9074,67.666 -564.7937,46.858 -234.6677,-13.871 -365.5664,275.648 -508.8599,-46.858 -134.9847,-305.171 861.8388,-185.505 1241.8797,-235.786 323.9651,-43.35 454.7825,-1.758 622.9954,-142.21 128.7578,-107.499 139.2051,-22.497 226.4278,-142.137 87.2226,-121.374 -162.0502,-234.122 -226.4278,-235.856 -151.6001,-3.47 -301.1848,-3.47 -452.7849,0 -60.2257,1.731 -404.9496,62.405 -452.7139,95.349 -80.9929,57.219 -130.7573,147.457 -226.2859,189.067 -193.1353,86.7 -411.1917,130.044 -620.9397,188.998 -72.6846,19.074 -151.5958,29.449 -226.3572,46.789 -253.3605,58.951 -114.2962,107.549 -394.6536,46.858 -72.6841,-15.604 -41.533,-137.048 0,-189.068 45.6874,-58.948 143.3577,-74.502 226.4278,-93.577 53.9935,-13.869 112.1547,-10.404 168.2258,0 41.5354,6.938 72.6734,53.654 114.2065,46.718 201.4415,-32.945 350.9769,1.854 450.6581,-142.066 58.1482,-79.76 -37.3915,-98.923 -168.226,-93.719 -236.745,8.671 -147.4325,107.548 -396.6386,46.859 -72.6862,-17.339 -56.0711,-147.456 0,-189.067 153.6774,-116.174 469.3934,-216.67 679.1419,-188.926 41.5348,6.935 74.6236,64.137 55.9335,95.348 -51.9169,83.229 -240.764,121.363 -112.009,140.437 286.5868,45.08 564.8645,-123.11 847.2967,-188.998 269.9734,-62.42 161.902,67.651 452.6433,-46.787 134.9846,-53.753 12.4587,-251.42 0,-377.9961 -6.2318,-48.548 -24.9761,-98.821 -58.2023,-140.435 -43.612,-55.485 -168.1547,-74.585 -168.1547,-142.21 0,-29.475 479.7825,60.701 452.7849,-329.432 -15.576,-199.943 -252.014,-340.391 -406.422,-335.744 z m -2778.3135,59.693 c -24.4874,-0.393 -49.0667,-0.211 -73.7272,0.425 -1108.9665,17.339 -1356.0788,176.754 -1173.3274,168.083 -255.4356,204.604 456.9205,232.362 546.2202,241.032 336.4282,27.742 922.0003,60.692 1283.351,-19.069 105.9102,-20.806 650.0515,-90.097 525.4486,-275.627 -70.6091,-109.237 -448.5875,-81.499 -598.1126,-86.702 -170.809,0 -338.4471,-25.323 -509.8526,-28.142 z m 75.8539,125.193 222.2453,67.632 c 78.9159,-1.734 697.7405,-39.879 292.7826,41.613 -257.5126,52.019 -716.4798,116.156 -965.6858,53.734 l 232.5953,-53.734 c -488.0284,-32.945 -733.0534,-51.982 -616.7573,-62.386 116.2967,-8.667 743.4456,-43.39 834.8199,-46.859 z m 2519.1339,5350.5461 c 126.4185,21.984 264.092,37.164 346.2348,0 z"
     style="clip-rule:evenodd;fill:#a05a2c;fill-rule:evenodd;stroke-width:53.5543;image-rendering:optimizeQuality;shape-rendering:geometricPrecision;text-rendering:geometricPrecision" /><g
     transform="matrix(1.9915756,0,0,1.9915756,-26189.18,-8879.0126)"
     id="_775282522288"
     style="clip-rule:evenodd;fill-rule:evenodd;image-rendering:optimizeQuality;shape-rendering:geometricPrecision;text-rendering:geometricPrecision"><path
       class="fil7 str0"
       d="m 9854,8268 c 183,-128 345,-211 594,-441 290,-267 732,-678 1132,-987 l 384,-296 c 0,0 97,-29 140,37 43,66 -11,215 -11,215 0,0 -431,342 -613,474 -183,132 -688,616 -914,841 -160,160 -428,320 -571,399 z"
       id="path33"
       inkscape:connector-curvature="0"
       style="fill:#6c5353;stroke:none;stroke-width:7.62" /><path
       class="fil8 str0"
       d="m 9864,8284 c 190,-135 339,-196 598,-430 282,-254 718,-679 1102,-979 l 375,-293 c 0,0 104,-47 146,16 42,63 -21,210 -21,210 0,0 -429,335 -607,461 -178,125 -660,592 -880,806 -175,171 -480,340 -600,404 z"
       id="path35"
       inkscape:connector-curvature="0"
       style="fill:#84716b;stroke:none;stroke-width:7.62" /><path
       class="fil7 str0"
       d="m 9438,8527 c -15,-25 -17,-102 28,-133 l 220,-164 c 55,-41 140,-10 160,23 l 173,298 c 31,54 23,95 -3,124 l 396,131 c 36,2 69,18 101,39 -82,141 -147,227 -274,331 -9,7 -39,18 -50,21 -43,8 -238,46 -337,49 l -124,-358 c -27,10 -85,9 -106,-29 z"
       id="path37"
       inkscape:connector-curvature="0"
       style="fill:#999999;stroke:none;stroke-width:7.62" /><path
       class="fil9"
       d="m 9920,8381 c 118,-81 753,-520 815,-606 68,-94 1101,-976 1143,-1002 41,-26 94,-79 110,-37 15,42 -131,126 -131,126 0,0 -221,184 -331,268 -110,84 -948,839 -1095,949 -132,100 -432,302 -488,340 z"
       id="path39"
       inkscape:connector-curvature="0"
       style="fill:#a98f71" /><path
       class="fil1"
       d="m 9469,8524 c -13,-24 -15,-86 27,-115 l 207,-144 c 53,-38 107,-5 125,26 l 168.9996,276 c 30.0004,49 16.0004,104 -9,131 L 10381,8821 c 33,2 65,12 95,31 -73,126 -163,228 -264,321 -11,10 -18,25 -32,29 -135,33 -224.0004,38 -288.9998,45 L 9747,8873 c -25,10 -80,-1 -99,-36 z"
       id="path41"
       inkscape:connector-curvature="0"
       style="fill:#bdbfc1" /></g><g
     transform="matrix(1.9915756,0,0,1.9915756,-26215.268,-9184.9903)"
     id="_775282492272"
     style="clip-rule:evenodd;fill-rule:evenodd;image-rendering:optimizeQuality;shape-rendering:geometricPrecision;text-rendering:geometricPrecision"><g
       id="g44"><path
         class="fil10"
         d="m 10614,9334 c 0,0 204,-499 285,-600 82,-102 265,-331 265,-331 -10,-16 -16,-35 -31,-46 -32,-25 -90,-24 -106,-61 -25,-56 22,-127 0,-184 -37,-92 -110,-165 -168,-244 -44,-58 -84,-120 -138,-168 -35,-31 -126,-18 -126,-65 0,-43 84,-18 126,-27 0,0 50,-245 50,-290 0,-46 76,-124 76,-124 -5,-20 -23,-41 -15,-60 10,-19 47,-11 57,-30 38,-71 42,-158 81,-229 48,-89 145,-149 179,-244 25,-73 -16,-154 -11,-230 1,-23 25,-83 30,-61 24,89 28,183 27,275 -1,42 -11,86 -31,123 -32,57 -91,95 -122,152 -39,72 -59,153 -87,229 -21,56 -42,112 -61,168 -28,81 -58,162 -81,245 -9,30 -31,65 -16,92 36,62 90,117 153,152 21,12 46,-44 66,-31 26,18 18,62 26,92 16,61 32,122 46,184 8,40 14,81 19,122 5,30 -10,69 11,92 45,45 124,45 168,91 21,22 19,65 5,92 -38,70 -108,117 -153,183 -67,98 -129,200 -183,305 -54,104 -103,211 -142,321 -23,64 2,151 -46,199 -26,26 -46,-58 -77,-76 -22,-14 -50,-10 -76,-16 z"
         id="path46"
         inkscape:connector-curvature="0"
         style="fill:#803300" /><path
         class="fil11"
         d="m 10724,9295 c 43,-138 99,-273 167,-400 81,-150 185,-286 278,-428 19,-30 69,-54 58,-87 -19,-54 -101,-65 -127,-116 -36,-68 -22,-155 -52,-226 -33,-74 -87,-137 -133,-202 -52,-74 -150,-126 -162,-215 -16,-114 52,-225 86,-336 12,-38 37,-72 52,-110 43,-101 70,-209 122,-306 32,-60 91,-100 127,-157 19,-29 33,-63 35,-98 4,-81 -20,-162 -18,-243 1,-13 22,16 24,29 10,67 16,135 11,202 -3,42 -14,104 -35,140 -32,58 -96,109 -126,168 -50,97 -68,192 -108,293 -16,41 -27,90 -43,131 -25,65 -45,136 -64,202 -10,34 -29,49 -19,82 15,48 83,99 118,134 18,19 37,26 55,15 20,-11 38,-40 56,-16 10,15 -6,36 0,68 13,62 45,134 58,165 15,37 8,98 17,137 10,42 -9,84 16,120 33,47 122,52 159,97 11,13 -18,76 -26,91 -62,109 -132,181 -200,287 -47,74 -102,158 -138,238 -64,139 -102,280 -171,416 -12,23 -25,-51 -17,-75 z"
         id="path48"
         inkscape:connector-curvature="0"
         style="fill:#aa4400" /></g><g
       id="g50"><path
         class="fil7 str0"
         d="m 10971,8246 c -58,-42 -94,-73 -137,-131 -15,-21 -9,-51 -15,-76 -4,-16 -10,-31 -15,-46 -10,-31 -10,-67 -31,-92 -28,-34 -76,-45 -107,-76 -16,-16 -9,-52 -30,-61 -24,-10 -55,30 -77,15 -53,-37 -64,-124 -122,-153 -37,-18 -81,39 -122,31 -47,-9 -76,-63 -122,-77 -30,-8 -61,18 -92,16 -52,-4 -103,-47 -153,-31 -30,10 -3,75 -30,92 -27,16 -62,-24 -92,-15 -15,4 0,39 -15,45 -53,22 -153,-24 -168,31 -16,59 88,86 122,137 8,13 -10,35 0,46 24,28 78,27 92,61 12,30 -45,63 -31,92 23,46 80,63 122,92 19,12 49,11 61,30 12,17 -17,50 0,61 39,26 96,9 138,31 38,20 50,79 92,92 35,11 69,-34 106,-31 36,3 62,39 97,46 38,8 80,-12 117,0 31,10 44,61 77,61 29,0 40,-41 61,-61 25,-26 43,-64 76,-76 38,-15 82,-3 122,0 44,2 88,22 131,13 16,-3 28,-32 18,-44 -13,-14 -58,-10 -73,-22 z"
         id="path52"
         inkscape:connector-curvature="0"
         style="fill:#217844;stroke:none;stroke-width:7.62" /><path
         class="fil12"
         d="m 9687,7730 c 104,57 291,93 401,134 55,21 107,37 162,61 32,14 67,49 101,39 17,-6 2,-20 -6,-35 -18,-34 -64,-83 -87,-116 -27,-41 -69,-84 -87,-130 -6,-17 -2,-36 3,-52 3,-9 12,-18 3,-24 -26,-18 -58,33 -89,31 -44,-3 -83,-60 -125,-46 -31,11 5,78 -23,95 -29,18 -66,-25 -100,-20 -15,3 -7,35 -21,40 -41,17 -172,2 -132,23 z"
         id="path54"
         inkscape:connector-curvature="0"
         style="fill:#00a859" /><path
         class="fil12"
         d="m 10404,7988 c -32,-25 -42,-73 -64,-107 -44,-70 -104,-112 -142,-185 -11,-21 -17,-86 6,-87 38,-3 56,56 93,63 39,8 90,-48 117,-19 10,10 -8,24 -8,38 -2,32 0,71 7,103 11,57 33,113 63,162 27,43 151,89 105,110 -22,10 -45,-3 -69,-13 -38,-16 -77,-40 -108,-65 z"
         id="path56"
         inkscape:connector-curvature="0"
         style="fill:#00a859" /><path
         class="fil12"
         d="m 10442,7650 c -16,0 -14,30 -16,46 -3,33 -1,70 14,101 22,48 30,103 59,147 20,32 68,47 92,77 15,18 11,51 31,63 41,26 94,30 134,58 34,23 74,54 134,63 38,6 -68,-44 -87,-78 -13,-25 5,-58 -1,-86 -9,-40 -22,-79 -42,-115 -8,-15 -25,-25 -41,-34 -17,-9 -41,-4 -55,-18 -20,-19 -17,-59 -41,-73 -24,-15 -61,15 -83,-2 -47,-37 -39,-148 -98,-149 z"
         id="path58"
         inkscape:connector-curvature="0"
         style="fill:#00a859" /><path
         class="fil12"
         d="m 9749,7791 c 37,1 73,16 107,28 57,19 112,40 169,62 91,35 171,40 253,91 39,25 -75,6 -118,23 -42,16 -71,55 -102,87 -15,15 -16,45 -35,52 -25,9 -54,0 -76,-13 -34,-19 -72,-43 -85,-80 -10,-28 33,-58 25,-87 -8,-26 -48,-29 -65,-50 -8,-11 -1,-29 -8,-40 -18,-28 -97,-75 -65,-73 z"
         id="path60"
         inkscape:connector-curvature="0"
         style="fill:#00a859" /><path
         class="fil12"
         d="m 10033,8212 c -23,-27 15,-74 38,-103 26,-35 63,-65 104,-80 57,-21 121,-36 181,-26 47,8 75,37 120,59 25,13 74,26 99,37 69,31 104,31 184,75 47,26 -92,17 -144,31 -41,11 -57,16 -90,43 -26,23 -54,87 -87,98 -35,12 -59,-30 -95,-36 -28,-5 -57,14 -85,8 -22,-4 -41,-21 -57,-37 -14,-15 -11,-47 -31,-55 -42,-18 -107,21 -137,-14 z"
         id="path62"
         inkscape:connector-curvature="0"
         style="fill:#00a859" /><path
         class="fil12"
         d="m 10827,8212 c 47,6 85,41 129,58 19,7 52,-5 59,14 5,16 -35,7 -52,6 -67,-2 -138,-35 -201,-13 -57,20 -69,110 -125,129 -31,10 -42,-54 -72,-64 -29,-9 -63,32 -78,6 -15,-26 24,-66 47,-84 33,-25 72,-31 111,-40 62,-15 120,-20 182,-12 z"
         id="path64"
         inkscape:connector-curvature="0"
         style="fill:#00a859" /></g><g
       id="g66"><path
         class="fil7 str0"
         d="m 10613,7562 c -2,-57 1,-95 24,-153 9,-21 40,-35 59,-53 11,-11 20,-23 31,-35 20,-24 53,-45 61,-71 12,-35 -11,-69 -4,-104 3,-19 40,-36 34,-53 -7,-19 -65,-14 -67,-34 -3,-52 68,-108 54,-158 -9,-32 -90,-23 -112,-51 -24,-32 5,-80 -15,-113 -13,-22 -58,-25 -77,-43 -33,-31 -29,-86 -78,-104 -30,-11 -70,42 -104,36 -33,-5 -21,-49 -49,-60 -15,-7 -36,22 -52,18 -56,-17 -84,-101 -143,-77 -65,25 -18,100 -40,148 -6,13 -38,15 -42,27 -8,30 30,60 8,87 -18,24 -87,11 -103,36 -26,39 -3,82 1,122 2,18 23,34 15,53 -8,16 -57,19 -56,35 4,37 59,59 68,95 8,34 -37,75 -20,105 15,27 78,20 101,43 22,21 8,57 26,81 18,26 65,38 80,66 13,23 -25,60 -2,79 20,16 65,-1 97,-2 41,0 87,-12 122,-1 39,13 58,45 84,69 28,26 41,62 78,82 14,6 48,-3 52,-16 4,-15 -31,-39 -31,-54 z"
         id="path68"
         inkscape:connector-curvature="0"
         style="fill:#217844;stroke:none;stroke-width:7.62" /><path
         class="fil12"
         d="m 10194,6538 c 20,93 117,219 156,305 19,43 40,81 56,126 10,27 3,66 35,79 17,7 19,-9 27,-23 18,-30 30,-84 45,-116 18,-39 28,-88 57,-124 11,-14 31,-23 49,-29 11,-4 25,-4 24,-13 -1,-25 -69,-13 -89,-32 -28,-27 -3,-81 -45,-97 -31,-11 -67,48 -102,42 -36,-6 -23,-52 -51,-67 -12,-7 -35,15 -50,11 -44,-14 -120,-96 -112,-62 z"
         id="path70"
         inkscape:connector-curvature="0"
         style="fill:#00a859" /><path
         class="fil12"
         d="m 10455,7093 c 1,-33 38,-67 53,-99 33,-65 30,-123 69,-188 11,-18 66,-58 83,-46 28,19 -12,64 7,89 19,26 106,22 98,55 -2,11 -27,9 -40,17 -31,18 -64,42 -88,64 -44,39 -79,84 -103,130 -20,40 24,137 -27,123 -24,-7 -28,-28 -36,-46 -12,-32 -17,-67 -16,-99 z"
         id="path72"
         inkscape:connector-curvature="0"
         style="fill:#00a859" /><path
         class="fil12"
         d="m 10787,6918 c -11,-9 -37,9 -52,17 -33,18 -65,40 -83,67 -28,40 -71,77 -92,119 -14,30 5,66 -5,96 -6,19 -39,36 -36,54 5,39 38,70 41,110 2,32 1,73 35,112 21,24 -8,-64 10,-94 14,-23 55,-32 77,-51 30,-28 56,-58 75,-90 8,-14 5,-30 2,-43 -3,-15 -24,-26 -22,-42 4,-23 42,-44 39,-66 -3,-21 -57,-25 -56,-48 1,-47 107,-107 67,-141 z"
         id="path74"
         inkscape:connector-curvature="0"
         style="fill:#00a859" /><path
         class="fil12"
         d="m 10182,6609 c 25,22 35,50 49,76 22,43 41,87 60,132 31,71 82,120 92,195 5,37 -57,-39 -102,-53 -43,-14 -98,-8 -149,-7 -23,1 -51,18 -71,10 -24,-8 -37,-30 -41,-50 -6,-30 -10,-66 14,-94 18,-23 75,-15 96,-37 19,-19 -7,-43 1,-65 3,-11 25,-17 30,-28 13,-26 0,-98 21,-79 z"
         id="path76"
         inkscape:connector-curvature="0"
         style="fill:#00a859" /><path
         class="fil12"
         d="m 9998,7014 c 8,-29 77,-35 118,-39 50,-5 103,-2 145,12 58,20 116,48 148,88 25,30 19,63 29,101 6,22 28,57 35,77 20,58 44,77 59,148 9,41 -78,-42 -127,-63 -38,-17 -54,-23 -101,-26 -39,-2 -115,20 -148,8 -34,-13 -14,-51 -33,-75 -15,-18 -52,-24 -66,-43 -11,-15 -10,-35 -6,-53 4,-18 35,-34 29,-50 -14,-34 -93,-48 -82,-85 z"
         id="path78"
         inkscape:connector-curvature="0"
         style="fill:#00a859" /><path
         class="fil12"
         d="m 10546,7461 c 26,30 21,72 36,107 6,15 40,26 28,41 -11,12 -30,-16 -42,-26 -45,-39 -63,-98 -127,-121 -57,-20 -146,26 -202,4 -30,-11 19,-54 7,-77 -11,-22 -71,-17 -58,-41 12,-23 76,-25 109,-22 44,4 76,23 112,40 56,26 101,55 137,95 z"
         id="path80"
         inkscape:connector-curvature="0"
         style="fill:#00a859" /></g><g
       id="g82"><path
         class="fil7 str0"
         d="m 11050,7753 c 36,-35 62,-56 113,-75 18,-7 46,5 68,6 14,1 28,-1 41,-1 28,-1 60,8 82,-2 30,-14 38,-49 64,-65 14,-9 47,4 54,-10 9,-16 -29,-50 -17,-63 31,-33 109,-20 133,-59 15,-25 -39,-72 -33,-102 5,-34 53,-44 63,-77 7,-21 -18,-51 -18,-75 1,-39 38,-69 21,-111 -11,-26 -68,-20 -85,-45 -16,-25 19,-43 10,-68 -5,-13 -36,-10 -43,-23 -22,-46 15,-113 -35,-137 -55,-27 -75,48 -120,62 -11,4 -31,-15 -41,-10 -24,12 -21,54 -51,56 -27,3 -59,-49 -85,-45 -40,7 -54,47 -77,74 -11,11 -9,34 -25,40 -15,5 -46,-25 -56,-15 -22,25 -3,73 -21,100 -17,25 -69,21 -79,50 -8,25 34,62 33,90 -1,27 -32,39 -38,64 -5,28 15,65 6,91 -7,22 -53,20 -52,45 2,23 39,41 59,62 24,26 59,48 72,77 15,33 6,64 6,95 0,34 -16,63 -6,99 4,12 30,29 41,23 12,-6 7,-42 16,-51 z"
         id="path84"
         inkscape:connector-curvature="0"
         style="fill:#217844;stroke:none;stroke-width:7.62" /><path
         class="fil12"
         d="m 11458,6877 c -46,68 -70,205 -102,280 -17,38 -29,75 -48,111 -11,23 -41,41 -30,70 5,15 17,6 31,4 30,-6 72,-31 101,-41 36,-11 73,-33 114,-36 15,-2 32,6 47,14 9,5 17,13 22,8 16,-16 -32,-53 -32,-77 1,-33 50,-50 36,-86 -11,-26 -71,-14 -88,-40 -17,-27 20,-46 14,-73 -3,-12 -32,-13 -37,-25 -18,-37 -10,-135 -28,-109 z"
         id="path86"
         inkscape:connector-curvature="0"
         style="fill:#00a859" /><path
         class="fil12"
         d="m 11258,7373 c 21,-18 65,-15 94,-24 62,-18 97,-54 162,-67 18,-4 77,7 79,26 4,29 -48,30 -53,57 -6,28 48,81 23,95 -9,6 -22,-12 -35,-16 -30,-8 -65,-16 -93,-18 -51,-5 -101,-1 -145,11 -37,11 -74,97 -94,56 -10,-20 0,-35 8,-51 13,-26 32,-50 54,-69 z"
         id="path88"
         inkscape:connector-curvature="0"
         style="fill:#00a859" /><path
         class="fil12"
         d="m 11567,7482 c -1,-12 -28,-18 -43,-23 -30,-10 -63,-17 -91,-13 -43,6 -92,0 -131,11 -28,9 -39,43 -65,54 -16,7 -46,-4 -56,9 -22,26 -23,66 -46,91 -19,21 -46,44 -51,89 -3,28 36,-43 66,-49 23,-5 53,17 78,19 36,3 71,2 103,-5 14,-3 22,-14 29,-24 7,-11 2,-31 14,-39 16,-11 52,1 64,-14 12,-15 -16,-52 -2,-65 31,-27 133,5 131,-41 z"
         id="path90"
         inkscape:connector-curvature="0"
         style="fill:#00a859" /><path
         class="fil12"
         d="m 11407,6912 c 0,28 -12,52 -21,76 -14,40 -31,77 -48,117 -28,62 -29,123 -71,174 -21,25 -9,-59 -27,-97 -17,-36 -53,-67 -83,-99 -15,-15 -42,-23 -49,-40 -9,-21 -3,-42 8,-56 16,-22 36,-46 68,-47 26,-1 55,40 81,40 23,0 24,-30 42,-38 10,-5 26,6 36,3 24,-8 63,-58 64,-33 z"
         id="path92"
         inkscape:connector-curvature="0"
         style="fill:#00a859" /><path
         class="fil12"
         d="m 11037,7033 c 24,-12 68,29 96,53 32,29 61,64 77,100 22,49 38,102 32,147 -5,34 -30,49 -48,79 -10,16 -20,52 -29,68 -25,47 -23,74 -59,125 -22,31 -20,-75 -35,-119 -12,-34 -17,-48 -44,-79 -22,-27 -81,-63 -93,-91 -11,-30 25,-39 29,-65 3,-21 -16,-48 -12,-68 3,-17 17,-28 32,-36 13,-8 42,3 48,-11 14,-29 -24,-88 6,-103 z"
         id="path94"
         inkscape:connector-curvature="0"
         style="fill:#00a859" /><path
         class="fil12"
         d="m 11075,7650 c -4,35 -34,56 -47,86 -6,13 7,42 -10,42 -14,1 -8,-28 -8,-41 -2,-52 26,-99 2,-154 -20,-48 -103,-79 -122,-127 -11,-26 46,-20 54,-41 7,-20 -32,-56 -9,-62 23,-5 62,34 79,57 24,31 31,63 41,95 16,52 24,98 20,145 z"
         id="path96"
         inkscape:connector-curvature="0"
         style="fill:#00a859" /></g><g
       id="g98"><path
         class="fil7 str0"
         d="m 11321,8277 c 66,-32 107,-56 161,-106 19,-18 18,-50 29,-74 7,-14 16,-28 24,-42 16,-29 23,-65 48,-86 34,-29 84,-31 121,-57 19,-13 19,-50 42,-55 26,-6 49,40 73,30 61,-27 87,-112 151,-130 41,-12 74,53 116,53 49,0 88,-48 137,-53 31,-3 57,29 88,33 53,6 113,-28 159,-2 28,16 -11,75 13,97 23,21 66,-12 94,2 15,7 -7,40 7,48 48,32 158,5 162,62 5,63 -104,70 -148,115 -10,11 4,36 -8,46 -29,23 -83,12 -103,44 -18,27 33,71 13,97 -31,41 -92,48 -139,68 -21,10 -51,3 -67,20 -14,14 8,52 -11,61 -44,18 -98,-10 -143,4 -42,13 -66,70 -109,75 -38,4 -64,-47 -101,-51 -36,-4 -69,27 -105,28 -40,1 -78,-27 -117,-22 -33,4 -56,53 -88,47 -29,-6 -33,-49 -50,-73 -20,-30 -31,-71 -62,-91 -35,-21 -81,-17 -122,-22 -44,-6 -92,5 -133,-12 -15,-6 -22,-37 -9,-46 15,-12 60,0 77,-8 z"
         id="path100"
         inkscape:connector-curvature="0"
         style="fill:#217844;stroke:none;stroke-width:7.62" /><path
         class="fil12"
         d="m 12700,8002 c -115,37 -309,37 -426,58 -59,11 -114,17 -173,30 -35,8 -76,36 -108,20 -16,-9 1,-19 12,-33 24,-31 80,-71 109,-100 35,-35 84,-71 111,-113 10,-16 8,-36 6,-53 -1,-10 -8,-20 2,-24 29,-14 52,43 84,47 44,5 93,-44 133,-22 28,16 -20,77 5,99 26,23 71,-13 103,-1 15,5 1,35 14,44 38,24 172,34 128,48 z"
         id="path102"
         inkscape:connector-curvature="0"
         style="fill:#00a859" /><path
         class="fil12"
         d="m 11936,8125 c 36,-19 55,-66 83,-96 58,-61 125,-92 177,-158 15,-18 32,-82 10,-88 -37,-9 -67,46 -105,46 -40,1 -80,-65 -113,-41 -12,8 3,25 1,40 -4,32 -14,71 -26,101 -22,55 -54,107 -94,150 -35,38 -168,61 -125,90 20,14 46,5 71,0 42,-8 84,-25 121,-44 z"
         id="path104"
         inkscape:connector-curvature="0"
         style="fill:#00a859" /><path
         class="fil12"
         d="m 11961,7780 c 16,3 8,32 7,49 -3,33 -12,70 -33,98 -31,44 -50,97 -86,136 -27,28 -78,34 -107,59 -18,15 -20,49 -42,58 -47,18 -100,12 -146,32 -38,17 -83,41 -145,38 -39,-1 76,-31 101,-61 19,-23 7,-59 18,-86 16,-38 36,-75 63,-107 11,-14 30,-21 47,-26 19,-6 43,3 59,-8 24,-15 28,-56 54,-66 27,-10 59,27 84,14 54,-28 66,-140 126,-130 z"
         id="path106"
         inkscape:connector-curvature="0"
         style="fill:#00a859" /><path
         class="fil12"
         d="m 12626,8050 c -37,-5 -75,3 -111,8 -61,8 -120,19 -181,30 -98,18 -179,8 -270,44 -44,17 74,20 114,45 38,24 60,69 85,106 12,18 7,48 26,59 22,13 53,10 78,1 37,-13 80,-30 100,-64 15,-26 -23,-64 -9,-92 12,-25 53,-20 74,-38 11,-9 6,-28 16,-38 23,-24 111,-56 78,-61 z"
         id="path108"
         inkscape:connector-curvature="0"
         style="fill:#00a859" /><path
         class="fil12"
         d="m 12263,8418 c 29,-23 -1,-77 -18,-110 -20,-40 -50,-77 -88,-100 -54,-32 -115,-58 -177,-59 -48,-1 -82,22 -130,36 -28,8 -80,12 -106,18 -75,18 -110,12 -198,41 -52,17 88,34 138,58 39,18 54,26 81,60 23,28 38,97 69,114 33,18 65,-19 102,-18 28,0 54,24 83,24 23,-1 45,-13 64,-27 17,-12 20,-45 41,-49 46,-10 103,41 139,12 z"
         id="path110"
         inkscape:connector-curvature="0"
         style="fill:#00a859" /><path
         class="fil12"
         d="m 11470,8269 c -48,-3 -92,25 -139,34 -20,3 -51,-15 -61,2 -9,16 33,14 50,17 68,10 145,-10 204,24 52,31 47,123 101,152 28,16 51,-45 83,-50 31,-4 57,43 77,20 20,-22 -12,-70 -32,-93 -27,-30 -65,-43 -103,-60 -59,-26 -115,-43 -180,-46 z"
         id="path112"
         inkscape:connector-curvature="0"
         style="fill:#00a859" /></g><g
       id="g114"><path
         class="fil7 str0"
         d="m 11069,8797 c 29,7 47,14 73,33 9,7 12,24 18,36 4,7 9,13 14,20 8,13 15,32 26,40 16,10 36,3 53,11 8,4 12,25 21,24 11,-1 16,-30 26,-28 26,5 44,48 71,47 17,0 23,-41 40,-48 19,-8 39,13 58,7 13,-3 20,-25 32,-32 19,-12 46,-3 61,-25 10,-13 -11,-40 -4,-56 7,-15 27,-4 37,-16 5,-7 -7,-21 -2,-28 16,-26 61,-28 57,-61 -4,-35 -47,-22 -68,-40 -5,-4 -2,-20 -8,-24 -13,-8 -33,7 -44,-7 -9,-13 6,-45 -4,-56 -16,-18 -40,-12 -61,-16 -9,-1 -20,7 -27,0 -7,-6 -2,-30 -11,-32 -18,-3 -37,21 -56,21 -17,-1 -32,-28 -49,-24 -15,4 -20,36 -35,45 -13,8 -29,-4 -43,1 -16,6 -28,28 -44,31 -13,4 -26,-20 -38,-11 -11,7 -8,32 -12,48 -6,20 -6,45 -16,60 -12,18 -30,23 -45,33 -17,10 -37,12 -51,28 -5,5 -5,24 1,27 7,4 23,-10 30,-8 z"
         id="path116"
         inkscape:connector-curvature="0"
         style="fill:#217844;stroke:none;stroke-width:7.62" /><path
         class="fil12"
         d="m 11632,8726 c -49,-2 -124,29 -172,37 -23,4 -45,9 -70,11 -14,1 -33,-8 -43,7 -6,7 2,10 7,16 13,13 38,26 52,38 17,14 40,26 54,45 5,7 7,18 7,28 1,6 -1,12 3,13 13,3 16,-32 28,-39 17,-11 41,9 54,-10 10,-13 -15,-39 -7,-56 8,-17 29,-4 40,-16 5,-5 -3,-20 1,-26 13,-20 64,-47 46,-48 z"
         id="path118"
         inkscape:connector-curvature="0"
         style="fill:#00a859" /><path
         class="fil12"
         d="m 11323,8782 c 16,4 28,27 41,39 28,25 57,31 84,59 8,8 20,41 12,48 -13,11 -30,-15 -45,-9 -16,6 -25,49 -40,41 -6,-2 -1,-14 -3,-22 -5,-17 -12,-37 -20,-52 -14,-27 -31,-50 -51,-68 -17,-16 -71,-7 -57,-30 7,-11 17,-10 28,-11 17,-2 35,0 51,5 z"
         id="path120"
         inkscape:connector-curvature="0"
         style="fill:#00a859" /><path
         class="fil12"
         d="m 11365,8969 c 6,-4 0,-19 -2,-28 -4,-18 -11,-37 -22,-50 -16,-19 -28,-45 -46,-61 -13,-11 -33,-6 -47,-15 -9,-6 -13,-25 -22,-26 -20,-2 -40,10 -60,6 -16,-3 -36,-9 -60,2 -15,8 33,5 45,18 10,10 8,32 15,45 10,18 22,36 35,49 6,6 14,7 21,7 8,0 16,-9 23,-5 11,4 16,26 28,27 11,2 20,-24 31,-21 23,7 39,67 61,52 z"
         id="path122"
         inkscape:connector-curvature="0"
         style="fill:#00a859" /><path
         class="fil12"
         d="m 11598,8711 c -14,9 -29,11 -44,14 -24,5 -48,9 -73,12 -40,6 -70,25 -109,20 -18,-3 27,-23 40,-44 13,-19 17,-47 23,-72 3,-12 -1,-28 5,-37 7,-11 20,-14 30,-14 16,2 34,4 45,20 8,12 -3,39 5,52 7,12 23,3 33,10 4,3 5,14 9,18 11,10 49,13 36,21 z"
         id="path124"
         inkscape:connector-curvature="0"
         style="fill:#00a859" /><path
         class="fil12"
         d="m 11423,8566 c 13,8 7,43 3,64 -4,25 -12,51 -25,70 -18,26 -39,51 -63,61 -19,9 -34,1 -54,1 -12,0 -32,6 -43,7 -31,2 -44,12 -81,10 -22,-1 31,-34 48,-55 14,-16 19,-23 26,-46 6,-19 6,-60 16,-75 11,-15 27,0 41,-6 12,-5 19,-23 31,-27 9,-3 18,0 27,4 8,5 12,22 21,21 18,-2 36,-40 53,-29 z"
         id="path126"
         inkscape:connector-curvature="0"
         style="fill:#00a859" /><path
         class="fil12"
         d="m 11128,8777 c -18,10 -38,1 -57,4 -8,1 -19,17 -24,8 -5,-7 11,-12 18,-17 25,-17 57,-18 77,-46 17,-26 7,-76 25,-101 9,-14 24,17 37,14 12,-3 18,-33 28,-24 10,10 2,41 -4,57 -8,22 -21,35 -34,50 -20,25 -41,43 -66,55 z"
         id="path128"
         inkscape:connector-curvature="0"
         style="fill:#00a859" /></g><g
       id="g130"><path
         class="fil7 str0"
         d="m 11117,6328 c -21,-36 -37,-59 -70,-88 -12,-11 -32,-10 -47,-15 -10,-4 -19,-9 -28,-13 -18,-8 -41,-11 -55,-25 -19,-19 -22,-47 -39,-67 -9,-11 -32,-10 -36,-23 -4,-14 24,-28 17,-42 -19,-33 -72,-47 -86,-82 -8,-23 32,-43 31,-67 -1,-28 -33,-49 -37,-76 -2,-18 17,-33 18,-51 3,-30 -20,-63 -5,-89 10,-17 48,4 61,-10 13,-14 -9,-37 -1,-54 4,-8 25,4 31,-4 18,-28 -1,-90 35,-93 39,-5 46,57 76,81 7,5 22,-3 29,3 15,16 10,47 30,58 18,9 44,-21 61,-10 27,17 33,51 47,77 6,12 3,29 13,37 10,8 34,-5 39,6 13,24 -3,55 7,80 9,24 45,36 49,60 4,21 -27,37 -29,58 -2,21 19,39 20,59 2,23 -15,45 -11,67 4,18 35,30 32,49 -3,16 -30,19 -45,29 -18,13 -44,19 -55,37 -13,21 -9,46 -12,70 -2,25 6,52 -3,75 -4,9 -23,14 -30,7 -7,-9 -1,-34 -7,-44 z"
         id="path132"
         inkscape:connector-curvature="0"
         style="fill:#217844;stroke:none;stroke-width:7.62" /><path
         class="fil12"
         d="m 10909,5555 c 27,64 32,173 48,239 8,33 14,64 24,97 5,20 24,43 15,61 -5,9 -13,0 -22,-6 -20,-13 -46,-44 -65,-59 -24,-19 -47,-47 -75,-61 -10,-5 -22,-4 -33,-2 -6,1 -12,5 -15,-1 -10,-16 26,-30 27,-48 2,-25 -30,-52 -17,-75 10,-16 49,10 63,-5 13,-15 -10,-40 -4,-58 3,-9 23,-1 27,-9 15,-22 18,-98 27,-73 z"
         id="path134"
         inkscape:connector-curvature="0"
         style="fill:#00a859" /><path
         class="fil12"
         d="m 11006,5984 c -13,-20 -43,-30 -62,-45 -40,-31 -61,-68 -104,-97 -12,-8 -53,-16 -56,-3 -5,21 30,36 32,58 1,23 -39,47 -24,65 6,7 16,-3 26,-2 20,2 45,7 64,13 35,11 69,28 97,50 25,18 43,93 60,69 8,-12 2,-27 -2,-41 -6,-23 -18,-47 -31,-67 z"
         id="path136"
         inkscape:connector-curvature="0"
         style="fill:#00a859" /><path
         class="fil12"
         d="m 10788,5977 c 1,-9 20,-5 31,-5 21,1 44,6 63,16 28,17 62,27 88,47 18,14 23,42 39,58 11,10 32,11 38,23 12,26 10,56 24,82 11,21 28,46 27,81 0,22 -21,-43 -41,-56 -15,-10 -37,-2 -54,-8 -25,-8 -49,-19 -69,-33 -9,-6 -14,-17 -18,-27 -4,-10 1,-23 -6,-33 -11,-13 -36,-14 -43,-29 -7,-14 15,-33 6,-47 -19,-30 -90,-35 -85,-69 z"
         id="path138"
         inkscape:connector-curvature="0"
         style="fill:#00a859" /><path
         class="fil12"
         d="m 10942,5595 c -3,22 4,43 8,63 6,34 15,67 23,102 14,55 10,101 35,151 12,24 10,-42 25,-65 15,-22 42,-36 65,-51 11,-7 30,-5 36,-15 8,-14 6,-31 -1,-45 -9,-21 -20,-44 -43,-55 -17,-8 -40,14 -57,7 -16,-6 -14,-29 -26,-41 -6,-5 -18,-3 -25,-8 -15,-12 -38,-61 -40,-43 z"
         id="path140"
         inkscape:connector-curvature="0"
         style="fill:#00a859" /><path
         class="fil12"
         d="m 11183,5792 c -15,-16 -48,2 -69,13 -24,12 -47,30 -61,52 -18,31 -34,66 -33,101 1,28 16,46 26,73 6,16 10,45 15,60 13,42 9,61 30,111 12,29 20,-51 33,-80 11,-22 16,-31 36,-47 17,-13 60,-23 70,-42 11,-18 -13,-36 -14,-56 0,-17 14,-32 13,-48 0,-13 -9,-25 -18,-36 -8,-9 -29,-10 -32,-22 -7,-25 23,-59 4,-79 z"
         id="path142"
         inkscape:connector-curvature="0"
         style="fill:#00a859" /><path
         class="fil12"
         d="m 11109,6244 c -1,27 18,52 25,78 2,11 -9,29 3,34 10,5 7,-19 9,-28 5,-39 -10,-82 10,-116 18,-30 76,-30 94,-61 9,-16 -30,-28 -34,-46 -3,-17 26,-33 11,-44 -15,-10 -45,9 -58,20 -19,17 -26,39 -36,60 -15,34 -24,66 -24,103 z"
         id="path144"
         inkscape:connector-curvature="0"
         style="fill:#00a859" /></g><g
       id="g146"><path
         class="fil7 str0"
         d="m 11139,6762 c 36,-41 57,-70 78,-122 8,-18 -2,-42 -1,-63 0,-13 2,-25 4,-38 2,-26 -4,-55 7,-77 15,-31 48,-46 66,-74 9,-15 -2,-43 12,-53 16,-11 45,17 58,3 33,-36 26,-107 64,-137 24,-20 65,21 93,9 33,-12 45,-59 77,-76 20,-10 47,7 69,2 37,-9 67,-51 106,-43 23,4 14,59 36,69 22,10 41,-26 64,-23 12,1 7,32 19,35 41,11 107,-38 127,4 21,45 -51,80 -67,125 -4,11 13,26 7,36 -13,26 -52,31 -56,60 -4,26 42,45 36,70 -9,39 -47,61 -73,88 -12,13 -34,15 -40,32 -5,15 20,38 10,49 -24,26 -68,19 -95,41 -24,21 -24,70 -52,85 -24,13 -56,-18 -82,-12 -26,7 -39,39 -63,49 -26,11 -60,0 -85,14 -21,12 -22,54 -45,58 -21,4 -37,-28 -55,-41 -22,-18 -41,-46 -67,-52 -30,-7 -60,8 -89,15 -31,7 -60,28 -92,26 -12,0 -26,-22 -20,-33 7,-12 40,-15 49,-26 z"
         id="path148"
         inkscape:connector-curvature="0"
         style="fill:#217844;stroke:none;stroke-width:7.62" /><path
         class="fil12"
         d="m 11988,6193 c -67,58 -197,109 -270,156 -36,23 -72,43 -107,68 -22,15 -41,47 -67,43 -14,-2 -5,-15 -2,-28 8,-29 33,-74 45,-103 13,-36 36,-76 42,-115 2,-14 -5,-29 -11,-41 -4,-7 -11,-13 -6,-19 16,-18 47,19 70,13 31,-7 50,-57 83,-51 24,5 9,63 32,73 24,11 44,-28 69,-28 11,0 11,27 22,30 33,8 125,-20 100,2 z"
         id="path150"
         inkscape:connector-curvature="0"
         style="fill:#00a859" /><path
         class="fil12"
         d="m 11509,6487 c 19,-24 18,-65 29,-94 21,-62 57,-102 74,-166 4,-18 -2,-70 -19,-69 -28,3 -32,52 -57,63 -27,11 -73,-28 -88,-2 -6,10 9,18 12,30 7,25 11,57 11,83 1,47 -5,94 -20,138 -12,37 -95,89 -58,100 17,5 32,-8 48,-18 25,-18 49,-41 68,-65 z"
         id="path152"
         inkscape:connector-curvature="0"
         style="fill:#00a859" /><path
         class="fil12"
         d="m 11427,6220 c 12,-2 15,22 19,35 8,26 12,56 6,83 -8,41 -5,86 -19,125 -10,28 -42,46 -55,72 -8,17 1,43 -12,55 -26,26 -63,35 -88,62 -21,23 -45,53 -87,67 -27,9 43,-43 51,-73 5,-22 -13,-46 -13,-69 0,-33 3,-66 11,-97 4,-13 15,-23 25,-32 11,-9 29,-9 37,-21 12,-18 3,-50 18,-64 15,-15 47,5 60,-12 28,-35 4,-123 47,-131 z"
         id="path154"
         inkscape:connector-curvature="0"
         style="fill:#00a859" /><path
         class="fil12"
         d="m 11952,6249 c -27,6 -50,22 -73,35 -38,22 -75,46 -113,71 -60,39 -117,52 -168,103 -25,25 55,-4 89,4 33,8 60,36 88,57 13,11 18,35 34,38 19,4 39,-6 53,-19 21,-20 45,-44 49,-75 2,-24 -34,-42 -33,-67 1,-22 30,-29 39,-48 5,-9 -4,-23 0,-33 8,-24 58,-71 35,-66 z"
         id="path156"
         inkscape:connector-curvature="0"
         style="fill:#00a859" /><path
         class="fil12"
         d="m 11813,6621 c 13,-25 -22,-58 -43,-78 -25,-25 -56,-45 -88,-52 -45,-10 -94,-14 -136,2 -33,12 -49,38 -77,61 -17,14 -50,30 -66,42 -46,33 -71,37 -122,82 -30,27 69,3 110,8 31,3 44,5 71,24 24,15 54,63 80,67 26,5 37,-31 62,-40 20,-7 44,4 63,-4 16,-6 27,-22 36,-37 8,-14 0,-39 13,-48 28,-19 81,5 97,-27 z"
         id="path158"
         inkscape:connector-curvature="0"
         style="fill:#00a859" /><path
         class="fil12"
         d="m 11238,6717 c -33,10 -55,43 -85,62 -12,8 -38,2 -40,18 -1,14 26,2 39,-1 48,-9 94,-45 144,-35 44,9 67,80 111,88 24,4 22,-48 42,-59 19,-11 50,17 57,-6 7,-22 -28,-50 -48,-61 -27,-16 -56,-16 -86,-19 -47,-4 -90,-1 -134,13 z"
         id="path160"
         inkscape:connector-curvature="0"
         style="fill:#00a859" /></g><ellipse
       class="fil7"
       cx="11153"
       cy="6410"
       rx="123"
       ry="129"
       id="ellipse162"
       style="fill:#aa0000" /><ellipse
       class="fil13"
       cx="11153"
       cy="6410"
       rx="107"
       ry="112"
       id="ellipse164"
       style="fill:#ed3237" /><ellipse
       class="fil14"
       cx="11168"
       cy="6370"
       rx="46"
       ry="48"
       id="ellipse166"
       style="fill:#f6997e" /><ellipse
       class="fil7"
       cx="10939"
       cy="6783"
       rx="123"
       ry="129"
       id="ellipse168"
       style="fill:#aa0000" /><ellipse
       class="fil13"
       cx="10939"
       cy="6783"
       rx="107"
       ry="112"
       id="ellipse170"
       style="fill:#ed3237" /><ellipse
       class="fil14"
       cx="10955"
       cy="6744"
       rx="46"
       ry="48"
       id="ellipse172"
       style="fill:#f6997e" /><ellipse
       class="fil7"
       cx="11138"
       cy="6752"
       rx="123"
       ry="129"
       id="ellipse174"
       style="fill:#aa0000" /><ellipse
       class="fil13"
       cx="11138"
       cy="6752"
       rx="107"
       ry="112"
       id="ellipse176"
       style="fill:#ed3237" /><ellipse
       class="fil14"
       cx="11153"
       cy="6713"
       rx="46"
       ry="48"
       id="ellipse178"
       style="fill:#f6997e" /><ellipse
       class="fil7"
       cx="10918"
       cy="7663"
       rx="123"
       ry="129"
       id="ellipse180"
       style="fill:#aa0000" /><ellipse
       class="fil13"
       cx="10918"
       cy="7663"
       rx="107"
       ry="112"
       id="ellipse182"
       style="fill:#ed3237" /><ellipse
       class="fil14"
       cx="10933"
       cy="7624"
       rx="46"
       ry="48"
       id="ellipse184"
       style="fill:#f6997e" /><ellipse
       class="fil7"
       cx="11072"
       cy="7562"
       rx="123"
       ry="129"
       id="ellipse186"
       style="fill:#aa0000" /><ellipse
       class="fil13"
       cx="11072"
       cy="7562"
       rx="107"
       ry="112"
       id="ellipse188"
       style="fill:#ed3237" /><ellipse
       class="fil14"
       cx="11088"
       cy="7523"
       rx="46"
       ry="48"
       id="ellipse190"
       style="fill:#f6997e" /><g
       id="g192"><ellipse
         class="fil7"
         cx="11079"
         cy="7750"
         rx="123"
         ry="129"
         id="ellipse194"
         style="fill:#aa0000" /><ellipse
         class="fil13"
         cx="11079"
         cy="7750"
         rx="107"
         ry="112"
         id="ellipse196"
         style="fill:#ed3237" /><ellipse
         class="fil14"
         cx="11094"
         cy="7710"
         rx="46"
         ry="48"
         id="ellipse198"
         style="fill:#f6997e" /></g><ellipse
       class="fil7"
       cx="11256"
       cy="8403"
       rx="123"
       ry="129"
       id="ellipse200"
       style="fill:#aa0000" /><ellipse
       class="fil13"
       cx="11256"
       cy="8403"
       rx="107"
       ry="112"
       id="ellipse202"
       style="fill:#ed3237" /><ellipse
       class="fil14"
       cx="11271"
       cy="8363"
       rx="46"
       ry="48"
       id="ellipse204"
       style="fill:#f6997e" /><ellipse
       class="fil7"
       cx="11102"
       cy="8266"
       rx="123"
       ry="129"
       id="ellipse206"
       style="fill:#aa0000" /><ellipse
       class="fil13"
       cx="11102"
       cy="8266"
       rx="107"
       ry="112"
       id="ellipse208"
       style="fill:#ed3237" /><ellipse
       class="fil14"
       cx="11118"
       cy="8227"
       rx="46"
       ry="48"
       id="ellipse210"
       style="fill:#f6997e" /><ellipse
       class="fil7"
       cx="10813"
       cy="8784"
       rx="123"
       ry="129"
       id="ellipse212"
       style="fill:#aa0000" /><ellipse
       class="fil13"
       cx="10813"
       cy="8784"
       rx="107"
       ry="112"
       id="ellipse214"
       style="fill:#ed3237" /><ellipse
       class="fil14"
       cx="10828"
       cy="8745"
       rx="46"
       ry="48"
       id="ellipse216"
       style="fill:#f6997e" /><ellipse
       class="fil7"
       cx="11016"
       cy="8952"
       rx="123"
       ry="129"
       id="ellipse218"
       style="fill:#aa0000" /><ellipse
       class="fil13"
       cx="11016"
       cy="8952"
       rx="107"
       ry="112"
       id="ellipse220"
       style="fill:#ed3237" /><ellipse
       class="fil14"
       cx="11031"
       cy="8913"
       rx="46"
       ry="48"
       id="ellipse222"
       style="fill:#f6997e" /><ellipse
       class="fil7"
       cx="11011"
       cy="8754"
       rx="123"
       ry="129"
       id="ellipse224"
       style="fill:#aa0000" /><ellipse
       class="fil13"
       cx="11011"
       cy="8754"
       rx="107"
       ry="112"
       id="ellipse226"
       style="fill:#ed3237" /><ellipse
       class="fil14"
       cx="11027"
       cy="8715"
       rx="46"
       ry="48"
       id="ellipse228"
       style="fill:#f6997e" /></g><path
     class="fil15"
     d="m 7682.0582,2598.0786 c 41.3394,231.151 -114.4779,629.1479 -244.856,707.3565 -39.7497,-330.2148 -181.2575,-554.4142 -360.9245,-830.7539 l -98.5786,373.6668 c -52.4692,-184.2257 -112.8881,-363.2383 -216.2365,-523.1323 l -77.9089,269.3861 c -19.0797,-253.7443 -63.5991,-474.4671 -233.7263,-648.2645 l -92.2186,432.7551 c -108.118,-262.4345 -81.0888,-404.9484 -332.3048,-550.9373 9.5399,331.9531 50.8792,662.1679 108.1184,988.9094 30.2096,180.7494 31.7994,187.701 95.3986,340.6433 90.6285,220.7228 47.699,100.8021 143.0977,267.6479 l 114.4783,222.4629 162.1773,151.2041 125.6081,142.5138 166.9473,111.2306 149.4579,229.4127 c 111.2981,137.3007 84.2685,17.38 114.4783,222.461 l 17.4896,125.1356 -71.5489,470.9922 c -7.9499,198.1292 49.2894,325.0015 192.3869,437.9704 65.1889,-149.4657 127.1979,-302.4081 193.9771,-451.8755 6.3597,-12.165 14.31,-27.8067 27.0295,-33.0201 73.1389,-26.0701 166.9476,-60.8302 240.0865,-88.637 l 197.1567,-112.9689 c 117.6583,-43.4503 200.3364,-60.8303 421.3438,-137.3008 222.5961,-78.2087 467.4523,-342.3814 637.5798,-517.9173 327.5353,-338.9047 273.475,-347.5947 508.7916,-674.3365 146.2774,-192.916 259.1658,-378.8785 317.994,-629.1479 l 77.911,-509.2273 c -54.0595,79.9471 -213.0584,373.6648 -368.8754,450.1354 l -213.0557,210.2958 c 46.1089,-300.6696 52.4688,-243.3161 52.4688,-543.9874 -81.0887,118.1821 -133.5585,258.9595 -214.647,377.1418 -165.3574,234.6277 -357.7439,443.1837 -566.0311,656.9564 l -270.2958,257.2194 c 0,-312.8347 25.4396,-415.3768 71.5498,-721.2598 36.5691,-154.6808 119.2472,-410.1638 136.7364,-653.4798 l 42.9298,-517.9175 -329.1251,425.8037 -192.3866,326.7398 c -14.3099,-132.0857 -46.1092,-246.7929 -95.3982,-338.9049 1.5895,97.3253 -11.1304,189.4391 -42.9298,274.5996 -73.1388,-59.0902 -49.289,-45.1867 -79.4988,-133.8239 -27.0293,-119.9206 -60.4191,-234.6279 -87.4487,-354.5465 -47.6991,-151.2059 -136.7378,-291.9817 -209.8768,-427.5438 -22.2595,142.5138 -74.7287,281.5529 -76.3184,429.2803 3.1785,38.2369 179.6669,380.6184 158.9973,497.0623 z"
     id="path230"
     inkscape:connector-curvature="0"
     style="clip-rule:evenodd;fill:#fefefe;fill-rule:evenodd;stroke-width:1.66233;image-rendering:optimizeQuality;shape-rendering:geometricPrecision;text-rendering:geometricPrecision" /><path
     style="clip-rule:evenodd;fill:#0098da;fill-rule:evenodd;stroke-width:0.593852;image-rendering:optimizeQuality;shape-rendering:geometricPrecision;text-rendering:geometricPrecision;fill-opacity:1"
     d="m 7410.4773,10239.689 a 4700.3843,4087.0517 1.8150923 0 0 314.4175,1420.934 l 1697.3033,-3.03 20.8523,1557.954 3388.6416,-3000.758 -3465.2331,-2991.2631 19.585,1557.9559 -1680.4199,2.9998 a 4700.3843,4087.0517 1.8150923 0 0 -295.1467,1455.2074 z"
     id="path10-2"
     inkscape:connector-curvature="0" /><path
     transform="scale(26.458333)"
     d="M 38.556641 331.70703 A 263.35896 263.35896 0 0 0 78.34375 442.21875 L 371.56445 442.21875 L 371.56445 331.70703 L 38.556641 331.70703 z "
     style="fill:#0098da;fill-opacity:1;stroke:none;stroke-width:1.96072"
     id="rect954" /></svg>
