<?xml version="1.0" encoding="UTF-8" standalone="no"?>
<svg
   xmlns:dc="http://purl.org/dc/elements/1.1/"
   xmlns:cc="http://creativecommons.org/ns#"
   xmlns:rdf="http://www.w3.org/1999/02/22-rdf-syntax-ns#"
   xmlns:svg="http://www.w3.org/2000/svg"
   xmlns="http://www.w3.org/2000/svg"
   xmlns:sodipodi="http://sodipodi.sourceforge.net/DTD/sodipodi-0.dtd"
   xmlns:inkscape="http://www.inkscape.org/namespaces/inkscape"
   xml:space="preserve"
   width="600"
   height="600"
   version="1.1"
   style="clip-rule:evenodd;fill-rule:evenodd;image-rendering:optimizeQuality;shape-rendering:geometricPrecision;text-rendering:geometricPrecision"
   viewBox="0 0 15875 15875"
   id="svg2"
   inkscape:version="1.0 (4035a4fb49, 2020-05-01)"
   sodipodi:docname="logohosana_favicon_ideia3.svg"
   inkscape:export-filename="C:\xampp\htdocs\sistemas\sh\img\favicon.png"
   inkscape:export-xdpi="96"
   inkscape:export-ydpi="96"><metadata
     id="metadata254"><rdf:RDF><cc:Work
         rdf:about=""><dc:format>image/svg+xml</dc:format><dc:type
           rdf:resource="http://purl.org/dc/dcmitype/StillImage" /><dc:title></dc:title></cc:Work></rdf:RDF></metadata><sodipodi:namedview
     pagecolor="#ffffff"
     bordercolor="#666666"
     borderopacity="1"
     objecttolerance="10"
     gridtolerance="10"
     guidetolerance="10"
     inkscape:pageopacity="0"
     inkscape:pageshadow="2"
     inkscape:window-width="1920"
     inkscape:window-height="1017"
     id="namedview252"
     showgrid="false"
     inkscape:zoom="0.90662293"
     inkscape:cx="266.53265"
     inkscape:cy="218.31008"
     inkscape:window-x="-8"
     inkscape:window-y="428"
     inkscape:window-maximized="1"
     inkscape:current-layer="svg2"
     units="px"
     inkscape:document-rotation="0" /><defs
     id="defs4"><style
       type="text/css"
       id="style6"><![CDATA[
    .str0 {stroke:#373435;stroke-width:7.62}
    .fil15 {fill:#FEFEFE}
    .fil1 {fill:#BDBFC1}
    .fil7 {fill:#373435}
    .fil2 {fill:#FFF212}
    .fil8 {fill:#84716B}
    .fil9 {fill:#A98F71}
    .fil14 {fill:#F6997E}
    .fil10 {fill:#A45E4D}
    .fil11 {fill:#CB7246}
    .fil13 {fill:#ED3237}
    .fil12 {fill:#00A859}
    .fil0 {fill:#0098DA}
    .fil4 {fill:#1F1A17}
    .fil5 {fill:#B7683E}
    .fil16 {fill:#373435;fill-rule:nonzero}
    .fil6 {fill:#CB7246;fill-rule:nonzero}
    .fil3 {fill:#0098DA;fill-rule:nonzero}
   ]]></style><clipPath
       clipPathUnits="userSpaceOnUse"
       id="clipPath2462"><circle
         r="7082.5312"
         class="fil2"
         cx="7943.5557"
         cy="7891.7734"
         id="circle2464"
         style="clip-rule:evenodd;fill:#ffd5d5;fill-rule:evenodd;stroke-width:3.37428;image-rendering:optimizeQuality;shape-rendering:geometricPrecision;text-rendering:geometricPrecision" /></clipPath></defs><circle
     r="7812.1162"
     class="fil2"
     cx="7941.623"
     cy="7961.0415"
     id="circle2466"
     style="clip-rule:evenodd;fill:#f2f2f2;fill-rule:evenodd;stroke-width:3.72186;image-rendering:optimizeQuality;shape-rendering:geometricPrecision;text-rendering:geometricPrecision" /><ellipse
     ry="6208.2441"
     rx="6227.4136"
     style="clip-rule:evenodd;fill:#ffff00;fill-opacity:1;fill-rule:evenodd;stroke-width:2.96231;image-rendering:optimizeQuality;shape-rendering:geometricPrecision;text-rendering:geometricPrecision"
     id="circle14"
     cy="7937.5"
     cx="7908.3164"
     class="fil2" /><path
     d="m 7937.5258,0.4652405 v 0.981852 C 5745.9821,1.4470925 3761.9378,889.22512 2325.5687,2325.5946 890.16072,3761.9635 1.472925,5745.9564 1.472925,7937.5001 h -0.98185 v 0.9819 h 0.98185 c 0,2191.544 887.726995,4175.515 2324.095775,5610.924 1436.3691,1436.369 3420.4134,2325.129 5611.9571,2325.129 h 0.9303 c 2191.5439,0 4175.5879,-888.739 5611.9569,-2324.148 1435.408,-1436.368 2324.096,-3420.382 2324.096,-5612.8869 0,-2191.5437 -888.688,-4175.5366 -2324.096,-5611.9055 C 12114.044,889.22512 10130,1.4470925 7938.4561,1.4470925 V 0.4652405 Z M 7922.1263,921.6493 a 7008.4867,7008.4867 0 0 1 5.3226,0 7008.4867,7008.4867 0 0 1 7008.5131,7008.461 A 7008.4867,7008.4867 0 0 1 7927.4489,14938.675 7008.4867,7008.4867 0 0 1 918.93632,7930.1103 7008.4867,7008.4867 0 0 1 7922.1263,921.6493 Z"
     style="fill:#0098da;fill-opacity:1;stroke:none;stroke-width:28.1654"
     id="path974" /><path
     sodipodi:nodetypes="ccccc"
     d="m 5000.2966,6900.4565 5487.2424,265.7877 -29.183,4413.2798 -5458.0594,265.788 z"
     style="fill:#0098da;fill-opacity:1;stroke:none;stroke-width:39.5412"
     id="rect1001" /><path
     id="rect1003"
     style="fill:#0098da;fill-opacity:1;stroke:none;stroke-width:64.9744"
     d="M 4324.3718,1796.191 6904.9194,989.27313 8276.3572,1098.6326 7735.1439,9453.6372 H 2549.1485 L 1974.1261,4004.6651 Z"
     sodipodi:nodetypes="ccccccc" /><path
     id="path130"
     style="fill:#f2f2f2;fill-opacity:1;stroke:none;stroke-width:24.955"
     d="m 7937.5228,905.15331 v 0.86994 c -1941.7447,0 -3699.6414,786.58635 -4972.2887,2059.23385 C 1693.4384,4237.9042 906.04615,5995.7553 906.04615,7937.5 h -0.87 v 0.87 h 0.87 c 0,1941.7447 786.54105,3699.577 2059.18795,4971.373 1272.6473,1272.648 3030.544,2060.104 4972.2887,2060.104 h 0.8242 c 1941.7448,0 3699.641,-787.438 4972.289,-2059.234 1271.795,-1272.647 2059.188,-3030.5169 2059.188,-4973.113 0,-1941.7447 -787.393,-3699.5958 -2059.188,-4972.2429 C 11637.988,1692.6096 9880.0918,906.02325 7938.347,906.02325 v -0.86994 z m -13.6443,816.18459 a 6209.6374,6209.6374 0 0 1 4.716,0 A 6209.6374,6209.6374 0 0 1 14138.255,7930.9525 6209.6374,6209.6374 0 0 1 7928.5945,14140.659 6209.6374,6209.6374 0 0 1 1718.9341,7930.9525 6209.6374,6209.6374 0 0 1 7923.8785,1721.3379 Z" /><circle
     style="fill:#0098da;fill-opacity:1;stroke:none;stroke-width:38.5036"
     id="path1005"
     cx="5142.1465"
     cy="9241.2939"
     r="2592.9978" /><path
     style="clip-rule:evenodd;fill:#fefefe;fill-rule:evenodd;stroke-width:2.5405;image-rendering:optimizeQuality;shape-rendering:geometricPrecision;text-rendering:geometricPrecision"
     inkscape:connector-curvature="0"
     id="path230"
     d="m 31881.182,-6496.9655 c 63.178,353.2621 -174.954,961.5105 -374.207,1081.0346 -60.749,-504.6587 -277.012,-847.2969 -551.591,-1269.6196 l -150.656,571.0653 c -80.187,-281.5475 -172.523,-555.1278 -330.469,-799.4896 l -119.065,411.6958 c -29.16,-387.7908 -97.198,-725.1158 -357.199,-990.7258 l -140.934,661.3684 c -165.235,-401.0719 -123.927,-618.8722 -507.854,-841.9833 14.58,507.3154 77.758,1011.9742 165.235,1511.3247 46.168,276.2346 48.598,286.8586 145.794,520.5963 138.506,337.325 72.898,154.0532 218.693,409.0394 l 174.954,339.9842 247.853,231.0814 191.963,217.8002 255.141,169.9908 228.412,350.6054 c 170.094,209.8332 128.786,26.5614 174.954,339.9814 l 26.73,191.2415 -109.346,719.8052 c -12.15,302.7958 75.326,496.6914 294.019,669.3388 99.627,-228.4245 194.393,-462.1624 296.451,-690.5896 9.718,-18.5915 21.869,-42.4962 41.308,-50.4637 111.776,-39.8423 255.142,-92.9652 366.918,-135.4616 l 301.31,-172.6476 c 179.814,-66.4039 306.169,-92.9653 643.929,-209.8331 340.187,-119.5244 714.394,-523.2527 974.395,-791.5196 500.565,-517.9393 417.946,-531.2201 777.574,-1030.5711 223.551,-294.8285 396.076,-579.0302 485.981,-961.5104 l 119.07,-778.2389 c -82.618,122.181 -325.612,571.0622 -563.742,687.9303 l -325.608,321.3896 c 70.467,-459.5056 80.187,-371.8537 80.187,-831.3619 -123.927,180.6146 -204.114,395.7611 -328.039,576.3761 -252.713,358.5755 -546.732,677.3061 -865.051,1004.0094 l -413.087,393.1017 c 0,-478.0971 38.879,-634.8096 109.348,-1102.2826 55.888,-236.3947 182.243,-626.8427 208.972,-998.6963 l 65.608,-791.5198 -502.994,650.7447 -294.019,499.348 c -21.87,-201.8631 -70.468,-377.1672 -145.795,-517.9396 2.429,148.7397 -17.011,289.5148 -65.609,419.6634 -111.775,-90.306 -75.327,-69.0576 -121.495,-204.5195 -41.308,-183.2715 -92.338,-358.5758 -133.646,-541.8443 -72.897,-231.0841 -208.973,-446.228 -320.749,-653.4041 -34.018,217.8002 -114.206,430.29 -116.636,656.0579 4.859,58.4365 274.581,581.6893 242.992,759.6475 z"
     class="fil15" /><path
     sodipodi:nodetypes="ccccccccc"
     inkscape:connector-curvature="0"
     id="path10-2"
     d="m 6145.1217,9403.7348 c 10.2682,751.8412 163.3224,977.7782 451.9931,1681.6412 l 2382.6838,-221.242 87.2635,3149.172 4871.3639,-4648.1426 -4981.468,-4633.4291 28.1535,3244.2448 -2415.6997,4.6467 c -286.8313,719.6942 -430.6175,652.5881 -424.2901,1423.109 z"
     style="clip-rule:evenodd;fill:#0098da;fill-opacity:1;fill-rule:evenodd;stroke-width:0.886165;image-rendering:optimizeQuality;shape-rendering:geometricPrecision;text-rendering:geometricPrecision" /></svg>
