<?xml version="1.0" encoding="UTF-8" standalone="no"?>
<svg
   xmlns:dc="http://purl.org/dc/elements/1.1/"
   xmlns:cc="http://creativecommons.org/ns#"
   xmlns:rdf="http://www.w3.org/1999/02/22-rdf-syntax-ns#"
   xmlns:svg="http://www.w3.org/2000/svg"
   xmlns="http://www.w3.org/2000/svg"
   xmlns:sodipodi="http://sodipodi.sourceforge.net/DTD/sodipodi-0.dtd"
   xmlns:inkscape="http://www.inkscape.org/namespaces/inkscape"
   inkscape:export-ydpi="96"
   inkscape:export-xdpi="96"
   inkscape:export-filename="C:\xampp\htdocs\sistemas\sh\img\favicon.ico.png"
   sodipodi:docname="logohosana_favicon.svg"
   inkscape:version="1.0 (4035a4fb49, 2020-05-01)"
   id="svg2"
   viewBox="0 0 15875 15875"
   style="clip-rule:evenodd;fill-rule:evenodd;image-rendering:optimizeQuality;shape-rendering:geometricPrecision;text-rendering:geometricPrecision"
   version="1.1"
   height="600"
   width="600"
   xml:space="preserve"><metadata
     id="metadata254"><rdf:RDF><cc:Work
         rdf:about=""><dc:format>image/svg+xml</dc:format><dc:type
           rdf:resource="http://purl.org/dc/dcmitype/StillImage" /><dc:title /></cc:Work></rdf:RDF></metadata><sodipodi:namedview
     inkscape:document-rotation="0"
     units="px"
     inkscape:current-layer="svg2"
     inkscape:window-maximized="1"
     inkscape:window-y="428"
     inkscape:window-x="-8"
     inkscape:cy="306.3585"
     inkscape:cx="301.54048"
     inkscape:zoom="0.64107921"
     showgrid="false"
     id="namedview252"
     inkscape:window-height="1017"
     inkscape:window-width="1920"
     inkscape:pageshadow="2"
     inkscape:pageopacity="0"
     guidetolerance="10"
     gridtolerance="10"
     objecttolerance="10"
     borderopacity="1"
     bordercolor="#666666"
     pagecolor="#ffffff" /><defs
     id="defs4"><style
       id="style6"
       type="text/css"><![CDATA[
    .str0 {stroke:#373435;stroke-width:7.62}
    .fil15 {fill:#FEFEFE}
    .fil1 {fill:#BDBFC1}
    .fil7 {fill:#373435}
    .fil2 {fill:#FFF212}
    .fil8 {fill:#84716B}
    .fil9 {fill:#A98F71}
    .fil14 {fill:#F6997E}
    .fil10 {fill:#A45E4D}
    .fil11 {fill:#CB7246}
    .fil13 {fill:#ED3237}
    .fil12 {fill:#00A859}
    .fil0 {fill:#0098DA}
    .fil4 {fill:#1F1A17}
    .fil5 {fill:#B7683E}
    .fil16 {fill:#373435;fill-rule:nonzero}
    .fil6 {fill:#CB7246;fill-rule:nonzero}
    .fil3 {fill:#0098DA;fill-rule:nonzero}
   ]]></style></defs><path
     inkscape:connector-curvature="0"
     id="path10"
     d="m 7900.8389,1848.9637 a 6103.2689,6103.2689 0 0 0 -2122.3581,385.1272 v 2204.2848 l -2326.1521,1.6458 4471.2381,4449.711 4475.3302,-4451.3568 H 10072.744 V 2256.0181 A 6103.2689,6103.2689 0 0 0 7900.8389,1848.9637 Z"
     style="fill:#0098da;stroke-width:0.82692999" /><ellipse
     ry="2942.6907"
     rx="2931.9553"
     cy="7995.481"
     cx="7937.8877"
     id="path11"
     style="fill:#ffff00;stroke-width:9.73688" /><path
     id="rect4892"
     transform="scale(26.458333)"
     d="M -1.1035156 -0.029296875 L -1.1035156 604.41211 L 601.13281 604.41211 L 601.13281 -0.029296875 L -1.1035156 -0.029296875 z M 298.91211 31.986328 A 268.01316 268.01316 0 0 1 566.92383 300 A 268.01316 268.01316 0 0 1 298.91211 568.01367 A 268.01316 268.01316 0 0 1 30.898438 300 A 268.01316 268.01316 0 0 1 298.91211 31.986328 z "
     style="fill:none;fill-opacity:1;stroke-width:0.99999994" /><path
     transform="scale(26.458333)"
     id="path16"
     d="M 299.98242 0.017578125 L 299.98242 0.0546875 C 217.15242 0.0546875 142.16492 33.608503 87.876953 87.896484 C 33.625311 142.18444 0.037109375 217.17 0.037109375 300 L 0 300 L 0 300.03711 L 0.037109375 300.03711 C 0.037109375 382.86712 33.588998 457.85184 87.876953 512.10352 C 142.16492 566.39147 217.15242 599.98242 299.98242 599.98242 L 300.01758 599.98242 C 382.84757 599.98242 457.83508 566.3923 512.12305 512.14062 C 566.37469 457.85267 599.96289 382.86632 599.96289 300 C 599.96289 217.17 566.37469 142.18444 512.12305 87.896484 C 457.83508 33.608503 382.84757 0.0546875 300.01758 0.0546875 L 300.01758 0.017578125 L 299.98242 0.017578125 z M 299.98242 34.777344 L 299.98242 34.810547 L 300.01562 34.810547 L 300.01562 34.777344 C 373.21412 34.777344 439.49651 64.473084 487.51953 112.49609 C 535.50925 160.48583 565.20508 226.80151 565.20508 300 C 565.20508 373.23174 535.50925 439.51417 487.51953 487.53711 C 439.49651 535.5269 373.21412 565.22266 300.01562 565.22266 L 299.98242 565.22266 C 226.78394 565.22266 160.46826 535.5269 112.47852 487.53711 C 64.455525 439.51417 34.793022 373.23168 34.759766 300.0332 L 34.792969 300.0332 L 34.792969 300 L 34.759766 300 C 34.759766 226.80151 64.455525 160.48583 112.47852 112.49609 C 160.46826 64.473084 226.78394 34.777344 299.98242 34.777344 z "
     style="fill:#0098da;fill-rule:nonzero;stroke-width:0.03631302" /><path
     id="path232"
     transform="scale(26.458333)"
     d="M 430.13281 273.98828 L 295.9082 410.52344 L 195.80469 309.60547 L 61.955078 309.67773 L 194.25195 439.03711 L 149.80664 486.79492 C 164.09365 498.29802 179.71893 508.20516 196.42578 516.22461 L 402.92578 516.08984 L 523.0625 379.58008 L 430.13281 273.98828 z "
     style="fill:#0098da;stroke-width:0.03631302" /></svg>
