<?xml version="1.0" encoding="UTF-8" standalone="no"?>
<!-- Creator: CorelDRAW X7 -->

<svg
   xmlns:dc="http://purl.org/dc/elements/1.1/"
   xmlns:cc="http://creativecommons.org/ns#"
   xmlns:rdf="http://www.w3.org/1999/02/22-rdf-syntax-ns#"
   xmlns:svg="http://www.w3.org/2000/svg"
   xmlns="http://www.w3.org/2000/svg"
   xmlns:sodipodi="http://sodipodi.sourceforge.net/DTD/sodipodi-0.dtd"
   xmlns:inkscape="http://www.inkscape.org/namespaces/inkscape"
   xml:space="preserve"
   width="600"
   height="600"
   version="1.1"
   style="clip-rule:evenodd;fill-rule:evenodd;image-rendering:optimizeQuality;shape-rendering:geometricPrecision;text-rendering:geometricPrecision"
   viewBox="0 0 15875 15875"
   id="svg2"
   inkscape:version="0.92.3 (2405546, 2018-03-11)"
   sodipodi:docname="logohosana.svg"><metadata
     id="metadata254"><rdf:RDF><cc:Work
         rdf:about=""><dc:format>image/svg+xml</dc:format><dc:type
           rdf:resource="http://purl.org/dc/dcmitype/StillImage" /><dc:title></dc:title></cc:Work></rdf:RDF></metadata><sodipodi:namedview
     pagecolor="#ffffff"
     bordercolor="#666666"
     borderopacity="1"
     objecttolerance="10"
     gridtolerance="10"
     guidetolerance="10"
     inkscape:pageopacity="0"
     inkscape:pageshadow="2"
     inkscape:window-width="1600"
     inkscape:window-height="837"
     id="namedview252"
     showgrid="false"
     inkscape:zoom="0.90662291"
     inkscape:cx="183.84442"
     inkscape:cy="248.14372"
     inkscape:window-x="892"
     inkscape:window-y="394"
     inkscape:window-maximized="1"
     inkscape:current-layer="svg2"
     units="px" /><defs
     id="defs4"><style
       type="text/css"
       id="style6"><![CDATA[
    .str0 {stroke:#373435;stroke-width:7.62}
    .fil15 {fill:#FEFEFE}
    .fil1 {fill:#BDBFC1}
    .fil7 {fill:#373435}
    .fil2 {fill:#FFF212}
    .fil8 {fill:#84716B}
    .fil9 {fill:#A98F71}
    .fil14 {fill:#F6997E}
    .fil10 {fill:#A45E4D}
    .fil11 {fill:#CB7246}
    .fil13 {fill:#ED3237}
    .fil12 {fill:#00A859}
    .fil0 {fill:#0098DA}
    .fil4 {fill:#1F1A17}
    .fil5 {fill:#B7683E}
    .fil16 {fill:#373435;fill-rule:nonzero}
    .fil6 {fill:#CB7246;fill-rule:nonzero}
    .fil3 {fill:#0098DA;fill-rule:nonzero}
   ]]></style></defs><g
     id="g1050"
     transform="translate(-7.4112696,-2.5552077)"><path
       class="fil0"
       d="m 2747.5615,3383.0668 2702.6796,-1.9216 V 846.60198 c 1697.7017,-537.07712 3299.3252,-559.17511 4989.3409,0 V 3381.1452 h 2702.679 L 7942.5095,8553.0345 Z"
       id="path10"
       inkscape:connector-curvature="0"
       style="fill:#0098da;stroke-width:0.96078193" /><path
       class="fil1"
       d="m 6714.6302,6548.8432 c -12.4902,-23.0588 -14.4118,-82.6272 25.9411,-110.4899 l 198.8818,-138.3526 c 50.9215,-36.5097 102.8037,-4.8039 120.0978,24.9803 l 162.3721,265.1758 c 28.8235,47.0783 15.3725,99.9213 -8.647,125.8625 l 377.5873,118.1761 c 31.7058,1.9216 62.4508,11.5294 91.2743,29.7843 -125.8625,219.0583 -305.5287,383.352 -538.9987,493.8419 -9.6078,-20.1764 -22.098,-85.5096 -23.0588,-114.3331 l -138.3526,-359.3324 c -24.0195,9.6078 -76.8625,-0.9608 -95.1174,-34.5882 z"
       id="path12"
       inkscape:connector-curvature="0"
       style="fill:#bdbfc1;stroke-width:0.96078193" /><circle
       class="fil2"
       cx="7944.4312"
       cy="5326.7285"
       r="2016.6813"
       id="circle14"
       style="fill:#fff212;stroke-width:0.96078193" /><path
       class="fil3"
       d="m 7944.4311,3.0354154 h 0.9607 v 0.96078 c 2191.5432,0 4175.5582,887.7624846 5611.9272,2324.1320046 1435.408,1436.3689 2324.131,3420.3836 2324.131,5611.9273 h 0.961 v 0 0 h -0.961 c 0,2192.5045 -888.723,4176.5185 -2324.131,5612.8875 -1436.369,1435.409 -3420.384,2324.132 -5611.9272,2324.132 v 0 h -0.9607 v 0 0 c -2191.5437,0 -4175.5584,-888.723 -5611.9274,-2325.092 C 896.13483,12116.574 8.3723192,10132.56 8.3723192,7941.0162 h -0.96078 v -0.9607 0 h 0.96078 C 8.3723192,5748.5118 897.09561,3764.4971 2332.5037,2328.1282 3768.8727,891.75868 5752.8874,3.9961954 7944.4311,3.9961954 Z m 0.9607,274.7836346 v 0.96078 h -0.9607 v 0 -0.96078 C 5829.75,277.81905 3913.9508,1135.7974 2527.5424,2523.1669 1140.1734,3909.5752 282.19517,5825.3744 282.19517,7940.0555 h 0.96078 v 0 0.9607 h -0.96078 c 0.96078,2114.6808 857.97823,4029.5198 2245.34723,5416.8888 1386.4084,1386.408 3302.2076,2244.386 5416.8887,2244.386 v 0 0 h 0.9607 v 0 c 2114.6812,0 4029.5192,-857.978 5416.8882,-2244.386 1386.408,-1387.369 2244.387,-3302.208 2244.387,-5417.8495 v 0 0 0 0 c 0,-2114.6811 -857.979,-4030.4803 -2244.387,-5416.8886 C 11974.911,1135.7974 10060.073,277.81905 7945.3918,277.81905 Z"
       id="path16"
       inkscape:connector-curvature="0"
       style="fill:#0098da;fill-rule:nonzero;stroke-width:0.96078193" /><path
       class="fil0"
       d="m 912.46812,6632.4312 v 3716.3048 c 218.09748,310.332 619.70428,349.724 962.70338,349.724 V 6997.5284 C 1467.8,7010.9793 1109.4284,6933.156 912.46812,6632.4312 Z"
       id="path18"
       inkscape:connector-curvature="0"
       style="fill:#0098da;stroke-width:0.96078193" /><path
       class="fil0"
       d="m 1619.6036,6797.6857 c -373.7442,-4.8039 -480.391,-97.9997 -663.90029,-329.5482 171.01919,-220.9798 297.84239,-307.4502 663.90029,-307.4502 z"
       id="path20"
       inkscape:connector-curvature="0"
       style="fill:#0098da;stroke-width:0.96078193" /><path
       class="fil4"
       d="m 6413.9054,8071.6828 c -98.9605,-246.9212 -158.529,-705.2142 24.9803,-941.5665 313.215,-403.5284 962.7036,-462.1361 1579.5256,-506.3321 434.2734,-31.7058 1288.4086,203.6858 1471.9179,444.842 56.6861,74.941 -26.9019,132.5879 0,208.4897 13.451,37.4705 31.7058,72.0587 51.8822,104.7252 27.8627,45.1568 89.3528,-6.7254 78.7842,104.7253 -13.451,140.2741 -155.6467,215.2151 -104.7253,418.9009 22.098,87.4314 82.6273,63.4118 52.843,235.3918 -2.8823,15.3725 -73.9802,136.431 -78.7841,261.3327 -7.6862,226.7445 -6.7255,453.489 0,679.2728 1.9216,53.8038 21.1372,104.7252 25.9411,157.5682 16.3333,155.6467 -48.0391,37.4705 104.7253,235.3916 100.882,129.7056 45.1566,87.4312 209.4503,182.5489 60.5293,35.549 117.2154,78.784 182.5491,104.725 24.98,9.608 54.764,-9.608 78.784,0 82.627,34.588 159.489,82.627 235.391,130.666 21.138,13.451 76.863,57.647 51.883,52.843 -106.647,-21.137 -62.451,-25.941 -182.549,-25.941 -61.49,0 -148.921,-50.921 -183.509,0 -31.7063,48.039 55.725,102.8037 78.784,156.6077 3.843,7.686 8.647,25.941 0,25.941 -64.373,0 -105.6864,-41.314 -182.549,-25.941 -64.3724,12.49 -228.6661,106.646 -288.2344,51.882 -195.0388,-178.7057 -112.4115,-37.471 -287.2739,0 -102.8036,22.098 -212.3328,25.941 -314.1756,0 -145.0781,-36.51 -171.0192,-233.4697 -314.1757,-51.882 -19.2157,24.98 -65.3332,75.901 -62.4509,99.921 6.7255,55.725 -48.0391,-44.196 -94.1566,-73.98 -16.3333,-10.569 -35.5489,-16.334 -51.8822,-25.941 -73.0195,-43.236 -203.6858,-92.2347 -288.2346,-78.7847 -49.9607,8.6477 -206.5681,49.9607 -235.3916,78.7847 -30.745,30.745 4.8039,87.431 0,130.666 -9.6078,92.235 143.1565,127.784 0,156.607 -195.9995,41.314 -297.8424,-313.214 -496.7243,-340.116 -170.0584,-22.098 -265.1758,99.921 -436.195,83.588 -90.3135,-8.647 -58.6077,-62.451 -113.3722,-135.4707 -80.7057,-106.646 -211.3721,22.098 -287.2738,51.8827 -163.333,65.333 -350.6854,103.764 -522.6654,131.627 -52.843,7.686 -195.0387,63.411 -157.5682,25.941 60.5292,-60.529 158.529,-66.294 235.3915,-104.725 63.4116,-31.706 124.9017,-65.334 183.5094,-104.7257 20.1764,-13.451 38.4313,-31.705 51.8822,-51.882 4.8039,-7.686 7.6863,-22.098 0,-26.902 -59.5685,-37.47 -38.4313,-25.941 -104.7252,-25.941 -177.7447,0 -249.8033,34.588 -428.5088,60.529 -349.7246,49.961 -821.4685,86.4707 -826.2724,70.137 -13.451,-46.117 125.8624,-50.921 199.8426,-69.176 359.3324,-86.47 862.7822,-77.823 1054.9386,-270.94 8.647,-8.6474 -13.451,-24.9806 -25.9411,-25.9414 -77.8234,-7.6863 -156.6075,-3.8432 -235.3916,0 -78.7841,4.8039 -157.5683,13.4509 -235.3916,25.9414 -103.7644,17.294 -307.4502,93.196 -466.94,80.705 -4.8039,0 386.2343,-162.3718 440.9989,-185.4305 165.2545,-68.2156 400.6461,-150.8428 507.2929,-317.0581 169.0976,-262.2935 315.1364,-636.0376 103.7644,-1163.5069 z"
       id="path22"
       inkscape:connector-curvature="0"
       style="fill:#000000;stroke-width:0.96078193" /><path
       inkscape:connector-curvature="0"
       id="path24"
       d="m 7989.9519,6731.2305 c -348.539,1.6215 -712.0422,55.6486 -1013.9679,196.1631 -203.6858,94.1566 -271.9198,294.0193 -51.9008,444.8621 141.2349,96.078 255.5851,124.8762 404.5068,199.8172 209.4505,104.7251 633.1553,30.7694 854.1352,30.7694 101.8428,-10.5685 233.4373,-52.8408 329.5155,-88.3896 136.431,-54.7648 654.2983,-299.8112 582.2396,-515.9872 -37.4705,-113.3722 -373.7605,-218.083 -763.8389,-252.671 -110.0096,-9.8481 -224.5098,-15.1045 -340.6895,-14.564 z m -22.6667,91.3027 c 46.0868,-0.7836 91.7191,-0.6806 136.6357,0.1626 248.8425,5.7648 1056.8841,67.2504 864.7277,292.0731 -135.4702,158.5292 -396.8337,307.4415 -606.2841,346.8337 -84.5488,15.3725 -945.3845,161.4041 -945.3845,7.679 -114.333,-57.6468 -645.678,-202.7258 -524.6197,-379.5096 17.2942,-34.5881 88.3995,-66.2991 121.0662,-80.7106 285.8328,-132.8283 631.2454,-181.0469 953.8587,-186.5244 z m 2.9121,74.938 c -12.2596,0.082 -24.3798,0.4528 -36.33,1.1117 -266.1366,14.4116 -587.0474,67.2398 -764.7921,123.9258 -35.5488,11.5295 -66.2768,24.0067 -90.2965,35.5362 -17.2939,9.6078 -53.7999,29.7721 -61.4863,48.9877 -56.6861,56.6861 9.6037,130.6987 54.7607,158.5614 141.2343,89.3528 316.0727,77.8323 457.3077,147.9699 180.627,90.3132 622.6001,7.6839 832.0506,-33.6297 34.5881,-7.6861 73.9946,-17.3186 106.6612,-30.7694 170.0584,-67.2552 435.1977,-173.8979 391.0017,-305.525 -31.7058,-70.1372 -251.6912,-70.1418 -309.3381,-73.985 -179.2454,-12.6102 -395.6481,-73.3488 -579.5389,-72.1841 z m 40.3029,89.0784 c 165.8771,2.4703 335.0602,41.3424 499.8343,52.2713 118.1762,7.6863 263.2629,1.9224 263.2629,33.6295 24.0196,70.137 -289.2021,166.2123 -344.9265,196.9574 -65.3332,25.941 -145.0992,33.6678 -214.2755,42.3149 -67.2547,9.6078 -645.633,93.1894 -645.633,21.1308 -138.3526,-68.2156 -313.1976,-56.6799 -449.6283,-143.1501 -70.1373,-44.1962 44.1712,-71.0955 77.7978,-81.664 235.3918,-75.9019 497.7083,-103.7796 742.7077,-120.1128 23.5392,-1.3206 47.1639,-1.73 70.8606,-1.3775 z m 1239.9467,26.6917 c -4.7626,0.1626 -9.3858,0.6887 -13.7689,1.5889 -57.6469,12.4902 24.0483,183.4897 -390.0487,415.9988 -87.4311,49.9607 -304.5851,161.44 -391.0555,213.322 -108.5684,63.4116 -336.2795,67.259 -460.2203,67.259 -146.9997,0 -403.5092,27.8627 -544.7442,0 -146.0388,-29.7844 -280.5734,-147.9639 -410.2794,-175.8264 -151.8034,-32.6666 -156.6167,-115.3271 -269.9889,-172.0135 -31.7058,-16.3332 -45.1537,-124.8803 -74.938,-145.0566 -25.941,-17.2942 -63.4091,84.5675 -81.664,58.6262 -25.9411,-35.5488 25.9253,-152.775 -11.5452,-174.8729 -14.4118,-8.6471 -160.4201,95.1189 -119.1066,148.9227 47.0783,62.4508 48.0138,89.3382 77.7979,130.6517 55.7254,76.8627 169.1123,102.7891 235.4062,130.6518 113.3724,47.0783 236.3343,90.3097 314.1574,183.5057 33.6277,40.3528 -106.6413,-11.4856 -156.602,-25.8974 -37.4705,-11.5292 -68.1918,-40.3637 -104.7016,-52.8539 -42.2742,-13.4508 -90.2989,-7.6954 -130.6517,-25.9502 -40.3529,-17.294 -70.1663,-52.8629 -104.7544,-78.8042 -129.7054,-97.039 -58.604,-79.7486 -183.5057,-182.5522 -29.7841,-24.9804 -39.4103,67.2838 -51.9005,104.7543 -20.1763,58.6078 32.6941,122.9749 77.8511,156.6021 50.9213,37.4705 99.9083,78.7605 157.5551,104.7015 40.3529,18.2549 88.3775,11.5387 130.6518,25.9502 36.5098,12.4902 69.2055,36.5283 104.7543,51.9005 42.2746,19.2159 89.3382,30.756 130.6519,52.854 54.7646,29.7843 109.5234,63.3878 156.6019,104.7015 15.3726,12.4901 46.1263,51.9003 25.9503,51.9003 -38.4312,0 -66.2779,-42.2925 -103.7481,-51.9003 -34.5882,-8.6472 -72.088,11.5294 -104.7544,0 -66.2939,-24.0197 -119.1332,-76.8389 -183.5057,-104.7015 -58.6075,-24.9804 -123.9445,-29.795 -182.5523,-52.854 -71.0979,-26.9017 -242.0974,-195.0269 -171.9605,-55.7134 69.1763,139.3132 43.2142,62.4061 145.0569,134.4648 147.9606,104.7253 105.7007,-21.0988 235.4062,130.7044 52.8431,62.4509 -460.1893,-95.1177 -328.5622,-6.7254 126.823,84.5488 284.3955,107.5931 433.3166,137.3774 69.1765,14.4117 143.1093,2.8842 209.403,26.9038 59.569,21.1372 109.5763,63.3953 156.6551,103.7481 15.3725,13.451 35.5047,35.5595 25.8969,52.8536 -23.0587,46.1175 -25.9152,83.6063 -77.7976,51.9005 -180.6266,-107.6076 -55.7506,-101.8372 -288.26,-156.6017 -24.0195,-5.7647 -29.7498,64.3378 -51.8476,51.8476 -214.2543,-114.333 -66.2902,-88.3756 -183.5055,-103.7481 -55.7254,-7.6863 -183.504,-95.1088 -156.6023,25.9498 4.8041,22.0979 186.3444,170.0622 209.4031,182.5524 50.9213,27.8626 101.8904,59.5358 156.6549,78.7514 68.2155,24.0196 138.3053,41.3319 209.403,51.9005 43.2355,6.7255 87.4691,-5.7647 130.7044,0 19.2166,2.8823 43.2006,8.649 51.8476,26.9038 12.4902,23.0588 16.3333,57.621 0,77.7974 -16.3333,22.098 -50.8955,23.0607 -77.7976,26.9038 -51.8815,5.7647 -106.6417,12.4902 -156.602,0 -269.9797,-72.0586 -324.7642,-188.2652 -444.8621,-209.4034 -16.3333,-2.8823 8.6744,110.4852 77.851,156.6027 97.9997,65.3332 208.4714,107.6018 314.1572,156.6017 24.9803,12.4902 52.8634,16.3352 78.8041,26.9038 18.2549,6.7255 33.5928,18.2645 51.8476,25.9498 92.2352,35.5499 179.6625,24.9371 183.5056,25.8978 57.647,21.1372 79.7728,26.9221 77.8512,78.8043 -0.9598,36.5098 -41.3414,80.6798 -77.8512,77.7974 -126.8235,-6.7254 -246.9211,-61.4737 -366.0578,-103.7481 -125.8624,-45.1567 -272.8621,-251.7114 -366.058,-157.5548 -87.4312,87.4312 170.0822,178.6757 261.3564,261.3029 42.2746,39.3921 355.4982,145.0839 392.008,209.4563 25.9411,46.1175 -148.9335,-28.8254 -201.7763,-33.6293 -279.5878,-24.9804 -594.7446,-310.3163 -451.5881,-97.0227 20.1766,30.7451 48.0667,56.7063 77.8508,78.8043 31.706,22.098 71.0743,32.632 104.7015,51.8477 123.941,70.137 42.2892,46.1463 235.4062,104.754 161.4117,48.9999 152.7793,12.4998 235.4059,25.9507 35.5489,5.7647 73.9571,7.6421 104.7022,25.897 16.3332,10.5695 25.9497,33.6389 25.9497,52.8545 0,19.2156 -12.4988,38.4495 -25.9497,51.9005 -30.7451,30.745 -65.3102,59.5886 -104.7022,78.8043 -15.3725,7.6862 -39.41,11.5294 -51.9002,0 -223.8618,-206.5681 -109.5349,-97.087 -209.4559,-156.6555 -26.9018,-16.3333 -47.0453,-47.9969 -78.7513,-52.8008 -85.5095,-13.4509 -262.3171,-86.4703 -261.3564,0 0.9598,123.9409 56.6806,64.358 156.602,130.652 100.8822,67.2547 87.4274,-6.7053 183.5057,78.8043 53.8036,48.0391 -137.3973,57.6123 -209.456,51.8476 -101.8427,-7.6863 -220.9677,-164.2697 -293.0264,-91.2503 -64.3723,64.3724 169.0911,78.7794 136.4244,170.0536 -11.5293,32.6679 -71.0741,-8.647 -104.7016,0 -8.6468,1.9226 -6.7253,20.1859 0,25.9509 13.4512,14.412 45.1223,8.649 51.8477,26.904 13.4511,31.705 3.8433,69.16 0,103.748 -6.7254,64.372 -59.5245,14.398 -25.8974,157.555 9.6081,42.274 48.0062,-73.957 78.7513,-104.702 30.7451,-30.745 66.3232,-56.706 104.7544,-78.804 24.0196,-13.451 52.8175,-15.381 77.7979,-25.95 18.2549,-7.686 33.6383,-20.186 52.8538,-25.95 16.3333,-5.765 160.4641,163.374 330.5222,171.06 219.0588,8.647 357.4047,-142.227 387.1889,-145.11 61.4901,-5.764 203.6724,510.1677 279.5741,122.973 51.8832,-264.2153 294.9774,-106.625 519.8004,-253.6246 103.7644,-68.2155 -67.2855,-473.6732 119.1071,-609.1435 78.7832,-56.6861 57.6383,495.7606 116.246,556.2899 98.9605,103.7632 61.5122,-106.6468 234.4529,0 54.7646,33.6274 -122.9839,29.7948 -182.5524,52.8536 -54.7646,21.1372 -107.6018,47.0986 -156.6017,78.8046 -68.2155,41.313 1.936,9.582 -130.6519,77.797 -35.549,18.255 -90.3241,113.402 -52.8536,104.755 189.274,-43.235 282.4901,-97.087 444.8622,-156.655 107.6076,-39.392 114.3148,-74.9452 205.5891,-67.259 53.8047,4.8039 136.4387,21.185 107.6143,41.362 -179.6653,124.901 -226.7436,64.334 -366.0579,235.353 -62.4509,76.862 193.0902,-49.928 288.2077,-78.752 39.392,-12.49 461.1839,-216.1957 392.0076,-78.804 -27.8626,56.686 -60.5052,112.399 -104.7012,157.556 -26.9019,26.902 -80.7431,28.825 -117.2528,40.355 -96.0782,32.666 -350.6759,53.8097 -89.3432,100.8877 68.2156,12.491 202.7106,56.672 259.3968,15.359 73.0194,-54.765 19.254,-174.8567 130.7047,-156.6017 152.7644,24.019 47.0399,114.3707 235.3531,130.7047 90.3135,7.686 -69.158,-47.109 51.9005,-104.7547 90.3135,-43.236 372.813,54.798 104.755,-78.751 -25.9411,-13.451 310.314,4.766 -51.9005,-130.705 -239.2346,-89.3524 -447.7262,46.132 -392.9616,-130.6516 20.1764,-63.4116 31.6875,-72.0346 -51.9005,-104.7012 -92.2351,-36.5097 -123.9361,69.1667 -156.6017,-25.9508 -26.9029,-77.8233 144.1298,-80.7441 208.5022,-130.7047 15.3725,-12.4902 20.1783,-34.5459 26.9038,-52.8008 7.6862,-22.0979 -25.9431,-103.7942 -26.9038,-104.754 l -51.9005,-51.8477 c -1.9226,-1.9225 -31.6732,-80.7354 -78.7515,-104.755 -105.686,-54.7645 -448.6976,-89.345 -567.8346,-116.2469 -191.1956,-42.2734 -368.9364,-87.4091 -556.2899,-145.0569 -75.9008,-23.0578 589.9211,68.1828 732.1168,78.7514 77.8234,4.8039 158.5435,13.451 235.406,0 157.5683,-28.8234 323.7451,-575.5045 -130.7047,-549.5634 -96.0782,5.7647 -87.4024,37.4801 -261.3039,25.9507 -108.5684,-7.6862 -169.112,152.7547 -235.406,-25.9507 -62.4508,-169.0976 398.737,-102.7893 574.5601,-130.6519 149.882,-24.0196 210.3843,-0.981 288.2077,-78.8043 59.5685,-59.5685 64.4012,-12.4566 104.754,-78.7505 40.3529,-67.255 -74.9698,-129.744 -104.754,-130.705 -70.1371,-1.9225 -139.3192,-1.9225 -209.4563,0 -27.8626,0.9598 -187.3572,34.5989 -209.4552,52.8539 -37.4705,31.7058 -60.5062,81.6961 -104.7022,104.7539 -89.3527,48.0401 -190.2146,72.0356 -287.2536,104.7022 -33.6274,10.5686 -70.1659,16.3419 -104.7541,25.9498 -117.2154,32.6665 -52.8468,59.578 -182.5524,25.9507 -33.6274,-8.6471 -19.2156,-75.9316 0,-104.755 21.1372,-32.6657 66.3228,-41.2781 104.7541,-51.8477 24.9803,-7.6853 51.8572,-5.7647 77.7983,0 19.2157,3.8432 33.638,29.741 52.8536,25.8979 93.1958,-18.2549 162.3856,0.9954 208.5022,-78.7515 26.9019,-44.1957 -17.321,-54.7827 -77.8503,-51.9003 -109.5291,4.804 -68.2116,59.578 -183.5055,25.9502 -33.6273,-9.6078 -25.9411,-81.6958 0,-104.7543 71.0979,-64.3723 217.1713,-120.0741 314.2103,-104.7016 19.2156,3.8434 34.544,35.5599 25.8969,52.8539 -24.0195,46.1176 -111.4161,67.2294 -51.8476,77.7979 132.5879,24.9803 261.3423,-68.1918 392.0086,-104.7016 124.9017,-34.5881 74.893,37.4616 209.4025,-25.9502 62.4508,-29.7841 5.7646,-139.3187 0,-209.4559 -2.8824,-26.9018 -11.5304,-54.739 -26.9029,-77.798 -20.1764,-30.745 -77.7984,-41.3336 -77.7984,-78.8041 0,-16.3332 221.9464,33.6237 209.4563,-182.5523 -7.2059,-110.79 -116.5717,-188.6231 -188.0078,-186.0476 z m -1285.3859,33.1 c -11.3286,-0.217 -22.6975,-0.1356 -34.1068,0.2169 -513.0576,9.6078 -627.3858,97.9601 -542.837,93.1563 -118.1762,113.3723 211.4104,128.7605 252.7241,133.5645 155.6466,15.3725 426.5554,33.6039 593.7315,-10.592 48.9999,-11.5292 300.7324,-49.9322 243.0855,-152.736 -32.6666,-60.5292 -207.5385,-45.1519 -276.7148,-48.0347 -79.0243,0 -156.5825,-14.0069 -235.8825,-15.5698 z m 35.1117,69.3772 102.7951,37.4425 c 36.5097,-0.9598 322.8237,-22.0662 135.4712,23.0905 -119.137,28.8233 -331.4746,64.3516 -446.7684,29.7635 l 107.6143,-29.7635 c -225.7838,-18.255 -339.1512,-28.818 -285.3475,-34.5828 53.8038,-4.8037 343.9609,-24.0286 386.2353,-25.9502 z"
       style="fill:#b7683e;stroke-width:27.11540222" /><g
       transform="matrix(0.96078195,0,0,0.96078195,-2383.0141,-1640.8625)"
       id="_775282522288"><path
         class="fil7 str0"
         d="m 9854,8268 c 183,-128 345,-211 594,-441 290,-267 732,-678 1132,-987 l 384,-296 c 0,0 97,-29 140,37 43,66 -11,215 -11,215 0,0 -431,342 -613,474 -183,132 -688,616 -914,841 -160,160 -428,320 -571,399 z"
         id="path33"
         inkscape:connector-curvature="0"
         style="fill:#373435;stroke:#373435;stroke-width:7.61999989" /><path
         class="fil8 str0"
         d="m 9864,8284 c 190,-135 339,-196 598,-430 282,-254 718,-679 1102,-979 l 375,-293 c 0,0 104,-47 146,16 42,63 -21,210 -21,210 0,0 -429,335 -607,461 -178,125 -660,592 -880,806 -175,171 -480,340 -600,404 z"
         id="path35"
         inkscape:connector-curvature="0"
         style="fill:#84716b;stroke:#373435;stroke-width:7.61999989" /><path
         class="fil7 str0"
         d="m 9438,8527 c -15,-25 -17,-102 28,-133 l 220,-164 c 55,-41 140,-10 160,23 l 173,298 c 31,54 23,95 -3,124 l 396,131 c 36,2 69,18 101,39 -82,141 -147,227 -274,331 -9,7 -39,18 -50,21 -43,8 -238,46 -337,49 l -124,-358 c -27,10 -85,9 -106,-29 z"
         id="path37"
         inkscape:connector-curvature="0"
         style="fill:#000000;stroke:#373435;stroke-width:7.61999989" /><path
         class="fil9"
         d="m 9920,8381 c 118,-81 753,-520 815,-606 68,-94 1101,-976 1143,-1002 41,-26 94,-79 110,-37 15,42 -131,126 -131,126 0,0 -221,184 -331,268 -110,84 -948,839 -1095,949 -132,100 -432,302 -488,340 z"
         id="path39"
         inkscape:connector-curvature="0"
         style="fill:#a98f71" /><path
         class="fil1"
         d="m 9469,8524 c -13,-24 -15,-86 27,-115 l 207,-144 c 53,-38 107,-5 125,26 l 168.9996,276 c 30.0004,49 16.0004,104 -9,131 L 10381,8821 c 33,2 65,12 95,31 -73,126 -163,228 -264,321 -11,10 -18,25 -32,29 -135,33 -224.0004,38 -288.9998,45 L 9747,8873 c -25,10 -80,-1 -99,-36 z"
         id="path41"
         inkscape:connector-curvature="0"
         style="fill:#bdbfc1" /></g><g
       transform="matrix(0.96078195,0,0,0.96078195,-2383.0141,-1640.8625)"
       id="_775282492272"><g
         id="g44"><path
           class="fil10"
           d="m 10614,9334 c 0,0 204,-499 285,-600 82,-102 265,-331 265,-331 -10,-16 -16,-35 -31,-46 -32,-25 -90,-24 -106,-61 -25,-56 22,-127 0,-184 -37,-92 -110,-165 -168,-244 -44,-58 -84,-120 -138,-168 -35,-31 -126,-18 -126,-65 0,-43 84,-18 126,-27 0,0 50,-245 50,-290 0,-46 76,-124 76,-124 -5,-20 -23,-41 -15,-60 10,-19 47,-11 57,-30 38,-71 42,-158 81,-229 48,-89 145,-149 179,-244 25,-73 -16,-154 -11,-230 1,-23 25,-83 30,-61 24,89 28,183 27,275 -1,42 -11,86 -31,123 -32,57 -91,95 -122,152 -39,72 -59,153 -87,229 -21,56 -42,112 -61,168 -28,81 -58,162 -81,245 -9,30 -31,65 -16,92 36,62 90,117 153,152 21,12 46,-44 66,-31 26,18 18,62 26,92 16,61 32,122 46,184 8,40 14,81 19,122 5,30 -10,69 11,92 45,45 124,45 168,91 21,22 19,65 5,92 -38,70 -108,117 -153,183 -67,98 -129,200 -183,305 -54,104 -103,211 -142,321 -23,64 2,151 -46,199 -26,26 -46,-58 -77,-76 -22,-14 -50,-10 -76,-16 z"
           id="path46"
           inkscape:connector-curvature="0"
           style="fill:#a45e4d" /><path
           class="fil11"
           d="m 10724,9295 c 43,-138 99,-273 167,-400 81,-150 185,-286 278,-428 19,-30 69,-54 58,-87 -19,-54 -101,-65 -127,-116 -36,-68 -22,-155 -52,-226 -33,-74 -87,-137 -133,-202 -52,-74 -150,-126 -162,-215 -16,-114 52,-225 86,-336 12,-38 37,-72 52,-110 43,-101 70,-209 122,-306 32,-60 91,-100 127,-157 19,-29 33,-63 35,-98 4,-81 -20,-162 -18,-243 1,-13 22,16 24,29 10,67 16,135 11,202 -3,42 -14,104 -35,140 -32,58 -96,109 -126,168 -50,97 -68,192 -108,293 -16,41 -27,90 -43,131 -25,65 -45,136 -64,202 -10,34 -29,49 -19,82 15,48 83,99 118,134 18,19 37,26 55,15 20,-11 38,-40 56,-16 10,15 -6,36 0,68 13,62 45,134 58,165 15,37 8,98 17,137 10,42 -9,84 16,120 33,47 122,52 159,97 11,13 -18,76 -26,91 -62,109 -132,181 -200,287 -47,74 -102,158 -138,238 -64,139 -102,280 -171,416 -12,23 -25,-51 -17,-75 z"
           id="path48"
           inkscape:connector-curvature="0"
           style="fill:#cb7246" /></g><g
         id="g50"><path
           class="fil7 str0"
           d="m 10971,8246 c -58,-42 -94,-73 -137,-131 -15,-21 -9,-51 -15,-76 -4,-16 -10,-31 -15,-46 -10,-31 -10,-67 -31,-92 -28,-34 -76,-45 -107,-76 -16,-16 -9,-52 -30,-61 -24,-10 -55,30 -77,15 -53,-37 -64,-124 -122,-153 -37,-18 -81,39 -122,31 -47,-9 -76,-63 -122,-77 -30,-8 -61,18 -92,16 -52,-4 -103,-47 -153,-31 -30,10 -3,75 -30,92 -27,16 -62,-24 -92,-15 -15,4 0,39 -15,45 -53,22 -153,-24 -168,31 -16,59 88,86 122,137 8,13 -10,35 0,46 24,28 78,27 92,61 12,30 -45,63 -31,92 23,46 80,63 122,92 19,12 49,11 61,30 12,17 -17,50 0,61 39,26 96,9 138,31 38,20 50,79 92,92 35,11 69,-34 106,-31 36,3 62,39 97,46 38,8 80,-12 117,0 31,10 44,61 77,61 29,0 40,-41 61,-61 25,-26 43,-64 76,-76 38,-15 82,-3 122,0 44,2 88,22 131,13 16,-3 28,-32 18,-44 -13,-14 -58,-10 -73,-22 z"
           id="path52"
           inkscape:connector-curvature="0"
           style="fill:#000000;stroke:#373435;stroke-width:7.61999989" /><path
           class="fil12"
           d="m 9687,7730 c 104,57 291,93 401,134 55,21 107,37 162,61 32,14 67,49 101,39 17,-6 2,-20 -6,-35 -18,-34 -64,-83 -87,-116 -27,-41 -69,-84 -87,-130 -6,-17 -2,-36 3,-52 3,-9 12,-18 3,-24 -26,-18 -58,33 -89,31 -44,-3 -83,-60 -125,-46 -31,11 5,78 -23,95 -29,18 -66,-25 -100,-20 -15,3 -7,35 -21,40 -41,17 -172,2 -132,23 z"
           id="path54"
           inkscape:connector-curvature="0"
           style="fill:#00a859" /><path
           class="fil12"
           d="m 10404,7988 c -32,-25 -42,-73 -64,-107 -44,-70 -104,-112 -142,-185 -11,-21 -17,-86 6,-87 38,-3 56,56 93,63 39,8 90,-48 117,-19 10,10 -8,24 -8,38 -2,32 0,71 7,103 11,57 33,113 63,162 27,43 151,89 105,110 -22,10 -45,-3 -69,-13 -38,-16 -77,-40 -108,-65 z"
           id="path56"
           inkscape:connector-curvature="0"
           style="fill:#00a859" /><path
           class="fil12"
           d="m 10442,7650 c -16,0 -14,30 -16,46 -3,33 -1,70 14,101 22,48 30,103 59,147 20,32 68,47 92,77 15,18 11,51 31,63 41,26 94,30 134,58 34,23 74,54 134,63 38,6 -68,-44 -87,-78 -13,-25 5,-58 -1,-86 -9,-40 -22,-79 -42,-115 -8,-15 -25,-25 -41,-34 -17,-9 -41,-4 -55,-18 -20,-19 -17,-59 -41,-73 -24,-15 -61,15 -83,-2 -47,-37 -39,-148 -98,-149 z"
           id="path58"
           inkscape:connector-curvature="0"
           style="fill:#00a859" /><path
           class="fil12"
           d="m 9749,7791 c 37,1 73,16 107,28 57,19 112,40 169,62 91,35 171,40 253,91 39,25 -75,6 -118,23 -42,16 -71,55 -102,87 -15,15 -16,45 -35,52 -25,9 -54,0 -76,-13 -34,-19 -72,-43 -85,-80 -10,-28 33,-58 25,-87 -8,-26 -48,-29 -65,-50 -8,-11 -1,-29 -8,-40 -18,-28 -97,-75 -65,-73 z"
           id="path60"
           inkscape:connector-curvature="0"
           style="fill:#00a859" /><path
           class="fil12"
           d="m 10033,8212 c -23,-27 15,-74 38,-103 26,-35 63,-65 104,-80 57,-21 121,-36 181,-26 47,8 75,37 120,59 25,13 74,26 99,37 69,31 104,31 184,75 47,26 -92,17 -144,31 -41,11 -57,16 -90,43 -26,23 -54,87 -87,98 -35,12 -59,-30 -95,-36 -28,-5 -57,14 -85,8 -22,-4 -41,-21 -57,-37 -14,-15 -11,-47 -31,-55 -42,-18 -107,21 -137,-14 z"
           id="path62"
           inkscape:connector-curvature="0"
           style="fill:#00a859" /><path
           class="fil12"
           d="m 10827,8212 c 47,6 85,41 129,58 19,7 52,-5 59,14 5,16 -35,7 -52,6 -67,-2 -138,-35 -201,-13 -57,20 -69,110 -125,129 -31,10 -42,-54 -72,-64 -29,-9 -63,32 -78,6 -15,-26 24,-66 47,-84 33,-25 72,-31 111,-40 62,-15 120,-20 182,-12 z"
           id="path64"
           inkscape:connector-curvature="0"
           style="fill:#00a859" /></g><g
         id="g66"><path
           class="fil7 str0"
           d="m 10613,7562 c -2,-57 1,-95 24,-153 9,-21 40,-35 59,-53 11,-11 20,-23 31,-35 20,-24 53,-45 61,-71 12,-35 -11,-69 -4,-104 3,-19 40,-36 34,-53 -7,-19 -65,-14 -67,-34 -3,-52 68,-108 54,-158 -9,-32 -90,-23 -112,-51 -24,-32 5,-80 -15,-113 -13,-22 -58,-25 -77,-43 -33,-31 -29,-86 -78,-104 -30,-11 -70,42 -104,36 -33,-5 -21,-49 -49,-60 -15,-7 -36,22 -52,18 -56,-17 -84,-101 -143,-77 -65,25 -18,100 -40,148 -6,13 -38,15 -42,27 -8,30 30,60 8,87 -18,24 -87,11 -103,36 -26,39 -3,82 1,122 2,18 23,34 15,53 -8,16 -57,19 -56,35 4,37 59,59 68,95 8,34 -37,75 -20,105 15,27 78,20 101,43 22,21 8,57 26,81 18,26 65,38 80,66 13,23 -25,60 -2,79 20,16 65,-1 97,-2 41,0 87,-12 122,-1 39,13 58,45 84,69 28,26 41,62 78,82 14,6 48,-3 52,-16 4,-15 -31,-39 -31,-54 z"
           id="path68"
           inkscape:connector-curvature="0"
           style="fill:#000000;stroke:#373435;stroke-width:7.61999989" /><path
           class="fil12"
           d="m 10194,6538 c 20,93 117,219 156,305 19,43 40,81 56,126 10,27 3,66 35,79 17,7 19,-9 27,-23 18,-30 30,-84 45,-116 18,-39 28,-88 57,-124 11,-14 31,-23 49,-29 11,-4 25,-4 24,-13 -1,-25 -69,-13 -89,-32 -28,-27 -3,-81 -45,-97 -31,-11 -67,48 -102,42 -36,-6 -23,-52 -51,-67 -12,-7 -35,15 -50,11 -44,-14 -120,-96 -112,-62 z"
           id="path70"
           inkscape:connector-curvature="0"
           style="fill:#00a859" /><path
           class="fil12"
           d="m 10455,7093 c 1,-33 38,-67 53,-99 33,-65 30,-123 69,-188 11,-18 66,-58 83,-46 28,19 -12,64 7,89 19,26 106,22 98,55 -2,11 -27,9 -40,17 -31,18 -64,42 -88,64 -44,39 -79,84 -103,130 -20,40 24,137 -27,123 -24,-7 -28,-28 -36,-46 -12,-32 -17,-67 -16,-99 z"
           id="path72"
           inkscape:connector-curvature="0"
           style="fill:#00a859" /><path
           class="fil12"
           d="m 10787,6918 c -11,-9 -37,9 -52,17 -33,18 -65,40 -83,67 -28,40 -71,77 -92,119 -14,30 5,66 -5,96 -6,19 -39,36 -36,54 5,39 38,70 41,110 2,32 1,73 35,112 21,24 -8,-64 10,-94 14,-23 55,-32 77,-51 30,-28 56,-58 75,-90 8,-14 5,-30 2,-43 -3,-15 -24,-26 -22,-42 4,-23 42,-44 39,-66 -3,-21 -57,-25 -56,-48 1,-47 107,-107 67,-141 z"
           id="path74"
           inkscape:connector-curvature="0"
           style="fill:#00a859" /><path
           class="fil12"
           d="m 10182,6609 c 25,22 35,50 49,76 22,43 41,87 60,132 31,71 82,120 92,195 5,37 -57,-39 -102,-53 -43,-14 -98,-8 -149,-7 -23,1 -51,18 -71,10 -24,-8 -37,-30 -41,-50 -6,-30 -10,-66 14,-94 18,-23 75,-15 96,-37 19,-19 -7,-43 1,-65 3,-11 25,-17 30,-28 13,-26 0,-98 21,-79 z"
           id="path76"
           inkscape:connector-curvature="0"
           style="fill:#00a859" /><path
           class="fil12"
           d="m 9998,7014 c 8,-29 77,-35 118,-39 50,-5 103,-2 145,12 58,20 116,48 148,88 25,30 19,63 29,101 6,22 28,57 35,77 20,58 44,77 59,148 9,41 -78,-42 -127,-63 -38,-17 -54,-23 -101,-26 -39,-2 -115,20 -148,8 -34,-13 -14,-51 -33,-75 -15,-18 -52,-24 -66,-43 -11,-15 -10,-35 -6,-53 4,-18 35,-34 29,-50 -14,-34 -93,-48 -82,-85 z"
           id="path78"
           inkscape:connector-curvature="0"
           style="fill:#00a859" /><path
           class="fil12"
           d="m 10546,7461 c 26,30 21,72 36,107 6,15 40,26 28,41 -11,12 -30,-16 -42,-26 -45,-39 -63,-98 -127,-121 -57,-20 -146,26 -202,4 -30,-11 19,-54 7,-77 -11,-22 -71,-17 -58,-41 12,-23 76,-25 109,-22 44,4 76,23 112,40 56,26 101,55 137,95 z"
           id="path80"
           inkscape:connector-curvature="0"
           style="fill:#00a859" /></g><g
         id="g82"><path
           class="fil7 str0"
           d="m 11050,7753 c 36,-35 62,-56 113,-75 18,-7 46,5 68,6 14,1 28,-1 41,-1 28,-1 60,8 82,-2 30,-14 38,-49 64,-65 14,-9 47,4 54,-10 9,-16 -29,-50 -17,-63 31,-33 109,-20 133,-59 15,-25 -39,-72 -33,-102 5,-34 53,-44 63,-77 7,-21 -18,-51 -18,-75 1,-39 38,-69 21,-111 -11,-26 -68,-20 -85,-45 -16,-25 19,-43 10,-68 -5,-13 -36,-10 -43,-23 -22,-46 15,-113 -35,-137 -55,-27 -75,48 -120,62 -11,4 -31,-15 -41,-10 -24,12 -21,54 -51,56 -27,3 -59,-49 -85,-45 -40,7 -54,47 -77,74 -11,11 -9,34 -25,40 -15,5 -46,-25 -56,-15 -22,25 -3,73 -21,100 -17,25 -69,21 -79,50 -8,25 34,62 33,90 -1,27 -32,39 -38,64 -5,28 15,65 6,91 -7,22 -53,20 -52,45 2,23 39,41 59,62 24,26 59,48 72,77 15,33 6,64 6,95 0,34 -16,63 -6,99 4,12 30,29 41,23 12,-6 7,-42 16,-51 z"
           id="path84"
           inkscape:connector-curvature="0"
           style="fill:#000000;stroke:#373435;stroke-width:7.61999989" /><path
           class="fil12"
           d="m 11458,6877 c -46,68 -70,205 -102,280 -17,38 -29,75 -48,111 -11,23 -41,41 -30,70 5,15 17,6 31,4 30,-6 72,-31 101,-41 36,-11 73,-33 114,-36 15,-2 32,6 47,14 9,5 17,13 22,8 16,-16 -32,-53 -32,-77 1,-33 50,-50 36,-86 -11,-26 -71,-14 -88,-40 -17,-27 20,-46 14,-73 -3,-12 -32,-13 -37,-25 -18,-37 -10,-135 -28,-109 z"
           id="path86"
           inkscape:connector-curvature="0"
           style="fill:#00a859" /><path
           class="fil12"
           d="m 11258,7373 c 21,-18 65,-15 94,-24 62,-18 97,-54 162,-67 18,-4 77,7 79,26 4,29 -48,30 -53,57 -6,28 48,81 23,95 -9,6 -22,-12 -35,-16 -30,-8 -65,-16 -93,-18 -51,-5 -101,-1 -145,11 -37,11 -74,97 -94,56 -10,-20 0,-35 8,-51 13,-26 32,-50 54,-69 z"
           id="path88"
           inkscape:connector-curvature="0"
           style="fill:#00a859" /><path
           class="fil12"
           d="m 11567,7482 c -1,-12 -28,-18 -43,-23 -30,-10 -63,-17 -91,-13 -43,6 -92,0 -131,11 -28,9 -39,43 -65,54 -16,7 -46,-4 -56,9 -22,26 -23,66 -46,91 -19,21 -46,44 -51,89 -3,28 36,-43 66,-49 23,-5 53,17 78,19 36,3 71,2 103,-5 14,-3 22,-14 29,-24 7,-11 2,-31 14,-39 16,-11 52,1 64,-14 12,-15 -16,-52 -2,-65 31,-27 133,5 131,-41 z"
           id="path90"
           inkscape:connector-curvature="0"
           style="fill:#00a859" /><path
           class="fil12"
           d="m 11407,6912 c 0,28 -12,52 -21,76 -14,40 -31,77 -48,117 -28,62 -29,123 -71,174 -21,25 -9,-59 -27,-97 -17,-36 -53,-67 -83,-99 -15,-15 -42,-23 -49,-40 -9,-21 -3,-42 8,-56 16,-22 36,-46 68,-47 26,-1 55,40 81,40 23,0 24,-30 42,-38 10,-5 26,6 36,3 24,-8 63,-58 64,-33 z"
           id="path92"
           inkscape:connector-curvature="0"
           style="fill:#00a859" /><path
           class="fil12"
           d="m 11037,7033 c 24,-12 68,29 96,53 32,29 61,64 77,100 22,49 38,102 32,147 -5,34 -30,49 -48,79 -10,16 -20,52 -29,68 -25,47 -23,74 -59,125 -22,31 -20,-75 -35,-119 -12,-34 -17,-48 -44,-79 -22,-27 -81,-63 -93,-91 -11,-30 25,-39 29,-65 3,-21 -16,-48 -12,-68 3,-17 17,-28 32,-36 13,-8 42,3 48,-11 14,-29 -24,-88 6,-103 z"
           id="path94"
           inkscape:connector-curvature="0"
           style="fill:#00a859" /><path
           class="fil12"
           d="m 11075,7650 c -4,35 -34,56 -47,86 -6,13 7,42 -10,42 -14,1 -8,-28 -8,-41 -2,-52 26,-99 2,-154 -20,-48 -103,-79 -122,-127 -11,-26 46,-20 54,-41 7,-20 -32,-56 -9,-62 23,-5 62,34 79,57 24,31 31,63 41,95 16,52 24,98 20,145 z"
           id="path96"
           inkscape:connector-curvature="0"
           style="fill:#00a859" /></g><g
         id="g98"><path
           class="fil7 str0"
           d="m 11321,8277 c 66,-32 107,-56 161,-106 19,-18 18,-50 29,-74 7,-14 16,-28 24,-42 16,-29 23,-65 48,-86 34,-29 84,-31 121,-57 19,-13 19,-50 42,-55 26,-6 49,40 73,30 61,-27 87,-112 151,-130 41,-12 74,53 116,53 49,0 88,-48 137,-53 31,-3 57,29 88,33 53,6 113,-28 159,-2 28,16 -11,75 13,97 23,21 66,-12 94,2 15,7 -7,40 7,48 48,32 158,5 162,62 5,63 -104,70 -148,115 -10,11 4,36 -8,46 -29,23 -83,12 -103,44 -18,27 33,71 13,97 -31,41 -92,48 -139,68 -21,10 -51,3 -67,20 -14,14 8,52 -11,61 -44,18 -98,-10 -143,4 -42,13 -66,70 -109,75 -38,4 -64,-47 -101,-51 -36,-4 -69,27 -105,28 -40,1 -78,-27 -117,-22 -33,4 -56,53 -88,47 -29,-6 -33,-49 -50,-73 -20,-30 -31,-71 -62,-91 -35,-21 -81,-17 -122,-22 -44,-6 -92,5 -133,-12 -15,-6 -22,-37 -9,-46 15,-12 60,0 77,-8 z"
           id="path100"
           inkscape:connector-curvature="0"
           style="fill:#000000;stroke:#373435;stroke-width:7.61999989" /><path
           class="fil12"
           d="m 12700,8002 c -115,37 -309,37 -426,58 -59,11 -114,17 -173,30 -35,8 -76,36 -108,20 -16,-9 1,-19 12,-33 24,-31 80,-71 109,-100 35,-35 84,-71 111,-113 10,-16 8,-36 6,-53 -1,-10 -8,-20 2,-24 29,-14 52,43 84,47 44,5 93,-44 133,-22 28,16 -20,77 5,99 26,23 71,-13 103,-1 15,5 1,35 14,44 38,24 172,34 128,48 z"
           id="path102"
           inkscape:connector-curvature="0"
           style="fill:#00a859" /><path
           class="fil12"
           d="m 11936,8125 c 36,-19 55,-66 83,-96 58,-61 125,-92 177,-158 15,-18 32,-82 10,-88 -37,-9 -67,46 -105,46 -40,1 -80,-65 -113,-41 -12,8 3,25 1,40 -4,32 -14,71 -26,101 -22,55 -54,107 -94,150 -35,38 -168,61 -125,90 20,14 46,5 71,0 42,-8 84,-25 121,-44 z"
           id="path104"
           inkscape:connector-curvature="0"
           style="fill:#00a859" /><path
           class="fil12"
           d="m 11961,7780 c 16,3 8,32 7,49 -3,33 -12,70 -33,98 -31,44 -50,97 -86,136 -27,28 -78,34 -107,59 -18,15 -20,49 -42,58 -47,18 -100,12 -146,32 -38,17 -83,41 -145,38 -39,-1 76,-31 101,-61 19,-23 7,-59 18,-86 16,-38 36,-75 63,-107 11,-14 30,-21 47,-26 19,-6 43,3 59,-8 24,-15 28,-56 54,-66 27,-10 59,27 84,14 54,-28 66,-140 126,-130 z"
           id="path106"
           inkscape:connector-curvature="0"
           style="fill:#00a859" /><path
           class="fil12"
           d="m 12626,8050 c -37,-5 -75,3 -111,8 -61,8 -120,19 -181,30 -98,18 -179,8 -270,44 -44,17 74,20 114,45 38,24 60,69 85,106 12,18 7,48 26,59 22,13 53,10 78,1 37,-13 80,-30 100,-64 15,-26 -23,-64 -9,-92 12,-25 53,-20 74,-38 11,-9 6,-28 16,-38 23,-24 111,-56 78,-61 z"
           id="path108"
           inkscape:connector-curvature="0"
           style="fill:#00a859" /><path
           class="fil12"
           d="m 12263,8418 c 29,-23 -1,-77 -18,-110 -20,-40 -50,-77 -88,-100 -54,-32 -115,-58 -177,-59 -48,-1 -82,22 -130,36 -28,8 -80,12 -106,18 -75,18 -110,12 -198,41 -52,17 88,34 138,58 39,18 54,26 81,60 23,28 38,97 69,114 33,18 65,-19 102,-18 28,0 54,24 83,24 23,-1 45,-13 64,-27 17,-12 20,-45 41,-49 46,-10 103,41 139,12 z"
           id="path110"
           inkscape:connector-curvature="0"
           style="fill:#00a859" /><path
           class="fil12"
           d="m 11470,8269 c -48,-3 -92,25 -139,34 -20,3 -51,-15 -61,2 -9,16 33,14 50,17 68,10 145,-10 204,24 52,31 47,123 101,152 28,16 51,-45 83,-50 31,-4 57,43 77,20 20,-22 -12,-70 -32,-93 -27,-30 -65,-43 -103,-60 -59,-26 -115,-43 -180,-46 z"
           id="path112"
           inkscape:connector-curvature="0"
           style="fill:#00a859" /></g><g
         id="g114"><path
           class="fil7 str0"
           d="m 11069,8797 c 29,7 47,14 73,33 9,7 12,24 18,36 4,7 9,13 14,20 8,13 15,32 26,40 16,10 36,3 53,11 8,4 12,25 21,24 11,-1 16,-30 26,-28 26,5 44,48 71,47 17,0 23,-41 40,-48 19,-8 39,13 58,7 13,-3 20,-25 32,-32 19,-12 46,-3 61,-25 10,-13 -11,-40 -4,-56 7,-15 27,-4 37,-16 5,-7 -7,-21 -2,-28 16,-26 61,-28 57,-61 -4,-35 -47,-22 -68,-40 -5,-4 -2,-20 -8,-24 -13,-8 -33,7 -44,-7 -9,-13 6,-45 -4,-56 -16,-18 -40,-12 -61,-16 -9,-1 -20,7 -27,0 -7,-6 -2,-30 -11,-32 -18,-3 -37,21 -56,21 -17,-1 -32,-28 -49,-24 -15,4 -20,36 -35,45 -13,8 -29,-4 -43,1 -16,6 -28,28 -44,31 -13,4 -26,-20 -38,-11 -11,7 -8,32 -12,48 -6,20 -6,45 -16,60 -12,18 -30,23 -45,33 -17,10 -37,12 -51,28 -5,5 -5,24 1,27 7,4 23,-10 30,-8 z"
           id="path116"
           inkscape:connector-curvature="0"
           style="fill:#000000;stroke:#373435;stroke-width:7.61999989" /><path
           class="fil12"
           d="m 11632,8726 c -49,-2 -124,29 -172,37 -23,4 -45,9 -70,11 -14,1 -33,-8 -43,7 -6,7 2,10 7,16 13,13 38,26 52,38 17,14 40,26 54,45 5,7 7,18 7,28 1,6 -1,12 3,13 13,3 16,-32 28,-39 17,-11 41,9 54,-10 10,-13 -15,-39 -7,-56 8,-17 29,-4 40,-16 5,-5 -3,-20 1,-26 13,-20 64,-47 46,-48 z"
           id="path118"
           inkscape:connector-curvature="0"
           style="fill:#00a859" /><path
           class="fil12"
           d="m 11323,8782 c 16,4 28,27 41,39 28,25 57,31 84,59 8,8 20,41 12,48 -13,11 -30,-15 -45,-9 -16,6 -25,49 -40,41 -6,-2 -1,-14 -3,-22 -5,-17 -12,-37 -20,-52 -14,-27 -31,-50 -51,-68 -17,-16 -71,-7 -57,-30 7,-11 17,-10 28,-11 17,-2 35,0 51,5 z"
           id="path120"
           inkscape:connector-curvature="0"
           style="fill:#00a859" /><path
           class="fil12"
           d="m 11365,8969 c 6,-4 0,-19 -2,-28 -4,-18 -11,-37 -22,-50 -16,-19 -28,-45 -46,-61 -13,-11 -33,-6 -47,-15 -9,-6 -13,-25 -22,-26 -20,-2 -40,10 -60,6 -16,-3 -36,-9 -60,2 -15,8 33,5 45,18 10,10 8,32 15,45 10,18 22,36 35,49 6,6 14,7 21,7 8,0 16,-9 23,-5 11,4 16,26 28,27 11,2 20,-24 31,-21 23,7 39,67 61,52 z"
           id="path122"
           inkscape:connector-curvature="0"
           style="fill:#00a859" /><path
           class="fil12"
           d="m 11598,8711 c -14,9 -29,11 -44,14 -24,5 -48,9 -73,12 -40,6 -70,25 -109,20 -18,-3 27,-23 40,-44 13,-19 17,-47 23,-72 3,-12 -1,-28 5,-37 7,-11 20,-14 30,-14 16,2 34,4 45,20 8,12 -3,39 5,52 7,12 23,3 33,10 4,3 5,14 9,18 11,10 49,13 36,21 z"
           id="path124"
           inkscape:connector-curvature="0"
           style="fill:#00a859" /><path
           class="fil12"
           d="m 11423,8566 c 13,8 7,43 3,64 -4,25 -12,51 -25,70 -18,26 -39,51 -63,61 -19,9 -34,1 -54,1 -12,0 -32,6 -43,7 -31,2 -44,12 -81,10 -22,-1 31,-34 48,-55 14,-16 19,-23 26,-46 6,-19 6,-60 16,-75 11,-15 27,0 41,-6 12,-5 19,-23 31,-27 9,-3 18,0 27,4 8,5 12,22 21,21 18,-2 36,-40 53,-29 z"
           id="path126"
           inkscape:connector-curvature="0"
           style="fill:#00a859" /><path
           class="fil12"
           d="m 11128,8777 c -18,10 -38,1 -57,4 -8,1 -19,17 -24,8 -5,-7 11,-12 18,-17 25,-17 57,-18 77,-46 17,-26 7,-76 25,-101 9,-14 24,17 37,14 12,-3 18,-33 28,-24 10,10 2,41 -4,57 -8,22 -21,35 -34,50 -20,25 -41,43 -66,55 z"
           id="path128"
           inkscape:connector-curvature="0"
           style="fill:#00a859" /></g><g
         id="g130"><path
           class="fil7 str0"
           d="m 11117,6328 c -21,-36 -37,-59 -70,-88 -12,-11 -32,-10 -47,-15 -10,-4 -19,-9 -28,-13 -18,-8 -41,-11 -55,-25 -19,-19 -22,-47 -39,-67 -9,-11 -32,-10 -36,-23 -4,-14 24,-28 17,-42 -19,-33 -72,-47 -86,-82 -8,-23 32,-43 31,-67 -1,-28 -33,-49 -37,-76 -2,-18 17,-33 18,-51 3,-30 -20,-63 -5,-89 10,-17 48,4 61,-10 13,-14 -9,-37 -1,-54 4,-8 25,4 31,-4 18,-28 -1,-90 35,-93 39,-5 46,57 76,81 7,5 22,-3 29,3 15,16 10,47 30,58 18,9 44,-21 61,-10 27,17 33,51 47,77 6,12 3,29 13,37 10,8 34,-5 39,6 13,24 -3,55 7,80 9,24 45,36 49,60 4,21 -27,37 -29,58 -2,21 19,39 20,59 2,23 -15,45 -11,67 4,18 35,30 32,49 -3,16 -30,19 -45,29 -18,13 -44,19 -55,37 -13,21 -9,46 -12,70 -2,25 6,52 -3,75 -4,9 -23,14 -30,7 -7,-9 -1,-34 -7,-44 z"
           id="path132"
           inkscape:connector-curvature="0"
           style="fill:#000000;stroke:#373435;stroke-width:7.61999989" /><path
           class="fil12"
           d="m 10909,5555 c 27,64 32,173 48,239 8,33 14,64 24,97 5,20 24,43 15,61 -5,9 -13,0 -22,-6 -20,-13 -46,-44 -65,-59 -24,-19 -47,-47 -75,-61 -10,-5 -22,-4 -33,-2 -6,1 -12,5 -15,-1 -10,-16 26,-30 27,-48 2,-25 -30,-52 -17,-75 10,-16 49,10 63,-5 13,-15 -10,-40 -4,-58 3,-9 23,-1 27,-9 15,-22 18,-98 27,-73 z"
           id="path134"
           inkscape:connector-curvature="0"
           style="fill:#00a859" /><path
           class="fil12"
           d="m 11006,5984 c -13,-20 -43,-30 -62,-45 -40,-31 -61,-68 -104,-97 -12,-8 -53,-16 -56,-3 -5,21 30,36 32,58 1,23 -39,47 -24,65 6,7 16,-3 26,-2 20,2 45,7 64,13 35,11 69,28 97,50 25,18 43,93 60,69 8,-12 2,-27 -2,-41 -6,-23 -18,-47 -31,-67 z"
           id="path136"
           inkscape:connector-curvature="0"
           style="fill:#00a859" /><path
           class="fil12"
           d="m 10788,5977 c 1,-9 20,-5 31,-5 21,1 44,6 63,16 28,17 62,27 88,47 18,14 23,42 39,58 11,10 32,11 38,23 12,26 10,56 24,82 11,21 28,46 27,81 0,22 -21,-43 -41,-56 -15,-10 -37,-2 -54,-8 -25,-8 -49,-19 -69,-33 -9,-6 -14,-17 -18,-27 -4,-10 1,-23 -6,-33 -11,-13 -36,-14 -43,-29 -7,-14 15,-33 6,-47 -19,-30 -90,-35 -85,-69 z"
           id="path138"
           inkscape:connector-curvature="0"
           style="fill:#00a859" /><path
           class="fil12"
           d="m 10942,5595 c -3,22 4,43 8,63 6,34 15,67 23,102 14,55 10,101 35,151 12,24 10,-42 25,-65 15,-22 42,-36 65,-51 11,-7 30,-5 36,-15 8,-14 6,-31 -1,-45 -9,-21 -20,-44 -43,-55 -17,-8 -40,14 -57,7 -16,-6 -14,-29 -26,-41 -6,-5 -18,-3 -25,-8 -15,-12 -38,-61 -40,-43 z"
           id="path140"
           inkscape:connector-curvature="0"
           style="fill:#00a859" /><path
           class="fil12"
           d="m 11183,5792 c -15,-16 -48,2 -69,13 -24,12 -47,30 -61,52 -18,31 -34,66 -33,101 1,28 16,46 26,73 6,16 10,45 15,60 13,42 9,61 30,111 12,29 20,-51 33,-80 11,-22 16,-31 36,-47 17,-13 60,-23 70,-42 11,-18 -13,-36 -14,-56 0,-17 14,-32 13,-48 0,-13 -9,-25 -18,-36 -8,-9 -29,-10 -32,-22 -7,-25 23,-59 4,-79 z"
           id="path142"
           inkscape:connector-curvature="0"
           style="fill:#00a859" /><path
           class="fil12"
           d="m 11109,6244 c -1,27 18,52 25,78 2,11 -9,29 3,34 10,5 7,-19 9,-28 5,-39 -10,-82 10,-116 18,-30 76,-30 94,-61 9,-16 -30,-28 -34,-46 -3,-17 26,-33 11,-44 -15,-10 -45,9 -58,20 -19,17 -26,39 -36,60 -15,34 -24,66 -24,103 z"
           id="path144"
           inkscape:connector-curvature="0"
           style="fill:#00a859" /></g><g
         id="g146"><path
           class="fil7 str0"
           d="m 11139,6762 c 36,-41 57,-70 78,-122 8,-18 -2,-42 -1,-63 0,-13 2,-25 4,-38 2,-26 -4,-55 7,-77 15,-31 48,-46 66,-74 9,-15 -2,-43 12,-53 16,-11 45,17 58,3 33,-36 26,-107 64,-137 24,-20 65,21 93,9 33,-12 45,-59 77,-76 20,-10 47,7 69,2 37,-9 67,-51 106,-43 23,4 14,59 36,69 22,10 41,-26 64,-23 12,1 7,32 19,35 41,11 107,-38 127,4 21,45 -51,80 -67,125 -4,11 13,26 7,36 -13,26 -52,31 -56,60 -4,26 42,45 36,70 -9,39 -47,61 -73,88 -12,13 -34,15 -40,32 -5,15 20,38 10,49 -24,26 -68,19 -95,41 -24,21 -24,70 -52,85 -24,13 -56,-18 -82,-12 -26,7 -39,39 -63,49 -26,11 -60,0 -85,14 -21,12 -22,54 -45,58 -21,4 -37,-28 -55,-41 -22,-18 -41,-46 -67,-52 -30,-7 -60,8 -89,15 -31,7 -60,28 -92,26 -12,0 -26,-22 -20,-33 7,-12 40,-15 49,-26 z"
           id="path148"
           inkscape:connector-curvature="0"
           style="fill:#000000;stroke:#373435;stroke-width:7.61999989" /><path
           class="fil12"
           d="m 11988,6193 c -67,58 -197,109 -270,156 -36,23 -72,43 -107,68 -22,15 -41,47 -67,43 -14,-2 -5,-15 -2,-28 8,-29 33,-74 45,-103 13,-36 36,-76 42,-115 2,-14 -5,-29 -11,-41 -4,-7 -11,-13 -6,-19 16,-18 47,19 70,13 31,-7 50,-57 83,-51 24,5 9,63 32,73 24,11 44,-28 69,-28 11,0 11,27 22,30 33,8 125,-20 100,2 z"
           id="path150"
           inkscape:connector-curvature="0"
           style="fill:#00a859" /><path
           class="fil12"
           d="m 11509,6487 c 19,-24 18,-65 29,-94 21,-62 57,-102 74,-166 4,-18 -2,-70 -19,-69 -28,3 -32,52 -57,63 -27,11 -73,-28 -88,-2 -6,10 9,18 12,30 7,25 11,57 11,83 1,47 -5,94 -20,138 -12,37 -95,89 -58,100 17,5 32,-8 48,-18 25,-18 49,-41 68,-65 z"
           id="path152"
           inkscape:connector-curvature="0"
           style="fill:#00a859" /><path
           class="fil12"
           d="m 11427,6220 c 12,-2 15,22 19,35 8,26 12,56 6,83 -8,41 -5,86 -19,125 -10,28 -42,46 -55,72 -8,17 1,43 -12,55 -26,26 -63,35 -88,62 -21,23 -45,53 -87,67 -27,9 43,-43 51,-73 5,-22 -13,-46 -13,-69 0,-33 3,-66 11,-97 4,-13 15,-23 25,-32 11,-9 29,-9 37,-21 12,-18 3,-50 18,-64 15,-15 47,5 60,-12 28,-35 4,-123 47,-131 z"
           id="path154"
           inkscape:connector-curvature="0"
           style="fill:#00a859" /><path
           class="fil12"
           d="m 11952,6249 c -27,6 -50,22 -73,35 -38,22 -75,46 -113,71 -60,39 -117,52 -168,103 -25,25 55,-4 89,4 33,8 60,36 88,57 13,11 18,35 34,38 19,4 39,-6 53,-19 21,-20 45,-44 49,-75 2,-24 -34,-42 -33,-67 1,-22 30,-29 39,-48 5,-9 -4,-23 0,-33 8,-24 58,-71 35,-66 z"
           id="path156"
           inkscape:connector-curvature="0"
           style="fill:#00a859" /><path
           class="fil12"
           d="m 11813,6621 c 13,-25 -22,-58 -43,-78 -25,-25 -56,-45 -88,-52 -45,-10 -94,-14 -136,2 -33,12 -49,38 -77,61 -17,14 -50,30 -66,42 -46,33 -71,37 -122,82 -30,27 69,3 110,8 31,3 44,5 71,24 24,15 54,63 80,67 26,5 37,-31 62,-40 20,-7 44,4 63,-4 16,-6 27,-22 36,-37 8,-14 0,-39 13,-48 28,-19 81,5 97,-27 z"
           id="path158"
           inkscape:connector-curvature="0"
           style="fill:#00a859" /><path
           class="fil12"
           d="m 11238,6717 c -33,10 -55,43 -85,62 -12,8 -38,2 -40,18 -1,14 26,2 39,-1 48,-9 94,-45 144,-35 44,9 67,80 111,88 24,4 22,-48 42,-59 19,-11 50,17 57,-6 7,-22 -28,-50 -48,-61 -27,-16 -56,-16 -86,-19 -47,-4 -90,-1 -134,13 z"
           id="path160"
           inkscape:connector-curvature="0"
           style="fill:#00a859" /></g><ellipse
         class="fil7"
         cx="11153"
         cy="6410"
         rx="123"
         ry="129"
         id="ellipse162"
         style="fill:#373435" /><ellipse
         class="fil13"
         cx="11153"
         cy="6410"
         rx="107"
         ry="112"
         id="ellipse164"
         style="fill:#ed3237" /><ellipse
         class="fil14"
         cx="11168"
         cy="6370"
         rx="46"
         ry="48"
         id="ellipse166"
         style="fill:#f6997e" /><ellipse
         class="fil7"
         cx="10939"
         cy="6783"
         rx="123"
         ry="129"
         id="ellipse168"
         style="fill:#373435" /><ellipse
         class="fil13"
         cx="10939"
         cy="6783"
         rx="107"
         ry="112"
         id="ellipse170"
         style="fill:#ed3237" /><ellipse
         class="fil14"
         cx="10955"
         cy="6744"
         rx="46"
         ry="48"
         id="ellipse172"
         style="fill:#f6997e" /><ellipse
         class="fil7"
         cx="11138"
         cy="6752"
         rx="123"
         ry="129"
         id="ellipse174"
         style="fill:#373435" /><ellipse
         class="fil13"
         cx="11138"
         cy="6752"
         rx="107"
         ry="112"
         id="ellipse176"
         style="fill:#ed3237" /><ellipse
         class="fil14"
         cx="11153"
         cy="6713"
         rx="46"
         ry="48"
         id="ellipse178"
         style="fill:#f6997e" /><ellipse
         class="fil7"
         cx="10918"
         cy="7663"
         rx="123"
         ry="129"
         id="ellipse180"
         style="fill:#373435" /><ellipse
         class="fil13"
         cx="10918"
         cy="7663"
         rx="107"
         ry="112"
         id="ellipse182"
         style="fill:#ed3237" /><ellipse
         class="fil14"
         cx="10933"
         cy="7624"
         rx="46"
         ry="48"
         id="ellipse184"
         style="fill:#f6997e" /><ellipse
         class="fil7"
         cx="11072"
         cy="7562"
         rx="123"
         ry="129"
         id="ellipse186"
         style="fill:#373435" /><ellipse
         class="fil13"
         cx="11072"
         cy="7562"
         rx="107"
         ry="112"
         id="ellipse188"
         style="fill:#ed3237" /><ellipse
         class="fil14"
         cx="11088"
         cy="7523"
         rx="46"
         ry="48"
         id="ellipse190"
         style="fill:#f6997e" /><g
         id="g192"><ellipse
           class="fil7"
           cx="11079"
           cy="7750"
           rx="123"
           ry="129"
           id="ellipse194"
           style="fill:#373435" /><ellipse
           class="fil13"
           cx="11079"
           cy="7750"
           rx="107"
           ry="112"
           id="ellipse196"
           style="fill:#ed3237" /><ellipse
           class="fil14"
           cx="11094"
           cy="7710"
           rx="46"
           ry="48"
           id="ellipse198"
           style="fill:#f6997e" /></g><ellipse
         class="fil7"
         cx="11256"
         cy="8403"
         rx="123"
         ry="129"
         id="ellipse200"
         style="fill:#373435" /><ellipse
         class="fil13"
         cx="11256"
         cy="8403"
         rx="107"
         ry="112"
         id="ellipse202"
         style="fill:#ed3237" /><ellipse
         class="fil14"
         cx="11271"
         cy="8363"
         rx="46"
         ry="48"
         id="ellipse204"
         style="fill:#f6997e" /><ellipse
         class="fil7"
         cx="11102"
         cy="8266"
         rx="123"
         ry="129"
         id="ellipse206"
         style="fill:#373435" /><ellipse
         class="fil13"
         cx="11102"
         cy="8266"
         rx="107"
         ry="112"
         id="ellipse208"
         style="fill:#ed3237" /><ellipse
         class="fil14"
         cx="11118"
         cy="8227"
         rx="46"
         ry="48"
         id="ellipse210"
         style="fill:#f6997e" /><ellipse
         class="fil7"
         cx="10813"
         cy="8784"
         rx="123"
         ry="129"
         id="ellipse212"
         style="fill:#373435" /><ellipse
         class="fil13"
         cx="10813"
         cy="8784"
         rx="107"
         ry="112"
         id="ellipse214"
         style="fill:#ed3237" /><ellipse
         class="fil14"
         cx="10828"
         cy="8745"
         rx="46"
         ry="48"
         id="ellipse216"
         style="fill:#f6997e" /><ellipse
         class="fil7"
         cx="11016"
         cy="8952"
         rx="123"
         ry="129"
         id="ellipse218"
         style="fill:#373435" /><ellipse
         class="fil13"
         cx="11016"
         cy="8952"
         rx="107"
         ry="112"
         id="ellipse220"
         style="fill:#ed3237" /><ellipse
         class="fil14"
         cx="11031"
         cy="8913"
         rx="46"
         ry="48"
         id="ellipse222"
         style="fill:#f6997e" /><ellipse
         class="fil7"
         cx="11011"
         cy="8754"
         rx="123"
         ry="129"
         id="ellipse224"
         style="fill:#373435" /><ellipse
         class="fil13"
         cx="11011"
         cy="8754"
         rx="107"
         ry="112"
         id="ellipse226"
         style="fill:#ed3237" /><ellipse
         class="fil14"
         cx="11027"
         cy="8715"
         rx="46"
         ry="48"
         id="ellipse228"
         style="fill:#f6997e" /></g><path
       class="fil15"
       d="m 8256.6852,1362.5419 c 24.9803,127.7841 -69.1763,347.8031 -147.9604,391.0383 -24.0196,-182.5485 -109.5292,-306.4895 -218.0975,-459.2538 l -59.5685,206.5682 c -31.7058,-101.843 -68.2155,-200.8036 -130.6664,-289.1955 l -47.0783,148.9212 c -11.5294,-140.2741 -38.4313,-262.2934 -141.2349,-358.3716 l -55.7254,239.2347 c -65.3331,-145.0781 -48.9999,-223.8622 -200.8034,-304.56792 5.7647,183.50932 30.745,366.05792 65.3332,546.68492 18.2548,99.9214 19.2156,103.7645 57.6469,188.3134 54.7646,122.0193 28.8234,55.7253 86.4704,147.9604 l 69.1763,122.9801 97.9997,83.588 75.9018,78.7845 100.8821,61.49 90.3135,126.8233 c 67.2547,75.9017 50.9214,9.6078 69.1763,122.98 l 10.5686,69.1763 -43.2352,260.372 c -4.8039,109.5291 29.7843,179.6662 116.2546,242.117 39.3921,-82.6272 76.8626,-167.1761 117.2154,-249.8033 3.8432,-6.7255 8.6471,-15.3725 16.3333,-18.2549 44.196,-14.4117 100.8821,-33.6273 145.0781,-48.9998 l 119.137,-62.4509 c 71.0978,-24.0195 121.0585,-33.6273 254.6072,-75.9017 134.5094,-43.2352 282.4699,-189.2741 385.2735,-286.3131 197.9211,-187.3524 165.2545,-192.1563 307.4503,-372.7837 88.3919,-106.6468 156.6074,-209.4505 192.1563,-347.8031 l 47.0783,-281.5092 c -32.6665,44.196 -128.7447,206.5681 -222.9013,248.8426 l -128.7448,116.2546 c 27.8626,-166.2153 31.7058,-134.5095 31.7058,-300.7248 -48.9999,65.3332 -80.7057,143.1565 -129.7056,208.4898 -99.9213,129.7055 -216.1759,244.9994 -342.0384,363.1755 l -163.3329,142.1958 c 0,-172.9408 15.3725,-229.6269 43.2352,-398.7245 22.098,-85.5096 72.0586,-226.7447 82.6272,-361.2542 l 25.9412,-286.31302 -198.8819,235.39162 -116.2546,180.627 c -8.6471,-73.0194 -27.8627,-136.431 -57.6469,-187.3524 0.9607,53.8037 -6.7255,104.7252 -25.9412,151.8035 -44.1959,-32.6666 -29.7842,-24.9804 -48.039,-73.9802 -16.3333,-66.294 -36.5098,-129.7056 -52.8431,-195.9995 -28.8234,-83.5881 -82.6272,-161.41142 -126.8232,-236.35242 -13.4509,78.7841 -45.1567,155.64672 -46.1175,237.31322 1.9216,21.1372 108.5684,210.4112 96.0782,274.7836 z"
       id="path230"
       inkscape:connector-curvature="0"
       style="fill:#fefefe;stroke-width:0.96078193" /><path
       class="fil0"
       d="m 5311.8885,6160.6873 c 300.7248,319.9404 636.0377,628.3514 937.7232,948.2918 -328.5874,894.4882 333.3913,1154.8601 24.0196,1873.525 -243.0779,498.6458 -783.0373,325.705 -1202.899,865.6642 H 3480.6381 L 4468.322,8860.4848 1770.4463,6162.6089 Z"
       id="path232"
       inkscape:connector-curvature="0"
       style="fill:#0098da;stroke-width:0.96078193" /><polygon
       transform="matrix(0.96078195,0,0,0.96078195,-2383.0141,-1640.8625)"
       class="fil0"
       points="15887,12674 15887,7331 18558,10003 "
       id="polygon234"
       style="fill:#0098da" /><path
       class="fil0"
       d="m 10592.346,6160.6873 h 2658.483 v 3687.481 h -2779.541 c -125.863,-99.921 -255.568,-213.2933 -398.725,-239.2344 -156.6075,-27.8627 -282.4699,-113.3723 -321.862,-171.98 -51.8822,-77.8233 -99.9213,-89.3527 -103.7644,-203.6858 -9.6079,-254.6072 -18.2548,-607.2141 -4.8039,-829.1548 12.4901,-187.3525 110.4899,-212.3328 120.0977,-400.646 4.8039,-86.4706 -105.686,-152.7646 -83.588,-236.3526 30.745,-121.0585 145.078,-302.6463 107.6075,-424.6656 -13.4509,-43.2352 -75.9017,-34.5882 -106.6467,-62.4508 -50.9214,-44.196 -53.8037,-150.8428 29.7842,-235.3916 z"
       id="path236"
       inkscape:connector-curvature="0"
       style="fill:#0098da;stroke-width:0.96078193" /><polygon
       transform="matrix(0.96078195,0,0,0.96078195,-2383.0141,-1640.8625)"
       class="fil0"
       points="4333,13465 4333,8384 6873,10924 "
       id="polygon238"
       style="fill:#0098da" /><path
       class="fil16"
       d="M 3062.698,12253.006 V 10244.01 h 331.4698 v 790.724 h 652.3709 V 10244.01 H 4379.93 v 2008.996 h -333.3913 v -878.155 h -652.3709 v 878.155 z m 1593.9372,-992.488 c 0,-239.235 34.5882,-436.195 105.6861,-590.881 71.0978,-154.686 163.3329,-269.98 277.6659,-345.882 114.3331,-75.901 252.6857,-113.372 415.0578,-113.372 236.3524,0 427.548,89.353 576.4692,269.98 147.9604,179.666 222.9014,436.195 222.9014,768.625 0,335.313 -78.7841,598.568 -236.3523,787.842 -137.3919,167.176 -324.7443,249.803 -561.0967,249.803 -239.2347,0 -426.5872,-82.627 -564.9398,-247.882 -156.6074,-188.313 -235.3916,-447.724 -235.3916,-778.233 z m 342.0384,-13.451 c 0,231.548 44.196,404.489 131.6271,519.783 87.4312,115.294 195.9996,173.901 326.6659,173.901 129.7056,0 238.2739,-57.647 323.7835,-171.98 86.4704,-115.293 128.7448,-291.117 128.7448,-528.43 0,-232.509 -41.3136,-404.489 -124.9017,-516.9 -83.588,-111.451 -193.1171,-167.176 -327.6266,-167.176 -135.4703,0 -245.9602,56.686 -330.509,169.097 -85.5096,112.412 -127.784,286.313 -127.784,521.705 z m 1430.6043,352.607 324.7443,-39.392 c 36.5097,257.489 156.6075,386.234 359.3325,386.234 99.9213,0 178.7054,-26.902 236.3523,-79.745 57.6469,-51.882 86.4704,-117.215 86.4704,-195.039 0,-45.156 -9.6078,-84.548 -29.7842,-116.254 -20.1765,-31.706 -50.9215,-58.608 -92.2351,-78.784 -41.3136,-21.138 -140.2742,-54.765 -297.8424,-103.765 -142.1957,-42.274 -245.9602,-89.352 -311.2934,-139.313 -66.2939,-49.961 -118.1761,-116.255 -157.5682,-197.921 -38.4313,-81.667 -57.6469,-170.059 -57.6469,-264.215 0,-109.529 24.9803,-207.529 73.9802,-295.921 49.9607,-87.431 119.137,-153.725 206.5681,-198.882 87.4312,-44.196 195.9995,-66.294 324.7443,-66.294 194.078,0 344.9207,51.882 453.4891,157.568 108.5684,104.726 166.2153,255.568 172.9407,450.607 l -333.3913,17.294 c -14.4117,-107.607 -46.1175,-182.548 -94.1566,-225.784 -48.0391,-42.274 -118.1762,-64.372 -206.5681,-64.372 -89.3528,0 -159.4898,19.216 -207.5289,56.686 -48.0391,37.471 -73.0195,83.588 -73.0195,139.314 0,54.764 22.098,100.882 66.294,138.352 44.196,37.471 145.0781,78.784 302.6463,122.98 167.1761,49 288.2346,99.922 362.2148,152.765 74.941,53.803 131.6271,122.98 171.0192,207.528 39.392,84.549 58.6077,186.392 58.6077,307.451 0,173.901 -53.8038,320.901 -160.4506,439.077 -107.6076,119.137 -275.7444,178.705 -503.4497,178.705 -404.4892,0 -629.3122,-229.626 -674.469,-688.88 z m 3103.3257,653.332 h -361.254 l -144.1173,-456.372 h -658.1356 l -135.4703,456.372 h -353.5677 l 640.8415,-2008.996 h 352.607 z m -612.0181,-794.567 -226.7445,-745.567 -222.9014,745.567 z m 791.6842,794.567 V 10244.01 h 323.7833 l 673.508,1341.252 V 10244.01 h 309.372 v 2008.996 h -334.352 l -662.939,-1310.507 v 1310.507 z m 3141.7563,0 h -361.254 l -144.117,-456.372 h -658.136 l -135.47,456.372 h -353.568 l 640.842,-2008.996 h 352.607 z m -612.018,-794.567 -226.744,-745.567 -222.902,745.567 z"
       id="path240"
       inkscape:connector-curvature="0"
       style="fill:#000000;fill-rule:nonzero;stroke-width:0.96078193" /><path
       class="fil16"
       d="m 9622.9171,13565.434 84.5487,-9.608 c 9.6078,66.294 40.3529,99.921 93.1959,99.921 25.9411,0 47.0783,-6.725 61.49,-20.176 15.3725,-13.451 23.0588,-30.745 23.0588,-50.922 0,-11.529 -2.8824,-22.098 -8.647,-30.745 -4.804,-7.686 -12.4902,-14.411 -23.0588,-20.176 -11.5294,-5.765 -36.5097,-14.412 -77.8234,-26.902 -37.4704,-11.529 -64.3723,-23.059 -80.7056,-36.51 -17.2941,-12.49 -30.7451,-29.784 -41.3137,-50.921 -9.6078,-21.137 -15.3725,-44.196 -15.3725,-69.177 0,-27.862 6.7255,-53.803 19.2157,-76.862 13.4509,-23.059 31.7058,-40.353 53.8038,-51.882 23.0587,-11.53 50.9214,-17.294 84.5488,-17.294 50.9214,0 90.3135,13.451 118.1761,41.313 27.8627,26.902 43.2352,66.294 45.1568,117.216 l -86.4704,4.804 c -3.8431,-28.824 -12.4901,-48.04 -24.9803,-59.569 -12.4902,-10.569 -30.745,-16.333 -53.8038,-16.333 -23.0588,0 -41.3136,4.804 -53.8038,14.412 -12.4901,9.607 -19.2156,22.097 -19.2156,36.509 0,14.412 5.7647,25.941 17.2941,36.51 11.5293,9.608 37.4704,20.176 78.7841,31.706 43.2352,12.49 74.941,25.941 94.1566,39.392 19.2156,14.412 34.5882,32.666 44.196,53.804 10.5686,22.098 15.3725,48.999 15.3725,80.705 0,45.157 -13.451,82.628 -41.3136,114.333 -27.8627,30.745 -72.0587,46.118 -131.6272,46.118 -104.7252,0 -163.3328,-59.569 -174.8622,-179.666 z m 420.8229,170.058 v -522.665 h 318.018 v 88.392 h -231.548 v 116.254 h 215.215 v 88.392 h -215.215 v 142.196 h 239.235 v 87.431 z m 397.763,0 v -522.665 h 129.706 l 77.823,356.45 76.862,-356.45 h 129.706 v 522.665 h -80.706 v -411.215 l -84.548,411.215 h -83.588 l -84.549,-411.215 v 411.215 z m 497.685,0 v -522.665 h 85.51 v 522.665 z m 170.058,0 v -522.665 h 83.588 l 175.824,349.724 v -349.724 h 79.744 v 522.665 h -86.47 l -172.941,-340.117 v 340.117 z m 816.665,0 h -94.157 l -37.47,-118.176 h -171.019 l -34.588,118.176 h -92.235 l 166.215,-522.665 h 92.235 z m -159.49,-206.568 -58.607,-194.078 -57.647,194.078 z m -99.921,-350.685 40.353,-106.647 h 92.235 l -80.706,106.647 z m 305.529,557.253 v -522.665 h 182.548 c 46.118,0 79.745,4.804 98.961,14.411 20.176,9.608 36.509,25.942 49.96,49 12.491,23.059 19.216,50.922 19.216,83.588 0,40.353 -10.569,73.02 -29.784,98 -19.216,24.98 -47.079,41.314 -83.588,47.078 18.255,13.451 33.627,27.863 46.117,44.196 11.53,15.373 28.824,44.196 49,84.549 l 52.843,101.843 h -103.764 l -62.451,-113.372 c -22.098,-41.314 -37.471,-67.255 -46.118,-76.863 -7.686,-10.568 -16.333,-18.255 -24.98,-22.098 -9.608,-3.843 -24.02,-5.764 -44.196,-5.764 h -17.294 v 218.097 z m 86.47,-301.685 h 64.372 c 38.432,0 63.412,-0.961 73.981,-4.804 11.529,-2.883 20.176,-10.569 26.901,-21.138 5.765,-9.607 9.608,-24.019 9.608,-41.313 0,-16.334 -3.843,-29.784 -9.608,-40.353 -6.725,-9.608 -16.333,-17.294 -27.862,-20.176 -7.686,-2.883 -30.745,-4.804 -70.137,-4.804 h -67.255 z m 342.999,301.685 v -522.665 h 85.51 v 522.665 z m 151.804,-257.49 c 0,-62.45 8.647,-113.372 26.902,-153.725 18.254,-40.352 43.235,-71.097 72.058,-90.313 29.784,-20.177 66.294,-29.784 108.569,-29.784 61.49,0 111.45,24.019 149.882,70.137 38.431,47.078 57.646,113.372 57.646,199.842 0,87.432 -20.176,155.647 -61.49,205.608 -35.549,43.235 -84.548,64.372 -146.038,64.372 -61.49,0 -110.49,-21.137 -147,-64.372 -40.353,-49 -60.529,-116.255 -60.529,-201.765 z m 88.392,-3.843 c 0,60.53 11.529,104.726 34.588,135.471 23.059,29.784 50.921,45.156 84.549,45.156 34.588,0 62.45,-15.372 84.548,-45.156 22.098,-29.785 33.628,-75.902 33.628,-137.392 0,-60.529 -10.569,-105.686 -32.667,-134.51 -22.098,-28.823 -49.961,-43.235 -85.509,-43.235 -34.589,0 -63.412,14.412 -85.51,44.196 -22.098,28.824 -33.627,73.98 -33.627,135.47 z"
       id="path242"
       inkscape:connector-curvature="0"
       style="fill:#000000;fill-rule:nonzero;stroke-width:0.96078193" /><path
       class="fil16"
       d="m 3424.9128,13075.435 c 57.6469,0 112.4115,14.412 165.2545,43.235 52.843,28.823 94.1566,70.137 123.9408,123.941 30.7451,52.843 45.1568,109.529 45.1568,168.137 0,57.647 -14.4117,113.372 -44.196,166.215 -29.7842,52.843 -70.1371,94.157 -123.9408,123.941 -51.8823,28.823 -107.6076,44.196 -166.2153,44.196 -58.6077,0 -113.3723,-15.373 -166.2153,-44.196 -52.843,-29.784 -94.1566,-71.098 -123.9409,-123.941 -29.7842,-52.843 -44.1959,-108.568 -44.1959,-166.215 0,-58.608 15.3725,-115.294 45.1567,-168.137 29.7843,-53.804 71.0979,-95.118 123.9409,-123.941 52.843,-28.823 107.6076,-43.235 165.2545,-43.235 z m 0,66.294 c -46.1175,0 -90.3135,11.529 -132.5879,34.588 -42.2744,23.059 -75.9018,55.725 -99.9213,98.96 -24.0196,43.236 -36.5098,88.392 -36.5098,135.471 0,46.117 12.4902,91.274 36.5098,133.548 23.0587,42.275 56.6861,74.941 98.9605,98.961 42.2744,24.02 87.4312,35.549 133.5487,35.549 47.0783,0 91.2743,-11.529 133.5487,-35.549 42.2744,-24.02 75.9017,-56.686 99.9213,-98.961 23.0588,-42.274 35.5489,-87.431 35.5489,-133.548 0,-47.079 -12.4901,-92.235 -36.5097,-135.471 -24.0195,-43.235 -57.6469,-75.901 -99.9213,-98.96 -42.2744,-23.059 -86.4704,-34.588 -132.5879,-34.588 z m 81.6664,318.019 70.1371,24.019 c -11.5294,36.51 -29.7842,64.373 -54.7645,84.549 -25.9412,19.216 -56.6862,28.823 -92.2351,28.823 -49.9607,0 -90.3135,-16.333 -122.0193,-48.999 -30.745,-32.667 -47.0783,-76.863 -47.0783,-134.51 0,-37.47 6.7254,-71.098 21.1372,-100.882 14.4117,-28.823 34.5881,-50.921 60.5292,-65.333 25.9411,-15.373 55.7254,-22.098 88.392,-22.098 35.5489,0 65.3331,8.647 89.3527,25.941 24.0195,16.333 43.2352,43.235 56.6861,79.745 l -71.0978,17.294 c -7.6863,-21.137 -18.2549,-37.471 -31.7058,-47.078 -12.4902,-9.608 -27.8627,-14.412 -46.1176,-14.412 -25.9411,0 -48.0391,10.568 -64.3724,30.745 -17.294,19.216 -25.9411,50.921 -25.9411,93.196 0,42.274 8.6471,73.98 24.9804,94.156 16.3333,20.177 36.5097,29.785 59.5684,29.785 20.1765,0 36.5098,-5.765 50.9215,-17.294 14.4117,-11.53 24.9803,-30.745 33.6273,-57.647 z"
       id="path244"
       inkscape:connector-curvature="0"
       style="fill:#000000;fill-rule:nonzero;stroke-width:0.96078193" /><path
       class="fil3"
       d="m 6419.6701,14431.098 c 15.3725,2.883 27.8627,6.726 37.4705,8.647 44.196,12.49 75.9018,27.863 97.039,46.118 24.9803,21.137 42.2744,51.882 50.9214,93.196 7.6863,34.588 7.6863,66.294 -0.9608,94.156 -24.0195,85.51 -92.235,164.294 -204.6465,235.392 -88.392,55.725 -181.5878,99.921 -278.6268,131.627 -122.9801,39.392 -222.9014,48.039 -302.6463,24.98 -35.5489,-9.608 -61.49,-27.862 -76.8625,-55.725 -16.3333,-26.902 -20.1765,-58.608 -9.6079,-94.157 5.7647,-21.137 15.3725,-42.274 26.9019,-61.49 l -169.0976,104.725 c -12.4902,8.647 -24.0195,10.569 -32.6666,8.647 -16.3333,-4.803 -22.098,-14.411 -18.2548,-28.823 0.9607,-5.765 5.7647,-11.529 12.4901,-20.176 19.2157,-22.098 130.6664,-95.118 333.3914,-220.019 l 375.6657,-230.588 c -73.9802,-7.686 -138.3526,-8.647 -191.1956,-3.843 -52.843,4.804 -86.4704,5.764 -98.9605,1.921 -17.2941,-4.804 -24.0196,-12.49 -21.1372,-24.019 2.8823,-9.608 43.2351,-18.255 120.0977,-24.981 77.8233,-7.686 170.0584,-5.764 277.666,4.804 l 40.3528,-21.137 c 20.1764,-9.608 33.6274,-14.412 38.4313,-12.49 10.5686,2.882 13.4509,10.569 9.6078,24.02 -0.9608,3.843 -6.7255,10.568 -15.3725,19.215 z m -57.6469,48.039 -481.3518,296.882 c -39.392,24.98 -65.3331,43.235 -77.8233,53.804 -21.1372,21.137 -36.5097,48.039 -46.1175,81.666 -13.451,49.961 6.7254,83.588 60.5292,98.961 63.4116,17.294 153.7251,7.686 269.9798,-28.824 112.4114,-35.549 215.2151,-85.509 307.4502,-148.921 100.8821,-69.176 160.4506,-135.47 178.7054,-199.843 18.2549,-65.333 -13.4509,-109.529 -94.1566,-132.588 -36.5097,-9.607 -74.941,-17.294 -117.2154,-21.137 z m 28.8234,604.332 c -20.1764,0 -59.5684,10.569 -118.1761,29.784 -51.8823,17.294 -90.3135,23.059 -114.3331,18.255 -3.8431,-0.961 -5.7647,-3.843 -4.8039,-8.647 0.9608,-6.725 6.7255,-10.568 17.2941,-9.608 24.0195,0.961 59.5685,-6.725 107.6076,-22.098 51.8822,-17.294 93.1958,-25.941 123.9408,-26.902 25.9411,-38.431 71.0979,-75.901 136.4311,-110.489 68.2155,-37.471 122.9801,-52.843 164.2937,-44.196 30.745,6.725 43.2352,23.058 37.4705,48.999 -6.7255,33.628 -47.0783,63.412 -119.137,90.314 -53.8038,20.176 -106.6468,32.667 -159.4898,39.392 -8.647,11.529 -13.4509,23.059 -16.3333,36.51 -3.8431,20.176 0,34.588 12.4902,43.235 6.7255,3.843 19.2156,8.647 37.4705,13.451 14.4117,2.882 20.1764,7.686 19.2156,14.412 -1.9215,9.607 -26.9019,8.647 -73.9802,-0.961 -48.9999,-10.569 -69.1763,-36.51 -60.5293,-79.745 1.9216,-9.608 5.7647,-20.177 10.5686,-31.706 z m 82.6273,-16.333 c 38.4313,-9.608 79.7449,-25.941 124.9017,-47.078 59.5684,-26.902 92.235,-51.883 97.0389,-74.941 1.9216,-9.608 -0.9608,-14.412 -9.6078,-16.334 -24.9803,-4.804 -63.4116,10.569 -115.2938,48.039 -47.0783,32.667 -79.7449,63.412 -97.039,90.314 z m 230.5877,72.058 c -90.3135,52.843 -156.6075,76.863 -197.9211,70.138 -4.8039,-0.961 -6.7255,-2.883 -5.7647,-7.687 0.9608,-6.725 5.7647,-10.568 13.4509,-11.529 15.3725,-1.922 38.4313,-5.765 69.1763,-13.451 29.7843,-10.569 109.5292,-53.804 236.3524,-130.666 121.0585,-73.02 183.5093,-109.53 186.3917,-108.569 8.647,0.961 16.3333,6.726 24.0195,15.373 7.6863,9.608 10.5686,18.255 9.6079,26.902 -4.8039,27.862 -34.5882,73.98 -89.3528,138.352 -47.0783,54.765 -87.4311,96.078 -121.0585,122.02 17.2941,1.921 24.9803,6.725 24.0196,12.49 -0.9608,7.686 -10.5686,10.568 -25.9411,7.686 -4.804,0 -10.5686,-1.922 -18.2549,-4.804 -8.647,-2.882 -14.4117,-4.804 -19.2156,-4.804 -2.8824,-0.961 -7.6863,-0.961 -13.451,-0.961 -6.7255,0 -11.5294,0 -14.4117,0 -48.9999,-7.686 -68.2155,-44.196 -57.6469,-110.49 z m 83.588,64.373 c 30.745,-18.255 66.2939,-52.843 106.6468,-101.843 37.4705,-46.118 65.3332,-87.431 83.588,-124.902 l -232.5092,136.431 c 14.4117,3.843 24.0195,17.294 30.745,38.432 z m -19.2156,15.372 -9.6079,-49 c -4.8039,-23.058 -11.5293,-35.548 -19.2156,-36.509 -8.647,-1.922 -13.451,3.843 -16.3333,17.294 -1.9216,13.451 0,26.902 5.7647,42.274 6.7255,17.294 15.3725,26.902 27.8627,28.824 3.8431,0 7.6862,-0.961 11.5294,-2.883 z m 323.7835,-59.568 -118.1762,73.019 c -57.6469,30.745 -101.8429,45.157 -131.6271,42.275 -4.8039,0 -6.7255,-2.883 -5.7647,-7.687 0,-6.725 4.8039,-10.568 12.4901,-12.49 30.7451,-3.843 58.6077,-12.49 84.5488,-24.98 39.3921,-17.294 95.1175,-51.882 167.1761,-103.764 72.0587,-50.922 127.784,-85.51 165.2545,-103.765 27.8627,-12.49 50.9214,-17.294 72.0586,-15.372 34.5882,3.843 50.9215,19.215 48.9999,48.039 66.294,-67.255 139.3134,-138.353 221.9407,-214.255 125.8624,-117.215 199.8426,-174.862 221.9406,-172.94 12.4902,1.921 17.2941,9.607 16.3333,23.058 -0.9608,11.53 -19.2157,32.667 -53.8038,62.451 -64.3724,54.765 -161.4114,144.117 -291.1169,268.058 -158.5291,152.765 -239.2347,240.196 -241.1563,261.333 -0.9608,9.608 4.8039,14.412 17.2941,16.333 12.4901,1.922 18.2548,5.765 18.2548,11.53 -0.9608,7.686 -10.5686,10.568 -28.8234,8.647 -30.7451,-2.883 -45.1568,-17.294 -42.2744,-42.275 1.9215,-20.176 17.294,-49.96 48.0391,-90.313 -84.5489,73.98 -143.1566,109.529 -174.8624,105.686 -30.745,-2.883 -43.2351,-20.177 -40.3528,-51.882 1.9216,-17.295 13.4509,-45.157 33.6274,-80.706 z m 25.9411,104.725 c 22.098,1.922 69.1763,-26.902 141.2349,-86.47 72.0587,-59.569 108.5684,-99.922 111.4507,-122.02 0.9608,-11.529 -3.8431,-17.294 -14.4117,-18.254 -26.9019,-2.883 -74.941,24.98 -142.1957,82.627 -68.2155,58.608 -103.7645,101.843 -106.6468,130.666 -0.9608,7.686 2.8823,12.49 10.5686,13.451 z m 391.999,-24.019 c -19.2156,3.843 -57.6469,19.215 -112.4115,47.078 -48.9999,24.019 -86.4703,34.588 -110.4899,33.627 -4.8039,0 -6.7255,-2.882 -6.7255,-8.647 0,-6.725 5.7647,-10.568 16.3333,-11.529 23.0588,-1.922 57.6469,-14.412 102.8037,-36.51 48.9999,-24.98 88.3919,-39.392 119.137,-44.196 20.1764,-42.274 60.5292,-84.549 119.1369,-127.784 63.4116,-47.078 115.2938,-69.176 157.5683,-67.255 30.745,2.883 45.1567,16.334 44.1959,43.236 -2.8823,34.588 -37.4705,70.137 -106.6468,106.646 -49.9606,26.902 -100.8821,47.079 -151.8035,60.53 -6.7255,12.49 -10.5686,24.98 -11.5294,38.431 -0.9608,21.137 4.8039,34.588 19.2156,41.314 6.7255,2.882 19.2157,5.764 39.3921,7.686 13.4509,1.921 20.1764,5.765 20.1764,11.529 -0.9608,9.608 -24.9803,13.451 -73.0194,9.608 -49.9607,-2.882 -73.9802,-26.902 -71.0979,-70.137 0,-10.569 2.8824,-21.137 5.7647,-33.627 z m 78.7841,-26.902 c 37.4705,-15.373 76.8626,-36.51 118.1762,-63.412 55.7254,-36.51 83.588,-65.333 85.5096,-88.392 0,-9.608 -3.8431,-14.412 -11.5294,-15.372 -25.9411,-0.961 -61.49,20.176 -108.5683,63.411 -41.3137,40.353 -69.1763,73.98 -83.5881,103.765 z m 1060.7033,-449.646 c -122.0193,73.019 -195.0387,110.49 -218.0975,111.45 -8.647,0 -13.4509,-4.803 -14.4117,-15.372 0,-5.765 8.647,-11.529 26.9019,-17.294 21.1372,-7.686 53.8038,-23.059 98.9605,-49 l 115.2938,-73.98 c 63.4116,-40.353 96.0782,-61.49 98.9606,-61.49 20.1764,-0.961 29.7842,5.764 30.745,19.215 0,14.412 -16.3333,39.392 -50.9214,74.941 -123.9409,129.706 -283.4307,323.784 -478.4694,581.273 -6.7255,9.608 -12.4902,13.451 -17.2941,13.451 -5.7647,0.961 -12.4902,-2.882 -18.2549,-10.568 -5.7647,-7.686 -9.6078,-14.412 -9.6078,-21.137 -0.9608,-21.138 69.1763,-116.255 209.4505,-285.353 z m 459.2538,168.137 c -62.4509,50.921 -119.137,78.784 -172.9408,84.548 -27.8627,2.883 -50.9214,-3.843 -70.1371,-20.176 -18.2548,-16.333 -28.8234,-39.392 -32.6665,-67.255 -6.7255,-67.255 31.7058,-143.156 117.2154,-227.705 81.6664,-81.667 156.6074,-125.863 225.7837,-133.549 26.9019,-2.882 50.9215,3.843 72.0587,20.177 20.1764,16.333 32.6665,37.47 35.5489,64.372 8.647,74.941 -30.745,176.784 -116.2546,305.529 -74.941,110.49 -148.9212,195.999 -222.9014,253.646 -73.9802,58.608 -122.0193,89.353 -145.0781,91.274 -10.5686,0.961 -15.3725,-2.882 -17.2941,-13.451 0,-5.764 12.4902,-17.294 38.4313,-33.627 39.392,-24.019 85.5096,-64.372 137.3918,-121.058 46.1175,-49.961 84.5488,-98 116.2546,-144.118 11.5294,-16.333 23.0588,-36.509 34.5882,-58.607 z m -226.7446,18.254 c 2.8824,27.863 19.2157,39.392 48.0391,36.51 51.8823,-5.765 104.7253,-30.745 158.5291,-73.98 50.9214,-41.314 88.3919,-86.47 112.4114,-136.431 29.7843,-60.529 42.2744,-107.608 39.3921,-140.274 -2.8823,-23.059 -16.3333,-33.628 -40.3528,-30.745 -41.3137,3.843 -106.6468,47.078 -195.0388,127.784 -89.3527,81.666 -130.6663,153.725 -122.9801,217.136 z m 649.4886,-156.607 c 34.5882,49.961 56.6862,96.078 65.3332,140.274 13.4509,64.373 -0.9608,125.863 -41.3136,183.509 -40.3529,57.647 -94.1567,93.196 -159.4898,106.647 -35.549,6.726 -68.2155,-0.961 -97.039,-24.019 -26.9019,-21.137 -45.1568,-49.961 -51.8822,-86.471 -22.098,-111.45 51.8822,-228.666 222.9014,-349.724 -5.7647,-12.49 -9.6078,-24.02 -12.4902,-36.51 -11.5294,-61.49 6.7255,-117.215 57.6469,-167.176 44.196,-45.157 98.9606,-73.98 163.3329,-86.47 25.9411,-4.804 49.9606,-5.765 71.0978,-1.922 29.7843,5.765 46.1176,19.216 50.9215,40.353 0.9608,7.686 -1.9216,19.215 -8.6471,34.588 4.804,-2.882 9.6079,-4.804 12.4902,-5.765 7.6863,-1.921 11.5294,1.922 13.451,9.608 0.9607,7.686 0,17.294 -3.8432,29.784 -4.8039,11.53 -15.3725,23.059 -30.745,33.628 -97.9998,65.333 -181.5877,125.862 -251.7248,179.666 z m 234.4307,-234.431 c -10.5686,-32.666 -47.0783,-42.274 -109.5291,-29.784 -48.9998,9.608 -89.3526,29.784 -121.0584,61.49 -37.4705,36.51 -50.9215,77.823 -41.3137,123.941 0.9608,8.647 3.8432,17.294 8.6471,25.941 96.0782,-70.137 184.47,-130.666 263.2541,-181.588 z m -271.9012,261.333 c -154.6859,124.902 -223.8622,229.627 -207.5289,312.254 3.8432,19.216 13.451,32.667 29.7843,41.314 16.3333,8.647 33.6273,10.568 52.843,6.725 52.843,-10.569 97.039,-41.314 132.5879,-93.196 35.5489,-50.921 48.0391,-102.803 37.4705,-155.646 -7.6863,-38.432 -23.0588,-75.902 -45.1568,-111.451 z m 555.3317,-170.059 c 38.432,46.118 63.412,91.275 75.902,134.51 17.294,63.412 7.686,125.862 -28.823,186.392 -36.51,60.529 -87.432,99.921 -151.804,117.215 -35.549,9.608 -68.2155,3.843 -98.9606,-17.294 -28.8234,-19.216 -48.0391,-47.078 -57.6469,-82.627 -29.7842,-109.529 36.5097,-231.549 197.9211,-365.097 -6.7255,-11.53 -11.5294,-23.059 -14.4117,-34.589 -16.3333,-60.529 -1.9216,-118.176 45.1571,-171.019 41.313,-48.039 94.156,-80.705 157.568,-98 24.98,-6.725 49,-8.647 71.098,-5.764 29.784,2.882 47.078,15.372 52.843,36.509 1.921,6.726 0,18.255 -5.765,34.589 3.843,-3.843 8.647,-5.765 12.49,-6.726 6.726,-1.921 10.569,0.961 12.491,8.647 2.882,7.686 1.921,17.294 -0.961,29.784 -3.843,11.53 -13.451,24.02 -28.824,35.549 -92.235,73.02 -171.98,138.353 -238.274,197.921 z m 218.098,-250.764 c -12.49,-31.705 -49.961,-39.392 -111.451,-22.098 -48.039,12.491 -87.431,36.51 -117.215,70.137 -34.588,38.432 -45.1572,80.706 -32.667,126.824 2.882,7.686 5.765,16.333 10.569,24.019 91.274,-76.862 174.862,-143.156 250.764,-198.882 z m -252.686,279.588 c -146.0388,135.47 -207.5288,244.039 -185.4309,325.705 4.8039,19.216 15.3725,32.667 32.6666,39.392 16.3333,7.686 33.6274,8.647 52.843,2.882 51.8823,-13.451 94.1563,-48.039 125.8623,-101.842 31.706,-53.804 40.353,-106.647 25.941,-158.53 -9.607,-37.47 -27.862,-73.98 -51.882,-107.607 z"
       id="path246"
       inkscape:connector-curvature="0"
       style="fill:#0098da;fill-rule:nonzero;stroke-width:0.96078193" /><polygon
       transform="matrix(0.96078195,0,0,0.96078195,-2383.0141,-1640.8625)"
       class="fil0"
       points="15863,14919 15863,15168 5636,15168 5636,14919 "
       id="polygon248"
       style="fill:#0098da" /><polygon
       transform="matrix(0.96078195,0,0,0.96078195,-2383.0141,-1640.8625)"
       class="fil0"
       points="15864,14668 15864,14793 5635,14793 5635,14668 "
       id="polygon250"
       style="fill:#0098da" /></g></svg>